<mxfile host="drawio-plugin" modified="2024-01-27T09:01:21.406Z" agent="5.0 (Windows NT 6.2; Win64; x64) AppleWebKit/537.36 (KHTML, like Gecko) Chrome/104.0.5112.102 Safari/537.36" version="20.5.3" etag="9HpLDyEs8PBTwklbBUkd" type="embed"><diagram id="1VPo4cIFWHyHeRAt8HUR" name="Page-1"><mxGraphModel dx="640" dy="563" grid="0" gridSize="10" guides="1" tooltips="1" connect="1" arrows="1" fold="1" page="0" pageScale="1" pageWidth="850" pageHeight="1100" math="0" shadow="0"><root><mxCell id="0"/><mxCell id="1" parent="0"/><mxCell id="2" value="" style="shape=image;verticalLabelPosition=bottom;labelBackgroundColor=default;verticalAlign=top;aspect=fixed;imageAspect=0;image=data:image/png,iVBORw0KGgoAAAANSUhEUgAAAggAAAGdCAYAAAB3v4sOAAAAAXNSR0IArs4c6QAAIABJREFUeF7sXQd8FcXW/9+bm94LIaRA6E1AQKqAYEN9YhexImIXe0V9yrOX5/Pps3cR2/v0iQ1FxIIgvfcSEpIQSnq5uUlu2e93Npmwudmd2bubm6Dufl8e/jLZmZ2ZM+f851Sb0+mU0PR4PB54vV6Eh4ezXzX/K0kS6Mdms8k//g+10aPWRr8XtTc0NMjvhoaGBty3z+fjfhfvu2kwGttut8PhcLQam/qmh9rVHjNj03fV1dUhLCwMISEhAc1bz37Q3/C+2+12y2Or7ZloXmb2mvqmNaex/b+vLebF2y+aM9F4REREu9M4jU3zo3kHen5E+6GHxrXOlxkap3mIvo1onM612vkS8QVR3zwapzaiMxq7remM0SnvfNXX18u8VO1v9MyLx2t58+5IPv5XpXHaa6KzQPm4nvPTkTRuk9gJBUCTJOKKiopqJTSIoNmH+gsU+r2SyWi10+/VDgsTlNSuxrj1jK3VN3tXq502yOVyyd/lD4z0zosJJP95i8am/mtqauQ5+wMj5dhqRCfqm7dm9L0kJIlxq+01G9vomlLfWmtCvycaI1qjefvPjTcvs/tBY9O4xMRiYmJUwaAWjbODLDoDPBqnsekxSuNG6awjaZz20+l0ymfLHxiZpTO9NK5GZ2bGFtEhO1+1tbXy+fKn8WCPTaCIaDw6OtowjWsJOgZstIAR0Tj9Da25Fj+kdwOVISJ+x2hcTYaI9sssr6X3GY2rXXB5ANwMLTCexC6Z/gDcTN/N71oAwQIIgQI60WG1AEJrbRMdOAsgtNScmGFgIsCmBMEWQDiCE0SgirVbAKH1mvHAvwUQLA1Cm6NeS4NgaRAYG9KjJbM0CC0vxCJhx7RkFkCwAIIeDTetkhFtraVBaLIzitSrWgxMdFOwTAyWicFfUKqh9UBUhWpqTMvE0P5mNMvEYJkY2hMEWyaGI2BQJHf1mHN1+SAoGbMRxs0+RAuhiQACT2UtEhrKRdBy+mE+CP4Oe3r7VgNGojVjKlLyQYiMjOT6IPgLO+qb/Yj2Q0stxm5XNLa/PVG0Zrx20ZoxHwSym9HYWj4IRtZUz9haPgiBrKka+NBD4zQ2jaNmn20LGuf5fZA9nNY6UD8b5bzU6JDdzHj+KiIfBJFmRItvsDUT0ThPgyAam/EMpRlOD53Rt9GaE43724b1MGb6LtHZ1gLBWj4IbUnjWn4ENLaWD0KwaZz4uFmAECivZXyc9prkh5afjUg7YZTGaa1FPgh6aFzNiVf2N/F6vc1RDMTAaBOJqP0PhF6BxHNAMerA1RaEJXJSJObJ21yRUOC185gnERYxbZ6TYqB962VgzFFQkzg0nEr1MjgtBsZT/ertu62Zp9KmbaRvvQCBxgmmk6IIBAcKEHi0JBI4SubZ1jTOfAy0BClrZ5EEPEdBtTXTS4c8GieBxQPBIjoTtfMAAnM2b2mUaYw4oX3jgSqRJpjX/mcDCCK+wNppr0l+GHU2FwEIngxhERQ8J0WjNG7zeDzNAIE2lwjLHyCIFkkkkESqDubARZNQC7HUY5/lLSDvQNDcCIHRYQsUIIjmLTqM9D5DnkYJSzRvHgMjwlLba9F+ieYlclKkdi1wYoYxi/aD9pq8u+mHvMu1mCdvzUTMkwdEmZOiURo3chNgc+woGqf9FDFPEQ2L2rX2i8bWCjU0Q+N66Kwj/R/M0HhbOCnS+hCNKy+ZShkSrCgGonE1GSLaL2W7UR8EonHi4e0dxcC072qh8m1B4zafz9dCgyAKczSCakUfyiapFmqol7BETCQYGgTRvESClNlnRWGOgWoQRGumvF3R2O2tQTAa5qi8NRphMvS+nhAwES0FQ0umFwQHehNQAgSzzNMoHfK0ZEwLYYQxi5wUmfq1I2icAIKWBsEM3xAJu46kcRr7aAxzFPFD0ZqK+Di9rxXFIAIfZmiB5kXvMwBuhTly4mdFTF0EEKw8CEfu02aJVqRBMAoQRAdZ1M4YmJUHofVeizQjRrUXlpOi5aTIqE0PCDZKZ/ReW/ggGAGqPIDAwAmbl7/W0iyv1eODYEQ2Nn+XlQfByoPgrwo0S7QWQLDyICiFgshJ0QgDE90KmbaJ1M5WmOMRsaRH60Ln38qD0HrNeD50Vh4EKw+ClQeh6cyIVG4WQLAAggUQGqMYrEyK+sCJSPsn4jmWBiGsVbSMmYuepUFQ6HqsVMsta2uYISyRnwC1WyaG1nUg2kP92hFmNMvEYJkYLBODdj0fs7w26CYGpZMii2Iw4uGth8Hx/AC0PFCVqkQjai+9yFMtzJEJO55qSY4VFYQDanlZE3HwajEE04GLRRKYiWLgefszZzp/84VS9auWg0HvgdFyFOStmV4HLp5XPPVvxEmRxiYap0crzDFYdkp2u+I5AZsdm0fjwVa/8vaLmRja0hFXyRe0wkrbwklRRONa8+ZFMbDzJaJxI7yW1oU5KdLZ9n+IV9LDWzMtviHiC3ponGc6McNr6V2taDQmv4J5vrQK/onWTNQuyzb/MEeWB0Ftc7WYo8geKPoQRlj0Ly8EzAjR6gEIWiFg7QEQmIe3ViVJo/ZAPbZGFmpo1AdBBBD8mTKjKV6Yo4hWREBUBBDaIgTMKEAQhTkaZSKiNWPgRC2UVw8Do/61vk1EZ4x50rkOtFqqaF6isYMV5qgHILDwzrYGwaILE7UTjbNwdX8+HmyAoMyDoAUQeHzB6GWM0bgoVF5LhpgFCMEOc+QB8HYFCKIEGzzkaYbBEfM0srl6GBzvls8Iiwgn0GRFehkYj+i1AIKobzMHnTE4OsxqWf3aamxRDga18DMRoBMBBHZLUWMEjHkazYPA+lZjcKI10wuCjYAuPWObzYMgYtw8BibK9SHq26iGri0AguimzWsnoWHGQVKkQQgWjWtdSkS8ltE4vR9oHgQR6NJL42ZCeUV0yKNxrVBD0ZqJ5iUCwfS+UYAg6luWm/5RDKxMqFaSCyN5EERMn02S+jaaZU7ERI7GMEc99lkGugLZD5FGhx1Glu64LdWvjOC1vpt+fzT4IFAp3LZcU9FBp3aWallN/cpLGyxaU9H5ojXvKD+bo4HGzQhpI/yOnS8tJ0W2X0bOtogWqE8C/vTDK2ku4pdGtWTEU2h+aqbL9qBxNRkiWjNRu+h8UbueVMtG1lTP2FqpltuCznTVYhAJHNEC62GezAfhrwQQaF14Pgi827AewqH+eTdSWnPyNzFqYtBiMlYUgxXFwNTLegCCSFiJ2kU0frQBBBE/5J1tEa9lAIFd9NTU/Dy+wMY2Ys5lGgTqQ00zqVf7p7afIn7HQLBZgGDlQWikmGYatfIgdNztygIIVrlnpSDVYtwioaCXeao5KYr6FrWLxrYAghXF0J40bgGEI5CwLYCopUHoQPWrBRAsgNCezNMCCG3LPHlmNFbN0cqDcGTNLQ2CumaR5yOnB4CLqjmKNHA8M9qfBiAQGRpRD5mxz5qx8TA1TkebGMx4WZsxMYjKPRux/Ypuu0wFaiTVsqhvEVoX+SC0B/O0AMLRDxCITtiPkTNgmRha+7HpPbtGZQjzQVCrWMr8UUQOkEaEODP9BxUgKMs9t0UeBC3PWp4HOE1UlAeBoXV/m5rZDWBja4WA0U3A6OYywhTFiJO9zmgIGK9vWnOefVYUxWDGg5u3X/RdrJCNloOkmbFp3bXosCNpnDkptnUeBBE4EdE472wyYaW1n0czjdO8zFRzpDnT2ff30VHyHF67yAk4WDRuNg+CUV7LwAnzQfDn1SIZYIbX6pEhWnxBL43z5IDZMEejfJy+3WgUg+jsypqNQMs98zwxtVRuIgbGbldqISoMJYnss0YRGI95BoI8jTjWUP+iEDAzqJbnjNQWiZKMahCscs/hrXBusDUIZsMczdChVe45pMV+i/ihWSfFtsj1YcZJkeYXaJijiNeKVO08gCDqW9luRAtN75sFCEbllxmAoIfObHo0CEq1lwggGCEsBhBok9VuVyKv+LZAnmoaBBFhKU0MRgiLp5oyw0REoIrdgFiipLYMc9Q7ttbtSsQIeLQg2i8z6lcRExHtF7WT9oL+NROpo3ZjVY6tdaM1G+ZohoGJQLDRvkW0YlaDwAPYPEDHzpdWuWc9jFl02dICbPR7MwCBnS8eH+eNHaxyz6Lz1RYAwQwdikCwGYAtokNac8rhwyv3rMYXROdHlqtWFIMVxWCFOTZe8ERMX88tn6eGZJkUjQIELaEhOuj0nlmAYHRsK4rBimJg6hM958conTEat6IYjiirRKBKD1C1AEIHMk/awI52UrTyIBw5UBZAsLd5xVILIFgAwQIIf+BiTZYGoeNuVxZAsMIc25N5WlEMbXu70rrtMhODVe65ZZVYS4NghTkaqnTHHC3U1EMi1a8ZNQpjFx2lfrUAggUQLIAgroYqsg1bmRSPAB8zfjZKXmvEl4zeD5YPgl4zmmViaFsQbJkYLBODlWq56UxZJgbLxOAP2IzmIrASJUVo1joRObobiQizfBDCuE6K/o7oSjDITZTk8/kaa7k2oT9WzVHpuBZIFIORghRtokGgugM2GyWRbgGnWyBPaqcfv4c0CCF2O8LCwlq0N2snAFkz4v+u5PPBJ0mgHlu1S5LcJnugUiw1ve/30Ps1Tqfs1a5WSZLaaTb0bS3GVvQtjx3SMoyK1kCeN7VpjC2HGtbVNRZV8fu25nnZbI1r6rdmPq9X7lsmLP92SYKX4mep3d5a4MjqV49Hjt2VkzT5fbvq2PR9dntzfnAt1a6eKAa64RCNU7Em/yeYKlBRpE4wx2bMsyNNDFo0LsdaEx2pnA/RrVHUzsJpKeTO/0ZsRvOoh854AEGPcxjtmVFwQtEyRmsxHK1RDMqIMS2NEfHxjtAg0LeJohiCReM0dlATJTmdzmaJSkRFBOIfw8oAAiNaNa93+hs97WqMgN6lsemRhbTfQ4vA7dvjgb2mBrbaWthcLnJHPwIUSEg39aeW8ISaaGxqU0tWpJxXqw9rKmrBvq01AuCPzYQGgQMtlZ6obxnuqIAeAglMiKt9N60pCUoaW21d6NuM9i1aMxqb1jyMxvYHJ4yOGlEAEB4OKTERUkwMJJtNBgl66Ewr3I/RuH8kQXvSuNqaC2nc5LwJGNHZUwWiBvtmeyHTikZCIRZqqBWGxfrQ4gu8vtme8cam/aax1UJ59dASOxtqFyYtOqTfs3kTP1MDJ1rzNkuHNDada/pRi5bhrZnZsel9GpfmTvP25yvBpnECRmoyJJB5qdEJ9SmicRqb5IdaqKEZGuetGaMzonEal0dnWuHRWvNqppO6urpmgECTJICgVo5W7+YaPeg0Nk1CF0AghlZRAWzbBqxfDyknpxEc1NdTrVPYmgCFmmDUEpYkZOXbcDs+7CaihYiD+SnNBEC3/GAOpNK3iLErX5FCQwECBwkJQHo6pMGDIQ0ZAlt8vKpphHcYGRgkJqZG43qZJ4/GG3GNujMSHWQaQ415itZEz/nTEpT0TQQQ1M6XGebJGBRPUFL/WklklGMb4Rt6mCfxFTUArnfePPAhAgh0syMhzQMnWpoTPSBY7V0ejeuds56xtQSOUYAgoiURrdD7vGRgesAg7+yKAALvFh/ssc3SuNa8Ze3eHy6KgWazaxewaBGwahWwbx8k0hrExMAWFQVERjbePJmw16FB0Ey0JHiXbTw7UP6yUE87HShCfloMUu67cYCW3YvmxTQIau82IWKaN43dSoOg413D3yUYu8WaNUq2RjBYUyOvgdS1K6QTT4Rt0iTYevUilVPzujDAxQheTTNCgtJILQbGwGgMo2Y0Kw9CS+0g2y+z6lfLSbElazBjYmCqfMtJ8ciaikxZRMdOp1PWvPtr6JTAR4vHmzWzBdXE8IcDCHv3AvPmAT//DHTpAumYYyBlZwPJybDHxwOxsVS1qYXQkIUOR0NAC0wHopX6lYSZyLzRpJ5VvQlQG0f9Sn3XulwyYQWqmiL/Bl7fotsVgQNeLQYZMTf5EbQCPk3+DUZvV9xUy8p50cAE/g4eBAoLgd27gQ0bIDmdsE2eDFxyCUAgoenGbgEEdVt+4zK6ZGBDtKZ8RGsmahcxT2pnzNNfO2gBhMB9L0T7QXtrAYQIwzRuJCOuBRAEWeZERCtiBNTOijUJs8y99hrw2WfAoEHAlVdC6t0bviZHPNnhzU+9q9dJUWaeGk6KWjdS5lCn1S5inrKTYk0NIiIjVW3DTMgHTLQ6HCRJSNOaRxlxUiSA0AR81ICRKDU2aU3IQZLm7T+3VmtGgIFAGv3U1MC3ZQtsn3wCW14ecM45wIUXyuCQHhEdNiokLA2CBRCO0IoR7YUeOrOiGKwoBnbOGB+3NAhN9lc1J0aeGkUXQKDKhORMePfdwP79wPXXA+PHQ4qMlJ1ijBx0toEddbuieVuZFFtGYHA9vClqpK5O9juxv/56o+nlhhuAMWMsgMABbJYGoXW+DdGlRW+kAc+8YSVKshIl/elMDCw8Rs0DVevWKELUwpu0Hg0CRSoUFsJ2zz1Ap07AvfcCWVmQ7HYZINAT8E27CSF0FEBg6ldeCJhR7QRbc5F9Vg41VIkkMAq6RLRA8yENAgtzFGoQFNfd5r6JFl5+GbYFC4DLLpM1SW2pQTASXiYSONTOyj1rOQEH63wd7QDB6NnVS+N0vrTCHI2cLz00frRrEEQXKiN+NrSWdK5pX+TwaT+/KTOF1kQyhNG42TBHtXmLxqZ2AoNqPghKWjHi16Fn7KD6ICirObIYcf/8/DRJ9mOEeYomyZgnbXILE4PX26hWprh7ClUqKoL9/vsbfQ9Ik5CSAqm+Hj4ScNHRsDscmsk5mL1czXFNzoPQ5IPgH86kVA9pgSY1JqMkDN5h1ENYgRKtXgamVc2R7VewmKdsYqivl/daCyBw19Trhf3rr2F/5x1Ip5wC3HprowNjU/4Hre9W2meDReNawk5J42qlcBnzNHu+tPxCjIJgHi2I+AK7PbFqjlo+CEbojN7hrRkbm5inWh6EQGjcf0310Bl9m6iaoxG+oWdsLR8EEU8S9S1aM3qfxqa/o7OtBRDM0DjvbOvJgxDo2HppXJQHQUTjZkCyFkAQ7ZdSLmvRuM3j8bQIc2SJkhQXN/k/RWidtRtBSdQ/8/Bu4URVXQ3b779DOnAAvuxsGQDYn3kGSEuDb+bMRu92imLo3x/S0KGwx8T4f7bwuxnqJSHMC7E0EtomWjMiPgYQ1HIwmFlT0djUzoR0oCYhUd+88tuMsZspNU3+CPZly2B/7jlg+HD4Zs+WoxnYYWaHsRUxmCyFy5u3SIOgSeNNH8mAqJaAD1ZJc3a2tdZMtKYiWtBD47yx9WiytLRkjMaJp7Sllky5ZjxHXQYQjIQ50rrx5kXtaryWvo1X7pnRqZG+9dC4EiCoyRD6XTBpnPr2d8QV7ZdeGte66NH7WqG8es6XGRqnsRlAUKMHM3xD/i49UQyMMBjRah02RrT+t3AlYWkBCFUnRQpxy82FROYE8mQ/9ljYKLQxLg7o2lXOg0ARDD4CDRkZsIeHq6JW5WHT0iAwgKClQVAjDtHtSsk8teKdyQeB1HFqCWyUACGQNRXtFxEtu8WrmRhoXPphTETtJqC1pvR7JVGqrbfIxKA8MKr7QYS7ZQvsTzwh7zvuu68RNDY5T/JuGVpOiqI1E7WzNWN0oga6iMbp0bpdGV1T0dg0JgFR2k+1BFFmtWRafIExR1EUg9rtiTFtRgtaJgLe2MwRV0tTpUVn7LuFdKiR7ZCBYFpzOl/+4F95c+PxUmoLhNcygczTICgBQqBji+iM+mZmNJ4GQct8weMborGDSeMi+UXfZkZLxqNDWhOe/KJ3eSYGPWuqxueb56wHIIg0CKwzLcYsQp4MBbWyH5EHOzHVhx8GPvmk8b8p7I1MCg4H0LkzpCuugO+WW2CjW4J/ymGF5kML/dE3G1W/iubNYwQ0Lr1vOSkG4KTITAh0u9q5E7bHHwcSExv9USg/gg4TgxXFYIU5srOn5+YWqEqaCemj3QchWBoEq1hTaCvFpRKA+zeKZKNIhogAglka16VB6DCA0DgwpB9+AB59FLaVK8nw2LjGlGHvrLMg/f3v8A0YAJtGsiHRAlsAIeqPV6xJCRAo9wUBhOxsCyBo1DToSBqn8yfSIPB8dIiBitpFjrg8J0VR3xZAOCLSRMKM/tICCBZA0BQoba5BaKJNX0EBbP/6F2yUIKmkpDGrYLduwE03QbrlFviasgFqqfF5TKYjmaelQTBY7tkCCC0uIkczCLYAQlS7F4qyEiVZiZLaSkt29GsQSIlAaXZ/+w32hx4C1q1rzJR45pnyzVEaOdLKg8CphCe6Xfl785slLGZ/1QKL9Hs9UQzcm5sFECyAoMNxmueDILoN6/ET4NG4ZWKwEiWxQ/qHNjHoKfesNDEYUbmJDiNzbtH0QPV4IB0+DPtjj8H++edyvQXpxhuB666DFBdnAYSjCCDo8QNoK4BAToq0/4GYGNridmUkRpzROJ0lYbZQv/hx0Zrq0SAwJ+COSLWsx4HLSA4TpROwmjMsL6W3iCe1BUDQCnMM9tgdReN/BhNDoCHl7EL1p63FoBbmqJbkwsyBER0IxjwpPIfGYaWfWyAwqpewdCliX3sN3sREuK6/Hr5jj5V9EUQIjZkY1JgIjcGSe9B/E6NiTJR5UtPv1UJzlO1a5g02B60wSWKe7LsokoFFM4j6Zu28MCt2w/F3jGG3fFbhj/qiEE/mbd1WY/PCmZjAYgKTrQ/bS61vl9slCY6cHMQ+/zx8cXFwzpoFHyXNasrXwZs3CwGLjo6W50z/KsdWegz7r5ueRC88Z1jVUF5mRmuKwOCBD60bq16AoBbKKwIfonbR2NQuihE34gegvLS0d5ijaE3Y+WLVHLUiMIzMW8/YvDBHEahi7WbC1ekb1XJ98MYWzUtEZ4yPq10yRX0r240AVXo/2GGOvBBLrTBHkdzVI9Nt/omSWLlnf2GqpzMtBib6UAYQcnNzsWnTJhQUFLTgzdROzoohTieyFy9GfUwMDowdCx9Vb2xKkMOEuJowlN9vEvJq7XSgSFDTJtPtLoFKCzc9ond57axNa2xqp7EJfZLwiImJkX/0jG3muxjqpTFp3nTjiIuLA5kb2mNsoiXl2CkpKS2AEfsGNUAnz1uSEFdcjAE//QR3RAR2TJyIWopmaIoM4e010TeNTyC4V+/eOGHCBMRSgS9BxIteJsM7yLxqjnrAhxmAwJKBBZqsSDRvEeOmdj3JwIwwZj3CTqvksp7vZhcLrXBArf1gAEGUKClYAIHOsyifjWhsI1oymjfPSbE9aLxVJJyOGi1mAYIeEGxUNuqhU1pzuliqFfxjUQxqlzU9Ml2XDwK7mWndrkRMRA9AoIO8ePFivPf++9i0dRMSU1MUYYtNAl4CkpxOeELsqCIzQ6PYJxJokil+JZGPiDtuO2VqLDtcgpqKaiQnJSEtLU0NRwTld7Q2hYWFcrhjamoqkpKSWpdfDsrIjYc5Pz9fzlvQpUsXxFNEQDs9xDz3FxWhwd2ALtmZCGuuMtict4sVuvb7osb2BK8XQ5xONNjs2BwdhRo7C5cU00JDXQNc1U5MHH8CHnzgAaSnpzdrH4wKBXbY6Nu0bl9mYsSVWjIeeNfS2pCQVmrHlEBQT99qDE7JF3gCRxTFYBT4iDIpivIgsL0WMU//dhG/YwDBTB4EBnKNgBM9JgYjpmIljWsBCAYQgpVqmQfK9GRSFGno1LQ9jM55NK7HjMYzX2jxDT0AQZRq2cj5apbZR1MehO+++w7vz5uLhugQTL11BmIT20dguZy1+OqtT7Bh0e8476xzcNNNN7WTmGwc5uGHH8aaNWtw9dVX4+yzz26VHCVYH0Pg4O6775Y1CLfccgsmTZoUrKFa9bt792488dSTOFBejOufugfp3bsGPLa96Y3GShz6n/05efjq9Y+RnZKOf/x9DjIzM+WX9dxIRSDZqAYh2OrXjsr1QfMSAQTRbVbULnLEtcIcj5wNvTRuxsRAY6glSmoPGu8IDQLxhD+tD8LRBhDmfvQBpKQIXHb/9YhLPqLq18/+A/9LV40Tn704F2u+WYLLLroE91JcfTs+t99+O37//XfceuutuOiiizRTqLb1J5FJ59prr5V9MO6//36cfvrpbT2EZn/btm3D7AfuR0HpAdz+8sPI6J3dbmPn79yLz55/D1mxqZjz4MMWQGgqdia6XRlx4LIAghXmyA62BRDYleYIqxNp19tCgyAC2Dxtki4Tg+h2JVK5iRaB2klIkQZBBgjJ4bjk/msRn9I+AKG2uhafv/gB1n79G6ZfcjlmU27/dnzo9r5s2TIQULj44ovbDSDs3bsXM2fOlNf+73//O84444x2m/XWrVtxz+x7kV+8H7e+8hAy+3Rrt7Hzd+Ths3+9j64WQBAmlxKdbT0MzNIgtMwWKuKHemzDdFi0NCd6TAxWJsXWQpp+Y8QXxtIgCNSvIiYiOhBKgPD+R3PhTQrFRbNnIi65nUwM1bWY/5+PsOHb5RZAaCcxLQOE++5FXkkhbnppNjJ6B25iMPqpBTvyMP/fH6JbXBf8w9IgtIgC8vdvEJ1tCyDYVX2GrDwIVh4EpeaEATp/niWSjXrOl8gHwZQGQRnFwLxfeWGORtSQokWgdnJukX0QPvoA7iQ7Lrh3OmKT2gcg1NXU4quXP8XmBatw5SVXWBoEo5I3gPcaAcI9yC0uwLUv3o30XlkBvG3uTwt37cM3L3yC7LgMzHngoYBNDEbss4zG1cKwzGroREyE+m+LPAhGbld6PLyNMDDRmrF2rSgGEU8yow6nsXnlnvWObcSRkMbu6DBHMz4IRmmBR+MiWjEbxUDvMydF/6J7bOxgAQR2uabopGCE06qWe+6oPAjff/89SINQlwCcc/eliE2KE0oCyetGQ0UpDu3Mw/6cYpSVuyCFRyM6tTO69O2KjG5JiIlyyNmZtZ46pwsLXvkMW79fixmXTDcMEKSGajQdCIq+AAAgAElEQVQcXI3vFu9CfdcxGHPcQGTFO+Q4C94TqInB561GyZYlWLZ8LbYcluBTOv7LA4UgMqYHhp86CcP6dUFi6/Tg8l8ZMjFIPrhrDiJ/x1Zs3LoDeYcr0WCLRlJWH/QdOBiD+3RBfLgDra1tLVeAAYSc4nzMfP42pPXMEO51a/Rdh6qd25CbXwVX9jAM6xGLcIdotYGi3QX47sXP0CM+Ew8HABD0hGlZeRBa7lJHAwS6eLR1uWeRVoUBBLN5EIxcxo4GgEDr09Z5EESgqiNBMH3bXyIPgp74WS2iZaEgZm5Xsgbhw7lwxntw1l3TEJPcGJ+u+TTUwlmQh+3frcb2jfnYX1Inx8h7vD5IiEZyr57od8pwDBzdA6mJoZogoa7GhYWvfokdP2wwDhB8dagq3IDf5z6B5/67A+FnPoDZ11+EsVmkamtbgOCp24fVrz2Cf774CRZXRiEmsmWFPiAUcSljcelD9+Ky0wejW6T6+AEDBJ8b3vIcLP/+WyxY8CvW5B1Ejc2HUMrkGJGC1AEn4OTTp+CciX2QEu5AS8tra4Bw9333IOdwHq547kak9QoMIBAwrD+Ug40fzccvWzwIO/dKXHVKF8RH8UZt/IaiXYX44eX56J3QDXMeCMxJ0ehNgN5Thjn674ieGysvQoLFO6sl5GLM00yiJNHYWjZtnn1WxPRZu8heHsxESbwICUYLavk62kKDYITXtgVA0KJxBnxEINisBkEt7FREK/RtZsMcRTTO024YTQYmmpeeM0B8xYwGgXd+dDkpihCz3nbeBjAnxXfnvY+auAaccef5iE7kAQQv6vbtwJ75P+Gn+fvhOKYv0o/thq4ZsfBUlqB0Ww5yVuSjrvMADLnsZIyZlIHoUJvqbb7eWYcfX/sauxdtwYxLjWgQvKgr3YX1376Hfzz8KjY6IzHw6mfwjyABhIby9fjykSfwr/m7IY2agLOHdPGTN3aER2VhyIkTMaxvOhLD2gAgSF64awqR8+3r+NfLv2G7lIFBJ47CsH6pSLRXIW/zavy6Ngf7Y8bgptm34m8DUtE5UltYkwaBAMLuQ7m49J/XIrWH/xx4oMoDZ14e9i78Bcu+XIvtIdnoc+1luOLkNMRyxmQ9Hty9H4tf/Rp9E3vIYY5ZmUeyMBItG7m56TnovDwIegCClkBSmhi08iAEI8yRXQroXzN5EIyqlUUhe3prMYjyIBjJRcDzQdDrhGjUxKDHSdFI33r4PI1tBiCYpfGOCHOk+erJg2Dk8iwyH1K7Hh8EozSuCyDQpplhYHqY5xGA8B4q41w49bZzEZ14JKtgK3HhrULRwp+w7KWfsTt2FE66/SQMPjYFEWE2SF4PfOWF2DL3Gyz5rhQR4ybh5Fnj0DXZAYeK7psAws9vLMDeH7fhqktnBGxi8LkrkbPyc8x78Q18vvEA9ld6Mfyqx4MGEFx5C/HqI8/i9b2ZOOPW+/HslB4q0tTWKOjs6qCIXghIg+CrRU3B7/jo4Qfx3qYMjJwxCzdePh7dY2yw23xwHtqC795+Ek+9twnx01/Bk1eOxKiuMZqmhkaAcDd2HdyLqc9chU49dCSnknyQ6mtRWViEvIW/Y933m7Evpwp1Pfqj5/XTcPGJnRGrQ4NwaM9+/Prq9+iX1BOPPvRIwD4IRrLMMR8EWveOqMUQDICg5At/ZICgpnXRK8R5GgYSGpSdNBi2YZ72Qg9AEGlljAgzpiULNkDQ0pKZ1SDQ9xvxs+FpydgZMap5bCuAYJTGjzqA8M6891AR48RJt5yJqCQNgEDpdquKsP2TH/HjRwUImXohzpuWjc7J4c0aAsnrRe2Gxfjx9V+wFwMw9ubzMLRfJMJCW+v7CSAseesH5C3eiZmBAgSfG9WF6/H52y/gnZ8bcP6ZmXjr01/QefJtQQMIZevew5wnXsSvtom4+b4HcPXwZL4NQ6M1IIDgrkbV3mV4570vsTZ+Ai6ccjLOGtjpSM/ecuxaOA//vv4/+LzrLLzwwgU4a3g6jiRvbvkRDCDsPLAH5z51uRggSBK8tVWo3LYV6z5cgq1bKuBJSkBElRM14Z3Q6doLceGkVH0AYfcBLHtjEQYk97YAgiRZUQycYmdGbtpMFW8BhJa81swlUyQo28LEYAGEIzy6+VJ/tCVKemfeuyiNrsbEWachKilaXbQRUys/gH2/rcemzXWIP3EShg9JQEy0/QhA8Hnh2rgEP72xBDmePhh109kYOiAS4WFqAKEey95ejIKf9mDmZVfp1yBIbtQd3Io1X72P1xeXIXXcmbhj4F5cNuczhIyfFSSA4MHubx7Ho/+cj4LM83HNjRdgRHw9nC4PfCERiExIQqdOSYiPCkOone/8EBBAkHzwNdSivLwSrpAYxMVGIy7CoQAIZdixcB6ev+YlfBF7LZ5792KcOyYDWjogAgh33Xc3dhzYjbMen4aUHql8kOOthzN3D9b+exnyir2IHNoHvUckwPnzWmzY6kPsNefivIkpiNGhQSjecwjL3/wZA1P64NGHHkWWlUlRXnsjphUR47YSJVkaBHawLYBgJUriMhk9PgjvfPAuiqPKMe6mUxCZqHX/BCRPAxpqXHDV+eCgQkMRIVBeBCR3Pcp/+xlL567DofhjMPLGyRjQMwyhKl7uDc56rHj3V+z/JQ9XBwAQvLUF2LHkv3jn1fnIH3gNrr9kFCbWLsDp93wM39ibggAQKFyhHCtfuRdPvrACJd3H4/gxMXDu3IW8/VWoDU1G52NG4uTJkzBuaG907xSHsBBtkBAQQNAU3xJ8XjdcJbux9L9v4ql/LUL+iXPw0t0n4aR+SdBwfwADCNsP7MTpj56P5GyFNkJtLG8DXPsLsfl/RQjtl4nOA5ORFFWBnPeWYMXyekTNPBNnnZCMaB0AoSTnMFa9vQSDOg3AYxZAsDQIlgah+cQxIW6ZGI4wIREItkwM7eiD8PYH7+BQZClG3zAJkQnaAIF73fR54SsrwtaXfsa6n2sQc8YYjLl+MDrHhUBNXjbUNmD1e7/h0JICXH3ZTJ0aBC+KN83HJ++8hzc398Ktj9yJcweEIWnPhzj17mABBKo6sAff3jwbz77+LVaHpiCr/wAMHXkMMsPrULBzLdavzEND8gBMvvlu3H7xieibEqG5VG0DELxwleVg7YJ38NIr32BFTQ9c8eQrmHF8OrITjmh0/D+CAYStRTtwypyzkJSdIjCTSJA8XjTUemGPCEWIA7C7DmLnm0uxakU9omachtMmJCFah5Ni6d5irHv3dwxJHdgEEBpzMIic3vTcgKxaDC230dIgWBoES4PQWC1GzQ9A5J8nAid6nRQN+yA4nc7mKHpKsEHet1oxrDRJLS9p+lCtdubtzFskcqz54Ycf8O6H7+FQdClGXDceEYYAgg/ukkM4uHAtNs3fh+rOvdHv4uHoPyoJYQ51hz13bQPWzV2Okt+KdAEEyVuP2oJVmP/BXHyyuh7dzr8Nt/5tIHpEViFk27zgAQTJC9RuxfznX8fb3+Qj8riTcM6ZozCgWwpiHD44S3NRuOFnzHvzK+RGj8a5d92FS0/qj8xo9awEZgCC5POgfMc3+PqrLzD/9wMoKaSQxx4Ye8UMXHXeKejXORLRKuYcxixkgHDvXdhStB2THj4DCd0C9aPwAc7D2P3W71i7sgFRV56Mkyckypok0VOeW4yN763GoOT+mDP7YWRkNIZY8mhY1M5oXOt80PtE4/T4l1zW2zfv/ND4Wu1sbPo2/0QuyrOpFV7G+tbyhObxBZbIRascLa9v0ZqK2mk/iafR2GqRCLw14/UtWjO2n7wcDLyxzdAhjU2lnulHzRlWtGZ65i2iceqDaNw//NOsjBDROK03jalW0lwPnYnkl9a8eTSuPNtaAIFFAamFy+rZL+IrVOpZqxKlFl9g+6HW3jxufX19M0CggQggUKIk/0cv0Wp5mNL7PMKizaVESe98+A72hx/GsGvHIiJB+/arJgQknxeSqxoHftiInQv2oMyRisy/HYt+E9KREKctOAggbPxgNcqWHcI1l10t0CBIaCjZgVXz38ObC/fB2f883D/rbAxMDkN4fQmwNYgAgcpaN5Qhb9ce7CnyIj6rJ/r2SkVck+Ol5K1DfdleLHz5PvzzqyLYTrsTj1w7BROz1T0BTAEErwcHNnyBhd8vwE9bq1G8fy8OlIUi9ZjxOPPSGZgypge6JUWqamxo7xhA2Lx/K8b9/VQkdEsUyfWW7ZIPqC1BzjursGFlAyKvmIhJ4xMQGSlK0QSU55Zi69x1GNppEB558JFmgCA6jOwMGDnoTEjTGATA/R82Nq9vMwBBi3nqZWCisXnMk8WI+9er1zs2r28ec6X9Ip5GAkMLIJjpmwfI2M2OhHSgY5vltQQOCBip8XERjfPokO0Xj4/TuPT9gdK4XlrgrblRGtc7thkaN0pnevaL5k0gOFCAIOpbltlHm5PiWx+8hX2hRRhy9QiEJ2hk+FETJT4PPJXlOLRoC3J+3o/ykGR0mTwQvcamITE5jJvNkADClnnrUPl7Ca69/BoBQKhGzk/z8NbbC7AzaRKmXjsdUwclN4bz1RYHGSCIZajkqUPRT8/i7ie/xI/R5+CZB2fg4tEZaC2SAgxz9BtatruVFaCkuBgVtV5UFe/GpuU/4vsvl6Ko05m47q7rcd74PugUqe4DQQDhznvvwqbCLRj9wETEGwQIee+uw+bVbkRcdjzGjdMHECpyy7Bj3kaMSBuKxx9+XM6DwJgEzUsUAmaFOR4hBj0qUKtYk1WsSXS+6NwpAbia9oGBQSvMseX505MHwbCJ4WgDCG/OfQu5jgIcM3MYwuLVxJqKkPR6UF94GIeX5GDvwgLUp6Yh9aS+yB6TivikUGGqY0+tG9s/3oia5eW49vJr+QChbju+fu5pPPf2UpRnD8WYEX3RianS3bVA8WZ8uHgrpMzjcMKw/sgceQImHD8Gp3bXrkwZaKplwAe3bNGxI9T/wuxrQOXmjzHn3rfxQdXxePjxazFjUnfVaAIzGgR5FyQJ9H/y//vqULrrF3z/5tO4+6ODGH37c3j4ypMxNE1dC8QAwsaCzThu9ljEdg2wciep1F2lyH9/E7avbkD4paMx+vg4RESINQhVeRXY/eFWjEwfjicsgGA5KVpOis1M1XJSbK1pFoFg+bLkdMpak/auxRB0H4SjDyC8iZyQfeg3Y7A+gOBxo2F/CQ78uBcFv5TA1SkZ6ZN7oeuoFMQmKMLwOJdvj8uNXR9vRe2KKlx3hQAgVK3FF699iI+/XIkDZLdW9ut1AzWHsS2/BIjtjKwunRB7wiW4fNqFuH6EdqZAvQCBTCh1B9bj9427UBjSHUOGDMXgzhFoEc1IAGHrx3jw3ncwr34SHp8zEzPGZ0FNF2MMIJBFSl0r4CvbjR0L/4NT7voUMdOewquzzseJ3dXraTQChDuxoWAjhtw7CrFZARbmIhODqxyFH2zFztVuhF9yHEaMjUW4DoBQva8Sez/aidEZIyyAYOVBUHUe4wkF0W2XWIJVzdGq5shEg8g0yczvgd7ymVbmL6VBeGPum9hj34te0wcgLF4rSK5p6d0eNBSW4dAPe1Cwxglvcgq6TO2F9L7RiNJwzFPDCZ5aD3L+uwN1K524/orr+BqE+iLs3rEXewsq4PbvzFUJ7F2Mv8/9Deh3Gi45YwL69emHXj26o3+GdlZI3QDBW4/KNS9j9uMfYIH7BNx45x24aVIWYhShGZLHhYLFT+L2ZxdgRcYM/OuOabhgSLJqXYRAAILkqUdt2T7szC1EfVxPZGdmoEtsSwDmK9uDHT+8jJPv/AhxlzyBV266ACdmqwt+Agh3yABhAwbeNRwxWZysmWqbJmsQKlA0byf2rHUjbNoQDB1DAEFcrKl6XxXyP83BmPRReHLOE5aJocnB2MqDoM90YgGExiytag/Zw0ngke+FlpkgGHRG32JlUmzJjxmdGkll3vyuz3ekFiBtLiFfSg/q/wQ7BIylWiaAsMueg+6X90YoDyBQVcGCUpQt2od9P1cjZHAaOp+SiU79ohEWQTXaxfZ69hcelwd5/90Dz2oXrr/iej5AoJoEbjc8HioI5fe4SoBtn2DK/f+Fb/R1+Ps158vphsNCHQgN0VZ96wUI8HngO/ALXnr0Wby8xINhV9yKe646GUNTG/eL/A9cJbvw5Yv34JUltci84AHcPW0ihqWpm2oCAQi+ujIc2PA/vPDvD7A98Qycf8k0nDe6G2JDG/UJFNlRuvMX/PDuM7j94yKMu+0pPHT5qRjSWd2PRAYI99yJdQXr0feOQYg2BBCqcPDD3chb50HoRQMxaHTj3ouemvxq7P9vHsZljMGTDz/ZLqmW6ZuIxukxmmrZyEFna2E21bJobC2/DZ76VcTARO16eJLZcs9a8yY+yRzP1LzPecWaRCprUTit0pFQbey2SLVsxM+GaM0oQGBaF601FdGCCCDw1oy10b9tnWpZ9N2idhGN0/t0tsm8EWhKbz1jq5Z75gEErdSjog3gqVHoXRbF8MbcN7Adu5B1WQ+ExmnUKSaBVO9C5ZJ8FH64HzVIQOeLuqHTwCg4VELrbGEhCIkJhUNDIeF1eVHwWS58a9y4YboAIPCkT9CdFH2ArwQr3nkM/375C+zofBrOn3k1Lh3bDdEOCXWle5G/+ks888/vcbjHFNww+zqcfVwWEjVKIAcCEOCpRsWen/HyXY/gk21RGHDhlbhy2okY2DkSEXbKhZCHDYs+w9w3v8GWxMm44x834/zjeyMlXNtJ8Y577sDa/HXocVt/RGUGmPNC1iDUoPiTvSgggDC1H/qOjEKYDg1Cbb4TBz8rxLjMsXjyoSfaDSAQjdOj5uEtCgFTRgEZceAiQUlMXy0EjOccprwtG2Ge1Dev0h31T4+ZGHGeU6lV7rklwxIJHLM+CKxY09FU7pmp4rUckM3SOBPS5H8QLB8EHgBnJoZAAYIIqMog2OPxtAhzpBCZ9tYgMORJ5Z5fn/sGtvq2I+PSrnBoAQQq6ZxfgkNf5qNwkZM4LiK7hcMRqZKYxwY4eiYh8YTOSMoKhV3FLYEAQtHn+bCt8+GG6TfoTJSkghSCDhBkUkdt/kp8+/bLeOv/VmBfdA/0Hj4EQ5K8OLBrFdatK0J96iRcfudNuPz0Y5ERo52sKCCAAAme2jIULX0NT77wBRZtcCKp7wAMHdYPaWHVyN28FJu21sMTfywufewhTBvbHdmJ2tEjjRqEO7A6fw263dwLkQYBQsmnBSha70XoBT3Ra2QkQvUAhAInSj4/iAlZ4486gGBGUGrddpn2Qg0gMOYZLCFNzJNqEpDAMBLmqMc+294AQXTbZe3EuCnUUC3MkeZlNFpGpEEgDSf9qPFxJgxFYxvNpKis5qimhabfaeXb4IFg0W2X0Tj1rQXAtTQEbaFBIBD8RwMIojWV9+NoMDGwzZUBwvuvY5N3CzpfnI4QVYAgUUYbuHeXoPSHwyjd5gF56dnD7LKuu9V9lQBC30QknpyGxK4O2FVu0wQQDn2xH471dtxoBiDUlQG7v8bMZ7+Bb+iluHna6Rja5UgBKS3lg24TQ1MHUkM1ygt3Y+PK3/DL8lXYuLcItd4IOOLT0KPfaEyYcDyOG9QDWclRraMcFB8RGECgSAUvPDUHsXvTSvz+61Ks3rILRZV1cPnCEBKbij59R2LMxBMwbngvpMWFcdM8M4CwKm810m/uhoiMAEJaZXuKBJAW6btDKNnhhePUDGQcEw5HuNjEUFdQi/IvSjCx6wl4es5T7aZBEJkYjApp0UHXwzx5Y/Nu+aIbKc/EEGxwIspFoAd8GDUxUN8EjAggaN3sREJa1K4mxGlNSUhrXfSCDRCUJc21AIKW/wIz2xgByczEQO92BEBg5Z7/SBoEPbRw1OVBeO3917DBswnJF3VGiFZyI/K8rnXDU+aG29XKE6CVHLZHh8KRFAZHhE3VN8Hn8qFk/iGEbXTgpuk3Gtcg+DyAqwQ780shxXZGZmoSYgi4CJ5AAYLcnc+NuppKlJYWo7SiGvXeEDgiYxGf1AmpSXGICgtpGd2g8g2BAgTWhbehBlVlpSgtq0C1qwFuKQSOiFgkJiYhOSURsWFiHxACCLffcztW5q5C55syEJahM6RVOQ+fD56yBrhrJdgSwxFOxbrEy436gjpUf1mBE7tNwtP/eMpyUrScFFudDiuKoXW4nx4gatQHQanmVwNGInU4AwgE6Px9fER9t4WJwQpz9Pmgx4ZjxLmF+mVOigQQ1ro3IOHCJNhjxWlzRcJXT7vk8qH86xJEboowBxD0DKbyN4YAgsGxlK8ZBQhtMLScSZEAworclUi6PhWh6YKIlbYYtKmPhsJ6uL6qwUndT8Qz/3jaAggWQLAAQtMKmPVBsABCa785K8xRZyy1lrpOCRBeff81rKlfg5gL4mGP1XEdbAPBQQCh6ptKxGyOwk1X3mRcg2DwW/7KAGF57nLEXZMER7q+nBUGl7jFa+79bjR848Ip3U/GM/94xgIIFkCwAIIFEOQVMOKI2x5mNF4U0V8qD8Kr772KlfWrEHledLsCBOe3NYjbGodZFkBoCxks7INpEJbt/R1RM2PaFSB49rvhWeDGaT0mtztAIGaiVevEqIZOr/pVzT4biPrViOqXvk2UatkoYxb5P5BNm4U5tqWHt2jNaD5/9ERJRjTBNO+/ogaB+Zv8KTMp+jspMucWZSiV8kBohTnyQqVEDKylBuFVLK9bgbCzw2GLDSCZgVAkaf+BVCeh7jsXkrYmYtaMWZYGwcRa6n2VAMJt99yGZTnLEDYjHPYu7WNOkpl3kRf4TsLpPU/DM3OeQVZWlmw+Yz9maFxL2FHfSgeuQEIVRQJJeb60isIYzYPA+qZ5+QsNEV+gdxhAILuwWiVJM3yDhDA9PEdCFuaoBRDU5sW+m+anFpcv2g8RQNDr32CEDmlsPXkQRH2rtfNogcaldVFGMfjTONsvM4mStPaLfq8nUZJo3mo0zuMLjFaYkyIvjJinnTADkkUaBDM0rhrmSDectmRgIucWxjypmuMr776CZRXLYD85BLbodgII9RLcv7qRlJOI6RdMx4033qhXzrXJ382ZMwdr167FzJkzMWXKFFU1V5sM5NdJfn4+7r33XvlQz5o1C5MmTQrGMKp97t69G4888QhW71sN2wV22Du1jzlJPtCHfAhZGoIz+p3RpEHIlL9RdCPltYtonN2u6F+el7Xo5qYGAEQAnMZsizwIRjUIRvMgiOalZ7/+yHkQAhVm7KDxwhz1rBnRstkwx7bOgyCiBUbjojBHETgxamIIdpijyDxPwCQYWjKb1+ttDgOgw0QahOjo6FZMXbRBZpknc1J8+Y2XsWTXEqAPgAD81ghKUKAcVTwoBVDlXyeBI/okjwQpR0J0aTRGDBmBcePGtZugpIEIGBUWFmLUqFEYOHCgZhrTtv6o8vJyfP311/Kejx8/Hr17927rITT7Ky4uxsIfFyK/LB8YDKhWkzLxNUQP5C5Ed8zGe6biqQbCCsMwZcwUPPv4s63CHI1kDdQLEOjv1DIp6rldib5LlAeho5inloe36CYuWlM9wk4LIOjlZzzthNbNjH5/tGdSFNGSCKgaSbWsl8ZFeRK0xuZpEJgWQGterN0IQCBa4oFgnpbMLI0z7XtbAwR2YTqqwhyXL1+OL+Z/gXXr10G1eABHYDi8XqTW1GDc7t3YlJmJ3E6dUB+iT20tMwvKF+WDrAb1VxOZkFPCV+nQsBrqWok2hJ0Y/ANWN56IjOaslsjGYNfc12g8eWxPY+14R5iDClO23SMBjjoX4g4cQG1SEuri40kPLfcvMwKvhMiISEwYN0HWFqWmpspteoWGEeapNDFYPgiNW60ECEYZs5bfBhPSlg9Cy2MVTBqnkWi9GQjW0kKLbvFGNFU0th4Tg2hso3TIkoHxzGhGtDJ69ktkYhCBQZ6m6qgCCNXV1aiqqkJNTU0LqmYITAtZyrZClwuRmzcjZc4cVF51FZynnw5fbGyzXZmhfTUpRAvMknTQJipVwHrG1uqb9y4TSETU9NDc/AGCEnn6f7fSLuZ/EFnfrF+tdpo3tfkDBNa31rz0js1LiMJs4tSXMtscm7ORNW3+bkmCY8MGRP3f/6F+1Ci4yXSS0FhOmiWRiYmJQXx8PNLT05tt43pupFoCSXQTYACBvsFoLQa2JoGY/xjdGPVBEN3y9TAwkZOiEQamBHRaCYUsJ0VtTbCRJEwiGqc9+Ss6KdK6WHkQ2iEPAlOB0oIrH8aEuAjM6YR91SrYZ86ENHs2pGnTZKEgYmAMeSrT0DIGLDoQonaRwKH3CQyRwKDbu5LxM2FH/xpFtaLbFR1mVnXNf2z6dqOMW1TIhrQHbGwtxzfR2NybgMeDkH//G7aPPwaOOQbSHXcAw4bJJEXjksaGAII/4BTtlxkzmgUQwjXrQIj2WtRuAYSW1wc9TooWQDiyZmY1WRZAEDhwiW4ZIkFK7ew2a/R2ZWsCCJgxA7j/fuDiiwMGCP7OY3rnZfRmpwQIgaqmRMBHJOzY7YrytfvfSEX7JRqbZ2uktVICBH/ww+tb135QQaSSEtinT4dtxQqAKpM+9RRAgDE6ugVA8NfKiNbMAgiUIbOl47CIFqjd0iC0NHWaOV+iM8C0ZASCeb5kFkCwAIIeXqvLxCAiykDatbQAPICgx7kFBBBWroTtqquA2bMbAUJiYgsNgpqJwl+DoHaTFgEArXZRGBZjnqIQMDXvVKWa31+Vr9wPnpOVVjEZJeGorZmoXQ9AYGMbBQiqdjOfD76DB2H79FPY//MfYN++Rt+DSy4BZs0CRoxAfUNDswZBCRCUGhuRnZJnI6U+tWicF+aoi8ZVQg2VqnYtOlTSeKAgmO21Wt/KNePd8kUAQWvNlGOrranofOk1MQRK4yJ+R/Ph5UHQw5ipD55tmLfXWhoE0X6J5sWjBfoeep8X5qgHYBvltYzGac3aMvRNd8MAACAASURBVNWyaM3Y+TMb5sjj01q0wMYW+SCI1pTrg+AfxUCE7R/mKFokEWGJELNI/aqLeTZpEEJmzoTvvvsab4x+AIHn/UoMKNBSuKIDo+d2ZdS5RU/fek0MWgBDpNoVEbUR1a8p5ul2Q1q/Ho5rrgFycshrqREDZGZCuvtuSFdfjQabDW6VSB2zAEGkplTSeDBDwEQgOFCAIDrbeuhQRONm6Yz3PjFPmnMwQsB4QtpoFIMI3Iv2g2kQjFTlFfWtp/3PBhCUAJxHZ3qiGMyYikU0ruZkrpS7IhCsKQPUyj13VB4E5oMQiOq3eREIIKxeDQYQAvFB6KgYcfp2rSpgIoGjhzHrAQhqey0CdKKxRRoEalf6ICj3Wy9AUAUfRUXAp58i5IEHALe7seIjPQ4HpAsvhO/OO+Hu2xduSTJU0lwPUNU6yPQZNGd6jOZBMHITYGvbUTRO+ylinkYBgh6TkJUHoSU31bNmdP6NeNwzGqf3gwmCtS56TAttBgQbEeI0379EHgRemVA9hMUYmL+AZyiM1661uXrepW8jE0PImjWwXXklpCYNgpSY2BxKpXWbpf5pbCIMLT8ALQbGBKlW33raSf3KnBSV68ZutFprxtq1boxsv7RKwpKwo/1mTor+Y9P7vHnT+LyxmVrM32ZNv+cBBNGaadIh0cDy5bA9/TRsS5bIWgMUFwMUwlhdLfujSNdei/qpU+GOjDRsnzVD4yKAwOvbbClc3vliwIdHK2bOANMgqIXRyme3yXTizzdEtCBqp77NAgSerV5ECyQ06Hy1d7lns4mSRPPitYuiGER8wSidMT5u6pJps6nmoBHRGbvoETAJlMYZP+TJEB6vpTZmYjCqJePRuC4fBCaktW6kelRPIoFj2kmxoQH2LVuACy8EbroJmD5dFg6i2y7NraNCwGjdWBSD5aTYKB4MaxDKy4EFC4DvvoMvPR32iAjKQAWMHg106tRocujaFfXnngt3795yFIP/owcEi84Aj8ExgGDUEZcx5kAdBTuSxi0nxah2N29YUQwRLY62XvlELxnVIFhhju0U5miUedokCXZySpsyBTj3XIDs0NnZFkCwt/Y8Z6iVQNmfJoqhrAzS5s2QvF5IgwfDvnYtbM8/D/ztb8DZZwOlpcDBg6jPzIS7e3cLIDSx0ECYp5EENhZAsAACk9Zt4aTIM+F1VKIkOkMWQDjaAQKpKQ8daoxe6NOn0Wt9yBALIPxVAIKcDdMj7zdCQmD/9VfYnnuuERxMnQrExZF6AvWUwdHnswCCBRBkWjHi/yACVQyAk2mFALhR1W9bRzGINMHKdjM+CLSuaqZLCyC0Thdr1t+L1lQUxWCGxv88JgayH9Et8cEHgdxcgAounXEGfOSg1mQv50UxUJsZ5xYjtyvLxNDaPmvYxKBM3UvapG++ge2VV4DLLmvUKMXGyiJRmSjJMjG0THdsJrzTTJijEQamR9jpDXNU4wtm6NACCBZAUPIWPX42Zs6ABRB0aC/kBa6rAxYvBl57DejZE7jySvj694cUFqZ5U+hI+6wFEIIAECh6oaYG9pdfbnRWJIdVSrVsb0TvFkAIN2yfNQKCLRODpUGwTAxiR9yjFiCohTmSWkztdkW/E3muq6FxPR75xLh5HqjMQavVhzU5tsnt9D9VVcALL8BOHu2jRsE3eTJ82dmwhYfDFhoqq5/9HxYCFkpAQtEoq39I+0DzJlW934uidvkWwhKe+GWgk29AFObodCI8IgKhDkcrxk39a82b3m3WjPj1TW9JTWPbbbZW2e/YDYecmUhrohoDq4hS8J+3aF5eUt1yaMVDERT19fK8Q5oEdzMTMTovWiuXC9Lhw7Bv2gR88gmkpCRId94pp1tmj8iBK1g0zsAJ7ZmWn43W2HrOD49WqF9eCBh7V+1si8ZmtyMtvsA8vClOW80Rl/fdZscWRTHoGVvE77TaeXkQzMxL+a7W2KJotGDTOM/EoIfGjdBhMGmcrbkRGpf5vCBSh8vnm97ljc2LYjDTt2yCq6ysbC58QMk16Jdq1QyVTERNSJtpp3dpbHr8mQj9LqC+Sb28cydC581D6I8/QurSBZ6RIyF16wYKe/SRLdrvobFJSGqZINTm2xa/k+ftdiPE4eiQsYmJOQgwqYCXtpifVh9sv/3rT5gZ0+Z2w56TA8dvv8GxahU8gwejYfp0eCdMgKQoX057TfNWy0UQEJ2pgEX2K7XQTiWNq83bzNh6zgiFvtF3qYVhmRlbz7sksGhcLbs2Exr++8/6NtpOvIz2m8ZWA8G8/RKtqWjeNDatOfGzQMcW9S1qJ/qmHx4fF62pGg2L1oTaab3p+/6MNM5bM9prou/2pnHGV2hcrcu5aK957Ta3290MEOggs0yKaoeV3Vi1GCC1awlZHoqisczEiDNnI/ZdtoYG2OgmuWIFpJ9+grR9uxwLLx8sEob+N+4mZ6X2FpSUyIdu+qSd6JCxSUvgd4M3I6R1v6vQEpieN+0lFboiH4P0dDmUEf36wTZoUCMojImBpNhvXoy4npuCiMa1kL4ZGtf7XbyxtRIliW44onY932YmD4IensO75fPyIJjtm9ZGi98x/wdlpVJ2PvSsmZ5v0xq7I2lcmUnRnx+IZIA/H1e+L1oz+lterg/2vlENt2g/WDKwQPMgiObF+24G2EQaBJ72QTSvP5eTolLYERgoL4eUmwupqAi2qirYKiqAykrZm1350IEiwgkY/TXukNyVFmgS3SrpQJF5we5n+pB71dM3mRBUJLPolkGHUdYg+FWRlLsiAd7Up+q8dH6b1i2E3ezoduX/N7pvjTRv2m/SDiQmNiZCio+HlJwMpKXBlpAAm5/ZhglpVs1RjYExAKD27Xq8sLVsidSvlQchrMWS05oYjSRgwIW3X5aTolXumQlRJThR4zms3cqD0HhEm8+mpODIxMBYDm//RdTDHBmi1toAHvM0nShJIwtWszeyz9foxEg/fgCB0J9qLYYm+5GWPV1exCYfBU1PaLplaPgBkPbAWVsrq7sDtc/yfBCamSdnbJbNUDPVMm9eTRoATf8GgQ9C8+0qIqIVMGL+DeRP4q/daOVbQQAhPByIjATCwpqJWosOLYDQ/pE6lpOi5aTIUKEZGcKLKmH9W3kQWvuxGQXgfz2AQABCw9YuZ1IMCUF4mN8Nx8/BRMtJsVkg+V1Jm4ma/BtUxqZN4GZSJA2CRl50GSDoiOPmFkyqr0dUZKR2uWeN7xbNS07d2wTY1LQb5KRYX1eHiMhIdSdFjXkRQGi+CTDQpVhXRtQWQGitUuqobKEWQLAAggUQ/sBRDH8ZDYKGhoGIt6OYpxAgNGk6jKi9eGid5iyykRpFnqxvnpAmLRUr1mS03LORmH1Lg2BpEJiwMmPe0ANEeeWegz22KFJHjxnNSpR0BGSLtBe0nrxMimbqqIjGpvag5kHw+XzNTorMxBCt8PrWi/6UzhRHpYlBABCMlHs2c9CZGYAVa+LVYjAafy6yz2pVVNQ7L6NCmgdORAdCT0VFWlutwkN6mKcoJpk3b6M+CHrmxZyNtMx/WmO3BQgWrQmvXVTu2ahpUgSCGfNUK/csojNRu56KpVqZFEV9m1HF01p2FI0zAE7fr5ZJka2ZGq2IQJeIJzEap779w4j19q3FN/TsF6vm6B85onds0fniFVTSKmmu/G41R0U987IFkgdBS+AwcMBr591ImQMXTcJoKVzRAvOYp9lSuEbHpnl3ZLlno9UcRYxZD/M0Uu5ZpJ1QHkYtgGC20p1RGmfMk/41Q+NqB10P8ww2jfMYmNFyz6J5ieiQ2s1Wc9Q623ponNacV81RxDdEADyYNG5Gg0D7Fmi5Z71nW8TH1WSIXiFtFCBQ/8Eu98yr9mi2miOPDm1er7dFmCOpf/0d15QAIBjojwEE2iCjxZq0biEilMSQpxENAutbbWwlUZq9XRkxMehhYGY1CEZoQWneUGOevP0SramIEei9XYkYsxGNTnvRuBqAaAsNghaNM97QETQuOts8DYJe8GGGxkloEC81akYzOrYZEKxHk8XT0InKPYsAtoiP80yXHWUqJjozCoKVMsQIn9drYghUg9B8PiwfhL+2D8KfppqjshZDU3y6vyre8kGwfBAsHwSfHO3D0/hQuxkNgpaJwYzpRAQGO9LEQOtlVXPUUQ/BqC2RFjjoYY6Wk+IRrxuFk6IFEFo7I4mYZzB8ENqDeXZEQTKaF2OeWvZZkapd1M6N1DGp5jd6i7ecFCNaRUe1B413hA+CBRCawsuMqodE6jwLIESo5kGgA2XULiayzzJHQQsgWACB0VkwTCsWQLDCHNkJswCCVe5ZVXVlAQSbZp5sbh4ECyC00HqIfAxE7ZaJwTIxWCYGy8Tgb3oUOTeLzBuWBqHdNAjk4R0Gr+SFMhmyTaJKijY5qQ5vc404jxly4JJ88MpZFNFYtVDD5t0yzKTp720hsNuoEqMPbh9Q53QiMjICIQ47JImSOYXI5Qn4RCvB6/XA6yNbogOOkNbI1Of1ghImS/BBov5AyZrsCLE1VqXUCjWUJC+oGqNXsiFUo4CV6MAccXSikaiipbx7zWUXyBGWTEr6HLgak0XResNmb86CaeS2awYgiMAH7SfNmzx+Q0JCYffLENVeTopa+fkpWobsyv4RFOJ5NaZDFjmP8cwAlomhZQVZ0YVJr6OulmlFT5ijyIx2NPsg8BxxO8LEQPulFcrLnLK1zocZWqC+9Topamb6baraq1ZQTI48VIti0Cr3rMe5xYh9liZaV1cLX/0B5Fetx6IDq3GQKoORWLPZMarzlRiZ0gOdI0MR4l9oyWQ+98ax6+Qbvlr1M7UkF+7qXVhclIfi8K44Kas30kRpnm1VOFS6EnvKXYjudBaGxDiRe+B3fOfKwmkp6ciMrkTegd9w0Ncd3dLGokd0o8BnjML/sHp9B7En/3vk1SYgM+MMDIxvmQFSftfrgseVg2UFv2BVdSFKpQz0Th6Hk7MHobvDIQsztSiG8kNf4tfiYpTGnomp6SmIDW2ZvlP5XTzbr00GQdXIy/sUB2z90KXzRPRsSg0fUJImbxWc1dvwY+EhpKWNwTEJKYiwqTtZKaNtghkCpk7jNThctg17DlcgpuvJ6BtpR4QfbqP1pm80Uu5ZFCbMa2cgWC1Sh+0n/asVQknfzABCC5WO4OJAf9setyuesAtmmCNbLzVnWFG5Z95+icyDWnyB7Y2oWBO9LwIIRvm4qFgTT4aYSSjE+LjRUHnGO4xEEtC7WuHqyvOlJqT1AoRghDnqGVs1D4Jafn4zqFb0IXRrrXcWYEvBb1hVmoPS8GiEhwE2qQ5S3R6U1XdH99RzcWb2QGREtl2+aXagAo0Rrzv0E/65eTVyYofjruET0Y+lFfYDL0fWrAalFZuwr7IOUcknondYMX7f8jYeqxqGxwcch8EJ9dhfsgYlviykpwxFVhRpE47c3PyJ1u3Zjt/WPYHVFZkYPOghnN4l0o9v++Cqy8HOXW9jcakXFRGdYKvfh2JvGvr2noHbumY2AwT/vc7fMRuv7N2D3M6P4T8DuyM1QgV8NDms8mPESZV5CCtX3oAtOAUD+t2CccmN2hYtcKIEH819NxxE6eHv8ezGnRjQfwamZPZEXEhjFb1AtUnUf/BCwEqxO38hfttVgKShd+LkRAdiW14chRVLjfr4iDQ6PBDcHhoEsyFgRp0UaV2CARBEa8ZujWbzIBh1kDRD4zzwIeLjTENHfxdoHgTRmuql8T9rHgSeBiIYeRCa91otk6K/45py84wQLdtcIiBVhOZtQPXBH/H2thXYEToQs0acg+7hQJjkgrd2J/677k384B6PmUOPR4ZrI8q9aeiSejyyogC3Kw87CxchJ3wiTkzvjgRHCOpc+dhYXIv4uDRkR9Vj3+FV+L1kKw5DghdhiA3rj7EZY3FMbDzC3fuwoqAI9hAvDkkF2FKVD8nRFb2SJuG01FREN+mKlQLJdXAxnt20Gntjh+Pu4yaiR8NBFJQsxV5vKmKr1mGj5IbTHoneCafiuJS+6BJRjeKytcitqEN47HFIqfkWr+z+Ap/XZuKU9HNxVe9MRNZsRpmvG7I6j0J2tBdVVTuwvnAxltc54bPZEBaSgIzYU3FiWjaSQndhydrHsao8E0MGzcEZGS0BgiQ1oKJ8GT5Z8RIqki7GxN6nIbvqU7y9Zwu2J87Ah8cNbjYx+Oci2Lf9PrySswd5aY/iPwO7IkY6iN15n2FpgxeVTRkzMmImY3TqAPSODYfHuQfbD/2O76oPwIdIRIf2xPjMSegWWoWyg/Px0dYXscHXF/263YwLuo3D4IRw2HxehYnBDp+vGrmF32Np+R7sp7QcIb0xIHksTuzSBbHewyg99D2e2bATAwdchSlZPRFnP4yc/Uuxqmw39tMt1dETPZJOwhmpCQj3VMB5+BcsdHdHpm8zcuqLUOSxoUf8eAyLSsXBiqX4qaoAoeGdkZFwKs7q0hWJYQ74vHWoKV2DH4vXY0dDNYBEZMYNw7gux6J7lB11dQXYnb8HDXY7VtVuR4XXBaAXhnYZidGd4+GtWInvNr2PBYdLEJF5Ci7tMR0jkpIRH9qI3ZiJgWkQ/MGNmSxzyvOlddPQY2JQO9u8vkV8gQE+drviZZnj3dy0+AZvzZiQZgDBv/9ABJK/ZkX0Lhub5k0A3L8EMI8fitZUz9haJgalhs0sH9cC6EoNQnvTuJ5iTYHOW7RmgdA4zwTONHSBrBkbW5RqWatvPWf76Cj37K1Hxb7/4cltS7A5egyeG3U5ekUAoSScfR7k5c7H/yqjMaZ7V9TteBRra/qj78D7MTnNi6qS7zBvyYNYkvwYnhx5GvpGh6Ok4Cu8t9eHfpl90Ct0I37N/QUra5xoiPCiwV2LyspQjOh7B67tNxxZdUvx4upFyGlwwBPrRolnH9zuGMSGjccFfU7F36h0sJ+PQQuAMGISMitXYeH62fii7lgcZy/DLkcdSmsPwhZ5MaYOuACT013I3f0GfsotQ2L2PRjtnovHcxZgUV0KBidfhjsGJMC1903sdI/H2ME3YFjkbqzO+RzfFG7GgfBQSPCgtroE1WEX4vahU3F8cjHWr28ECIOHzMHf0v00CJIbFeVr8L9VL2NL2AQMyeiBLq5lWFwWCUeXqXi8f3YzQPAHg/nb78PLe3YjN+0RPNPTh8OHfsCH2xajPDYGbrsP7sptqAidivP7XYZp6bHIL1iEz/J+xPrwBsR4QhDq6YROadNwQVY0Qg/Ow9s75mK9LwN9M27B5b3OxQmpUbD7mHkjHDabC/sPfIOf9yzBirpyVDjscNVFIiXmeJw/4CxMjG1ATfH3eHb9LgwYOB1nZaWi7NB8LM9di1XOCpSGe1DjjkNS2Am4ZuDfcExoMco2349ry7MxIrIKLocTBVW7YQ8bgq5Rg+Fw70aOJw/1XhvsUdMwe+iZGJ4QJ4ODJTk/4vuqnSi218HREIZwxyAc1+NsXNIzA97KX/G/Jf/FVmThYCSBoUpUlQFdupyNiwedgEENy/DJmtfwVXk5HJ1G4up+/8DJaV2Q0qSAYQCBDmtHJQOzwhyPKNpEt2EzGlMlQKDzpQVORJqRQIUZm92f3QdBy89GD0AQaR6NmhisPAjBzIPg86CuZC0+2PYSvqxyYli3WRidBESGUDngHhiYkIgEhwMOux1FOx7EvKJwhGddh5nd3Th84Bv86+d5KEm9DLeMuRgj48Kxd/OrWFA3ECPSO6Ou7H/YVJuCkb2ux4hkCR7nZvzv1zvxqf0S3DP2AozBWvx71ev4vKoPLh56Da7u2QW1B77Fe+u/wNLoy/HO8SchzmaTx2boTg0gfL7qDrzbMAn3HP8Qjo9xozb/I8zeuAvpvc/D1QOyULu3ESCk9P83pnYux4rNb+GRquF4fMAwHBOfi1/XPoPNMkC4Br09P+Drnb/hcMqVuL3vAETCia3bXsF927dh5OC7cVFWKPZv5QAEAPWuA8jffBvu2FWJIpsd2bFh6Jp+OS7rOwXDY8N0AISH8HDaPmzOW4TPIm7A0wN6oHtYPWr2voq7tm2FI+183JCehIV7VuFbXw+8ePK56NNwGKVFy3BPjgfThozFuERg6/LrsNl2Cgb2uw3jUhpNDM3FmsIkuF3b8fayJ1CeOB1n9T8Dx8Q6cHj/+/hk5xLkxV6J2/plI6ZqcSNA6D8VpycfwLyVc2FPvgin9z8PvWNcOFT0BRZu/gYHUu7EhV0j4NjxIK4u9uD4Pg/gut6jEXfwXTy9+X18UD8Il/S9CfdnRaKi8ld8uGM7MvreiPOyErBjw0t4o6wTxvY7DRdkZiCqZhe+3/EdvnJGY8rwCzHU+zM+XPIavrFdjMfGn4djo2uRt/kRPJbnQKdes/DcoGTk7vsev+4sQPLwu3CKn4nBAgjhrXx8zAhppTnKyoPQ0sJoAYSIFgsi0rrwzLmqZk8/g257+NnwwKRIg2AGiB4dGgRKlOSqQumhn7H00M/4wlkJh7cUZdUHsdN2Jm4eMBxjkodjQEIqIkq/wws7CnA4bhRu7mFH6f7f8NKOCvSOdqLXwJswOaUeSzf8gOrEURjV7Rik2KpR53XD63WiuCYf+a792Lrrf1iEs/DAmLNlgPDq2l9QEjsW5w48BUOiQyFVb8fC7V9jbnknzJpwBY4NsyFaBBDWPY5PQ2bi/ePPQqrDjZrSX/Hiqm/h7XQ6zh44ELZCvQBhFo5PbEBNQy1cnjr4andgl7sORYdX4Ys9+Rg+6A6cIwAIPp8Th4rXYn3OAnxRuR3bXdHonngSpg2YjDGxEWhwlsAe3Q3hPh/ioqNa2PKPaBAewwsDuiA2xI1qKQqScyP21ZWhqmotPtuVh8TO5+Dy7K5Ym/MDvqioxd+GHI/ejnhkRfZGRIgD8RFhCLeVYDUHIITbKlBR8H+YunUfBmcNxgmdMxBlk+Bx52Nn4VaUNPTBqQNPwTGe32SA0KfHaRjt+hD3HIhEr7ThmNwlHaH093X7sHP/Luz1jML5A3qi2+7HcFP1ibj02LNxTnomwiuX4IMNi7BB6oUzB0zB6GgfGurX4YcNH8KZfh8uyq7BF8vex4aQruidMRDdI0NhhxuHD/+KTcWlsKXPwQ0Zq/HDqg9wMGU2pg8cjswwF8pz3sScXaVwZ5yPp4d2xcF932OJBRBasE8rD4KlQWAEYeVBsPIgmMqDAF8dfCFuVHjdcFauxZpdL+L5Mg/iQqKRnjATswadiqFhuzB/41LssXXDSemAq/AXfOU5BcOlBTiUci2uSM7Df3Ml9Ow6HOMzU+GtPYDDtTnYdXg5luauwjrUoLK6Ag2x1+Ff4xo1CK+v2wF0HoWz+o9AVzJr1Odj1e4v8WlBDcaOuAsnxdsR7xBoENY/hf9z3IBPxp2CeLsHNWXL8Mqq+ahLmowzBw5CyH69AOFmjE2oQpmzEHtLN2Nzztv41utAVZ0TB6o7Ydpx/+BrECQfXM6t+GrD2/isMh2TBwxCcsWv+HpfGZIyp2BKrBPb9q5Et0H34Ni4OHSJVQMIe5Cb9hhe6J+MCN8h5NVVYfOO/2CRsxglnmrsr0rB+J7X4fqB4xFy6P/w5c5PsFjyIsaWiGGZd2JyWga6xXVCvKMS61ZoaxAc3gMo2vFPnLN7I6SoSKRHRMJOoZmSFx5PLHomnYlLe49D/4YlMkDomX0C+hU/gPsON6A6vDO6RjbdFCQPGjwp6JZ0Ia7snY3MnY9hlvNMzBh6Os5M64yw6hX4eMN65Dp64cxjRqOnzQ2Pez0Wr38HZan34uK0fPxrxYv4sbYa9qgERIVQWKYNXm8tosMGY0TmPbi080osWv0hylMfwiX9ByMt1IWq3Hfx8M5DcHU5G08Ny8ZhCyD43a0aI3GsMEcrzFGk8RHd8vU4KVomhrZz4G/W7h0ttRhcLqcc5x4RESXHkJOQ8PkaUO9zI2/Pf/HQnhqccOzZmJoZhwObnsbKEglR0RlIcS7AgS6vIbV+GZ4vS8UbnXdiQcPxOK5rf4xJPohf1z2NFzd9jO2xZ+CSPnNwa3cH1mx4Hi+5xuLWkac3AYRdsKURQBiOLIpEqC/Amj1f4v/yK3Dc8HtxcoIdCaFaAGEiMitX4/MAAcLyzW/hUVUTw83oX/8JPlpzM56v6YeYhFswd8IERFcsxdtrf0F63+txGk+D4KtH6d6PcNeuSvTvfxou69oLybUb8N2Wl/FpzloUIgZ5dhfuGPoZzuuchqyEyBZJnI5oEB7HI502YfXWO3FriQ9ZybPx2HGTMSF0J15f/RPqEibh3EF/Q/9ILySfG2Vlv+PLtTfgkcPVaLBNwN2jZuPirE7Yt1YdIJBaLNR7AIU7/o2phQNwzfBTMDUzE+E+yhfRGIYVYg9DqLcY5eSkKAOECeh7+F48WHs5ph1zIa7q2lkhkCiHhAO+mlwc3ni/DBCuHHoapqSlNQGETcgLJYAwAj3gBxBSc/Hyut+A1NNxRq+R6BF5ZK9tthCE2Lyorl6IL5fPUwCEWlTlvncEIAzthsP5C5s1CBTFQNEW7OloE4MeJ0WRfdZInhELIASmQRA5xYkEKdHbn93EYOVBOMJXOiQPglo1R5YsxYjjDN/WSEl/KpCz90P8XOxGWNoFuKhblhxD3ggUPMjP+wj/2Z6D7n0uwtldeyF8/zx8W7AF653p6GMLw9BRFyK0dDne2XEIw8N2Ibb7dIzKGIhs11I8t3U1NkpJuKzfWPSL7opUXyEWbXge79SPxx0jTsdo2zq8tvYXHI4di/MGnIpjox3wVW/DD9u/xUdVXXDD8dMwONSO6BAlQGgMc9wbOwx3HccAwtP4LPQ6fPT/7J0HmFTV2cd/M7M7O9t7L8DCAkvvHRRRBAG7KHZNbEmMifkSjSXRxMREYxJLTNHYe4miAgpKld7LAsuy7LLL9t5mp9/vObN7cXaYe+/sLAua7H0eHpQz95x7znnPe/5vnz6XGL2DloZNIsuKrAAAIABJREFU/ENoEOLnsiB3JIbyf7GmqIH43L+wOKmBzSfDHMczLPIY63c/yQHHTKaOuJqkpk/44tA2DANvZGLiUIZHB1FZtozn92wkc+gPmJ8ZTHne79nmDnP8NRd5Oik6rdSVvMMD+TVk58zn+n5DSaOV6sovePnAC/yltpWo+Jt4cdxVjAoLJTrc5AUQRJhjAUXJv+CnUXnszV9Lbc4dzIgfwMjIYIzNa3hm5wZscRdw5bDzyQi2Y0OE9NlpasnjUGMea3e/iD7rEa4YlEtj3t3kcT7Dht7TEeao+yZJUwiNNJV9zJL9jcwZtYibskeQJPxSnRbMDhs2XQiRukZahJPiniMMyZ7HVPO73F+Rwcwhl/L9gblEG0SHFtrt7bRhwmQpoW7/Q9zdtoCbx8xjoRsgbOXtvXs5HpxzEiDYbbv4as/LNKQ8wNX921m2+RmOmRYxZ+gCxseaCNK5sDtasdid6IJNWNu+YOmWN2lMfpglQ0aRHGympegVHimopj3lYn4/ph81JSvZUFBK/NifMUcFIPRmCJga8wzESVHL01m+0NTsnEpJZHpq+z0dUQxKuQw8JdZAoxjOVjVHARCEn49aPptA+LhWtIzYT7UohtNhYlDyyBf/3hvVHLUAm6wZkcs9n+5IHS3Nib8AwRdf8McR12cehO4mSvJcxEAycLlcZupPfMaLBcvZaxjKzYNvY2QMhBhActnYf+jPvN3Yn4tzr+C8pCQMdat57fCr/L0yhGEJ1/DYjPE4a7/k3a1vssI5lR9PuYZ5qRlE1q/l9/t3c9iUwz2jp5DpaKCmYg2P5n9IqfEqHp96JdN0u3luxysss4zgqmFXclVqGHU161lTsJkT0dfzk9HjiNLRxUlRzoMgwhxFHgS3BmFPJ0CYNpdovZ3Whk38fftSrHFzWTCsAyCsLmogYeifWZzcyNaDL/G7+sH83+AJjI4tY+veP5Nnn8nUkVeQ2PQuXxzKI2HozzkvJRqcR1m37xVeKW1g2uhfcWVWCFWHHu/Mg/Br5qd6OuU4aGtax+u7l1IQNItFOdMYEWWnsuxT3jz0Em+2tBAVNo17Rz7K3IQk0qNCu/ogdOZBKE7+GfdE7mTPkY1Yh/yZi1IgQiomL+8fvFhaT3LWLXyv/1BKag+yzRbBFcPGk+JqorV+K69sX07GkLuZl5VO5b4fs9M1hf4Df8A5iWGEB+kRWR7dSZqMLmzmw7yy9Sl2meZwcc4FTI4Ow9VSzNbKEgqC+3NJv0Ri61fz5N4j5A65ivmxVby76y0qTedy7qB5jI414mw+yr7y/RwyTWJhQhDBhx91A4SbBEBIFiaGrbyzr0ODsGjEJLKxYbPtZvWel6hP+TXXDErm6IE/81KFkexBF3JRRhbx+maqajZxtNZCVPp1DA1ayYrtb9CY/CuuGTKSlKB2Woo7AII55WIeH9Of2lKhQTiCcfhdnB8fR5IxCIFf5EfMWTze2Qy11K+yV7xaLLRWoqTu5vrw1Hz0JKmP4A1KSWS0nBS12v1JKNQbeRD82S/xbeLS8FXSvCfz0gJV4tu+i3kQZBpXAgBaaybekwv+BZotNNDzJb5NBgjBwZ1xzR66TVm4/rYlSvIHfOg88yCcLdWUSFNraangWN061leu5+uqE7SEgEsnvN4N5IRdxKTM85iT1p/EkCBc1sN8eeAvvFxkJXbAo/xxVCrWxg2s2fEAP7Xdy/NTLmBhchx6ay1fH/wbb5Z8Tr4xHhPpxOhGkxuyn9XmVG4c/T0uDz3MSzvfZlujBWe4AbOhBoszgayohdyRO5cJsVEnM8zJUQyWytU8uW8bhVEiD4IIc9zOf3Y/znvBd/LOtAuJNgiAsJHnty51axAWDhuFoeyfrCkWAOGvXJPezpGiV3k8bwOV+uncPKYfuuNvUOKYybSRtzGWjSzLe50XmxsJDgoiPHiA23my9sRGrMkPcPWQNKTjf+oIc3TnQfAECBJOVy1F5StYsX85W21NNIToMDvSGRwzifNjWik/sY6dYT/gjiFjmZIY705hLT/CxPB8oQhzfIQ/pFWTX/QO91VVuBMmRQenMzUhnaqSdbSY5rNw6OUkNL/H+4VvscOUTJhkI0QKYkjMz7li8DiGR+upO/Q7ninZw8aQi7guZzG3ZiZjpKN6Z2ioCHO0UFn9AW/s/Zwt7fVYjMHo7JmkRp/LvNyZnBsNVK/szINwM4syU2g58RZvFmxgc3sjLpMBpzOV5LDzuCJ3FpNDWmg/8BA/ahUmhvksSkkmWACEvXspCs5hUaeJQQCENXv+TX3Kb7hm8EBcTTtZeeAZ/tNURHVQJCadjURjNuck38h52WMJtX7Bp1vfoDHpVyzJHU1KsJnmY6/wyJEOH4THx46gvXwZn+19itekDOb3e4TrBwyiX/g3dkExZ/H4CnP8Jj31qQmgTgdAUJKutC47LcasdUmreXhrXXY9HVuWrsR6K6aS1ciCqpZxUKydksZGjC3nQfAWmvxhzGLuWtkO1bKFCl4eHt6ZutTrshJ9a3m2B5pJUQAyMT+x5t4x/Vq00tNMimoaBFmIVZqXaJfBicdyuf9TpkO1/VBKBtZT4KO1ZjI4EaCou+G0/pyvb08Ug8WCztlIg6WI7bV51IqMe+46Bwb6Rc1hTGwqCaZgN9GJFL61DQcoanaij5zAmOhgnPZqauq3scE5mhmJaWSGdgSgtzRsY3/dHvJsIktTElEhI5gc3szhdgcZMUMY5NjGv3Z9TpU+jf4pGaBvBkMaWdGTmBEXh6lTAvQkDqe5nL31NTQHxzMyIYUIWy3F9fs4pstlTko6Rp2E3VZFXmURDlM6/WPj0ZsPU95iJSRmKgMjXLS1HmVP1QEOtsQxPiuDKFsp7VIyybEjSDE0cLxhPxsajmF2gSk4k2GxKRhbj1JvGEV2bBT6tn1UW8KITxhPv3Bv1OrCaquipGIL+8211IkaBkEDGBI7lsnhwl/gILvtmQyNiqNfTEyX9NWtjdvIa2qi2TSe6VESrW0FfFaXh1MyYDSkMCppKIbmwzQ5E0mNH0GKdISjtVvYYRP1HoTWJ5Lc2AUMiQwjMljC1pTHtsZ8DjtTyI0bw+SYSHeiJDnNs8GgwyXVUVi+jX0t5dQJ5iWlkhkziokpGcQKad9cwt66JmJjh5AZFkGwvZxDdfs42FqOSGkk6VNJixjP9KREwpwttNdtZ7OjP0MSM8kKDcVgr6awro4WfTRpkbGEOe0Yg1sorzuCNWw82VFRGKR26mu/ZntjESc6kCnxpkGMSpjGoAgDVtsJiiqPYA0dy6DYBMIMTkTK7Z2N7TjD+jEhPh5X23GKa79mm9VFVvSFjIlLIM7Y4Yhwtn0QekP96gku1C6cPifFPidFf4GokgZBC1SJ9/qcFP+LnRRl9VCgSWS0ELHPdskBTcKm/iVNUedy+fALGR72jTSt5RCk1a5F1OL9vmqOXZmnP3YxLTWkUrv4dwFMhAo2IiLCW1A4WftCS3ILRLrqAwh9eRBkgvNHclOS8rV4jhjjbGmC5fMViAZBa15avLQPIBhPydh5Oujs26VB0OkCzjLXBxC63ndaqim5YJJ3JkVPlVpAa9pZa0Htkj6ZKMlkOkUt1gcQul9jwl/mGYiTYk8Zd18UQ/eiGLS0Mlr70QcQTr1DtNZMy9Sldb7UzGjyfmqZLwLltf46Kfryf/CH1/6PAwQXtB9m5bH9tIcOZULGKNJDvvEq6w5hBRIC1qdB6AMIMqw7HR7eSkxGlq76AMI3IPp0SFdqIFgAcOGD0Jdq+Zs1PxM0Ls6Atxa6O3y8L9Vyx36dPB/fljwIZ8XE0Em7Z8s+2wcQ+gBCH0BwaTrMaUlXfamWu2oP+0wMfamWe6oJPgkQHA5HZ42+DtuVVvxsb9hnxWSUQlQ8VW6BhVCKssPKXrvy2GJeSjGsgYa/aKn5ZdWUQLzeFd9kr1vxdyCoVmtsueSyr9Le/njtit+oMWal+HKx3mrlnv2V7NS8kdW+7XQwz0B8EGT7rPg2JT+bQNWQWmvmz/lSG1v0r9SuRWdnQv2qxpPkksuBRjEonX3Z4z6QKIaenC9PvqA0b7UwR3/HDoTXyuYNQRNKuT7Eb3ytmScNa7UrFWvy5w7R4huB8Frx7UqhvKfLxKC012LsQMs9+0MLura2tpMAQRCWIPzubq7nIihtrhqTEW1ibPF4X9Kno2+1sWXGLTbAO4ZVPoxqRC33rZSIQuldGeG5MwoGBysCBC3GrcSg5G9XY2DishTr7Yt5yqDKO1RJ/m61djnuV2lsQWNiv7s7dk/3Q3y7TONql7TammnRgtK7MvM8WzQu9lp8W09oXCmOW4tWziaNi/0Wc1ai8UDPlxaNi3a1HAw9OT9aYwshT/zxReP+8IWe0LhYb/F94mz7CnPU6ltrP5TaTxcfV7LVa/FxsddCyPMW9PwBCFrnR6tdnG0xrq8wR617V6nvk3TidDpPAgQxScG8fWVSlF9Qk57kzfMmDC0JR7SLscV73U0io4U8tRxMxDcLE4NYXMFIPL9d7ltpXnLfWu1aIWDiIPti3DIj6C6q9UfKOB1SvJp0pbQm4t9Ph5Oir7G19ktmImJ87xhxrTXT6luLzmQaF9/wXcqkqDZvzzVTo3GtTIpaJoRA22Ua14oRVwL3nsyzO3xB7LEYO9BMip6XuJLmQ+18BaoJ1qJxLV4r2ns7k6KaZrI3whz9pXGlPAhad58W3/Cn3Z9qjlo0rqhh6/NB6J0UnTJylJmMkvTVF+bYF+boSSuBAHAtJiKD4D4nRbESHU9PGLfWRSoDhD4nRY80onQU7hJr15s03uekeHpp/H87iqFzLfucFLse5J4wT5k59rYGIRAmI2sQ+vIgnMpEtLR/PdWSCSm+uz4+WsBHy/9BDuXtSbrjQDVVfVEM3cukqAW6tGhBBsF9AKEPIHyzAj2UBOSO+gBCH0DQkuK12rVAlaeJIdBkYIFe0n0ahFOjZbT2y58YcTUQ3AcQ+gCCfL/IpmIlLbJoD9SM1pcHwU/VVKALfDaZp2BSfSaGPhODv+CjDyB0kQ00M1/2aRCUazFoRaMFGsUQaC2GPg2C7hRHWk++oHa/+eODEHCiJE8nxUCdW+SJyAys6zHWtvf546So1Le/YysdCPG+P5XuAjkwWlKKaBd56pXCHNWQpdx3IAddNgOIw6wW5qhElP6OrRYGKddi8CZcLbWxv3ZMpUI2PQ1zDJQOZfOG+Lu7jrjyfmnth1K7TOO+nIC1GLM/NCz2RC0Mq6fVHLVoXK29p9UcezJ2b1Rz9Lw01Io1CTNad6vyavFSf9oDBQj+0rgWHz+bNC7OdSBRDD3h8+J8Bhrm6A+v9Vnu2del0ROVmz9M5nREMSiiJLsdndmMXpTbdbm88Ys7gsId5hgUJIJ0T7a7v1vkUAD04t892sSP5HZRvcHt5ezZLkkd7Z3v+gwXFCVhLRa3bVYpD4L7QvLVd+f44tt0HtUY3R/vx9ii5LLNbidEhCN5vS+5XB3f7WteonvhbCTHM4vxvOYt1sz9zwYDurAwEH88yqCqRVCcDjpTU/32pBSuWsVFLRrvCUDQusT9sc/6A4ID8evQGlu097aHd28CBFUfhPZ29O3t6DpDtD0Zi6z6NYWEoDd4FWvyPF8+zq44P+IEiXN/Ct/o5Ek++ULnBzjs9o4wx9DQrrzOky8o8A357Prid4KvyPzwFH7XyXfcYY6S5OYr3vxSLTyzW7xW9C1qqQi+4vH0tNyz6Kq7EWPyPdDb5Z7VhIOeAgQ1Gtf5E+boiVoDYSJazNMfDUK3vF+dTqirg+PHkSorkRob0dXXo2ttFfFHpwAEp8PRYQPyOsjui9ZdUbLz8QIIqu2dl+TJ973f9ThQhqCgU9VLWu97fptC32pji0teXHhuYKI2r+727fldYj2joiA+HmJiIDkZ+vXDGRfXWe459JR59zZACFRLpnVJ+0vjYtvPhg/C6QAIgTBPsZ+9HeZ4xgCCzQalpVBSgkvwE/GnoUGoIE/hKYIexEUtzpdPAC/zFR9nz80aAm0XJlmn021+CfIA5R5Sj3LfsnChMrYqPxNjOxxuwUjwNF8ClVtw8BYqvMfVajeZIC4OYmM7/mRmuv+0dwotZzrVshoIFlPpSRlrfwC4EHCVcukE6t9wkp/5E+Yofiz/6S2AoJZq2R/J7aTUKLQEBw/Chg2wcSOUl3cciJAQodsFb8TuxwZ20GtXRz4ZOX6DHQJrF3MTa+orDtWfvn19l+e3qbVrqYZPy7wF8xR7ItYvIwOmT8c5fTrtGRmExsZ2MBKPx1+AEKh3uVI1x57SuPzdSlKIDILF34KBee+Lv6YTX+fPc818xTuLbwrUEddzXt5je66Zmo20t8o9y3xBaWx/fRA0Y8SF1lEIHDt3wtq1sHcvUkuLWyumE5eVwmUoxhegynuvxbr15tkWe+YGCF5ny1++oHTu/Xlfi45Py7yFkCf4igBsQpMwfDicey7tw4ahS03F5FWp1V9w7+vs+kvjshlNKVJHiS/4AwDEN/TUB0GTxr21yEJbJJwn/QEIYnJaGy+rj9QAhJaaxFeIir9ju/t2OKCgAJ59Ftatg/BwpOHDkXJz0Wdnd0iwQj3l9Vgtlg4Tg0DcXiYG+TD7WmCZeNzgxJcJQlbF+1Lndarq3epXH7arLn0rmBBOqvl9gRdPM4CPdsG8hDQtVKCnmBg6AaFP80WnacNNtAomCDctiHhncZCrqqCoCA4dgrw898F2TpiA7fbbCRk9Gr2XmtBfgBAIUBX71FfuOaQL9XeHeWqBEyUTX28BBC0bqr8AQdOBq7YWVq6E554DAQwyM3GJSyknB13//ugiI08RPIQUfzLNsw8TgwwRThnbw4TgE+xptXdmCxUmBmEq9n66mAd9aQ49zBu+NIsnTQw+BC1x5oXZUtBUjzIpKphz3bxY8BWzuUOTU1gI+/d3/B0djXXJEnSXXooxKytgGg9ESya+S6Zx74R38v0lC7Cn7Id8EYv7y8ea+gMgetVJ8b8GIAhHqcpKeOSRjgtp+nS47DKk/v1xCRQv1PgCUfvYhHbhn2AwnGI302SeAql75KnvIil0brz7IvWhIXCjcZerI4ohNFQxk6JOHAjBYHzY+cX7SqaRLszTl9bE4cBitRImpFlfNlLP0BsvRiKY38l5+fCPcEt2guCFDVWABfH/wk4r9uWjj5BWrcI5cSKGe+5BN3Bgl7n1AYS+cs8yE/WHOSqZHkUfpwUg2O3oly2Dv/2tw4/mxhuRZs3CJaRUwVOEFkGcL68z4s6k2NZGaFjYKVoyt4+P7Nvkw6x5ct4KmsWTANyHdkLMW9ERtxNciPHdYM+X/0NnMiODaPPlm6TCF8TlfdJJMTT0VC2Z4Buyb4UviVXmG+LbvHmO+C55bNEmfisEQgHYtm2DN9/E2dSE7oYb0F9zTcdedfahycc7eXWgUn4fQPguaBAaGtCvXg2/+x1cfDEsXuxG+C6jUbNYU6DqVy3C02Jw4v3/qTBHoRbMz4ePP0Zatw7dnXfCokXgIen0AYQ+gPCtAQhOJ7r8fPQvvOA2K/DjH8PUqUhJSW4nXlkq9GXG68uD0HtmtC6SthBAhB/I1q1IYp+Sk9HdfTcMGdJh+vHIlaO0X558vE+D0EHX3fJB8FTzB2L79ceBq8flngsL0QsVoFA5PfQQzJrlRpFal7SY29kCCOLb5DBHtVoMgap2/ZGuhBrSl/9DT51bFJmnzYa0cyeuxx5DP3o0up/9rMOJsfP5NgAENXuf0pr6Q+NCuhK/86X67YkJ77tA42qZFAOV3HrdxCCinz77DP1rr0H//h3CR1gYkk7n5ivfZYDQGzQu1kPwcbE2apFwgZgHVWlcaHHNZlx/+hNs345+yRK44grhDdxtgBAor9VyxFWicS2+oXW2RXuvmhi8oxjkcs9KTlSBAAStScoOXKLv7saIn1zgffswPPqo+yBLQjIdOtRNHFpjywBBIEc1B5NAfCu0xhbt/hBWoESrBRCUchH0hGi1tCpudFpcjPOppwhqb4ff/hZSU/0CCLLa2B9JQMmzXVa/ihjx7tC4Jy0FQgsyjYt+fEUxqDncaa2pFp3JjNvX+dLqW6tda+yzSeMy8xTr7Q2C/fluSYQ/v/oq+s8/R7rkErjlFr8uHJlOtYo1BQKMtPZD9OlPro/eAghqeRB6m8Yd776L/t13MUyejPSjH7l90LqrQQiU12qF8mrxLK390PLfE3eXt/ZDpnGlsf0RxnzmQVBLsKE1kUCYpxoD84sxizDFLVsIevBBpMsvR7rqKkhP9xsgaIWAqW2OP5K20mUlDrtaEhnRLv4EovbyR7pyOyn68KjvCUCQmaPsYOVL/SpCTx0vvIBx3z544gm3n4i3vbAndKYm2fUkD4I/Ur7Sd4tvEsxTPEogWLQpOcP6Q2dqYyvReHdAV6B0KJhnbySR0aJx0d6jREltbRiefx799u1uoUM6/3y/Lhx5TWUnRV9leP3ZTyVeKvMFJb5yOmg8kMRwMjgRcwu0YqkS39DiSWJsx5o16J9/nqCsLFwPP9wRWt35+HN2AwFsMgDp7TwIandIb+RBOMnHXS5Xl3LPvaFB0Npc0d4jE4PFgm7VKgy/+Q2SUFnPnXtSba0lKYiFkMs9d1eDoIbQPJG+GsDwxwchEFSrFhoqb/7Z0iA46+uxv/kmIStWoBNOpWPGnIwu8QfVyhepkmlEDSCIOfsq9+wJRHtTS/a/amLQKmkeCI1rnW1Zg6BV7lnRe7yyEv0zz6A7fhx+8QsYO7ZbAEGpmqMWjcsAIBA6/C5oEHpiYlA727Zdu9A99VSHw/dvfgOd0QxaWhetdn/ozB9NcKAAW3yfmsDUqyaG/4oohtZWdJ9+il7YoISZQfgfREf7rUE4Wz4IYuP9AQg9ISwl5Cl7ePtStWsBOq0DowlOmpqwffABIR98gP7ee2HGjJOOilrMU7Rrqeu0AMLZrOb4vwoQvpPVHIuL0T/9tDshktuvSTi++eH0JgPw73K550A1wYGmWu7pJe3W0B08iO7JJzEK06UQPDrNzFp9e7YHymuVAIIseMg86aRKo/M/espre90H4b8GICxdiv6ppzps2jNn9gEEldrrnirQswIQmpuxfvABpvfeQ/+Tn8A55/zPAASx9mcjk+LZAsGCgX1n8yAcO4bu6afRNzWBUFnn5PzPAIRATQxnFSAcPozuiScwtrXBr38Nw4b5tV89BQji/b48CCoXjr8ITcvRQrQHxDyFBqEPIHQBp1r22bOqQegDCN6CRI8SkWlpdGQzmpAKvf0f/D27SloZrbH7AELYKT5EPZEatfbLXxODkmZR3s8+gPDNEdWi8T6A8G3Pg9AHELp14fRpEOxEeKVj9fRB0GKegahfBRORnRQDAsEqphUtBtYHEEyBXdJ9GoQufEUL2LjV/FarG+z2ZjpxXz4j7rH7NAjd2i9/zLk6bydFIVkGWiZUEFAgzFPMSqkSlyfjVkS1AiB88gmGp55Ckk0MokhQD8Mc5Ys0UM9aLSleyweht6MYtMo9a12UShohuTiJL498954IDcKHH7pNDLp77uliYtBiQlreyGprdrqkq57QeE9MDFqRHVpRDGphxL1lIz0T0pUanZ5Md6yUa14txe2xYx1OisLE8OCDMHjwSQasRePuTIrt7e58AEpRDFrnK9AoBrUwR/l8BTq2WvSFJ0BQyvUhfqMVqaPVrgYQ9MIHobUVycPE4M8d0hNeK95VikaTx+7p+VKLYpCjhLobLeMPrz1t5Z7lBQ6EecrSlRoDky8G8VvPxz2uCEf67DOMTz+N/Ve/wiXSLHcCBK0DIRO1+G6lPNrymL42QG5T9IRWAE1iXJmw1ELAPPv3DBnU2lytecshYGphjvJhVoohV3OAVLusXC0tOD/+mNAPPsD1wx/iEj4jndkUPVWovvqQnRSVmIjafoj5CAdFpTz1nuBD7LV3sRstcOIP8xTf0JMwR1/z9keDoBXKKzMw77BULZW21tiiXS1G3J/zowWM1C47rTBHmZ68+Yp7L4uLCf7b39w+CPb77kPq9EHwZPqKILhz3kqJyGR+qUTjSsKW1mWnReP+nC/xm0BNDAKcyBqELozaQ1hT4is9qXronveRIwT/+c9uHwTHAw/gys09+Qkynfqic3kvlC5xLRoX78s07qtAlqdjtbhjusPH/Rm7N8IcT94vDofj5I0baClcT6INBCCI99U0CIKp19bWcujQIZoEmvd43AfJaiV5+3YGfPopRxcvpnHYMOweRYDkw+8rJl8+UKJNaXNbWlpobm4mNjaW8PDwUzZYJnjvA+HJdHyNLQMjEV7pC2CIeYsoh8bGRpKSktyaHbkff/qWv8fX2ILwxEXpTbAycBFji7UWhJ+WltZlbfwdW2m9de3txG/ZQtamTZRcdBENw4fj7CyiJa+JmLP4xsTExC7ATWsvtdrFnAUj8nVJe77bv39/RowY0WXsMwEQfNGBv2BQS4Mg+vYO5T0TEo7s4a3FPH2dHzXQpaWhk0Gw2GtfIbGCtktKSigsLHQnF/LmK6aqKgYsX05wWxuFV1yBOS3t5E/8OQOiT3G+fI0t2gSNi3MmaNyTHrVoWKtd0LegcyUgKkBTg0hPDKSkpHT5PrV5ac1Z9CfGFb9TErbEmtfV1bn5qOCnnmujNS+t9uCyMrKXLsVksVC4eDGtonps5yNrdMSaR0ZGEhUV1W1eqsTPxHeJ/RT0rQSs5Dti8uTJXdZc62xr0bh4P1CA4M/Yp93EECjyVPKyFgsrGMzu3bt57rnnOHz8MDqjrrOoeMfuG1wu+jU1Maqmhp0pKVSFh2PzLoLizX08/l9mQkqXuL3Vjt1sxxhlJNgkioCodNbNJqfLiV53av59N+N2uLC32bG12TDFmggyBfksO93NId0/95RgfAIIuwtbqw2HzUF4Qjg6fdc1D2RM+Z0gp5PMpiYGNzbs4IvvAAAgAElEQVSSl5BAZUQEDg8VsNPqxNZiI8QQ4maevi61QMeX5610EQsGJwDhRRddxD333ONmJvL69BQgiIMsHiUfBJmJKEnxSgBA66CLftWiGDwZr6+x5fZAtWS97eEdqIlBCB1Lly7ljbffoNnR3HGuPc52hNXKyNpajE4nu5OTaRbl4rvxqPEVp62Dxl1Ol/tsG4IN3ehZ/adaNO6yurC2iBLsEBoX2nG2T9PjKS17dym+y9nuxNpsxRBqICRSVJI9fWOL/RpVXY3J5WJXcjKNnamWZX7nMDtwtDmIi4lzAwQlU0V3l0KTl3amQxYC15NPPsnMmTNP8jSts3vWAcJ3IcxRSNFff/01DzzwAPvC9qEfZoDgb7ZRD4jCpiLzgcDFIl+dXEylu5t9yu+d4NztQCqRMIwzoMvUw+k7y6qfJzVKuPKcSMUShhmdY4vJ9vYjdEoNEs7dTqQmiaALgyBUB6dpbHm/IoBmH/sllUs49ziYmDKRm264yY24z8QjDqOQKD/44AOGDx/OH//4R2JiYk4ykp4ABFkzogYQxG/UNHDiXV/tWmpILYDgydR7w8TwbQ1zrKys5OWXX+Yvr/2FpqlNYOpK46LUj/BkEvQq9Jb200iEUqUL5x5RkVCHYZoBXdzpuyhVP1NUYi/tGFsXpsMwKwiMXYHRaZxm165c4Cpw4trjQp+tRz9aD0LYO02P2C9xB4j9avTeLzu4DjoJKwnjugXXMWvWLJ8altP0KV26EffXzp07efHFF3n99dfdwocsJPgLENTMbP/ziZI8AcLBQYcInhmMThzmM/BIdrB9YcWZ58A4z4ghN6hDg3EGHleVC+s6K659TkKuNmHIFWWre39s4ebhKndiW2lDqnZhui0UXbQe3RkCRvYjDuwrbVyUPZ/HH3uc7OzsM7DaHeWB8/Ly3MAgPj6+DyD4kRTIDS7WrkVXUoJu0qSOXAEik13nI9q/7QDhr+8/jfnadnSRujNG445CB7ZVNrBKhFxlQp/qW4t4uglfckg4DnaMrY/WE7LEhC5Uh+40gX+175WcEvZtduyrbASNCcJ4QYh77DPxSBYJ2wYbUQcieeSHj3DNNdf4dMbvjW8RZo0VK1Zw77338tJLL/UBhEBUpGqplj0BQn5uASHnmtCbzgBFC2qxS5iXt2HfZyN0YTjBI4zogs8MUTsrHVhWm7HvthN2fUTH2IYzM7bjhB3LcjPOShcRP4pyM5MzNbY930r78nYWZF/En/74JwYOHNgb5/aUPgVAOHDgAL/97W/d9tE+DcI3ZV/VtBciOY3uww9h4kS47DIQTsKdPkDfBYDw9IfPYL/JgS7qDNJ4gY32FWawQdiSCILSO0oT9/bjvqT3d4xtiNETdmMkujABTnp7ZBBjW7dYsKxoxzguhND5oehCzwwfl6wu2te2E7E3nN/9+DGuu+66MwYQhL/HZ599xt13390HEAJxUpQdLQSw8GWf9QQIhcOKCDsv/IxqEFqXNWPdYyXy4giMI0xnTIPgqHRgXtWKZbeFqBtjCBFjnxk+gv2Eg7bPmhHfEHt3PPoYwxmTrmyHrbQua2H+gHl9AMFPKV6cITUnxd7MpKi77z50Is15bCzMng3XXQcLFnSUW4dvvQbh2Q+fxfU9HYZIwxkzH9qO2Ghd3uLWIERdF01QhofNtDfvagdY91vc58sQayDqphj04frT6lel+PlOMG9qo215K6YJoYRfFIn+DGoQ2ta0ErrHxGM//m0fQNBIAXDS9PFd80EoHlFK1JwodGdIgyDZJZo+baB9j5noS2IIHRV+xjQI9gobLSubMO82E39zAqYRYWfExCAOuK3URvOnDdgr7ST9JAV9tAAIZ0DMEBEth9pp+rSRCwdc0AcQvksAQYihogbKuHFw883umiiu1FTarFa3vVepGJpWGKNWu1q4rVpFRdkH4bn/PIfhNiOGyKAzRuPWfAtNyxqQrBJxN8QTnNE9B8hAMYSQ4tv3mmn+rNENEOJuTcQQZjgjAEGM3baxxT122KQIohZEow89M3ZLl8VFy+pmjLuC+O2Pf9MHEPwFCDab7ZQwRxG76x2r6ekZq+TprOVkpeaFLUJvRLuvVLAiikE4KT788MOUja4g5oK4gEwMrhYb9goLjqhwTPEGDH6AdgEQ6pbW0ra7hfhLEwkbHYG+uz4IYoUdLhxVFqx1LvSZ4YRE69BrnA1bhY3GL+pp3dFC0q2phAtwouWDIMIXS9qw1jlxdo3c6uQpenShRkw5IQSF6XyqFoUPgq3USv0ntQiQknpvBkHRwdraC5GTwuLEUWXF1ujAKRylQwwYYo0YE4IxhOv8CgAxHzTTsLSG8/uf7z9AkJxYW2qpPFHC8bJqGs0OnEEmImNTyMjKJD0pmkij+oJ7mhiEc+Lvfve7k06KMv37Q+NKORpEKJR4vzdL4SrF5avlQfA3isG7b3lNDA88QNCf/9xBXwIkCPPCgAFIN92EY/582pKTCQkPPyWM2HNNuxv9pLUf4lPkMEcBTLz7F21VVVW8+uqr/OOTfxJ6RziGqODua8lcLpzVFqwWHfrYEEzR/qnM2/PN1H9ah2RxkXhTCsaMEG01v/ANarPjqLFha7DjcujQm4LQu89XEEF+SOOSA9r2trrPdlBsEMnfT0UfZui+D4IEUqsV6wk7rvAQQpKDMWhgHDF288ZGGj6tJWJiFHGLEtCHaayXJOGqt2Itt2Jv7ZoDp5PgIMiAsX8oxngDXvmwvvGFsbhoXFVP0C49j979qN8AQbKbaa6toLT0BOU1TbTYJIwRsSQmp5M1IJPE8GCCNSIxPE0M//znP5k/f747gZZ4PJ0UfZ1drSgGmcZFWKl3GLFW32oOkicjM5qbm0+uugjxEgP6CivzZCK+0Ktau9zWwT9OlUJFuxhbPL7iZwVA2LRpE48++ijV4+qIm5uIwdQ95CnZbFj21VL/eS3mcf3JmBZOaIx2Hy67i5qPK2nZ1UziZSlEjo1CH+wfE/iGOp04KltoXFFNw14nodcNJGlkMMYwdYncUmGh7vNqWrY3kfa9LCJGR6IPUhvbhWS10vRCIdW7rNjMwivbe4wgglOiSfpxKlGZwShFg7aXtLvnbSu3kPXzgQTFBKNX0SBILheuJgvWghaaNzXRVmrF3iahDw8mKDuSiPExRA4LJSTScOoneRFUa14zNUurmJN1Hn/645PaPghOK+31pezf9BWrVq5k+eZDVDZZsAVHkpA+kpkXzmfBhTOYODidGMFQFZbdEyCI8EZBb9HR0SejGHpyBtzuLPYOP3hfNO7PGVE6PzKjUWsXYyvl+ujJvNyA51e/IuTpp7/ZRZ0OSa9HSkvDet11mBctwjBwIAaP3CSe36zGF+ROlfiGWruc60MwTl8hbdXV1W6v8heX/Zuou+IxRBvQG/w/25LkwtVopuXzcmobTYRNTyZtlH+agNbDLdR+Uu0GCCm3ZBCa2XFhKD4CiDRZaD/QRMv2ZlqLrW4BQB8dQnB2JJGToonMCSU4Qu8drdmlS+Gk2Ly3idqPqwiODSbt9iwM4YZuhk9LSO02LDuqqP6iFefQFJIujCYiUZ2fCg1Cw4Y6apdWETU5lsSLkzu0FyqP5LBhWV9JzSe1NJXjQ0DSoQ8LJ/bGNOImh6MUieq0OKn7sgb9dheP/OgR/wCCvZmKI3vY+tVylq/ZzLb8cmrNLkLiMhg8YjpzL13EBZOHMTA5ilAVwc0TIIhQ/QsvvLBLFENPaFycP3G2lWi8p2db53Q6v/WJkoQX9IYNG3jooYeoHddAwoUpGLphYpDa7ViO1FP3VSXVBxwYLxlE9jmRhMVoMwOXXaLyP2U072wg5coMosbGoO+Wk6KEq66VpnWVVH9ej8UQSvRNQ0kbZcQYps4TLOUWqpdX0LS9gazbs4kaHa2uQRAMq6WZyt8UUd8WREi/UIzCvtjl0WOICSfmwjjCEhQQtwTtpWb3vAVIGfSLIQTFCAdJpe+VcDW107JeMIwWnJEmQnPCMCXqkZotmI+ZsdiCCZucROLMaMI1pKyWvGYqPyrjvMxzeVITIDiwVOWx7aOX+cdb2zhhSidj7BjGpIThai6jYNduDhY0EjnpEq697WYunZBOTIjviXg7KT7++OOnhDnKl1l38wWI9/zJg9BbiZLU8ozI5bm7K8XLl7zu/vs7Sq17PkIQMBhwJSVhnzsXw5Il6IUTY2cZdvmnWnHzvZkoSZgYXnnlFf659F/E/TC5Q0umLTOcnKWjupXW7VVUr6qnJSGBpEVpZI72HyAIGhfOcxm3DiA0Sw0gSDhrWmndUEn1OguuaBOhQ8IJiQJXXTvmwjYshjAiZySSND2KEJNvzaB7vxwSTbsbqfy4DGNcCFl3ZHcCBHVe5NkqtVuxFdRR8WYFzTUSxtn9Sb8wnsgkdYFHAIS69bVUfVxO7JQ4ki9J0wYI7e00fXiCqrWt2BLDiUrzdsLSoQsJIXJGPBE5IZ4BNF0m5LS4qFlZiWubnUd+9GsNgCAhuaw07f8PL/3tPT7bXUfQoBGMGD6I7EiJimMHOLjrCPnlDqb94GFuv2oW4zKjUcIIngBBhDoGEuaolmo50ERJWtoJd2bL75oPQuP4FpLnp7sTbWg9ktOJs8VKe34d9euqqT9gxmI3EHJVLoNnRxERq92Hy+ai7MMSGnbUkbG4HzFj49AbtYGF/G2SrZ3WbZVUL6+iodiGMyKM+FtGkjnKSEi4+oFqLzNTuayM+q21ZN85mJixsejUNAh2G86yGgr/dAJz/2Qy5iURleQ9R8G49QRFGdALivb1CRKYj7dR9uFx2svbGfLL4RhjQ5Tts0471sJaKt+rpL4mlOTrMonpF4xRqDwdDtoPVlO9qopmKYrES/qRPj5U1dTQtL/RvebnZs3kyT9oaBCcdRxd+xb/+t1zbA6ezaLbbuSKKQOJFCDA3oK5fA8f/ePvfLDDQf/LfsBP71zAhGTfzPhbE8Ugsvp1atTkS1g1V4HQ3vSyk6IgEzd48dIAui/whx92l0X2+QhNQnQ0OlHS+9prO5wYhTOjwdBFvaqWhKm3fRD+ufQFkn+cTnCUUduEJ1TeVgd2AYi/rqB2cwMtxyzYR6SRenkWA8aYtNiSu735YBNl/ylBsjrp//0cwrLClf0AHFba91ZR+W4FrcZ4EhYmE5cjkiuBy2zFerCK8s9rscTEk3RZFkk5wRgUbiuRfK1xVz3lH5ZgjA8h+67BGMKD/E5YJDkd2I7XU/fpCWr2mbFY9YRdMJCseYlEJ6vzRQFOatZVUf6fEuKmJZJ+WSaGMBWva7HWdU1Uv3ecimNBhJ2XwYAJPtZXr3eDHBHZphSNIRI0VX5ehn2rlV//6GF1gCDZcFlK+Pyxu/n7qhaCpy7hhmsvYEK/WMKCJKxN5RzdvIyXnvgr++Kv5Kb77+b62bnEK5ie+6IYxEaqVJvTSgbRnSiGlkntpM3P0kSeCHtdYzP1a0soW1lFa5MOg7g0Wl3orxnFsNkxRMRpAwTJ5uL4+0XUb68h6+ps4sbFo1eQQH1xBkdhGaUfV1BfBMFRTpprXCTcPI4BY7QBgvmEmfJPj1O7rZqcu4YRNzZB3UHS3I7t0HH2vVCNcUYO2RclExHnP5g5+f0StBW3UvL+MdrL2xj+4BiMsSKCQgHQmC2Y95dzfIMZW2YKuQviOjQXnT+Xmpupe/cYJevsmBZkM2hJvDs3i9LTuK+ekveLmJU5XRsgNO1n1SvP88s/bSLx1kf5091zGZ4gq2YEETg48dXveeyZN9kWupB7f/kg14+N9zn0twYgFBVBZeU32yF8O8T5EoWFBAf04oJue6HcrmCElX18fDkK+uuD4FO7IcZ9/nl0b7+tfjGKVNqi2NHdd8M117hrpWjxBa0EUP5IQP44Kb6w9EXSf9qf4OgQbYBgtWM5XkPlf45RnWfBHmwkSGRaHZxKyhUDGDRWw1TQuUpNeQ2UflCMyBo66PahhPeLUAYILW00bS2nZH0rhgn9GHBONKHRnbxLrL+5mYrnCyg/ZCDskmwGzIvGpJAnRvhU1e+speSDIkLijeT8cDjBEcF+J0FzNbdRv7qIwg/biBkXQlOhmaBxA8hekEyMHwChak0FpR8cI2F6MllXDHCDE8VHZF4sqeL4O8eos8eQfEUOWbl+OI756NBpdlK+ohTrljYe/uFD6gDB3oyjYg33LbmPZcY53PDzH/PDC3KIkU3LkgtzxV7y37+b215rZMRNf+TBGy4kJ9b3XPoAwhkECO2T7WQsGEBQqBphuZBam6j8TzHlGxqwJUQTOyme0MZ6KpZX47xmPCPnxBKlsKGe9OWyOTn2XgG126sYcM1gEsYnYdBwdnO/73Liqqmn7KNj1FSHEDUmHn15Bcd3mEm8dTIDx4QQquGg01bWSsnSY9RsrST3h6OIH5ek6oPgbGiidf0BDnziJGbBELLOicNkEt5EbvEPXbDerTVwXzIqj4REa3ELRe8VYD7RyuiHJxISZ1K2zwr7aJsVS4sLyWQkLEbYfL8ZQ7K2UPfOEYreb8NwQQ5D7kl1Z75Ugi71+2opfq+A6RlTNQGCs2ITX/3nFZ5Z08yY6x7gxxcOI8lLKqnb+BS/eeoFvnDO4Sf3Pcyd03xnZjzrAMFiQb95M7pXX4U9e7rskNhCtV2T7YRKv3FrGJR8gDpHUnpXrW/3dwkwU1OjLTkLxyyRSOnqq91/pKwsXIIu1SoqqmhGThdAePGTf9Pv3sEYY0LUfRBcDtrzKzjx9nGqj1kxTUgncWgQ7atLqQyOJ/nKQQwdq2E37FylhoN1FL9/FKfFwZA7RhDRPwpFF16XE0ezDUuzE32kCZPQ/p30B3KBo5WKZ/IoWScRsiCHQTfEEx7a4Yvg/QgNQu3OKorfO0pIvIncu0e7AYJSnYFv3peQzGZad5RSsq4Je790sjJaOfZFNY4hAxi8II24ZHWBS6SVrlh9wj3vpBmp9L9yIMFhyqKC8PGw7C2k8N1S2uPSyVicTWIiSK6O0yC0qcIfTERXacVXOdodnFhehHlTCw/98EFVgCBZ6rHkf8Svn3iNY/0Xc/11S1iYG0uQB9+01RyidNnPuOaZIjIX/57f3rqQ4Um+wct/PUCQkb4glkBSwXq+r2Tn1EqUJHwQHnzwQWxTod+igdoAobmR8mXVtDYHEz4unphMHZadxRS8WIL12smMPT+eaD80CMLEcPSdQ1RtrSDn2mEkTUxGrwUQBPJtbqZxzRGKdjoJHp7JgKmhNK49wuG1rSTfOp3B40yEapgYWktbKF56lKrNZYy8ezwJE5JVAIKEvbyGune2cmhrJDHnJhEV58JaacbWBrqoMCJyE4jLjSEqSVz2pwiinryA5uImCt85hAApE349jZDYUG3pytcV4XJhr6im7L0jFG+DqItzGbEkUVWDULe3mqPvHmZa2mRNgCC1VVNZdoyCeon4fiPISYrAeJJ5Cg2Ck+LPH+N3z77B1vCF/PT+B7llQmK3NQj+ngGtSB3Rj68Kmm4/ALMZ/fLl6P7yF9i2Tbg4a1+636VfCAYrNAki8dUFFyBdeSWu4cPd2gRffMFfDYLSmos1VdIgyFEMItXyvz99mUE/H44x2tRhdlN6nA7M+ZWUf9mMlBVDTG4UEaYWKl46SJE1lpTFQxk+zj+AUH+glsL3DiOc54b/YAyR/aIDCjWU7Hac1dUU/eswZcWhxFw2jCHzoglV0CAIgFCzvdJ9vkzxoYz8yXiCw43aUQx2K+1HKzjxWQmNwclkLMwgtuUE+945gW1QDrmL0olP0QAIDhdlXx2n8L18UmdkkL14KMEqGgTJaaP5qwMUvFeNPTWZhMkRUNFMe70Dpz4YY1Ys8SPjickKJ8TtaKm8dQIglHxWSMvGBh78wQPqGgSnFUfjcfYXlNAeNYABmVmkRAZ/A0IkF23le9n/5l384K0Wcm/8A7+6aT5D4rU1CP/+97/dPgi+ohgCNbNppVpWurfVztdJ7Z4/Tor+MkfxIYE6OimFOYo+5URJwknRNT2I7IuHEKRhu5LsNtor7UjBRkISjAQ5W6lbnc+B549hvX4GE+cmEhunnXVIaBAOv3WAyi1lDL1+JMkT0zpMFWoSuM1K6/5CjnxYhi2tH1nz+5Ea10bp0jz2fdVM2m2zyR1nIixCXf3fUtpM4UeHqdh0grH3TCJpQppKBIUDS/4JTjy2ifzyYPTp4YRnhGEyGXC1tmOuacepNxExOp2MhTmkZBoJVnC2FPvdXNRE/tsHaC1tZspvzuko6qIaQeFLXHFir62j6qujFH1ZjTUxgwHXDCN7TJgq4q/ZXUn+23lMSZugCRBUN8Jlh5ajfPj4r3jmwwJMF97OL35+I3OEOtfH4x3m+Ic//KFLmKNsRguUxjXDHEXZcgEQnnkG3fbtIvfzd+n69+9bRYSDCJ2Ji4OZM3HdeCPSeeeh94pwEJ35CxDU8iDI5Z59lWqXnRRf/uxVcu8fS0iMAAgqZ1KEEAufpnoXwclhGI0upPoqjj27l6OWONKuHs7oCb5py3tx6vZXk/9OnluDMPqHE4kaENNtgCD8AawnqqladYSi9Y1Ig7LJvjqX9IFBBCn5INhdVG0vd5/t0IQwxv50SocGQTVUTwgflVR+VUDRviASF+aSPTECXUEB218/ji1nCCMu7kdiqjZAKFl1jCPv5JE+qx+Dr+40byhQjuRopvrl3eR/UEZzWARh/cIIjQ3BYLdjrW/DXCcRkp1I0tyB9JsQT7hIdKXwOMx2jn16hKava3ngrl/6F8Wg1JmtkdJty/j7T3/KR5apXPnQg9x18UTSFMJMe9NJsSdhjlrny+2k6Kvcs3ceBK3D6i+A0JKufOVB8AYI+lmh5FySS1CYhi3KW/iytVL3ZR57njuK9cbZTJ2bRKwC4vOkCwEQDr65l/LNJQy7YSypkzI0AYLtaBGFnx6lvDmWzHk59BsTRUhbPcVL97HryybSb7+AkePDCItQV4y1lDRx5MM8yjaVMOGn00iZmKEMEJw2zAeLKXhqFyWWaBKmZJAyNo7IeCM6uw3LiRpqNp+gqtBO0LihjLhuIAmpIj7cxymQoOlYvXveLSeamPHY+YTGiSRNfvozOJ20HjhC6c5amkpaaD5qgYREMi8eSua4eCI0okeqd1Vw8O29TEoZz5N/eEI7zNHnQXZgay4m7+O/8+e/fsq+0Blcfs89fH/BcNIVpBZvgOAdxSB7+weSLVR8orisxKNUhlfqBAj6Z5/97wUI8l4JX4mICFznnINr8WJ0F10EkZFuU5j8aDEwLRODzDyVyj3LAOHV5a8z6oHJmGKEn41WXL4HsUlOXLWVFDy9k3xLPOlLRjF+QqRfQKl2X5WbxgVAGHf3FKIHxPkNEISqv/3QQY7tNNN8vIWm/HaCh2SStSCHzDFxuEPsFViLCNuu2HaCg2/tJSw+jIn/NwNjhNFHOHTnNISFsrmeqtX5FGxoJGj8CIaen0pMrITj0GE2vVqEdfAwxlzSn6RUdYFLcrgoWnWUQ2/tI+uc/uQuGU1QuDIfl9pqOfH6fvJXNUBOGulTU4jpF4bR4MLR0ELroTJObKzFEptK9vUjyBodTYiCxcJpdlCw9BD1G6r45V33BQ4QXO3UFaxn2b/+xu+e20TGTb/l3rsvZ87wZJQC6zwBwgsvvBBQFIPa3dnTKAZffXdLg+AJENRKq4pOA2WesonBF/P0DHMMnhXBkMtGEByq5ubm44zamqletZ+dz+ZjvekCZl6YQnyctsOLAAj73tjBic3HGXXjeNIn98NgVDgILgeSuZmSj3ZScEBH1MxhDJ6VTEyUHhrqKPxoF9tWNZB15wJGTwgj4pQQxK7f3VTawOEP9lH6dRFT/u8c0iZmoQ9SQMkuB7bqOqq2V9LiiiVxXCJx6aEiYEEENyFZ22ncepj8d/MoPBHJ0J/NJHdiLGE+cqGLfWwsqmf/GztpLmlk9u/nExoXrpGD4Ztvlxx2ar/aTMGGGhrKLVjqXQSlJZFx4WCyJqYSn2ZSLQxZsfsEB97YxYSUsQECBOFpXEzeug959bm/s7ahPxOu/iF3LpnHmNRQxcQm3j4IQoPgmQdBvpAC0SD4AxBkE4NeRAT8t2oQvI9mVBSuadPgV7+CESMgPPzkL/x1YlTjSbIGwVt9K/qWAcJry99g/EMzCIkJ7VYeBCQnztoyDv9lK4csiWRdO45JE0T9R+2nen85+9/chcPiYNI9M4kZEKfsg+DVnaOxkaY16zm41U5ThQVzrZOw3Awy5gwia0IK0fHBGBQ0Ai6Hk7KtJe6zHZ4YwZSfn4sxXKnssuAbZpq2H+bwqgrqjemMuD6X1PQQgnFgyzvA+pcLsQwZyYTLBpKSog4QhHmjcGU+B97cRf/ZAxm+ZKx7bKVHam+hIa+KmmInpoHJJI+MwSQP4XLgqq/l6GvbOLSpjbD5Exl1cT+SE33zdHu7jfyPD1C7voL77/xFQABBcplpLN3LV2//kzc+2szeiPP56X0/4sqpg0iLVL5L/NEgBHKvujm7JLnNaL6Sgfl7ftRMdN+5MMfQ2TEMu3wMwaHal3sXwrM2U7VyD1ufPojllvnMnpdGYrx2H6Ju++7XtlK6sYixt0wic8oABYAg4WptonXnXnYurcM5NJfhiwaSnGpEL7QZjTUc+XA7m1fW0++uS5gwMZwIDRNDY0k9ee/v5viGQmb8/HwyJvf3+5L2deiclScoXrqV9e/Vknjt+Uy9NIt4X2sgQf2xWva8thUBUi74w8WExUX4PbbwqG8rPEFLvR1LUxstRZVU7iyn2RJByvyxDF+YTUyEcqx2+a5S9ry+jfFJo3miuxoEyY5kq2H7ijd499X3WFZsZPSVd3Pn1fOYNShWtVL3WXdSbGvr8EEQAEH4IPw3mhh8AASmTIGHHoKxY91ahdOlQVDzQZABgvBBeG3ZG0z59WxMMWF+07j7G4XzYO0JDo9Mzv8AACAASURBVD61kQOWJPpfP5FpE0XBYe2ncl8Ze17fjtNiZ+pPZxM3IMFvDYKz3UJbQQmtZgOW+maaiiqo2FZBe3ACaQvGMfTcNGJE7RQfWgQBEEq2FLP3tW1ugDDzvgswRigABJcNy9FjHPnoEKUtcaRdMo4R4yIIFj4+Dju2A/v46t9HsAwdw+TLc0jT0CAIgFDwxUH2vrGdAbNzGH3dRFWAoLmKLhcN6zey9dUjVCcOY9INIxk8MsKn8GE32zn40R4q157g/jt/3n2A4GyltngHaz98lTc+2sKJpOksuP1+bpuZRboIj1X52P96J0UtDcLpMDFoOSmKVMsPPPAAkeclMOKK8RjDu6lBsDZS8fkuNv1lP+23Xszci9JJStDuw2F1sPO1TRRvOMrEW6eTNTWboBAfwMJlo73kOPlPfU5edQwxk/qTPjiakCDQCYDQ1kz5tgLy97aROHcSA4dFETkolcz+kYQo5FVoOF7Hvvd2cGx9Aef+4kKypmRjCFaz83VELLikjsv3FAbRXEPZ5ztY+9d8DIvmMOvmHFJTTacStyRRV1jDjlc303i8joueuJLwBP8BghvZOpy4XCL8TsJlbqZu0172fXiI2oiB5HzvHMYONyn6QJzYeZydr25ibOLIbgEEydFOa1U+eRuW8urrn7C7LZEh82/lpstmMzk7nnAN9XEfQNBkyafnBzJhxsQgzZ6NJJIozZvXoT3wINqemhj8BQivL3+LmY/OJTTWfy1ZB0Bw4KgpZf+T69hrSSH7hqnMmuwfQCjfU8rO1za7AcLMey8gfmCiitew17KLqDGH0+3DKnK9SJZWKr/Ywr7lJdTHDWbMLZMZNiIcg4/Mp067k+ObC9n16hY3QJj9y/mERJp8+iC4zHWUfbyF3UtLMadnMWBmOpEhIgoKN3i1lx5n/5py7KkDyJmcSvzgRGIHJJEYJ6IiTiUV8c2HV+Sx67XNDDxvCONvmOoGJ+qPCKF3xyyc6kgpnAX37WXbszvJt/dn4h3jGTUtFl9in91sY/9/dlG2upj77vg//wGCSD5nbaDs4Ea++OAtPli5i/bsC5h39Y3cetF44kwGgjWiwvoAwhkMc4w5P5UxV01UDY/xSXDWRspXbGPDU3tp//4VzF+QQbI/AMHmYPvLGyjccIQp3zuH/tMGESRufe9HXE75R9j26HrKzC7swR2JiE6eE4ed9oZW2locGBNiCU+PJ3LOZC5YOICYaAXv1+N17H5nC4Xr8plz/0L6Tx2IXgEgCG9mS309dRVt6BNSiEsMxRTidUrb6ihbuY2v/rgf3SXzOO/mIaSlhvgACFB7tIptr2xAgJSLn1pCeHz3AEKX5RGRDMX57Hnja7YUhJF69TwWnh+LScFoV7qjiG2vfM3ohGH+AwSHxa3+2/rFB/zrL29TkjiOsZfewh1XzWZERjQhfhSa+tYAhL/+9b/bxBAUBAkJSOecg3TLLTB1Knrhf+AjCZMQPrTCIHtarOnNFW9z7m8XEhYAQHBWH2f3E6vZbUll0E0zmD05xi8QVba7hO2vbsBucTD7/+aTMDDJbw3CKQOIdLuH97DltW1sL4lm1C1zOPfcBJ+Oii67k6JNR9n+ygbCE6O44MFFygChoYyCt7axb8VxWgyGjpBCmaWIi9PcTnNdO5IpjPCYUEwTRzLs4nGMHR7hMy27GPvQin1sf/VrBp03jIk3zSBEBSA4mxtprGrGLIURlRxLtJz7QV4AScJ8aC9b/ryFPNsAJt81iXFTY/HFTQVA2PvBdkq/KuTnd/zMb4DgaK2i7OBaPnrlTT5aW4g19wIW33wri2cNJj3ah3DlY/f7AMIZBAjxczMZt3gKIWFayNNrp6z1nFi+mTV/2k37bVezaGE/Uv0ECJtfWsPR9YeZdtt5ZE8fTLDRB0Z1WrHUVFO8qRyL3cUp/uctjZRvP8LhQ60knTORQcPiicrOZNCoeEIVskLWFdew852NFKw5xNwHLyV72mAMCj4IjoZKij77kk//nk/8Tddy3sXZZHhd/lL9CY5+uoGl/zhG/I2XM//KgSQnnqoeE0y55mglm19aS31xLZf/5QYiEiIVx5ZEzgebDXepAaORkBARg+0BTiQXUmURO99Yx+o9OhIXz+fqeUmEhfh2CDu+vZDNL69lZPxQ/wCCy4Gl+hBr336WJ/+xkp2Nw7nlTw/yg4XjyIn1L7OdoJazDhBEmOOKFehE4SNhYuhMPubXjfNd+ZEAByKYfcECpF/+EldaGjqj0WethDOlQXjr83e54HeXuQGC0vnyubwuO/bqInb9cRU72tPIuflc5k6J9WsnSncXseXlddgtNs7/xcUkDkxWzEUguUThMzt2u4TeJNIJ60/JZSIdP8iGl79m/SEjo743l/nnpRDsQ2PmtDso3HSELS+tJSIpinkPXYYpMtT3+pvrqT5QTlVRi5ufdfH7FtqT4mPs3ViGPXkAQyZlEJedRvKQNFIzTT5zrTgdTg4s283Wl9cx5PwRTL55FqYI5cRSLTtWs+6lnRTpBzP5lnOYOD6mqzAjOWnavpFVz+2gMGYMc26dwLgxUT5NDFazld3vb+H4l0f4v9vv9Q8gOCxU7PiAF599jte/aiL2nOu588HbWZwbT3g36vH81wMETxOCmsejOBm+0Lx80EV7T/MgJM/rz8TFM7pvu7LWU7rsa758Ygfm26/jskUDSEv0w8Rgs/P1i19RsD6PmbfPZdD0ob5NDCKbndOOrc3hTnvb5RH/31DJgY/Ws3pVLYPuuJ4Zk6KIjjVhNIl6CL4tWHXF1Wx9awP5aw6w4KErGThtqKKJQTI3UbV+E5//fi31ubOY9f3JjBwbT0hnuJMoetKSt5c9765h444gxt97DVNmpBDlyw9CgqqCcr7+91eIb7j66VuJTIhSdJB0NtdQtWUru3eYYcgEZsztR2TEN0WZJLuF1v072fLaBvbXpzDo5kVcOCNW0bRSvO0oX//7S4YnDOGJx/+oHsUg2Wkr28vG917i+Xd2U5M0mou+9wMunTKAQUnhhHSj+I4aQNAyo/lD48JhTjUPgtWKfvdudC++2KFB6Hzc1NRJU25K8ZFJUf6tUsIbd0pk8apXpkXPvju67kqLnkWkxLjelOqW8KurobZW+2IUJgSRTXHxYrjiCqTMTFwCMHQmSvIeW2tN5aiSQPMgyOWe3/nifS76w2LCY4WWTDu76smJikuyupDtv1/BFks6Q2+Zw/ypcdrrAJTsOsbGl75yA4R5911O0qBURQ2Co7aUkg072b21hZhZsxg7LZ24GFlOlhBnu2nLer5+cwcHzZlMum0uM6YmEqRgYji68ZD7bEclRrPw11dhigzzHeYofCwsdhw2Z1dwIGYoIqPytvHZywcwD5nCuZcNJysjzK1dDVYwmQqAsP+zHWx8aTW5549m2q2zVQGC4/h+tvxjLdv2BzNwyWxmXp5DnOxU7dZgtHD0/Y9Z/1k5wTMvZNaVIxmQ7tuvzGa2suO9jRxbeYif3f5T7VoMTjO1O97nhefe56O9rfQ7/0quvuYS5oxMUy345mvzPQGCdx6EntK4eF8pD4Jn32r3slxF0ruCs5tneOZBEAxMHDq1cs+BAAQtb0rRLoeAiSQy3o9nHoT0i3KYcs0sjOH+S4bu/iy1lHy2js//sJW2O29h8SXZpCdqayEcVjtrX/iC/LX7mX3nfHJmDCPYpA0sTgEI9SfY9fZKln1WxbB772LO1ChiVOJ2xfs1RZVsfnMth1fv4+JfXUPO9GEYgpUiKKy05B9k3zPvs6UgnNRLzmPKRUNJSQxBJyIcasspXL6ZHSsrMOdMZN6PppLdLxyjj3hpsR9VR8pY98JKaouruO7ZO9wAQWlsEY5UtWETq188QEVoNjPuOofsgZFEiEyRIla7qpRjyzax88sK9OOmMO3O2eSkBvlkYGLex7bms+7FL8iNy9EECC5LKftWvsGzv/0XOx1jOefW73HzRWNJDDN4JEzq2A290URYeDhhCmYaf/MgBAqCPcMcvS9D92XncqE3m9FVVEBzcxeA4HnBe1/SApDKqnj3YffBpaw2m1uq864kKQBClzTpXu+6z24nOHHP26NdvOuOXPrb39C/+ab6xShSK48b5/Y3QPgbpKa6Kz6qpWjX0iD4AxCU8iCIvuUohvdWfsglT17vBgiK58vX7NwahAK2PvYpm9ozyf3eXBZNS/ALIBTvPMr6F1civOsXPHAVyTlpyhqE5nKKl63nq3/uxzZ8IhOvnciQ3JgOHx67BWv1CQ69s46921swTp7OzJsmMjBTaAVOpQShQTiyIY91L64kKimaSx+5ltAoARD8DGGWZ2e3YNmzgXef30XbsHOZt2Qs2RnqfFGMvefTbe55D587llnfu8ANTpQeyVxN4Xufs+HdQ5hzJjDmmmmMHhaFUIw4zc20Fhxg40u7KLGlMvb7cxg7NY0ohQRR1jYL295dT8HnB7j39p+oZ1J0tWNvPMDbjz3AS59WIo25jGtvuYzzRqYS46311OkxhkUQERpCkIKg5x3muGDBgpPVHLUAgtYZ8CcPgpv3dWYs9VxrvxIlfdfyIPRfOIyp184mJACAUPzpapY/vpm2H3yfJZcMIsMfgGCzs/qfyzm4Zi/n37WQobNG+tYgqLIFCepK2fHmCj75rJLhP/sxF07zDyBsfP0rDny1myseuYHBM4arMDAJV1sDrXu3seLJlRQ2hBMxdhi5o1MwWauo2HWIojwbhuzRzPjZIkYMCSVcFDfx9d0iBOxImXveNcWV3PS3H7mlDeUQSyeWsiL2vvYJqz48jisujeyZOfTLiUWqL6Z0+zGO77cQOnwMU+48n/FTklFLRlm4NZ/V/1zG0Lhs/qihQWjJ/4S3/vkE9/9tN8aEoYyanEtW7KnAT6c3EDt8OnPmLWLeUN9S3lnPg6ARJhzIQZe3V0gZgkn4qsWgdkn7oznR338/BmEW8fUIjYQAMEuWIImkSJMnd+Q7EAmTOk2TWj4GWu09DXN8f9VHXPnUzYTHRXXfxFB1hM2//YgN7VkMv+0iLvUTIBTtKGDNCyuwtVu59KElpAxOV0teQOuRPPa/8QlrVjahT05nwOyhpKeYsFUWUbrtKKWHncRMncLUO2YzfFgMJoXCQcJJMX/9fla/sJyopBiu/M1NnQBBK1mx1+a6AcI63nhuO23Dz2fhteMZmKEeFSY0CLuWbnbPe9SF4zn3tvmqGgQkB5bCg+x+9XM2r6nEnJLNoJk5pEc7aCvK5+jXx/+fvfOAjqs43/5vm7SrVe+9WpbkIkty7w0w7oCx6c0EQk8gCZCEBEKAhGYSIPReTLNxwwVX3Ktc1Ltk9d53V9u/M2uvEUa7K8tgku/ve46OOdy9M/fOvPPOM8/baJfGknLT5Uycl0iwn+NS7nptD/s/+47CjSd48I4HnAIEU3cdDfte5lePvs+efCmRQ1MZmhKOTx9jqlD7MGjmtSyZlk60j+tUy/9zeRAswtX89CXQtslkwsPD40do1hXaEIt9oHkQ7AyCq0RJItVywvxUJt5wCcpzBQj6JirWb2f9s/vR3HUH189PIDLQNQshGIQtb6wlZ8dRZt1zBSlTR6BwlI3DMRY+BRA+38CaDfUMe/ABLhvrg58LBqGhrJZdH20mZ2smi5+8jeTJqcgdMQiibxEbrO2g7mAWBfvzKMqrpqvbglmiQOEbSOSwoQyeOJRBGeEI3yBHydPEfNQVVbHljXU0ltXyqzcesgEEmaCDHVwWg47OslLK9mVTuKeYxg4teiOYJDLcPIMIGzqE5GnDSBgejK+X83jp4gN5tjEf7BfrBCAIse2hcut/eOflF3lxmwaFmwq1Z99IXiKTEzX1Wpbe/QC3jQnp8yv6yoPg6+t7xj7rLDGPq83OFUvW37btdGB/TwK9AUJf68sVAHB1X7y39JFHkLz44o/HVC7HGhiIccECZDfcgDQt7RQ4OH3ZdYb493xSLTsDCPZUy47yIIgwxxVbVnPdsjtRBwg/G9fZVc98gI1BKGLfM6cAwrCls7lifN9pvM8enNIjBWx96xsE9b3orzcTlhjptB6CRddFZ0UphTuzKTlcQV1LJ2aLDIvUzba+ItOHkzwthfghQaiVjuutmIwm8nedYOsb6/AJ8ePap25H6e3Rpw+C0zOPsQfdie/49PUjaIbMZO61IxkU4YJBMJk4vHovW99cR9rlY5h55zxUThgEW/6WHg2dZeWU7smiILOUmvouzFYFVncVftGDSJyYStK4OEJCPHAW4KXX6NizfBt5GzL5rVOAYEHXlEfWBw/ywFtHyK2ToFKrUCrlffo2KH1DGH/74zx63aUkOzBZ92VisDPlrvSGKwZBPC9KuQvgLz9Lds+n7TPP/q+Vex68MINpN16Gu7p/VdPOCLlZR2dFNRVH6zEOG0pSrA+e/SgZbdQb2fT612Rvy2TO/VczdErauZsYxEv0dNFYfJKyCg3+aSOICXXH3UGqY/s7C4Cw/cMNnNhymBv+fidDpozoBwV6alG1V9fRUFpLW5sek1SJKiiIkIRwgkK9HZ4ueivumsJKvn19FQ3ltdz15iP4BPm6PF2J3OmG9laaSmpobuhE023CrFChDgwkKC6coHDRt2tn7cIDOWx6bRWDfKNdAAQj7eXHyD1+nJxGp+pMGN/xjkpmeNpIhoX1TWv+4k6KPyODIJSI2CTPTkTmCgC4um8zfQiA8MIL30+AYA0UChg0COvcuWgXLsQtNRVFL3Agfnw+CsyGhy0Wh4cScb+/YY4rNq/m5pfvw9PPqx/rq5ecCTu4ro26I2XUmrwIGBJLfKjrQ4dooeRwPt++sdrGICx5fCkRg6NchjkKH6ee5kaayupoqm1DJxJzKj1RBwQSPCicgBD194mEHCwHQfPn7DxmW9u+If7c8Myv8fBWn7uJwZYDoobCnAaM/pHEJQbjo3buvyH6Prh6l+27M2aP57JfL3QBEE5/hNmArrmZ5vIaGqrb6DHJkXr64B8bQVh0AJ6eIjGU8/Xfo9Gx65PNZG84zG9+dZ8TBsGKUdtE/Ykd7C9qp63Hebsydw8iUicyNiUGfwf7yf/3ToquFqMrJeJKEYj7/c2DMOTKMcy4eTZKdf+KorjYNlzeNuoNrH/1K05sO8y8B5YwfNpI3JSufRdcNtyPH9SVVrPt/XUc3XyQm5+5h2FT05ELxfszX2I+qgsrbN9dX1bL/e/8Gd8gv3NTnufxjvn7TrD+PyuI94ni2X/8c4Cpls/9BS4ChFOVFXtfrtZ2nwBB5PpNSoKbbsIyezaa0FDc1WqH5g1XJgRX9883zHHlljUsffVBvPx9nDN05y5SDp8oOpzLhtdWILzrb3jyTiIGx/SjouL5v4DJaCR7RybrX1uBX0gAtzx7Lx7enufOIAzgVQRA2Ldqh+27R82ZyJy7F6Hy+j5z5gCa7PcjPRotOz7eyPF1B3jgV/f2L4qh3607/+FFgHABwxyHXzWeS2+Z79x29RNNrGhGMAhrX/2MY1sOsvA31zNi+mjcztVJcYDvIwDCt++uJnPzfm77xwOkTht5QRSYDSAUVLD21c8R7/Dge0/gG+zvkkEY4Gf+6LG8fSdY+8oXxHqHXwQIvU7aYqDO1dnIPrgXjEHw8wPhZ3DjjTBtGpagIDR6vY25cOT/4AoAuLp/vgDh6y3r+PXrf8DL3xe500RkP5WEQ+GhXNb95wuEbfzmv99DVHKMi4LeP03fwsRwYscR1r36OX6hAdz+7G/x8FFfGIBgMrF35XbWvfoFo+dNZt49i/G4YABBx7aPviFz7V7uv/2eiwDBRTG0/1kTQ/riycy69YoLyiCsevkTMrfsZ9GDN5M2Ywxu7heGQagtrWTjO19zeNMe7nj2IRs4uRAMgnAqq8wvY9Urn1JbUsUfPnwaPxtAOAf77Hnos5y9x1j98qdEe4VeBAj/KwBB+CCICo0zZ4KIVLjiCpsECIZB1FL5bwYIq7d+wz1v/BmfQGFGuzAynn8wizWvLrcBhNuefoDopDiXJobzWFJnHhUMwvHtB1n9ynL8QgO584Xf4+ntee4mhgG8jGAQdq3czJpXljN23lQW3nudjb24EJdgEDZ/sJbDa3Zy3+13/2IAQYQ59o5icMWuu/JBcBbmeD5tn3n2bCdFQbMKJ8WzL1f2vv46WfVV81r05axYkz3MUTgpjl4yg9lLF6HyvHAmhq/+9SGHv93DNb+7jYyZ4y+YiaGm5CTr3vqSQ5t2c/fzD5M+Y+wFAQhCOE7mlbLi3x9SU1rJnz56Dv/ggAtmYsjancnKf39IlGcw//yFTQx9FWs6n4JkQtb7CuU9n/XjSomIPh0xCPZNXPzblwNkf5SM5JlnkCxfDqLo0u23w6hRp3wQToMbO0A4O8Syd9996YX+9O3IMdredn+cFNdu38hv334C7wC/C8LQiXfLO3CclS9/ZDMx3PHMQ0SnxF8YE4PBSOa2/ba+A0KDuGfZo6h9vC4IgyDYi+++2sjKlz9m4vzpXHn/TagvEEDQdWvZ+MHXHFi1g/uW/voXAwjvvPPOgACCI5bMbp4fSLGm/qyvPss9/xIAwVkp3N7VHNMXTObS6xfaPEsvxGU0GFj1xnKO7tjPVffcRNqU0ReOQSivYuNHX5O5dR+3/+23jJgsGISf/4QjBKeqqJxVby6nrqya37/+JL5B/j/ykv25xj/nwDHWvPkZYR7+PPbnx4iLi/u5uvpBuwIcFxQUsGzZMoKDgxHVHEUUg90ufz6buOjIVbnngW7Srha6HYD3FebYn01atC+uvjZxmw/Crl1IamogIwNiYqDXAUM8q9VqbQzC2V7W/enb1v7pREoDObT0p5rjmi0buPulR/EWJoYLxCAUZGbbZFyv03PrX+4janBsv6s5ns9iEJv08V0HWf3mZwSEBPKrpx5C7XVhfBBEhNzuNVtY+9bnjJ01hfl3Xova88L4IOi0OrYsX8Ph9bu47bqbWbRoUZ8H4fMZW0fPtre3s2XLFh599FHsiZLONYrhFwMIZydK6ivMsXc40kASJbk64Yj2XSVK2r17N4899hgBieGMmDz2gp3iBS12YPNOynKKGDdrKnFDEpH3lWr5Z5Cs1oZmjn53gNLsfC65Zj6xKYkXxA9AzEdzbQMHN++irbGZhXdcj6e317llmTuP8agsKuPQ5t34uKlZdNVVts36Qlziu2tqali3bh3p6en84x//sAEEsTj746wnfuOsbrszGXeW9Odc+u6LBXDGILhq29n9M3qhpweJiMAQSc5Ewp2zCi4JgCBOOOeag8GV3ujPfcEgCHBydhhl70RJn638khnXz7fZw6Wyc8ikeB5CWV1awaEtuxFh1NMXzyEoLOSCmBhELoLyvCLb+vL08eLS6xai9BDFms4xUdIAvt1iNpN36ASHtuxicNpQRl86GXdV/6I+BtDdDx4x9Og5sfsQxUdzmTZxCuPGjfuRPJ5vH46eF/KflZXFp59+yocffsicOXNsyQjtANmZ3uivjPcV5tg7CdO5+i459EEwGo2o1epzzoNwPhnRXEUxCAZh3759PPnkk+QX5NuobkcpZQcyybYJEimD+sgVIg5PgkUQC0vh5mbboF0U7zqnV3DWtxhTo8Fo69td6YZMJtLSnlPzTn9sF8wf/cgKZlvfBls1RrGIT208P1HftqKTpzbTvi7xveK7xV2BtB2ZpQbyNvbTsMO+zWYMBoONghTy9lOZGOwgWPxrVw69399VnpHzWV8/F0Dor4Jz5YMg2vk58iC4CnNsaGjgk08+4bXXXkOj09o26J9Mxk+bV1zJuJAHd6U7Uldxeuci7E7Wl9Bnp9aXwZZpUfhT2d7xJ1vbYmX/OGW37fWtokq0EYPBaGNqFO6i6uNP1fGpsNm+UpHburZaEeyJ+HNTKGwZRX/qvkU/fbVp69tksh2CP/roI2bNmnXGzOiK/TsfgHA+bTsECK4SJTmzv4oBGoh91hVAEKCltbWVwsJCurq6frBUeg+CqyQyjk5XYuLEe/8oDe3p6AzRvxgXO01qF4LzmQC70DpLciEUnOhX9C82SrGo+tN3b8bHmYe3aFcgz7M3YCGU4k9slOJfYXLq/RtX/ijive1j3deCEfdF22I8++pb3BfvJq7eAMHVd7k6DYv27HN59ibdu23xzrGxsSQnJ/9gzM/HxGAHCPZvOlvf96dtR+vLlRL5bwcIrkwIru4PNIpBsAvV1dWUl5efkTf7vLga0/6sAaFX+gK49g1DyKL4b/tvxHf2R8btv+kLVPVHxu3rT/TXO61+f/q2m3wc+avYv0nolbPXvnhW6DOx9oUuE+u/L302EF8Y8d1ivMWzjpgq0bf4E3q+N0Bwpcdd3RffJfoWbfaVrMg+rkJOR40aZWNE7XqvP23bD3KOTHyOajGcT9v/UwBBCLR9QdpPgGefvuzK82zF62qQxO9dpaG1T3DvDdq+wZ+PjVS0KxwwhYJwBE7sJ0dHfTvLIifad6Y8hVCfXXej93fZ+z773VwpR/tzjgCZ/WQn+u4rw524b18UZy84VxupK+UplJOdJXO2SYt+z7VvZ7JwESD894U52oGwXV77YnScrS/7idERCBbgX8j42Ru5kIWBynhv1sYZQBByLpjgvmS89xrqy/Qi3s9RUT1nMm7fpMVvhE7rCyDY+xbtn7327QeLgTis2vW46PPsZGD2MXPUt6s9wn7fmR+A3YzmyhFX3O/9fa767g9Q/T8PEFxtCv3ZpB2dQn7J01V/AIJ4v5+Tfu0rrfb5Cq3dnu5oQdnpNqFEHCmovubLFUPg6r5dgQmA4On54/Cq/gAfR6DL1ZhdBAj/nQDBFTsxEDkUcibWgNg0xPrqCyAMVGf1R8b7C4L7Aja9N9GBHLbEocMZQHC1fs6XJRPfdHaUkKsx631/ILpWPP9zR+o4k9OLAMFJSlVXitkVArsIEH5cd+N8x/QiQPixw9dFVa1lcAAAIABJREFUgHARINg33PNZX642O9HHRYDwQ8dHV2N2ESBI+mRybSD2f6EWw/+vDIL4LoE8nZkYfm4GwRHNP9ATjv305OgkIP7//2UGQSgjZ06KA/Hx+W8GwXYZ/29MlDRQGXe14bhiEFzNl7P7/em7PwDBFXMyEF+y/pgY/n9kEMR89SdSZyBmm/7Iys/KIPT09Jyp5ujIgctul7bbhR1RU878AJw9axesvhxM+tu3I3u33Sbt6L69776cFO22K0e2Rldtu7ovJt/R5Pbu25FNztmY2vt2FAEg+rY7Cjqaz4GOqd2m66hvZ06KrsbM2X37PUdyKP7/+ci4szF19d72k534XV82UlfPOxtTV8/+FDI+0LUt3s2RI+5PJeOO5NQu43054roaM1f37fPhrG9nSZr6s3adtf1LyLh9vpzpUqFTHMl4f8ZsoHLmag9x1rcrveFKFsR9Mdd9OSn+3DJuZyZF332ZssT9gY6pDUBrtdofAAShvPvK9OZqkM5nAn7Jye2P8hzoRulqzJwpz/4K7flMvljMA1Ge/V3ozhScswQ2A1WersbMDhB+KRkX4y2us72s+wtEBzrXv7SM90d5OvJcd6bg+iOHv5SM/5Ig2O6t/0vo8fMFCAPVta72kPM5WLjSK84AQu9nncm4KzDobFzsUSGOAMJAx9Smhy+aGBynoRUD1PvkdvZJ29V9V/SQeN5VFIMQ/IE4zrhyuLNHElx0UrTt2bbL1Zidj6nLjvRFPwNNtWwHCH15h9tBlSPW5ucs1uSs74smhotOiv1ZX+erS0UfQsYvOil+r8/sY+rKnOTMEfciQHCSp96V0Lq6fxEg/Lh8sBDf/8s+CBcBwk+jwPoD6FwlSvqlfBB+CsXtCCyK/98fHwRX4dEDsZfbT/FiXB2FOYpv/zn9bC4ChJ9mfZ2R0YsMwkUGwREzMhDkKcTzYhTDxSiG3qdGV5kUBypnrhifiwCh7zwIjjbp3qDrIkD4MbPoSE7FeF4Mc+xHqKEjVOsKMdttOH2hP1cnBVdtuzrF26kpgWrPdh5zxRC4uu+q74smhot5EC4k/fpLyPhFE8NFE8OFlPGLDMJFBuH7ETidY9uZn4CrTfp8AIK97YHahv8bAMIvFeYoHNf6yjJ3PiFergCbnQIdSKIkV227Aqq/tA+CCMMSp8ILDYIvBEBwdLL7b2UQXMl4b4e6vjKNOtN3/xdMDI6c7n4pHwQxH/aKpY4y4jpjHwZq6rIfnn/WMMfe1RyF7cpei6H3Ltxf5djnRmk1oTdp6TJoMYkCPWeqhslA6omvwg03icRpNUdnlHVvxdyX4PRejI4FS4PFokOqUCGVq3E/zRC7+u7eAEEiEXUTtOjwRK2QIZdIzji9OaNQXQmWGFPXToqiuJIBg8mMRO5hG0+sljPpiiWY0Ik85BIFarkcmURiMwP8MFe8qPBiQicKmlgluEmtmCwmDBIlvgo5ZrOebguo5G7YCk73VbnQarG9R5deFERxw12usPV15gRh1qEzddFpFH0bUXv44a1U4yaRnq4VI0IvtRgtIJfJMVt0aCxGLEiQy7zxliuQ9grbcew0asZo0mCSqFDK3ZFLv38HR/ZZ21yb9WiNRqQyd5SiMFevReBKFnrfd0TP9vbwPvvdfyzjVqwWIzqTET1ueJ8u5jMQ++1PAYLPxwzgSsbPp21nDpL2SAIRNeIsmyGYMRvb0Et9UcoUNnnpexMXTssiVbcWg8QTN8RasSKVueEmE741RoxWKUqFGxKLxeY092MQLGS8G4PZikzhhVJul/1Ta8ps1tFm6MZoMdts9W5yT9RyDxRSWzk5W/8GgwajxBOV3EyPSUuPxYgZd1RyD9QKN8wO9HhvNharAb3FhB53vEQNgdN1IFw5ZZtMOoxmPch9UMqk9FpaNn1jr9/yU/sg9L2+Ts2HzmhBJnfDYjTa9M35gOAfr13Rh6gf0YMJUefBE4UoWNpLN4gxE3MtwMGP6kBYTPQYtGitcnyUKtv7nf2sKydfVyYhZ3UgzufwbEt9bTKZzoQ52gFCX/n5++PB3RdAsBqqyKnZxFcVOym1mLDYJMqKVeKH1eNaHk4aSYa3+kyhDUd5tF05twwUoYl31mhqqKr6impiCQ67glSfU7N/LpuCXltIcdUatktu5eqYIKI85C4Bgmjfrjz7KvJhn1zXAEFHc1sO2VW1KKNnk+qtRMUpgCCUjLmrkM21ldS4xbMoJg5/mewMQDgz11YT6E+yq7yMRkkQI0MVFNfmc0iWzqODImlsOMRnLXJmxA4jRa1G0RdAMHfQ3p7H5wUtpCWPZrh/MOozAMFKW9NWtlYsZ2WnDrPZmwify7k+dRYjVGrcbTXgtJSUfketSYWftz81DatZ0V6KBhVhAXdyV9xQElRutrlxvFGKAjjtHM1/lyLZdCbFjCJWbYM0tkuwB+JPRG/8kIoyYtAUs6WkAqtvAmNjkwj64S+c+la4YhDs7IX4t18ybrWg78hmR20ph2UZ/GlQlMPv7g9L5qreiPMxtdj6di2HP/a9sCtPoTjP9XTl6rtc+SCI+87Cae0nN72ulMqCxzjq/Rjjw1Ns8tJ332a6urIpqNhArc9dDHevJK++AWVwChn+VsqrSijW+zJ+8HAipDL0PT02Z73vx+2UjFdUfEFRlxyfiBsZ5SdFZt8xzDoaGnfySvk6inUtyKUKUgKuYG70AlJ9BNgGbVc+ZTUbKVPfQYYyh31Va9nRXkE7I5kcM5sr44fgZzLZNssfyXivSB19yz6215VxzG0MtyckECaKK/W63zfINdLefpT86gN0+d/KxBAfPL9fWjYZEeMt1kLvQkxnDgjnYabuez4sdLZnsb2iEb+I4SR5+eH3kwMEUbiuiYLyA5zUuBOTeDmJSlD02uXF99oBwtkybupp4Hj5Vjbqo7l16DjCBBjr4+AxUJBsN8+7AsGOCj05Aidn9JnFYjkDEMTk9lXN8Vw2yrMVt0Wbx46CT/mksgK/iLGkeIk62Ea0+hqOlZYwKekPXBY3kmCp3jZsA82jbWcHnDncOWIQNJom2tuP0SENxtt3BJGqU7Pv6rt7Mwia9n0czHmOdyQv8viIWIb4uLkECHb69fwzKXZSWbudbbmFeA6/n0sD1XhLrWcYBKu+kbyOVtplgWQEBKIWoOFsBsFqAVMzxc0tdOJBmPQkGwp3sUJ2OWvHjUDbXcGhbinJARGEiqQcp0ub/kDwjA3U1+/i8b01zJq0kBkRsfieZjPQlPFt+W62tDeQGOBHd2cd9e21NIXcyePJqcQpJaAv5utjB2ixuhHq40FpSyUEKFBYOqiobWZw1C1cGTcEPzepE4AgcsE38M3O+ziguJXrUueR5ud+Zkk6ZBAsPfS0H+LtwyewhI7iihHjiRHfePpJV7LQHwbBrjz7Ol2dzSBYrWZ0Ddt4vzCTdYrZfDN2uO1d+gJGrkxd4hMGGubY303652fJ+gYfrhgEO0BwxiBoOg6TvXcyGwI3sTh5IiN83R2sXZHYrIb6lmzalFPw1+3n67xSvGInMTs+FFNrM40mFfEhEfggoedHDIIA7R1kZT3BgRY3gpOeZV6Y1HYiFSxGj66Egzn72CvXoVLKUHaVcKLdn8iIBSxNSSFcaqC+8QD78/ZgTrmVgKoVlFms6NSeWFpOUmGOJDbucpaEhOBpseB5VrEmu+lC/Kup+oJ3C4+wSXUFr4wezSCVSsS8uwjr7qGhYSO781bSFLGM6+KC8TuF18/oS2cMQn+Y4P4A1TNrwGqmuX4r756oIDxlBpODIwn9yWsxiEKBJ9lz9Guy2jxIHXsPYz05wzKL93XGIBi6y9hy/B1e1gxn2dQrGaRU8r02+j60eqAAQfTtysTgaExdmbpsAPrnjmKwaPPZkb+KzS0qpqUtZXawOJ4b6e4+zu5dN3PI+ylmJs1npKeWpqa95LRlcsQM/soERoUsYLS/F4IOMxprKa7cysGuOuqJJyV4PJP93NG0V7JZG8DcyCjCFFZ0DdvZbIgjJSCaUO0OclqqyDJIMCrE5jiWNGUt31buptxsxSSJYmL0LBJkRkxtO2mWRqCQuUFPKd3el5Pu74Ob1UBDw272myIZGxJPpKSeY/V7OdBaQos1kkjv0VwePwRl+16OZAuAsIzfxWios8gI94timLc3bqYWTrY10mTxZVhYxJlTtdWsp6s1j8NNB8npaaKDIJL8JzAxPJVwhRVtVyEVNV+zsceESepLlNflzAxPIIg6smvzKWgvolOqwGj1RK3dyJbaDqRh13LnkDmM8PLGU3qKQbBoqzjc3ECTIogMj3aaq7dSI4kjS1OCXtaDu3ouc8KSSFV2cqKujtYeLRZLJm8Xf8sRyWjuSFnKPI8WsnuUjAyLJ8rNSEP9Dg40Z1FiAbMknAif6cwLccfSup8n9tQwa3IvgCDYAW0VR9raqJdFcnmgD10t2Rwu+5TfNqTy76kLmOSjRNW6i6fy25B5hLMgzIcOix/DwkJQGqrYevDvrJVdy0MjpuLdtoLc7i7yjGZkyiRGBU0mVVnDieo17NJa0UkHo6r8F/Ve93JT2jzSfL9fkmLD6GovoKZ1LTt6rOgk3kT5XsOMIC/89Jm8dfgE1tDRXDliPNECWDUdYGXjCUCNn8dE5kQNJcZDSl3Nt9Tp5DSbdFTpCtAqBjFYFY+XYS+7eoyoFOOYHpvGMC9f3NBRVbuV3bWHKbZAqHcq48IWkeyhRaupZFt5Mx6KTMpNHbSYYbD/HMZ4BtPUsJznSnaRJZvAvUNu47rwIIKVfZfRdbZRng9AcAWM+gMg/tujGLQdh8naM8kGEK5KTCOqZz3Hu1U0GjR0Gk/SLIsn2mcSi+NisGjLqKrbTbN6Ap0nP+SLk/l0+l3K9cljiZVAl9GTYVHx+Jk6KC3/hm099bRazWCNYGzENEYH+FCV9wQHmhWEJD/H3F4AwWCoo6SmDXlAFOFqL2RdR/g8awV5lkSuSL+NiV5dlFQf4NtSHRPGTUFRl43MO4kIvwjcG1fzdn4xxaqx3JUUhbE9n280LQSZNFhUI5kbl4qvroAt9YfJ6jYSqasit72HXO8reXnsaBKVSgROsc2nxYi0u5B1DQc5rqkHaSKpQRO5NCyIzkYBEFbQEv4S18YH4G4o4lDNLo5rGugmgUE+GUwMjSZCrqOptZj17UbCrMfI1XfRYx3B2KAApD1F5HdVYVWlMzLoEkb5u2PRneRk5Yds0oFW6k2Y1zxmhsUSodTT1LiHqtZGys0e5OlzkSgiCPSezK1R7hw+8RpvlJRgDJrH4kHTmBEcTpDydC0Gi4a29hPsqDlIoV6DkWgmRs1gVEAkPnIBdnZzsG4/WWYrvspBjAq5hjRfMwZNKXurCuiwlNJiCcWPekpqt3FIE8CI5Lu4MT6DcGqpKP+cnQYrWqmaePVlTApPItxDjrWnhiMN+9nUWoPKpMLQmsdm63henX4lg5VKemGqM4fQnxMgDKTtMwzCLwMQTGi6s9m/53r2qJ9k+uA5DLHuYX3RevZ2tuHuKaFHL0Plcw33pF5KuKSepvpV7KooosBqocMgR6Yew/TQYAI6cni4eTCvjZ9ImtJA64m/8LvuGVyZNIn05r/yTnEBh91HkRaWxBiPKGI0q/iyVUmPmCW9FH3QLVwdqMCr6h9km0cQ5J2Ivn07x7zv5oGhgwiRdHDg0GOsk1/BzUMzUDd8xsaqInIsCnr0XZiJJH3YncxXllKWv4x3Jcu4LyyfHVXVhEZOZX5sMr5dB9lenk+FYjw3pqbgLRV2RwtGQwNFectY19RJpUyO1GLB6D6JsfHzuNG/h9zyVXxasJKagGhUJg16/WCuTFnKeHUtm3PfZ2tTLZ6BEwhTBhKg38CWhm4IWsy9qYsZ4+tnYxEEQDA27+E/+dnkq1L4VVAFx/b/iT2qW7GqWvE25bPdeCl3Db2KpUEaVp04SnmPjITwRj4r+pYcaTrXJPyaWZb9vNroyZ0ZlzDMuJONRVvI1GlReEpp1/SAaQR3pC0kwZTDU/vOBgg/5OoFS6VrKyHr5DfcWa7mqZmLme7tBhVv8kpDMP6hc7k7zv90AREzhp4qdhx8mhWSRfwubQr63EW8U2OmTJ1CeugUpvmNIFizkU9Pfke1Rzg+kgQkTV9hDniIu9J/CBC0HWVkla7ly+rtaLx9waSlWTecG4YuZpy6ia+OnwYIQ1OQ1+1jbflONpq6CJL0oNEGMyRuCXckhFN89GFWN6iwesfhYz1KvtZEj2QQI9xbaXIz0dysYMLQu7guIR33tlV8XbidfZ2dKOQaDNYAvAKWcuegSBRtO/nrd6vxCVIh85DS0bkHnfIW5kbNItq0nhdKviNfNoZbku/j7thQwpTufZbRvQgQelt2T8lbf50UewOEhXGD8Cy/nWU1AXR7xBDtUU1+hwGJ2wQem/QAodotHDnxPEWhzxDYupxNdXm0eM/ipsRBSFqbKNKGcu3oUQR25PD2iVWUq4U/j5muhhy8Iu7jxuSp+FQ92wdA+H6N2EGXSZ/LthNvcVQTyZjU3zHTq46s0i1s7BzMrSPHEux2yndAXIbG9byfW0iR+0huj1dRWPo1t1WUcGXwYKIDZnJLQiRVZR/yRWM9TfIohhjLKe2CpuA7fggQTD0YdCc5XriWLzsqaZDpsWpNqFTjuCxlPuMt+zlQsJKW8BdZHGOipuJT1lVVUCuXodV1gXwIM1IWc4VPDxVlX/Hrsjqm+ILe3UBFTTeBfoMJ85Sg1+ZQ2jOIqLDb+G2iN931W3kv5wu6fIORWHpo60ngquRbmB7uR2Px06wqLiVHOR5vz0KaugxUyafxzoQpVOe+wvsVpWj85nN90izmhEcTYgMIJnSafE7kv87aNmhXCOuOBffQ67k+YRRJpt18k7eKrW2tyDxlmAwqrF438uCQYXh2befl/e/S5RGKp/doktwbOdn4HQe0QaQn/poboqIxN6/j3fwjuPl5YjF20GSZxJKhV3NJoDvtdWv4vHw/e81BpLi7Y2gt5Kj7PN6cueQiQPixiUEwCJ+yvKqa4OhJDPcWtl8DBn01ZaX5JCQ8yMSoaLrKnubjWikesQ/yWCxklq3k/YoiJqYtY6L8OMfzP6M18GqmxI4mTHuE7U1tGHAjpKfAKUB4plSHNOYhnh4ej7Z+LXszn0M7ZCOzwtT4ak/wUnMQYzwNeFc/bwMI8eGzMbVvZ4UmhrtGTGSYtIzP97+HPPpmZoVJ+ezgW3R5zWTWsGuI6FzFhoJvWW2+ikeHutFV+iofSpbxhyQNrSWfU+lxCeMGTSKgeR17amqwRN3Iopgg5LY1bUKrLeTb7UuoDXqC8YlzGSItYmOTjhb3BJaoCtmY/Tlv90zjqSnTCNEcZEPmMxxT/4FFET7UV73PMcNgZqf+hhnBBmrqt7EtpxjPYfdxWbAPvjLhdNg3QDiw/2/sDVzGXYOTGKM4ysNHjhAWtYAborzYlXOUCmk08warOFCwk9WyWawaM5yq8lX8sdLNBhASu1extdWdoJCZXB5iobLyCzYf30RYyjOMVlbw7AEXAMGopaF2PzvLd7JKMoU/jhxHkqKdgmPLyJOPJjFhMWN8pEjNXdR15vFt/V4KyrLxi7mHmxMzaDy+kOcbB5GcfC93J8QhbdrG5qwP2aq6nqXD0xlmKeXdg09T7HEXd/yAQTBRX7mSNVmrWa2+l3+mxRKkP8qHe+7GHPEys0L92VeUbWMQ5se6kZ+/nu26KK4cuYRkSvjuxHs83zWOf40fh7bgCd6qDWLUsLu4M7iV7wo/57V6M/OG3MnNkVJ27LmH4+rfcEPqRDpyfsUXncOIjL6D6/2aOF67kbcrq7k27bckmvbxzK4XiEx5hcVxSYQ0vcRj5UqCopfwh+B6vig8wga32awZMwI3qRSZAJe9HD/tFOdFgPDTAoSHKuMYknwHDyX6UlD4Bt+eLGZI+iomKbaQnfMSRaHvMcMjm+9KSvCMnczcCAvHco9wUACEjGF4t+fxeq2FBUPGMkRppe7oUp7qvpRLkucysu0//QAIeprq1rKq6DgdntO5Ytg0ovR5HMzbSJHvVdyUmICHQorZ0kpd43Eyyz5nc1cYwVG3cUdgG4eLVnNXpYHnp9/HbH8v/Du28edj3+IWMJerEyejqv+A9wqzyfRd+gOAYNK30FK7nseP55KQMJ8rE4ciq13OG0Xl5Pgs5oXoKrKKVtEa9k8WBGTzVdZGTEGLmZcwBo+mD/kg/ygt/kv4zeBguiuWc9fJJq4d/huujwrkyJ5rWd41hjGpd3K1VxXf5B9nhzmBOxMk1BSv53n9Yl4fk0S0JZevD/6Bev/HmTVoAj71z/JWSRs9kQ/yj2G+5JWt483SGuaN+xMj9HtYk1tOWPIlTAmNJlwqRWUDCDqam7ax9dCzGOP/w8zIKLy6DvN5dwipQeH4Vj7BR9U9yGL+wD3RUvLK1/Bc/j7mpT/NOFkmnxx9E/9Bz7IwIYNkj0r2Hv+aE20ejBhzBwnajWzP+Zj3lE/zxvAAfDUH+EfmR/hF3cUVwT7knvyCTGMMC4YuJV2Ry+oj7/CJcSovT198ESD06YOQ/x6vlxxE6xNLmLuEru5qSvTejI5+kHsHjyTRo5q9x55mXb0J96glTPQ30dxygLyq46jiv2Se2y7WlZ0kfthc5kYlEmLVozNbsHbmcbB8t1OA8O9qdzxjH+bx5GC62nZyNO8NityvIcjfF7UihJjARPyMtZzMfdwGEBLiriegezXrqlpJS7yS8ZadPFXsyaVDxzNTcoJfHfkOnV8cc2NS8NNXkF9TypGuJJamRkPlm3wqWcafhqhR1b/BCk0ao6PS8G3dT24HpA67kjRftY3Ks9kc9ZUczvwjeZZRqAKS8FH6EeQZT4JfENLm9WzKWcFez7/w94wEPA3l5GU9woPtc7g2KgRV8yFKpSkszFjEaK8eKuu2sT27EHXqA6d9EL53UjybQcg6/E9qYz9jcWw4SX4VfLJ1NaaQS5gW5c1uARBksSwY7MGhwp18LRX27yGUlq7k0dMAYaJHJxWtJVTqu7HKDDQ176a4OpdhSc8xwRVAsGjp7Mjnu6K15OnCGZK0iKlBfsj1uaw7eBBJcBrjkzOIlEqQGurJqdvOsoodSPSJDI6ZyZWxw+g6fjXvdIwiLflebov2o7X6UzZmfUJd5L+5bfAgguR6dh24mR2Sm1g0vDeDoKWw+E2+PPYB+/1/y9XR3nhbGyjO+wtF3s9yTWQEhRXFNoAwK7iN3dlfssqawJLBqfiaOyivOc57LYN4ZupM3IqfZWfncMYOuZMF/tXsLdrB2kY188bMZbyHif37rmGX2z0sGZ5EwYEH2KGLwzt8NkO9emhr30dOVS7Dkl9ilKKQF/Zu5pLJjzIrPIKw1vXcn9+OW/A4/hjaxFcFmXzjNof1Y4e59EFwRCVeNDH8ON9Gb6fSvhiEJ1qmMi7pNu6P96K05DV2Fe9GNmwtU9zsAOF9LvXM47viUrzjJjEnwsSR7EMcEABh/DTiLG1kVe6l1V2JCQNdFR/zqWEOi1MuZXS7M4AgIhl6aGnZw/aSLRQaExg36GqmhbnT0ZzJ7pwTqJMWMS0kFHeZFaOpkuyir9jQcIAW6WBGBi9hvLeFnPJt3FcXxLuXXcVkD5BXvMetZSpGx8/gtvhBqFu+472iLL62jP4BQDBoaqgsepPbixtJjErjkrBQ3Dpz2VjdSbH7ZJ5J0lFRtJqOkKeYLdvCY8U5KENTmBIUjlpbxL6Kk/SoJ9t8JhTVG3iwPoQHxs7lcj8fsvbOYb3pSsan3MJMz2I25Bxmj9aP6TFtFOZ+zFeKW7kl1gc/aQsni5/nsNsjLEqaQXL7K3xTJ8Mj7i/cNwhO1m5lw7FjBI3+IyNM+1ibU05EykwmhfT2QTDQ2XGEgzmvUaaYiZ9fIO7SUGID44jzNJB35BEOdMUQP+QJLg8xUi9MuYcfpzziY2b7VLE6ezfJGfcxK3oQ0XLhg7DyFEAYewMh7Z/xzdHPOBzwALNDpSjNVWQWvI3R/49c6uvHieZsarwm8ueMCYQY69iVv4bnmkN5bvKc/32AIDy81Wr1OZ1SnNkpLRrhpLiab1tUTBc+CP5yiku/5umyJkamLuSqkCgCrCXszHyON4q2climRHk6vszLLZHxka9ztXwH79R0MD5tAddExRNsZ+Paj7O95DsbQPiPMDG462k8/nse1sxmUdJU0lv+ysrGAHxiH2VpvDcKWRftnXt4f/sTrNBKaGUWd066jRkeejoLniRHAITk3zLM+BXb87fR6XM1UzRv8xfpA/wuOYVJPdtZdPRNvuuqxOe01y8EEeuzkDtiU1DWvc1nshf56/AQwnX7+F1RDxk+BgJMZmokQ7hxxDBC3BRnHN8sFj0aTTbfHnmOjxtOkGsazYzEm7ljxBhCWtazIfsbcvye4cm0aLwt9VTnL+OmhgwWh3vj1VpJvSqZK0dOIVmhobJuO9uyhZPiA1wSpMZH+mOAkKdK4Y6gCgqPvoA5ZQ3TQnyJ9q3gyy0r0AdfwuQobxuDcFIWw4JENYeK7AAhhdLSr20A4Y6M6Yw07+errPdZXp9FixwMJg0ByhTuHPo8l6gqeO5ANbMmX/G9k6J9voTPRXcBmVWrWVmex6jkp7gqLhEvmZn2pp28ldNEdMRI5gyKw1OEA53+w9RFYdHnPFGuZ/boq4ktuZ29+hkMHXwXc8KsVJ/8gLXHV6KLf4Olg+Pxk5s5cPA6tnADVwydT7rNSfGUB3lB8Wu8f+BxPiQMD7nkdJiWhICAh3k0KoTKigosoaO5LKiZnSee55+tNbidonywEoBacQV/nXYFypIXqDCNJyP5dsZ7FLGvaDcbGn2YN+4yRroZObB/CTvd7mLJsERyDjzKu7VZZCs8bN7PUqkEH+Uwror5A5eqalm2r4xrLr+OSYH+BDRu5r78FhSBI08BhMJMvlEcIOssAAAgAElEQVTMZf3YobbxcOak+L8KEAbiRNWbOXGUNrg/JgbRjrbzCNmnfRCEiUFdfjsfa68gY9BNLIqSUlr6OnsLv8MybA1T3LaSnf0ShWHvc5lnrg0geAmAEC4AwmEO6kJZMnYMQV0HeHvX71lvNtMqDIqGNgy+j/C3tKsY1fYqB1vcCEl+9rQPwhlXWMyWbrq6S9id+XdW9IxkTPLt3BkTgoIGymuPsKnQSEbGFNK9fVH8gE2qYP/xl/iuqoeEqOuQdh/jd62D+HLaVEa49aDNe5pf1Q5mSvLlLI2LRd2yhw+Ks/nSlMrLY0aTqFLZDi4GTTUVBS9xa9EGSsw9eMvtwb5pjAi9nrsGmWgoXENn6N+ZzTfcW7ico9oG1HIZEqRYrRGMi7iJu+My8G7ZxsMtKfx55ATGeavJ2jebjeZFTEi+mWnqYjbkHmKfxpeJUc0cP/40L+mUeMlBdjp20s33YR5Onkh6x1scbPUicNDfuCKik5O1O9h89Ai+o//IcOM+1uaWE54ykyk/AAhiZrtpad/Gx/uW8XFHK53mudw+dgnXxigpOvw4JzQpDE99kplBFtob1rI/8wH2BCxnjm8za3IqmDB5EVPDwgm0nGT30ZU2J8URY64nqONzPt33Eu+aLaik2HSIMAulhv2da5QG8trLaA2ex98yxhDQ08Deom94pjGA5ybPvqAAwZXzcr+cFPsKc3QWHuMsh7d9ofe2OAsnxe8K15xyUhxxK5cHeaPpymdX/iv8uyGapRnXMyPQRE7WR+zv9iIicREzfCXojR10Ggx4egxH0bGNz3ILCEuax6zoJILNnbQZ9Ji6S8mp3sujzbH8a+x00t3bydq3kOct93DD0CtsPggrmwLxjX2EW2PVWC0aurRt6CVyLOZOeur3ck91IAsjAxja9haF5uHEJz3CJPlB1hd8w5cdSq6yfEVHwnJmRUQS272F27MKCAjK4IZBqfiYu+js0dAtDSKMMooKX+ID6Qv8ZXgkcW7lbDj0HZWaHDp8RxIVuohro31Qy+3e2BZbzHNDczUWhQIUcmg7xvtV7dR5pvOHkCr253/FDuUfeDIjES9DMceO/46/aa/m2shI5M3lNKiSuDJjMoPlWqrqt7Mt51QUwyUBIoqhF0Bo2cvrhdnkK4dwuwAIx17AkryaaSF+RPmU89XWleiDZjJJMAi5pwDCfBtA2MUq6SzWjhlCWenX/KlKzu3po1BXPMfW1jCiY67j0hAjVbWr2V6yk8TB/2Sc+0meP1TDZRPnMz38dBSDTZvr0bSd4JuynXzeLuH6xHlMDo0jWNjULT1UFn3Ml22RpMZOYkaAhG6TgR6JikClEoVFS/nJL3m9uI4hQ24mpvJuDpqmMzTxLmaHKemo/YrNecspDfo7tw5OJETWzfZDd7BbehOLh85nhK/dLUhHadm7bM5bQ23MyyyKVOEn19PZXYdZHkOQ5SRfn8ixRTHMCulkX+E29igm8PDQkagkBjTaJlosASQFqik8/leyTeNIT1rKOI8S9hftZmOzN/PGXEaGm4EDB65ll9tdLB46hOIj/yFXNoS42EsY4WFBItHZckEEqkIxtB3hiZ3FLL7sOiYF+BHQvIX7bQBhFI+ENLGiOJP18tmsGzMM6WmA8EOPju+jbZwBhPMNc3QVRuxIL9hDeQcS5ugqdPSnCnO0AYS9U9gYuJEFsQmoK+7gE+0C0gfdyKJI2SmAULwTy5DVNoCQk/svm4nhEs88dtoAwkRmh5vIPA0QFib5oiv/ij+1DuF3GRNIVVtpzH2BFzWTmZ00jVHtr3GoVUQx/JM5odIzIXNWazeNrTvZfHw5RYrZjIu/hMmhQbZN2tyZxcHyrXxmnM79SYnEe0jQ6rSg8MLDTYnc2kBm3qtsrGwlLGQhvoY8ft+ayBdTppChsiCtW8ldhVqGRk3jxvgkPJq38n5JFmuZwMujTzkpCphi1NZSVfYRd51059KEiSyKDEdqbKXNYMYsDybAeIjDBatoCX6SOYqdPFvZQlLUeC4Li8LD3EljtwYUISS6a6g6uYlHWpP5U8YpgJC9f44NIIxPuomp6iI25h1hv8aXKdGd1JWuIzPgKW6MVhHsbkSjbaRHFkeYSkpL2fMcbPMiIOFxFoZ12Q5DW44fxWfkI6Sa9rM2r4Lw5O+jGE6FEYu8NBo6NELfSzGZtZjrtvFcawhT4pOIrVvGwY4QIpIeZ36IgZqaVXx95Hk6Yt7jcu96VmVXMH7SVUwNCSPQWsmeY6ejGMbcQGjHt+zI3Udt/N1cGeSODxrqOmrw8Egm2FjGV2WZnFSm89sRUwg31fBdwSpebI3k+UnzSHR3H5CTorP1ZY9icBap4yzM0dmeLumdKEl4eAvUfXYeBPtCtcfVO8ruJe6Ll+xtI7VFMRSsPg0QbrNFMYjNuaH5W748+BaakAeZnpCBd/PHfFndhC5gDrdFKaluPsSx5lZS4h9hmOIwmfmfc1I5neERQwnQZnOgVYNcGUS8NY+/V9RxzdCFjPTQkn/k93zm9gB3pi78AUC4LU5Cc/NxDhYcxhA7k3h3E/Lmo/yxdRBLQtUManqFXHOqDSBc4lPJodKP+VfuPoqtI/nLtHuYFuCHr7mQLw6/STUpJMVcQpghh+z6Uo66TeC68B5aS17hY+mL/DU1hkRVB8U5z/LvsiL0oddz57DFjPKW4XYms4gera6MXYdX0xqYTmRgFEFdeXzRaKHbdzSPhbSxM/8r3m4N4eZREwjSZrG7cDU9QQ8xN1hJcfmJUwxCxiSSFD1U1W1lc9YRdINuY354DKEKGTJO+SCYWvbxWkEW+SonACF4JpMivwcICwd7c7hwM5+YR/Na2jgMtRt4skbBr9LH4FnxHOub/QmJXsQl3hryalazovY4lw7+BzM9qnjhUC2XTVxwhkGwiqRN2gJ2Fa1hTVMnnqHTmOzrT6jaG3eZH0EeBvKz1lDqPoL02LEkW8rYXZPPIaOaSRFh+FnFxr6JTT3xLB42G4+im9mhtwMED6xdJ9gtnKq04cxMSCHJ3MQ3+W9To76DO4bPPh3mKBgECy21W9lWsNbm+3BLcjQBkloOZK1FEXILE/ysfJefZwMICwb5UV26hW3tclISppIobaak8lv2MpalQ1Npz3uKXBtAuJ3xqmL2l+xmQ9MpgJDubuDQ/mvZ6XYfi4fOwFz2Nz5vVaP0n8Es/x4aOrPIbNEyKf4Gggy5PLNbAIRrmRToR2DTFu7Lbz3FIIS1sbJwN59bx/J2+iSiVe4o5fI+2T17TL+jxX6+YY59nfJd6QX7Kd9VoiTxO0elau3f5Uj5OdJJdidFR2GOol3xJ8brVJhjHwAh4SauipRSVtYLILhvJSfnFEC41DufPUXH6Akazawod4pLsjmqDeWKZF90FSv4U2Mc96SNYYjKQPmJZ3nHMIuFwy5ndPsbNoAQYgMIQicIesqMTpvL9uxXWNUaQlrUdEYGh+DrJsND4Quth8gv+4LqyGeZH+FHgKKWfSd20q6OJyQgHG9zMZkVmZQbopkQnkxH02Eeahl0CiB4KVAYcll+8H1OykcwLCod39ZvWFtRQ7HfzTzXK8zRLA5mLXt4Lfsw8sAMxkQkomzfwYGmVroC5nO1TynZhad8EK4MqWB73moa3MaRFjEUb00mu2sb6AmYzHURHnSe3HwGIIz39iBr/9wfAIRNeUfYpwlmXpIPrSe/5eWOFO4ZOogwRSPH8zeh872GyVEJyGuX2QBCYMLjLLABhB1sOZ5pAwgjLAdYn3MCWdQkpoYnk6hU4WnzQeikpS2bfbmZGCLGEOvhhqJhL29pB3NZbCrDOt7g0/Jq2gIWsSRcRmnNPj6q7eCW9PsZZsnng8xSxk+8iimh4QRZq9l//DMONJqISfsV6eRytPgr3jLN5eHBIfiZSthWtouA4JuYFBZMc83n7Gm2EBy9kAz3EnblbWSjeTovTr+ahD7CHJ2tXbEf984B1Jf/kbMwR1uyIyfMo6O+zymKobcJoa+ThFMTgzafnQVr2dyqZFrqrcyyhTlaMOqqqMl6mkfr4sgYsoCrQ2SUFbzN6sqN7EGKhzyRkaH386e0qfhKmmlu2MSHuV+wvbuOVstQRkVdw63DxhKvOcQXh+7lC2MCMtlkrvPOYaN0MbcnTSWt5Qm+FgxCzO+5JU6NpSufnKJPuKd6F1qzEqV1OtePv4UZHj1oCp6ymRjik/7AJUFaKmtW8P6xL/iP9PdsmjSKET6eyCQGOhs28UX+l6xoyKPB6kuE90yuG3EvExXZlBS8xAeS5/lzagwpaiM91V/wYH4D0uAZ/C19LP4Svk+KggWToYW6/I/5c+W3ZPY0o7CMYEL8DdwyfDIj5SZqa9az/sRfeNeowIoPMT538lDqfIbLS1idlUm9ajBX2ACChYaGb/nq0Ct8YBjBA2N/x2VBIQTJsQmHqWU/bxScimJYGnSSomMvYkn+msnBPkT7nmTFtq8xBM1gQqQ3e/KOUSmNYdHQMI4XvM0fq6uJCXmU36lz+LjNi6VpUxneuZEXC75kTUc1Xp7TSZYHMsW6HWPo48z2beLfR+q4dMJ8pp/Og2C1mNDVbeC97Jf5V1MZEjdvlBILMmkIHooFPDJpBD0FlahC0smITSbUrKGxfjcrij/ms84SdGYFvm4LuT59EVeGxVKXeTWb9NMYMuhOLg/zQGbVU1+/mU9P/J0vtWpM5rnM9StD772EG5In2OLa7ZdO00pV9QY2FT7JSqMbrXjRKb+dZWnTma6q5tPj2VhDRrFweDqBbSdYU/gpT1TvQqSe8nWbzjUZN7E43I/io38lyzSWtKTbGGcDCHvZ1OTFnDGXkuFu5NCB69nldj9XD51FjLyE77Jf45OK7eRiwcMtjQkRf+TexEBMbYd5YlcJV1+6hInCxNC0ld8UtNqU81+jzazJe5tHa5pIi/obrwyLJ8FT5dD854iqt9HoWq1tMzzXPCPOaEpXesEOEFyFOToDCKIPR/fticTON9WytiOT7H3T2BTwDfMFg3Dy1yzXzCct4QaujJJSVvome0t2YR2ykkmK7eTmvkxR6NvMCiolO+c1Pm4MYnLyGIKNPVRqQ7h6zFC8O7axbMe/OaIIQKKYzl3hRtZ1JzA5LoMxXR+R3aogePA/mGMPcxSe+03f8K9Dz7G8rRWpuxrV6QxK6SGLmKYcgrp1Hz4j/sRofxHC3EN9zTo+KfyKTR3ltFt7SAm4hiWJv2WiewUHynbxUPMglk+dTLq3JwoM1Ba/z9PF69jWVcU4r3QCJZOQqVO4e/Qoos/kQTBhNrTRXrWOJ8vWsr2rEqkplvSIxdyecTlxXbtOMQjhz3F1jBJN42o+yvmSrd01tFuCSPRbwPXCm9+rg4qKTfypJYlHMsYzztuD7AML2GS6inFJNzBVXcymvEz2a0NYPGYCfu0H2Hzkfj4xqmjGk27ZNTyVdhVzQ92pKnqOQzYG4S/MD+umqm4HWwWDMOph0hVH2H34P3zSFs+M1Gu5KWEI0aejGIzd5RzJf5e/1uylQWRZNF/KdaOu5dqYwYSaT3Iw73U+KVnPQSQEKtOYGv88S+M8Mbfu5+WDxYyfeCWTQyMItLaRlbOMD3K3Ux6ylN8Mn024bhfrD/6d9RI5HSgJVN7Ab0YsYVqoH7Tu4oOCT3mpLosopQ9pysvpkQzlwamX2d6trzwIjtauPXeEozw/P1UehLNzBJ0TQHBl73MaK23R0qZpodUAvp6hBLiLeBORCdiASVtNUY8UtUeALQOWWVdNm6mZOgsoZD4EqhKIU3uAxYjJ2E6dpopGoxY9fgSpI4j09MHd1EFTezaVJjes0kCi3U20EUCIhzeexpM06eVI3SMIU8mRCudGXT1ZmnpbSlSpJIR4/3BURi0mXTUGkT7UIwo/hUiH2kJDVwOV1khGeKtRK06f3Mwd1HdXU6NrQ2t1R60IJtY7Ek9JN1ptjS1HQ7SnG26WDmryHuOdphjCYm/l14OCf5C61zYGZiPdbScpN4nkREbAnxB1BFFePriLtKX6Fjq6CygzgUWixNs9gThPX1SSbho7O9FLVQR5+uAhk2A0ttHYWUW1SUmUTyz+cjcUklMMgrDh1+o06KQqQhR6dF3VmJXJqATsUFtpaW/BovDF211Gh7abHtwJUCnQ6uoo1WuRyGNJUPTQbJIR4uWHp6mNk93V1Bu6kSiC8ZGpCZW0oldE4y83Ut2ht2VC9FWqUNg87q2Y9c3UaaqpNGoxmk0Y9Abc3b1QyEKJ9/dFojMic/PE080dudWK1dRBs7aaCkMXJqsMd3kkMT7B+Ell6LryaMcPT1UYfu7C9gkm2/cXcVJvxWgNJdrDDPJAglRevcw6pzK99Wib0FsqqDCJeBo3kA9iqJcn3mip6+oGdy8CPX1QmrU0a2oo0DZgRW5zcorxCSXQTYamu4JuqxeeqlC8ZTo6tB20GKQEePnhLYPOrgI6JBEEqf1QyUQGvgrK2itptYDaI5Qgj8FEKa2YjJ1UdOgI8AnARyFHYeqgTGdCIvciRgnN2hpKe0QdhTiGenvYUmVfjGI4BfdcmRj644MgxlKYHjWdWbTJh+Iv0uH2FFFv8sdTGUSgUopeX0+nrhPUKXhL2tFqauiWJ+Dv1oNOW0OtXo632hdxbjVY3AjyUiMztlFam0unm/AQDCFBraDF5I630gNPYwMaI7h5xBHgLqJSbAoRo7GJqk6xrjSI/LYSkV5ZIsHbLZT/x953gMdRXW2/u9qisurdkixZlnvvuGEbjDGm9w6hJJCELz2BEMgXUj7CnwQS0gjNNjZgjHs3xsa9V9mWZVmS1XtdbW/zP2ekMavVzNzR7kqGsPNEj4hHM3fmzjnnvvc9LVETB53LDI1hAKLC1Lwt4dytqDZVoZ5KNwOI1Wci05CDCFcbmjuaUKNJwPDYWBiI1SXS3d6A4o4q1NtNiNMlw6BJQphah7ToaOi7SuB31kFwI8zdikumGtQ7TXRnJEZmIDs6Fip7CzqsTXCH5yE5XAM4W1DTUYF6pxl2RCJKlYSMqCQkhQNWWyvKXJHIMkQjWhMGU1s+WrgkxEalIjbMhlaLCUa3DskxcdC5O9DedgYlpJMqPVSaQRgRE48ELYHbShidaoTps5Ck98DhbEeb2YQwQxai1R0wdlSiyk6lpuORYYhGzJU6CHaYLTW4YKmHxeUGQLZmANLCI6CBm78vP39ujmcy06NGIC2ClhsjqowWxMQmIVanR5jHCbO5ArXmZpi16ciOSUcUZ0R7WwHKPYAdGoS50zA0IR2JVOnVZUKtuRol1iZoVTrEa9KhRgQy4hP4efYu+aXUjSZXy4BVKOkrXQeBXwi7KnTJ+THpJem87w6HZQhY92YVcqH7+0u/SgEjl7MBRWVr8GlpASJSbsWivDkYHe1dHqPTwNH1JpOJf2epMrRiuyfvOWF9fFYAF8WbyFWf7G2JToHaldvNUh0EoQ+EL3WsJHBG6t6soj50HY3rT7OmQOWQno3GpsNfGZd676sh4wIjwxpbqBZKfuEedeoZdkHJvb3pV+GZhN9KAUJvZVyJnNHYxNqQfvnrG+4tWyu8t1S1UJYMe58PtXv+UppYckjyEGr3HEAdbdYiTuf/mwCC292G6vojOGaKQHbSKIyJi7+C0L2NWAgghNo9+y60/jRjYhmwvgDBIYDQ2Z9CDoCHAEL32hRyjA8LdCmVcbFNJuve3uf96TcSAggMOk/pB/imMAh8MyqOuiF6+Ow6Km4jtksJAYQQQAgBBMrq6Ezf9D1Yi0KwXAy9HZtl7wQWLQQQQgBBYGUEMOkr46zNsxId6FMXg5JmTSxKm6UwrJf8b2MQeru7YrkY/Ml9V2o8KWNFKivFH8PNkgWam6vpYlBCv7LeW26XLweClbgY/KGVWfpFcy4wdIG0wvVXDmmhJPeClIuBns+fnZsSGWc1a/JnbCUyTi4G8XbPbJdrIG42ep+rJeOCC4+eP9jtnpXIOM13oAyCPzIuxyCw2ImvPEDobbtnfwwYaxIE/yzdW1ErXC8Yxrq3EsEKNEfcX98wPbtgPK9GDAIZT7HW3oHOqVzXNmF3JcQg+IKTQIyjEsMt2e5ZYdCb1LdmzZlgPOm3vzLur5wJAIHmWm6R7gv3Bn1PMtz+1EFg6S4LINB5Je2e+4pBILvSvd1zp+FiyUogOkD3D0TGhbEDiUGg9+ufds/d9+PBAMH+AFV6X6l2z33NIAib6z5r96ykDkKgDAJLIYIBEPzZCQjiRR+XBONqGE9/csRZ38P7vJyPVGqRZn0vluFWAhBImcXYi0CMoxKAQLsroaV5byltJe1qA2UQ+mKRpvf8Jso4yZKwSPc3S3a1GQR/ZVxJnIBcQS6yKVIMghL9CQQEB4NB8AcgKAHBUutToLZWAAi0wdRoNN1MWiD3vnKtkm6O9MfCjz8GjPWgLBdDfwiWsLvyjuhnLTiCMvkr1HQ9ZTHQQhlMBoH13MIuXmqRZn2vQAECGS9hbH+zGPxhsoRdvFgWg7eM+3Nvb1mQ2n2R8aRx+pJ+9c1nFiwGAVF6rmC6GFhzJgBVJXUQ/KF2vXPExVgApVkMYnPmLeNSOeJSei/oF8056bav4VYKgv2RQxrbXxcDy24oOU9j9yVAkJvzvgAISmU8UDeavxtcAQTT5lYOILBkXBJAKwEIrB2pEsGhF/nmBCl2mmXWQkrzFkpzFGq9s+dMqZzJGZFQmqN3mZYv6W6pOWPNOUvG6TwLILBiPljnWam8V4PmD6U5hkvW6/Bnk8mSM4ElCzQGwR8GgXQklOYYSnOUrBfgL4MQAgihLAZhh6+E2vVXzgTjSYY5mAyCEhAcAgihOgj9KeMhgPCllyEQJrhXLoYQgyCe7xzo7ioEEEIAoT+NZwggBNd4KnExhAolfTnn/QGCQwAhuDKuCrkYgl9J0dfoy7lWQi6GkIshUACulH4NAYTgGs8QQPhyPoX/kgtSDAGEnrU+AtnlC3ajT+sghABCCCCESi13j3+Q8mkrMXBf5SyGEEAIAQQlqaG0aAWS5igVpKhEfwJ1o4UYhODKuMpisXS2S+sqYEPBNWJ52iQ0dPguJsK1gZ6n6Fe6t280P90/kHuzrqX709hkPH2jQAMdW7heas7ovJAjLqWQ/s45671JWSman6JfxZ5P7nrWvVnnaWyac7Fcadacse7NOk8ZFPQj1g+hr8em+aajr2RcTlauln4JGUpiedqB6hfrW9N5eu+rJeNSNRj6Ws6utozTvPumjAf6rZVc31cyzhqb3pe+Na0fwV5DlMo42RSpar2sNURuTVdZrdYrAIEmmACCbxqWkOohgAGxlAjvFxHbkQrnpV5C+LhigkULivCScveWSuUQnlsqBYwoGlqg6eP6pjkqfS+xVCjhWgEVf4ntOv+LzgsAQSxFRenYvf0eNDZ9ZwEg9Pb6QL6HMLYAEMQKJfn7rb3lVOpb0zuTAaX0M++DdW1vzkvJOI0tGE9fOQ5kToVrpeaN/p0MGI0pVutDqZz5I+OsNCyWXZA7Lzdn9M4CEKV39lfGxeaUJQuCjMtVcZR6r0BtLY0tJeOCzaExxPSD9V5Kzn9TZVwACGLp6v0h4zSuWFMwOd2WsxvCt1b5llqmhYMCa3yPvqampKpgCYpOD+wP7aXUPytWKElQdDnaWC59kzVn9E5CHQQx5ClcH8h7swolBVJJUe7eUnMmzCmrBoO/NL8g2GJzRmMryRH3d2w5WaCx6Z3pkOrmKAckWWnCrLGlOpYK+iU3NmuRpvNSc0bn+joFTO579UWhJG+7IAVE6XsIdRCkujn6I2cseyjIuFShJPoe9Gyssf2xOQIQpfv7AnCWnAVqa+l6lozLrSFydoO1htC1UhVxWe8tfA9/U3npeiEGQeyb0XoeyPoVClLsg3bPArhSIlihIMVQkKK30e/LHPFQDMKX2x6lhlnMuArXCqBKjKIN1UEI1UHwXgf8Bf+sNYTF0CnZwMrJeAgghACCZH0HFqqVOs8qtXw1mzWFCiWFCiUJVHugxjMEEHoQzbwrKxSk2H1eBCpfyvXorxwKG4tQFoOCIk3+LmZy1BRrp8A6z0J/gouB1c3Rn+peLPeGUIaW3EmhLIZOhWbNmdx51o6Uzivp5hhiEL40riz9YX0vpaWWxQy33NgsvRfo8lC751C752C5GOTWtz4FCN4xCEoa2fjju2JNEp1nxSBIUTTB8l31RQwCy98n55/1DgiSQ56s7xFIDILcvWne5fyvcucFwy3Xatrf95KL2xD8sxRIFRUV1WP7w1pw5HYCSmTcuxeD7+CsewfiSwxEv5QAH1Z8RKAxCIHIQqAxCP7qgJJmTYG8l5Q/nb51oN0c5WwtS04FBkEuBkEqQJIlR0ribMTSHL3Bv1RsBSuQkPVsfRWDoGQNkYpBUKq7cnKo6m27Z6kdjrCgye2A5IIlhChrqVa4/vpwWJMkGE96bqlujoEEedD4ctcL3RyD2YlLyW6YDBgBQrHGQaw5Y+3sWC4GOs9q9ywHbOSoXdYiH6jx9DdYlp5ZYBDkZJxlPKUydeTkTImMS82p927ZHyZLLoCLBYJZcsb61nQ+0HbP/sphMNgLf9ikYACEQGRcaNbkb7tnf22tEhBM78WaU39l/L+23bMYQAgki8EfgKD04/oTWcsyMkqMZ6+F1uEgSgQeux0wmaBubYXKbCYOu9vGUaCdRVNUKA2S/l6lglrVnaqjm1wxrhLnBaQvt8unxVJLKWA+9xfuLXkt1cSQSJXiwYlwXq1GzyfvpPL5sUVyd5ljy6W8CnNG7IZOB8TFAQkJgF5/5cdJY7tcAWXq+CvjSgCCP35KFqCTk3GBgaPfcvoldZ6lXwJAoAVDKlPHX/DfHwDB3zgbJQChVwwCyb3NBo46glqtgNHYaVeotkZXjRrBuFCMj1w9GwFMigVXXrEbIrrLAnQCOKG/E01Xl7EblGvP2zvSXT/HlquDIP9buDAAACAASURBVPteDFsr2DOo1VBHRIBLTARiYqigCaUkgdNqYbXbeXsmVuMkGDEIcllC/jIILN3lWctgpDmyfHIsA0bnBReDVAqYEvQnNomsSSCBJPQn5mJgvZdwb954qtWdAIBS2Y4fBw4fBldSwiuyioBCV5EcH4QAN6UcqVS8UvQ4BMUXAQjdjIKf5+n51WHdswj4Z/A2OH7eu1PTxeBB5/1J+PgFyfdvAhnb+1qaTwIGVO+AQMKYMcD06XAMGACnVosog6HHdCuJMWDttFksGV3vr4wLgK23MSOCjAeaxeDP7ormVGDJpFqa+xs/xNJtOk92hcCJVKqhv2MrYcnIrhDV3tuW5t3Y2M5VF6iuBo4cAU6eBNfQwG88VLQR8dl08OorxGwFotv+6L3SsWXsgqTdYNkF2ph0pfT1sKU+AErULimxtfTcNKfh4UB0NJCcDMyaBc+4cbAaDNBFRvIbLu+DtfYpkWGptY/fjHWxZKRbwWaheYAQKrUcpFLLtKOuqgLWrAF27QKqqsBRPYm0NCA9HarYWOr41F14uvLy6cPyAMPnEPxiYkifr24lU91SuJaUQWyZpvMut7uzOJTvuEG4dyc+EAcIhMhpl6P1KUzFD9s1ttS1zPPCnLhcQFMTUFcH1Nd3ApFRo+C4+WY4585FFCm3z6FkR8oCqn0JEKTACcvIBAsg+APA6dlC7Z67g/BeLRq04Th6FFi9uvM3FduiHWxaGlSpqZ0g2EfPyLDTvItW7BR0W8YuyOmunE2i68im0N+QbgfVnjGem8dRLhdvy0SrGQbw3ldsLdl4Ym/IptAPAbXUVHCzZ8Ny663QjRwJrUQNIUF3xeZELr6BpdsCCCbGJpgA4YqMhgBCkABCbS1UK1cCH34I5OUBkyeDy8sDl5QEVUICVLRjFaHyzRYLv8PxVSj+A5FAorOTZI/FjON4ReTZB5GFmK6VO8/HATgciAjvma98ZWwp9wVrbNrB0HNLPBtPv9rt/E7aFxjxCiFxrfBcvLKJ3LvbeY8Hqo4OoLW1EyCcPQucOAFXTAw8d98N3b339vgeIYCgDnpL8xBACKDds9sN9eHDwNKlQGkpMHYsMGECPOnpQGIiVPHxUBHN7XPwcTbkRvOpFsrvOBXoruRixqDi6TpmDAJDd3mALeFS5e2hxHkaWyrQneyJN83fY0PEsLXdbDGxOWRTmpuB2lrg4EFw5eVwjBsHzdNPI2z4cNGNRwggdFFd/vhng+Fi8JcqDMruym6HetcuqP79707f1COPADNnwhMTwy/ScrvKUKGkfiqUVFkJbNsGbuNGcNHRUL/6Ks/s8H7EriMEEEIAwVcWxHSX5XqkewSlUFJFBdTvvNPpWrj+euDee8FlZ8PT5TqQ8ksHo1qoP/Fe9N7fqDoItOaRO3nVKnj27oXq2Wehuv12ID6+G0gIRgzCVUtzDDEIQWAQamuh/s9/oDp2DPjlL4FJkwCD4UpefQggdAfVV6VQErkeGhrAvfcesGEDVM89B9xyS2cgYwgg8DPAivAOuRg6BaXfAMKmTbxdweDBwA9/yDOTSsYOAYTwbgaHNWfe53sdZ0NxIBQX8vLLUOXmAt/+Ns8eex9fa4AgFqToW5+/NxPMMjJSyFQuSFEuIMjbn+dvCpi/QYpXxi4shPq11zqD4V55pTOARa1mAgSBfg12oSQhyEkuuEVJqqFUUBxrp60kgEvIT+9tAFc3qlDEZSN3HuSbJRbhrbegyc4G9+KLwIABV4x+t+CwXt6b5Vem895ZDL5uISUyLrWIs/yUwWDJWLIgt8NhBSnS8/XaMCsobCXIOCtIsbd2g2UPBQbB3yDFKzL85ptQf/YZuPvuAx58sDNivquXgpQsCDS/WK0Pb7vgDzPCsrV0XnAxiKVPBysIWCq7iuabzvkGAbPmLCCAQC6bxkZ4/vpXqPPzoXr8cZ7pEQ7WvVl2g2VrlcQg+GM3BFnpdR2EQAVLKo2LVQdBarFTOsFSBowmjxYrv+sgUKTnyZPQvPYauDlzwD37LNAVycoy3PTsUgU2WILFujdLsL7qdRD8SS9jGQL61p4TJ+B5913oKyvh+cc/wOXk9AuDINCv9FuqDoISGe/tYia8HEvG+5JBEDqW9lUWg1y6YKB1EPyxdwJAkALBimwWBRD/7ndQXbgAz/e+B1x7LR9Br0TGr2atD2YMgoJaBP64qQU7Tt/LX/3yF6iiowOudeugWboU6nvugYfWAK+jLxkEkoe+SHO8IqNflToIrBxxemB//GKshVQOIAiKLucioFoHqn37oHn9dXCPPgqO0GOXX5u1SLMAgoDiAnlvlvGUK5TUqzxtL4WQq/rHL9Jd6Wc0ti9gVGQ8ZYyM3Jzx37OoCJ733kP455/Ds2wZuBEjrgQrsr6Xkh2QHBBlybiwSHezLl6UtqwcUlAmBXCJpcvKgGDhe/g7NmvOBBn/b6yDIMWqeAMEv6uFmkzQEG3d0gLuJz8BN24cz0p6swBSHUvlAIKgXyzd9sfmCOwFyYRcx1IpBqCvq4XKrSFydoO1hlBdCue+fdC+8grCFi2C5+c/v7JJ7A/98hcgKLG1va6DICWUwiT6K1j+llpmvSTrPH1AKReDIoDQ3g71li1QLVvG+7W5hQs7c2UVUKD0bJQCRsrU30VkBPpVrt0zy4jIVZmTW6z6qtSyEuPpqqyEa9kyRHz4ITjy706bphjQBUPGSS6uRrvnQPSL5lUKQCgBCIGWWmYFIMvJaV+VWhYWM6nFjuYlkHbPqKyEmhgEYg1+9rPOzKgut5ecHAqL9NVs90zy0lsZV2RrGSD4qrV7ttthP3MG2uefh2bKFHC/+AWfZeL9vVgA3F9bK8cgKJ1TubFDdRAC7ebY0gLV+vVQffopVD/6ETB/fg+AEApS7L4nvipBil2P4KyuhvOjjxBJwYr//Cdf6ITPJVcA6AJhEEiRQ82a+reIjJJqhizwEYiLwe9mTVRLoLiYz7RRUV49AYRBg/gFR4mLIRSk2I9BisTw2e2wnj8P3c9+Bg2lohKDQBlSXWxeX7oYlMQgBCLjIYAQKECgfNj166FetSoEELoWYVaQ4lcGIPzjH8Ds2SGAoCBFWdgB+QZXsuhXIRCXXAy97XWi5N5ScRveND9fb8OnqiCLWZQbW8kiHVCaIwGES5egevVVqKmpGC04FCsTAgiybrSrEqQoAISCAuh++lNoqGIrfS8Kfg4BhM4VgaUwLGUUaBKxCFTWzo51b5aREVwMfpehDQEEX5c5nwMutaDQv4cAQvcdjlIZ93eRDljGZQAES79CAMGPQkkhgNCjYBdLzgQZ7/cshhBA6LT/SuhVKQPGWsS/qQBBMJ7BTnNkfS/v3ZVcEJU/1JRw7xBA6I6bBBcD/ZZqhSu1G2YBcKXG028Q3McAgWaqr9IcA8okkChyxvoegg4E5GK4ygyCv5kE36hCSV0qzrsYGAyCXIAk6a+/trbPXQy+dRCE4BZvKtFbIfzxyQkGTMoQsACCsCMNZGy5iGMhuIUoUKn3liwSQzEIGzZA/emnAMUgUMUzjaYbqyL38YUgRakUMH92jazvpXQXH+jYUsEvShgEsbFZ76XEcFMMguvjj/kYBO7NNzvTx/T6btHhgciZnIyT8RQCuHyp+mDIuBwokwrgYs2pt+76fk/WtQJQZfViYMmZ1JzKzZmwSAtpjlIuBtbYYnZDiZzJuRgUzSnFIPzf/0FFLgaKQSAXQ1cWg7dP21eO6H2kYhBY34t1Xu65aVy6Xq4OQn/IOItB6K1u0zsJP5J2nIIUL1yAllwMo0d/GYOgIC2VtTayZFwOILC+lxI5/FrUQaAFhQxcW1vblUAv7/0ZKwiEPrBUtDHdh4wIGT+x5iZCoBP9TVRUVLccW37H194Ow86diNm2Da2PPw7rjBngfHxPUmPT9fReYoVchEWcdkD0NzExMT3GlnsvuTkRDDcps1jfdjpPqVI0Lv2Oj4/vlj7nrTBiBkrp2ATIxNIchbFpnOjo6G67S+HeYnMqPJdg9Lvv4bv+X0MDIjZvRurKlWh4+WVYqWdGV90K7/eKi4tDYmJit+dTwqLJZW+w0hz7kkEI1UHwaZTGcbxsd3R0oL29/UqtfkFmlMq4XBaDXAaFIONkX0i3vbOYSM505eVI+s9/wEVEoOWpp+DMyFAUFS/YDbKZYpkEwiJO7AY9e2xsbLdNkRLdldMvei/++X02W942RwCMZE+97Ueguk32jA6pWBc6TzaN5iXSq6kSy26wZIEaaHlKSpDxxz/CPWQIWp5+Gi5qBue1Dghykp6ezo8tvLcAyvxlEITNNb1zX8TZqNxud2cOU9dCSQLrPXnCORaNGajxlEvDIsNaWlqKbdu2oaamppvdZ3081nlBoegDSU0wKRP1TCBF9qbk6d5amw3ZJSXILSrC+YkTUTtwYK8AAikUGQex/HVSclImo9HIL1beKYms91JyXmi57LvI07U0NhlP+i4pKSn83HgLtRQ4YY0rGAoam+8kKVKxkBSZxqa/SUhIuALcvBWZBRCkDLfWZEJ2YSHGnD2Lw/PmoT4r60pte+9nv+aaa7Bo0aJucx6ojHszCL7gJZB7s3STxmKlObLASSAGjJXKG+jYrFofBILFgCjp1bFjx7Bv3z4+JdH7kJNj1oKiRMZJ72l8+k267b2o8cC4tRXjjh6FW6vFuUmTYKJusF26wtIxuW6OJCukXwSK6EhOTlYM/lnj0v1obPo7qbRtkkPa6JEtI3AifBfWvZXMOdksOsS6GtL1BA5ozgmYGAyGHuCfrpWzK1I2ReV2I6K5GTP27oUxMRFnJ0+GzWAA55WWKoCqxx57DCNGjLjyjEoBgpSMBwIQlIz9tchioMV5//79ePnll/mFg1CYmACK7hgD/EdSqIqKCtQ01MAR54AqSgXv/sjU6ieL45DNcShUqVBHkcYBjnnlcifgafWAM3FQp6o7x+6ng3Nw4Jo5wAGoM9RAz+6tffckVsDT7OHnWZWihqpnwzq/x6aERvpWwzgOx9QqNEAFj/fd7ODf+8n7nsQf//jHbkYskEWclFEACKEYhM4JFwwU/ffViEGoq6vDkiVL8O677yIjI4MHolKFpvwWOIkLaYEmu9JsbQZSVFB1zwBFNIDRnAfUwPiCSgVTEB+AM3fptgZQp6mBns1igzha91txRo7XbVW0CuqEfhybA7hWDlwHB1WcCqqY7nY8kBem6TMAmOzxwKhS4bxKBZvQup5Hi+BtOFfPYeWKlfzGQ2B3lCzSwmZMTDb7PAbh69CsSQAIL774Im644Qbcc889PArsj4OM+uLFi7Fmxxo0TmqEOi8M0Hy5UPP9xwHQGkYEVyeGDc7BNXvgPuqC+6Ib2kU6qAeHAd2bHwZnIJG7cA1uuPa7+MVSe78OKoOKeiz32XjeN/aUueE64IRKo4LmBi1UZEiCdNAb0Lcie0xKTPkWVwAdGZF6N1y7XXhi+hN47bXXQK4GQTGDARDoNaSKyLB20nStPw2T6DolMQisPipSY6O6GiqTCaq0NIB2ul7VHIVA3K9imiMBBNLtrVu34ve//z3/rcXcjEESvW63OXXqFJYuXYq9FXuBBSoeCHsf9P8IzJJskl3pBmIDeSA3B09Jp27TIq29RQeEB2+xlH00N+A+64TrgAthIzXQzNAA+v6xKXBwcB13wXPejbAJYQgbpwG0wRmb7kI/lJtE36nH97Jy8BS54djkwOoPV4cAghhtLBepKdAkYgEmJHDeAOHhhx/Gt7/9bZ4i6o+DAMKf//xnLF6zGPVzGqEZpe2B9vvqOTx1Hth3WeE67UL4w5HQjtL2z06eA9zVbti32uCp9yDquwYedfcXOHFddMG+1QqVVo3weyJ49qRfDg/gqXLDtsGGx8c/FgIIClKYeb/xkiVQnTgBFRUJo8JTVEXOy//KClL0130hB9hIXliFkgSA8MUXX/CLNVH9/QUQDh06hNdffx1bS7ZCc68W6oywbsxkn8m7C3Cec8C+zQ51nBoRj0RCFUngv89G/PLGLsBxxM6PrZ2oQ/iNeoDG7o/DBtj32OA85oBulh666fpOBNYPBzE2ztMO2JZbsWr5qhBA6EuA8Mgjj+A73/lOvwEE8pnxAGH1YjTPa4VujB6qICFPlmy66lyw7jTDccoOw6Mx0I3WQxXWPwrlqnbCstkEd50bMc/F88ZE1U8MguOiHZbNZqh0KkTdFw1NSj/5Nyj2otIF8zoTHh33SAggKAQIql/9CioqOkXV/r71LeDhh4GUFN5n/nVgEAggfPDBB0hKSuo3gHDw4EEeIGwr2QbdAxHQZgTRjyZjWDg3B8dZOyxbzLxORz8eywMEsWBjln3q7Xka237ICstWM3STwhF5UxTUEf2BTKjaoQeW3RY4jtgQPjsC+pkRUOv6Z2yPxQP7aTtMS9pDAMGf/NneMAhXCyAsWbME7dcboR8TyS9c/XG4ap0w7eiA7aQVcd9KQPjoiH5jEJxVDnRsMsJV50TiD5IRFtvdtdKX728vsKFjczvPIMQ+EAdNWv8YT+IHnZUOGNe24eExD4UAglKA8PzzUP35z3w7YgwdCixaBDz5JF9NzhMeDrPFwmfLfNUqKXozCFcLIGwv/QxRD0ZDm6nrNwbBmm/l9UsTF4a4JxKgjgzrNwbBfNAE02YjIqZEwrAoBurI/lmkOZsHpl0dsB62IGqOAZGzDFD1k3vDY/bAdtKCtsUt+HT5p18vBsG3DgIri8GfphKsQAxabOSirImipEjjX/3qV/AfIHDgPC64HE64wvTQa9RQ+0TQiy16AoOwZM1SmG+wIHKsASolyJMa3Hg4EGrudHJ30XhhKsU7cWetA+3bW2A5aUbSEymIGGPg/fK9PuhZ3PT+FDChYHyKTay0oW1jC5x1TqT+eAA0sRqAxV7QOC4POLeXX7/bw6qgIiZVo5Y1htYCC9o2NvMIP/HBJGjSFHKBwnsKc07fl/5Hz012iPW9PRwcFXa0rGnCg6MfuAIQhN1VIDEIgozT7942smHpD+s8jclqZEN/IxYExbo3zYn6hRc6AQId1MmUyszOm8eDBM+4cTCTPz08XHR3zkpRlnNNslwMQgCXVNdQASDs3r07AAbBA4/TAQenhjpMCx1LR7r0QWAQdlz+HLGPxEOXEa4MIFzRZbIvXTJNJoG3K2wZ51wcLPkmtG9oQViCFklPpSAsggACy64I9owc7VQbAJ12TE06rSyGgcY2HTCibVMLoqYaEHdLAtQ0dm8PwbY6OUCjVjQ+Z3OjfWc7zIeMiJ4bi+jZMVDpWWOTPeu04V39yno+qUrF22Q5ZtdjcsNysgON7zdg5Qf+BSnKZTFIpcqzdJd1nte9jo6OKzFalCYi5LCKfTO6Ib/UiRhauXN0Des8pft02peeu0VKQSKFeuWVV/Doo4/66WKwoalwN/at/wT7Rv8Y35sxFHnxPUve+r63ABCWrlkK+41uRI2PhprFIFDUqtkOW2EHTOfNsDW4wGk10OVEI3KUAYY8yv9na4Wjxo6WbU0wnehA6pMDYBgX7RdA4NosMB9pg7lFA/20RMTlMhSDA2yVNjSvb4CjxoHMn2ZDE6eFSpbp5+BptMByoBGthW54RKM1NdAPj0XsojiER0iv1+bzJjSvb+QBQvLD6dCn+4R4i02dm4O72QbbhQ6YCixwGD3gdBpo0iMQNTYakTl6aFn+Tg9gK7eiaVUD7hp2B37729/ygWve6Z1S8h+ojLP0IxDdo2cj/aL3EMv+CWRsurfupZeg+9vfvvwqVCAmNhbctdfC8fjjME+aBE1MjGS7dn/nVMlz03uTTRGzWfX19Vi+fDm/+Vi2bJkfLgYP3I5GFG99F5/UJ2LAtLvw9LgUtmIDvD0jF8POy7uQ+FgK9FkKAIKHg6fVBmtBl4y3dcl4WgQix0QjapAeWkamE79In+ng9UsTr0X6tzMQpoRBcLrgrrWg40QHLJV2OM2AJjUC4SNjYBgZAV2M2ju5S3QOaOz2/a1o3tCEmKkxSLw1Geoo1iItciubE47LRrQQCzIjDTFjI6CjIGqZw2P1oOXzZnQcbEfcvHjEzomHWs8ywh7YjzWi/ZgJ1lbvaOYvB1JHRyFmQQIMQ3QIk7CPbpMbHSeMqH+nGkvfXoqFCxf2qGkTyLoqlyovZED0dj0X7JnKZrNdAQg0EDEIUgU2hMH8LY4jV6xIqsgFPSgxCAcOHMCvf/1rvwAC53HCWH0Kn6/4O17/eB9Mj7+P9++fhklp7EwIASB8sHYZXDcBMeNjGb4rDq4qI9r3t8B4zgoX1AiLIuUhY8KBi4pA5JQkJEyMQHh0mKxS2WpsaNpaD+OxNmR8OxvR42Kh7iWDwFltMB9uQNOmJtgMsYi9Mwvp4+UXXMKBtgoL6tfVwlFjQ87Ph/AAQX5sN+yFLWh5txKN9SqEGcKg7qEwWkSOS0Ti/SmINEhvWjrOGfmxw3RqpD+ahfB0eSDH2clgtKN1TyvMNS64wzTQ6gHO6YGrzQVVjB6RUxIQOyUGkQlhUEvsljgPB2u5FXUrq3D38Dvxhz/8oUeaI8mjVCqcsNuV8ufKybiQ5y13b6mxWTnkdB0F29Jz+dL8dE5JgRop3eVz3l98EZo33uhugyjdNyYGrqlTYbvzToTdcAPCqNiPDzKWmzPWe7HOCzn/YgW56GGJQaDgRAII/rgYnNZmVJ1cj/f//lcsV8/FnU/9FK9fn90rgPBF2W6kPJ6B8IERsgQX53DCWW5E6+5WmKudcKnCoA1XgXO64TJ6oIrSIWJiPOKmxSIyieqqiD+Gx8XBeLoNjetqoY3XIfM7OQiLCpNhNSk10Abz6Va07TfC2uaByhAGjV4Fj410TQvtkHjEz4yFYYBWlmSknXjL3iY0rK9D3LR4pNye3glOenFwLjecpa1o2VyPJnIX3J+H1HmxiIyXX+zdNjeaPmtA24EWJF6XjPg5SQgLZwEEG9qWVqLhCyMcGg3CInxBiAphsdFIuDsVcWMiqICu6OEyudB+vBXVb5fjw/c+5AGCd5qj3LrKknEhfZpAsFSqsJzustb0r1UdBEpz7L2LwYn28rM4sHYx3v1oLdaWaTDshffx4UO9Bwiqm7WInRAvAxCIynegfUM56nda4E6NRdzUGEQO0EDtccF2qQ3GU20wegxIuy8LyaMioJFhI2zVVtRvqUHb0RZkPzMYsePje8kguGE/V4eGDbVoOGpB2MgUJN07CJkTGJQ9B1gqzKhdUwVbjRVDnh/BGxPZAEm3C9YTdah+qwbtmclInRiByDhf5VdDkxSBiKGR0MpgFOO5dtSuqeQBQtbjg6BPj5DbG8BVQQajCk2FKuhGJiB2nAHh0WrA5uB3Gq0HWmDVGBC3KAMp1xig76HoXbf3AJZyE6pXVOCuEXeEYhB6G4Mg9pX0erhHj4b6/vuhuvNOIC/vyl8poThZOeBSqaE0SG+yGHoHEGhPZUfJ3rVYu+wdvLvxCC5OfBI//unPeg0QdpfvRcaTAxGRFSXjYvDAVdWG1q1VaDzDQUsyPt6ACNIv2k2XGfmFz4oIRC/MROrMaIRLsGW0i2871cLrti5Bj5xn86ChXbyUi8Hjgv1sPRrWNaK1UouY65MQnaeHPhpwNxCj0ITmCiDqugykzYqHQWahprGb9zagdm0VEq5JQtqdmb0ECB64W81o21qJmq0tsHYAcY+OQMa8eEQxUqE9Vjfqt9eiZX8TkuenImleCtQsF4PViLr/VKC+CPwGI3FQT3ZbpdMhPC8KehlQRgCh7Wgzyv5TgpUffPL1ikH4utVBUAwQKCLdUo/LBcewZ9NabNm+D6fK2tDuiULaC+9jWS8BwrJ1y6G9NQLxExKlBcvtAjraULW4As1NEUi8JQspE6Kg61qP3c1GGPdW4PInrdAvGobsW5MQlSDNIlirzKjZVImWo00Y/OwwxE9M7PTfKzncbrhbWlG3uhqtF8ywtrvApccj9d4hyJ7IcK1wHMzlJlStKoe1xoIRvxwDXbxefmybDe37y1H6cRO4BSORNy8aMckSuwNGLEBbfiuqVpfxACHniSGIGBAp/cYOKzoOVqHywzo4h2Yi854BSMzpQh9EhVhtaN1WiurdHfAMS0fm3ZlISBeH+sQgmC93oOLjUtwx/LarBxCoyp3py9I4tBxxQsMkPq6i+05G2GXIsRt8jI9aDX1XWWlhQr2vZVWnlCrUQm2JVW+9Jf2N6HmHDQNuvx24/35g5Mgr/S+UxBiw0iCl/LN9ARA8LitMjSU4d3Qftqz6FJ8dL0ZFZQs6rn0Cz/gBEPZW7MfAp3MRNdAg7XNz2mA6XI3KD6pgy8lC5r0DkJSn7xQDnu6zoe2zMtR80QbHwDRkPZCFhAHkVun5STiXBy0nmnn90ifqMfi7w6ExaMUZBLq3xYzWXZWo2WuDZ3AaBt2fisgYFc9QcLQpOFWNymVV6IhLQ/pdGUgfHyGZMUljN+yu48dOmpGCjLuyoYlSHoDMUUXb0zWo3dwMS5sLpkob4h8dg+zrk2BgAAS31YXarVVo2teA1BvSkXJdOsLCZXymnAdcbT3KllahyRWHjLsGYsAImUBSGZvm6nCi+Wgjiv9VGAIIX4ksBs4Nj60eZz/fgFUfr8EXxe3QZg1CqqsJFw8Vw/3C+1jcS4CwfN1yhN8eg8SJydK+K7cHMHag8YQRVm0UEkbFwpDold/sssOSX4uy3xTDMjYPOc9mIDFTK+lmsFSZUbWxDE1H6jH0e6P5sRUFKXIcPC0daN1zGVX5gD5RB669Da3mSKTdOxy5E9kMgqmsA+WflsBSbcaYlyZCHx8uOzbXbkLTZ5dwaZsZCY9NwMAJkbwh8edozW/hxw7TqzH4yRGIlAMIbe1o3lmG0p1mRN44DLnXxyPC4AWiKODybDEur65CqzoZWQ8MQcYwcfqCgjhNlztw+cMi3Dbs5v4HCC4X1FVVUO3eDZSUdJs6ASDwkutlLwAAIABJREFU7gsRgNAZNSadrkbuQwrKDfPlQakZTafDUfR63s8vc29+h//FF8Dhw/KfmsZNTe3McHjoIYB6YERF8e4NFgBgne83gOBxoLX8FPas+gQfrt6G8vAsDByUCPvx4ziVdSPu8wMg7K88iEHfHgpDdrQ0g2A0onlXGUq3GhG+YDgv41He7BwHOAtKUba2Ao3WeGQ9NBwZw/VQi+Bzfhd/vJHXLwIIw/5nDLS0SIvtO0gwLFZ0FLairUEFTXY8UoeFf3lf2oTVNqP2b4WorIhG0qODkLMohi9CJnbQ2HVfVKN8VSlSZqZh4N250EQpTGG2O2C9WI+a7TWweAyITnTh8sZaJDw8EbnzkxDNBAhuVG8pR/3eWgxYkIm06zMRFi7j3vBwcJ67hKJPG2FLyUD2nVlIyuydO0SYAwIIZMML/3Een3ywIsQgXPU6CB4bnE1H8P7/voWVe2oRM/9O3H3XVCQWrMVffrMSTS+8j/d6DRA+hOHOBCRPTkWYzj9B4VxWWE5Xoejli7CMGIa8Hw1E0kC9ZP0hc1UHytaXouFwLUY9Nw5Jk1KhVsAgcA47zMfLULyyFp6xg5AxTgfLoVJUVOuQfvdoDJ0sR9l3BpR2lBlR+kkRLNUmTPj1NdDH62XG5uCqb0HNqvMoPapB5jMjkZDIQeVwwe1WQR2lgz4hHPoYLcK0KmYwU/OZRpSuvIgwnQbDnh6NqAzpolhcSxta8+tQX8Eheko20vIioPGpU+E4exGXPr2MRk8qch4cgZxR4gwKMQgdl9txadkF3DL0pv4HCGYz1Js3Q0X+/KNH/cFWX+1raNtJFVBvvBF46ilwU6bAExMDVRjFhfRcoVg9JlhZDEFnEFxtKNq9An/93xU44krAtY89gbsnenD4L3/B29bxuOUnvY9BOFB1GEOfGQVDTjSkNMPT1g5jfh1qS12ImpKDtLxI6HxS9JwFl1Cy+jJqO+KR8/BoDBwTjjARt4HH5UHj8XqUrixCeGIERv1gPA8Q/Ktx4oGzugGVb5xHxaUYpHwrD7l3xvP1h8S2BjR2za5Kfuy02QMw6J6hneCEdVDJ6cp61G0rR/l5FdLvzEGcsxHH/16ChIenYsgNKYhNkLfJLqsLFZtLUbunGpk3ZiNj/kBo5BgEjxsdnx3Dpa1WcMNykDE3ARFqJ1wUsqfVQBsXDn2SHlqtmhlw7uhwoOFQLc7//fTXDyB4pzlSEJXQ7tn3m7GUMRgpYAQsKF/a9+h1mqPHAbfxEnZuv4RWXSbGzhyJnPA6nFr9Dn79/Md+AYQP13+EuLtSkTo1HWpt7wEC53LCUd2Exi9KcHFDKyJvnYARt6chLkEaQZuqjLi8rgh1B6sx9oeTkTwpnQ0QOA/slVWoXFeGWlMiBt6Wg7T4DlStuYDLlXpk3jcewyfLUPb8bhIwlrXh0ooCmKo6MO03s/kFXhUm5d5ww15ahfK3z6G0KBwpN8QALRbYaq2wd3igSohG7JhUpExJRUKuARGMyOWmM/X82AQQRn1nPKIyqDK9xMGnkro7gQgpa7c0M0pTcqFt1xlc2lANc1o2hjw0Ahm54gwKAQRjaRsKl53ForwFPEDwbigjyLhYMBDLn05Pz2rWBIulEyD89a/AsWMUPcgynV+/8wJIGDsW3KOPwkPVF7OyoBbJXmLNqRKbJNdRsddpjm4Tai6ewhcH2pE2YypGZoTDYDyK9372W/zL7B9AOFR9FCO+Ow4x2XHSDAKxPC6ScfC2p7uMU313J9r3nEXxxkoYozOR99goZAwOF124aJFuOFaLS58U8ABh3I+m+gcQOA/cJguMxy6jeEUZ2pJzkHvvYAwaHynrYqjcWYbiTy4g/dosDLlvBDSRDIDAeeAxtaNxxyVUHLUCE0di2CwdUFSGfX8qROIjMzHixgGIZTAILqsTZZuKUb27AtkLc5G1YBDC9FK2l2LJLGj8zz4U7XPBk52I6DQOjmozbM1OuLU6hOcmIXlaOpJHxcOQQAGC0myps8OB2kNVyP/rMXy89GO/GIS+aNakRH96tHsm1N3bZjJkpZQMJucjlWuFSwCBmjW99NJLCoMUadGww9ThgCdMj4goPXT2chz+5C289Av/AMJH6z9G0j0ZSJuWwS9cSg+PqQPWZjNMdSa0napG3dEWOFMJPY9E5mgD9DLFOjoq23FpzQXUHKzAxB9NR9rkAfLgxO2C29iOmq3nUVmsRcyMIciemoBIUx2KV55FSVU4Bt4/GaOnMLI3OA7tl1tx4aOzMFUaMeN38xCeECkNTjw2WM6VoeiNcyhrDEP0sHjEDY5BVIIOnMkE0+U2dFTbgQHJyLh5GAZNSwRPwkjoVMPpWhR+lM8r8NhnpiA6M0bpdHv9HQfOaYejvBolSwpQWapB3MKRGHZbJuJ6BE92Xsa5PWgrbcX5Jadw4+Dr+WZN3mmOwQAINI4YCOYzCboAgvrvf4eKAAKtCP+NB4EEKqqUlwf3ffeBu/12qCh40QckBAMgkF2R6uYoNGvas2ePsiwGzgOn3QqTxQNdtAHhajsctQfw9k9ewT/9BAhHqo9j7HOTEJMTz67T0UMWSMYdcFbWoOSDAlReBKKvH4lhd2UhPp46pfYUHo/Tjbpj1Sj86CwikiIx6SczoDXoFDMInNMJR4sRpiYrrGV1qN1bj9Z2PZIXjkLO7FTEJ0rHSBE4Kd9RgosrziLz2mwMe4DcGzLRyuQqtZjRfqoEpXtbYI1KR949eUiKssB8qgg7XytA8qNzMHphJuLJlStzEEAo2VCIil2XkbtoKLJvHAxNuAQ44VzgHK0o/81BFOfb4EiOQ/zIeMQMiIRW5YK1uhUdZSZ0tHFIunUscuemIyFV31mHQuRwGO28DT/xxiF8+P7yrwxAEPRLrrZRD4DgD4MgDERz48/uSkjVoAcVS8MSejEQQPC7DoI1UICwAun3ZyN9ahY0ksizp3RYTp1E0cZCFJ90wG0JgzYlHUN/MAnZw6IRFS2djkR3Mla0oXD1OVQdKMPUn8zGgCmZ0gCBlMnYDvOpczj6URO0M0Zj5M3ZSEzSgqutRuEnp1BUEY5BD16DcVMZfSw4oLW0Gec/PAVjZTuu/cMCRCZESQMEpwWmgjIUrqpCsycZwx/NQ1K6HnrK0CBfXkM9qjeeQ9FnLQibNBIjnxuHAYlqSBESdSercf6j0zxAmPjdaYjJjOv9MulxwtHQgOoVR1G4xwhu7EgMe2AUsodQOpI4MiEGobWkGfnvH8f83Ll49dVXuzVrIvDsr4wLDIIcQODMZoRt2YL/eoAgfE2ql5CdDQ8FL/7whwA1e/KKkQjUxUDXBxUg+EqhxwZrTWAA4VjNSYz/n2sQPyhBWaEk72fwuOBoakDNqhMo/LwFruHDMOzBMcgZHgmtRDl4j9OD6qMVKPjwNA8Qpv3sWugMtLgpixdyNTWiZssRnN7aCnuHE1AnYMBdYzBkQSYSUnSSukWPTQDh8mdFvG4PnJOLkQ+Nh04OILjdsF0qwcVPL6Lek4LMO0Zj+JgoqC1GtB29gG1/PIuUx67H+IUDkZDEAAgWJ4rWF6BsVzHybh6O3BuHQhMhARDcLnAdjSh+/wwqqyIQNzsPg2YmwWDorPXgMZvQfrIYBW+dQmt4NgY9PRFDZiUjUiK0y2608zb86F/2YvlXCCCwNvVk71S+LgYKZhLrlMi6WSAV0QSAEDQXg9hyEiBA+HjDCmQ9kIeMa7J7xSCYzl9EfX4dmmud6ChvRGuFBYhPxaB7JmDIrFREx2gkffLtFa0oWHUaFfsvY8bP5iFj6kCoNWKKwAF2K4z5l3B+8Wk0ZY3DqNvyMHB4FDRhKnhqKnF+xQkUlkcg9+GZmMQECBxaSpuRv+w4jJWtuP7VW3iAIJlBQTSgzQFbuxNuaBGepOcNhWByOJcDlnOFKPj4NErbEpHx0CxMnR4NnURFytqTVchfdgxh4VpM/f6sXgKEzqA6R10tKjedRsH2SjhzR2DIHaMxZHICwmXSSgkgtBQ34dR7h3F97hxRFwOJlj+1CgSAQLIuWUnRbIaKAMKbb3bGIPy3Mgje+qnTgRsxAvj974GZM4G4L8Ggkh2OXJojq5IiFUqibo5+92IIAkA4XnsaU344E/G5idKUmghzQDLubK5H1aYzKNhaDlvWEAy+bSyGT0tEuAwr6XG5UXW4HPnLjyMq2YAZv7gOuijlAMHZ0oamo4WoK3PCUteMluI2WG06JF43DkMX5mLAoAjJWgg0dsn2QuR/eBI58wZj7EOToI2SCpjm4GmoQenafBQVhSF5/liMvi4VEfRuJiNaj57Dxj+cQtrjN2ESbYQYDILT6kDh2nxc3nkJQ28dhbyFI6QZBPKxul2wt1rhdIYhLDoc+qiwLzNBiUmqb0Dztr04uNWG8DlTMO2+PH4zJs4g2FC+vxQH/7QLHy35qFcMAksH6Dy50Whj7bs5DwYD9w2og9D1yQIECCs2fIKch0cg65pBvWIQXEYTHGYHnA4OzrY2tBWWoXRjIczJeci9fyqGT4zr3GmLHG3lLTj76QmU7S3Gtb+4AVnTBokzCJwL9qpKlK49g1OH3ch5aBJyxyQguiua31NXhQurT6KoOgKD7p6O8ZNjoI7QQ6+n4DCRgTkOzSWNOPXBEbRVtGDha3ciMpEYBHbsRVfAe/ebErtRX4Gij4/gxCEPIhbMxA0PDYAhUjzFs/pEBU59cBgavRbT/2cuYrPilTEINI7DCmdzI4rXnsDlEy2wJucg76ZRGDwxWRaM0QBUyKW5pAHH3jmAeTmzrl6Q4jcFIBBbkJsL3HEH8OyzABVS8krDDJRBCHqQYh8wCCfr8jH9x3ORkJusjEHgZdwGZ0sjStefQOnxFljispB702jkTU5BLJVElznIxVBx6DJOLTuMqCQD5rxwI3TR4YoZBI/DCUe7GU47pZFbYa6oQdVn51BRqUXiDZMw+rYhSEkME3dvuDwo2nYep5cdQe68YRj/yFSeveh5UFtVKxo2H0b+502wDxyMYTcOQnp619+ajWg7UYAtr59B2oMLMO6GbCSmh0MfrpVkMJwWB86vPYXiHRcx4tYxGLZotDSDoMDacGYjHOdP4rO/FKEjdyxmPDMOWTkRogHndqMNZfsuYc8fP8PHS3sHEJTogAAQfKukKgUIYllCV679r62D4PuRAwYIKzGEcm6nD+4VQOj2GJwbzroaVKzaif0HPYi8cS4W3JWD2Bhx51VreTNOf3IUpXuLMO/5Rci+ZjDCtCJ/67Ki9fgZHP/bURRUc0gYEoeISM2XiNdqgbG6FUZLGAyZSYgbGIv4G6Zh0pQUxBh6Lvq0yNNCeXzJAdAz3PKn+3hjIp9BwcHDcXC71TxL7JOpD3Q0oPSTgzi0sQOeOTNxyzM5iCVULqKMVSfKcGzJAR4gzPrBfMQPTFCgsgDnsMJcXIKLHx1G0XkbMGQ4Rt45DoPHJCDKIF+1kqdAPRyaLzXg0Nu7MSd7RgggKJp1P/8oLAzIzgb35JPg7roLamryRP/mdSgxjlenUFLXQwaBQThdfw6zfnoDEnOTma1CeBDrtMFcXIpLK4/g4gkjPEOGY/gd45E3IQnRCmTc7fSg/FAxji89gKjkaFz/y5uh7wVA8P3a7o52tB84jN2LL6AlcwwmfWs6xo6KFHUfkovhwtazOLH0APKuG4FJj82AXgwgcC7AUovT//c58g80wZ4Uh9jUCJ4N5Q+XE84WI2qKWhExMB1xWbHQTR2LCfNyMShTnJEggJC/+gSKdpzHqNvGY8TN46CVcjFceUkPH/xMH6aHO9RhgbumEDueP4K6lFGY8YNJyB0SBTF4ZjPaULr3Inb+3xZ8vPTDXjEISnQgBBBMJj5I0b9KisFhED7Z+CmGPz4Bg6YP4Rcufw/O1IqW3Xuw5uMauK6ZjfseHY7EOPH7tZQ34eSKgyjeXYgbXrwdg6bnie/iXRa0F1zChY3FaGi1d+a1ex2c2YTWsga0mjWIzUlF0qAExM2ajAnXpCImWkykOTQW1+PI4r1oKWvCHa8/DAMBBB8DLgzhNjaj4UQ+ikqAyPETMG5cDHTdgAwHtFXhwkf7sfdzG/QLr8Ndj2YiOkJ80a48XorDi/fy8zz3xwsRn0X0K+OwmdF65jzOrc9Hwa5WxN00GSMWjsLgMYmIUljOlWoNNF6qw4G3dmHWwGlXDyBQXwNyMfw3ZjHQZ6QARcpieOIJcNdfD+TkiGYxKDGOX3eAcKahAHN/fhOSB1MPB0YcgN2C9vMFOLcuH+d3NiP6ugkYsXA08sYnwaCwnoDb5cblA0U4ungvolJicOOvboc+OkIxg9BDC502uC7lY/Nf9qNINxhTn5iDWZNjJVIs3SjYchpHluzD0OtHYerjs6E3iKQcc07AVIuCFedRebEVNt9BnQ7YG5pRdqEZUTmZvD0LHz8G4+bmIidbPIXbYbHj9KqjKNyejzF3TMboWydAGy4eIEkspL3sAk5sK4cnewSGTB+MtBSfejX2DrjKzmDdy8fRlD0J8783CbmDxDM4bEYLivcU4rPfr8dHIYCg7tEYhUV1CH4UojrE/LMUpBhwN8cAGYSVG1dh9BNTkDtzGDQ6CYBAUfMNZSi70A5HbAYyh6UiLqb7Auxpb0T9Z9uxbnUTVLPn4d6HR0oChOayRhz/eD+KvjiPhS/djdwZQxEmRvN7XHC2t6Ot1gKHs2dqnKeuAue3nkRRbThyF83AhInx0CUmID65Z80AXhc5oLG4Fgfe24WW8kbc88a3YEiKlnQxeFpqULZpB3ZtNCJs5nW47elhiDdovmQHPB44ys7hxAe7cLw4FlkP3YGF82MRLhGDUH6sGAff/wJavRbX/+QWxA9MkkUHnNWItvwCnF51CiXFTkSMmYhxd41E7vA4RDLrrX95awIIDUW12PPvzzAza0o3gOAdiOtvMTAhU0cqBoEqxal37+7sjHjwYGeBoq/DQUBGCZghfxbFGFCswQMPgFuwAJ7Y2K9PHQTfbxEEBuFsYyHm/+IWJA9Ol8UHnLUDxgsXceaT47hU7IR++FiMvXsUBo+IR1QvOiKSi6HkQCGvX4aUWCx6+W6ESwEEKoTU1oCGi5VoskbCMHgwcjL13d2Sdits549g418P4HLUcEx/6nrMmBgnwSC4cW7zSX7s4TeMxfRvzRUHCHzfdTPaKjtg6XD22PDA3I7WM+ew6d0zSL/tRkyYm4PEzATEpRoQZRB3sRBAOLnyEAq2n8G4O6dg7K2ToY2QKJhmNcFWcBjrXtmHlszJmPrULIybEAedVyCnp60B7Qe3YvU7tQibMR8LHh2LAWk6UYhnM1pxafd5bPntaixfsgw333xzt14MgRYL61MGwe2m3ridR6B1EOge/gZwKWn3rDzNUcSqBgEgjH9qBobMlA5uISV2XDqM7f86g7qIYZj08EyMHJsAQQ45pxWmS0XIf38DTpQnIOv+mzD/phxER4m7GJouN+DwR3twcdc53PryvRg8cwTC/KjB4K4swuGlO3DscjTGPnEbrpslnxVAi2HDpVrse3cHmsoa8ODfnoYhKUZ6bFs7Gg8dxq5/HUe5bgjmPr8AI4fGwNC1OLvbm1G1Yw8OfnoWxsyJmP79hRg5kPyF4qvf5aOX+LEJINz4szuQkJ0svUx67DBdvICzS3fi1EkVYq6djGsevwZZqVrJ2A6pm3ncnQBh1z+34JrMiXyao28dBJaMyzUkk0vl5YN8qdpheTmwbRtQVORDA3WpqWj9XC8gIVHylY9IVlGJXBFZE4CIVLlYufNUSfHwYahOn5aHMnTvtDRw8+aBe+wxYM4cPt5ASXCzXA44XS+XpiWXxSAEKfrd7jkIAOF8YxFufOFOpAxJE+04yU+qxwHTpUIULN+JYwddvIxPffQa5GSG91rG3U43Lu0rwP73Pkd0Sixu+9/7ER4TKc4geNxw1hQhf8VunDgThrh5c3Hd3XmIj+7KQKJg4IZqVGz4DDvXVICbOBOzn5yFEYMiRGObiL3I33gM+97biVE3jMOsJ6/n2YteHx3NqN9/EG+/9AUGPfMErrtzBAYky8deOMx2HFu5H2e3nMQkisO6bSq0kRIpli47PE2XsffXK5FfE4f0u6/DzNuGYUBi58aQXJntFwqQ//ZqnKwbgGGP3IQZN+QiVqKjpLXdgsIvzmLjK59g2fsfiLoY5GRcYMnE5imQIEVWACQPXFwuV8AAIVi7K6kshq9CmuOnm1Zj8tPXYujs0fzCJXq47eDaK3HwT5tw/IQFhkljMXJuLgZkGqCFHeaqSlQfvYhzn1Uhas4cTHt8OobkRkNqzW+8XI+Dy3ehYNdp3PG/D2PozFF+AoRCHFi8DYcvR2P8U3dhwSz5oD/6nnWXarD77a1oulyPR//xXUQnx4qzF/xEOGGtLMG5JVtxYFcjdDNnY9zsbGRlGaB2GNF6oQgXtheh2piAIQ/Ow+w7hiBGK71hKjlyEbvf2cbP86Jf3I2k7FRJG+JuLcelTTux458nYIodgqF3TMbw4TF8MZluhK0K0MTHIyErFQmx4t+PAELdxWrs+McGTBkwTjLN0R8GgV6ABRB4Q0BEM7U+98pgIAXllZXOqXu21eX1jxZqAgASi7zNbucXUp1vrQGvPg+i9/buAyFW7ZCe+de/RhgFVsodI0fyjAF3zz3gxo/n3QwsZjFQF8PXIc3xQlMxbn7xXqQOGSAJENxtlSjZsguf/f0I2iMGd8r46PhumUL81JOMx8YiLisNiXE60ZgGAggX953j9SsmJRZ3/fYRREQTQBAHjpy5EWUb92Dvx+dRGzYAY++ehEFU5yRGA0d7IxrzL+HCpgtoCc/ByIfnYPL8XMRRK3cRWSCAcGrDEex+dxvGLJiIOU8vQLiBUbRNTKY6mlC3fy/++cvPkfvd72DBXaORwQAIdosdR1bswZktxzDl7pmYeMd06CKkMig84Fwm1Kxaj/1ri1CtG4i8BRMwYmwyDDo3zFUVqDhYgOPrq5B4xyLMfHAsBg+OgVh4GD2+pd2Mgl1nsPZ/l+OD95b6FYPQl4WSpDYO/KZCjEGgQkne5ZJJkYUfOeMo7K78KbUsR796AwTFzZp8BStABmHVpjWY9p3rMeLaMdDoJauNUyg8Gg/txfENp1GU3wrERyM2PYYHCB21rbC06RA1aBgmPjITI8enIEqGAm+8XIt9H+zA2Z2ncM8rj2P47NE9a+krgN/uygLsfW8TDl6OwaSn78PC2YygP45DbVEVdv5nExou1+HJf/0AMclxMlkMHDiHGS2nz+D0pwdRcMkET3ws4pOjQI3UOxrtcGtSMXDuVEy8ZRSy0vSy3tbiIxf4sclHeNvz9yMpO03iLd3oOL0Hh9/fgM0bmqGJikV8VgzCxWqsq9WImTARE++ai0mjYkXvRy6GmsJKbHtzLSYPGNMNIAQLBNPAki4GWmwJAIj0WvDeafue915IpRgMq9XK39u3SJPS96Lnlmonq37hBaj/8peec0rvQd0cc3Oh+ta3oLr1VnCDBnXWOqB20ARsgtCLQa5XAzGT9M5iKWBCoaSrySAUNpfg9pceQvrQTIkYBDfM5w7hyJJ12LCqDmERBABi+CDkHouwWo3oUWMw/t75mDRaPA7A7XThwt6z2PX2JsSmxOHe3z2BCJ5BkKjyw7lhq7iEgi0HcfzzMpidGkRlxSM6Rg9bSx066jlw+nQMvWsWxl03GOnJ0rpNAOHE+oP82GMXTsF1317kJ0BoRN2+L/DG89uR9/3v46a7xyAzWT4uzG6x4eBHu3Bq8xFcc++1mHLnLGglAQJP28DTWIaCdQdw8otSNHN6RCbHIDrcA3NDM6yWSGjTh2H6E7OQNzwehnDp+BFLuwnnd57Cpy8vxtL3lnZzMSgFwSwZpzRHuSwGMbsgN/Y3L4vBXo3Tm1fg9dc2ou2ZP+LVW8dhVDKb3iID8+c//xmrN63FzGdvxMg546CVBAhdNpK6nNVeRsnuY8jfW4CKsnaYEYXYQUMxdMYEjL91PNJjVZLMgWBp60trsfuDrTi74wQe+N1TGDF7LMK0yqs4Cvdx1xbhyMqdOF5pwJgHbsW8yYzCQxxQXVSOz/69Hg2Xa/Gdt37GAwTR+AfvZcHtgLO5FiW7DuLkrrO4XNoBW3gyMqdOwKSbpmDYmDRQ0DKjmSOKDp/HZ2+t5+f5rl8+jOScdAmAYEPT3u04snwHDhfIIyWq9x8/bTqmP3ITrhkrDhBIYaoLK7D5rysxMX10/wcpBgEgSLn4ggEQxMALv8A//3xn3IT3QR85KgpcXh6szz0H3S23QEPNmryOYAGEfmvW5CtiHjvsjSfw8R/+gQ+tIzDvySfx4vQMBZCdQkwO4vXXX0dRy2Xc/evHMWBIlgSlZkfLoZ04umw7DuTLV9akRT5u0mRMfew2TB8b55sUwj8XAYTze8/w+hWfEo8H//BtRMREMYMUXaZmNJ09gzObT6DofA2aWj1QJWUgZ9J4jLtlCoYMi4dBpigiP7bLjaPr9mHHfzZg/MJpuOE7t/LsRa8PczMajh7Cu/9vD3IefQzzbhyB9ER5u2g327D3ox04uekgZtx3Habdda0Mg/DlE3nMLWg4k48z2w7j/IkqtNoiEDN0GEbNvwZTFoxGfBTAao9DACH/8xP4+KV3sHzxMr8YhEABQm97nXzzAALVCjB3oLXFDE9sEpIMeuhk6mcLInIFIGxeh7nfuxmj50hHv14RK2Jc3C44rTYQteVyeeDh1FBrdbxQ6qNoR8OMWUZdSTV2LdmC0zuO4pE/PINR1473CyBQHwh7hwU2l4ovEcsK3CPhqLlYgS3/Wo260hp8/+0XEJscz3Zv0HuT39Ji5d/b6eTAqcKgidAjPDIcWqq7oKBg28VD5/ixdeF63PPi40gdJAUQOLitZlCUsM3BMjMqqCPCEREdhXC9+G6JXAxVhWXY8MYKjEsdEQIIfJPHzl0+HYrwhK1QAAAgAElEQVQBAgk3BSPOmgXPgw/CMm0adGlp0FH2wn8TQAD1SLCho6UNRk6HyNhYJMg1APJ6dwEgFLeW4/7fPIUBQ7MkXAwcPDYLL+NWOytoVQV1uB7hMQZexkVpfqcL53afxNZ/rUFsWiIee/W7PIMgBSyvPLLHA7e905457C5Q41qEaaDVd9oznU689kG3/YPThcNr92Drv9di0qLpWPjsnf4BBI+bf5b2Fgu0McSm6MEq0WI3W7F7+XYc3bgfs++fjxn3zFMEECj41m23w2axwmFzddpxnQ76yHDoI3W8PWNteMxtJt6GL3vxLSxfLB6DwOpYGgII1K9eJosh4DRH1vohtUftYhDWbF6H65+7A2PnToJOIvrVzyEkL6stqcaO9zfg5PbDePzV72PMnInQ9KIPhL/PQzFptFBu+sdK0DP88L2XEZeiACD4O6DPdRcO5mPjP1byAOGBl55CWu6AIN1Z/jYEECoKLmPtX5ZjTOqwEEDwByBQjAMVPJo7F6BmTGPHwqzVQh8R0aOM+teeQQhAKgWAUNpWiYd++wwyh2UzF5oAhrtyqcvhQv7uE7xux6cl4onX/geRMZTCrAC5B/gALqcbB1fvwuZ/fYrJN8/Czd+9B5ExfjAIfjyHzWTFzmVbcGT9Hlz74I2Yfe986KVqI/txf7lLTG0mnNp+CItf+AeWhQBC36Q5Xn2AsB43/uBujL9uKr9w9cdRW1yJbe+txfHtB/HUH3+IsXMnS6dYBvGByHBXXriM9X//GDUllfjp4t8iPiXBL/bCn8c6f+A01v/9I36eH/71M0jPJf9s3x8etxsVBaX49E9LMSolLwQQ/AEI2dl8CiN+/GMgPh4ejQbUbI3iAHz7rIQAwuu43F6Nx373fWQNz5HOYgii6LscTpz54hiv2/FpSXj6Tz9GFA8QpJssBWt4cm/sW7UDG/65AtNuvha3fv8BRMYwGscFaXCryYrPP9iAQ+u+wNyHFmHOfQt4FqA/DlOrESe2H8I7v3gDyxb7F6QYYhAYDELAdRD8lATBxbB2ywbc/KMHMPG6ayQLbPg5hORlNcWV2Pzupzi6dT+e+dPPMH7eVGj8iEHo9XNxQPmFEqz52zJUl1TihQ/+D/EpiX4FSPZ6bABn95/C2jeXQR+ux2O/+X4/AgQPygpKsOK1dzEyObdXdRBYwUa0GArtnnvbLVUJzU9/I5nGSJHUFgsfqBdIkKKki+GXv+xsUT18OPDEE8Att/CdGumgefmqAoTa2lq+F4PfQYr+CHfXNQKDUG6sxZN/+CEGDs9l+xwDGE+41OV04dTOI1jz5jIkpCXj2b/8HIbYaGYMQhCG5uMfdq/ajnVvfojpt87DHc891G8AgRiE7UvWYt+6nZj/yC2Yd99N/QgQOnB0+z7856d/wtL3l3xz6yBIVTVj7RRI+JTWQXjooYfw9NNPw2BgdCQMhkR3PRcFE63fugm3/egRHiBIp8cEadCu21QXl2PjOytxdNs+fPf//QIT5k3rFwaBOjCWXSjBqjeXoqakAr9c8hoSUpP6jUE4u/84Vr35AQ8QnvjND5CemxXciZW4G7kYygou4aPX3sHw5JweaY5yDcuUyLgAEPzNYpACAErGpiBFAghi3VKFGAOxSGfWvfkgxaVLoTp0CKrZs8FRfYPMTApY4GeZrhcAgtYnxZLOy9VnUDK2lM0RwImSbo7UrImAQlJSEsSesS+E79ChQ3jjjTdQ1dGAp//wY2SPGMx2ZgfhQYhBOLHrEFa/+QES05Lxvb+8AENMNFT9xCB88elWrP77Msy45Trc/T+P8O6N/jisHWZsXboG+9btwIKHbse8+xchPIodpB6MZ+toNeLo9r3410//iCXvLfYrSLEv0hyV6JdoHQTfNEdB2aR2KawdDutBhN2VkjoI8+fPxz333IPIyP7xXVHxqKVLl2LX3t2Y/607MOqaCdCxshiCIVUA6iqqsXPlZpzZdwwP//wZjJo2vl8YBPoe1SUV2LpsNeoravG9V59HbFI8O4shSO9deOIcti1bw2cx3PPc40jNkgpSDNKAXbfhgxRLyrHx3RUYmz386tRBCDDNUSrYjAC4WDt1pbpLUyTFIKCsDCqLBSpyLxBw94raIgBB4ISAie/iy7ILLFZGSYdZJQBh27Zt+N3vfse39vZNFQuuhH15tzNnzvB2pcHShvt+/CQycqWCFIP7BMQgnDt8itevuKQEPPL8s4iMjmIHKQbhMdwuFw5v24tty9di4tzpWPjI7Ygw9I+LgYIMd6/ZjuOf78esW+dj+qK50Ef0j4vBbDTh9L5jWP7av3kGYdGiRUGrpEg6FGg3R9lmTd7tnkmZXC4Xv/j61kHw3mX4GiGWkREUmWRMLJdaAAh0Xq7UMlVSpGPw4MH9hvRph1NYWIiqmmoMHJGLhNSUfvHX0XtaOsyoKr6M/8/eecBJVZ1//ztl28z2XmAL29kFlq4UFQFBLFGxl4i9RqPRFBNNMz3/N4kxUWOPHbsIESwoRXpbYPuyu2zvvczO7Mz7OXf2LsMyc+8wC2KZSfiQcGbuuec5z/Oc33lqS10TGdNyiYiJ+kpMgWLuns5uDheX0dvVx+Q506V4AHd7xo9Vl3Q0t1JZVC7xStrkrK9MiUi33c5uDhWUcuGSZVIlRXFoCH4/UTwuniN4fHQtA8Fnrg7h45nb1U3D0zRHR9kd/eyR95JrGUipOUcHu4nfC/eGAAiuYhBc6QU1vSHTTKnQiwwQRusd8Wy5DsILL7xAbm6u5H5RjeYfK3MP/76lpUXSK31mExl5EzGGBJ2gJys/RtT6aG1opqq4XDogM6fl2nWpWij+CXg70U5dXHrE3NEJcSRmpqB3YlU6AVMd8wgBTsSlp7G6jviU8cQmjfvKLjzCatNS30jRrv289uprEkCQ3YxK8iUWocbj4vdqpZaVwL2QYWfjI+D9m9DNURCguLiYN998kypRitbhIxYiWzZGK13xNbVx8R0BisRvnRVTEb8XmyQ2QtwuHJWk/GyZwKO5Um1uMS7mFs90VYRGzC3+CCF2/I47z1aji5hbrMlVYR4xr3iGrNjl7ynNLTOc+NuVspXXrTa3oKdMc5m2SuZw8R13xsV3BC2drVum2YIFC7jiiiswGo0j3xuLi0ENBLvzbDVBV4pB8BQguAtOlIKovq4xCB0dHWzYsAFhQRDF2NzVK2pyL/OhkB81HhfPErLtKCvu8LCYw1VRLFlunVlD5P0Usi8+QrZHXwZlOijJhzNdK+tSWW5H01M+8MTcQv4caaNGU7VxJT0u74egq6CNmHu0/MsFu2S6ussL8hkjr8nZ5dnxWffeey95eXkjF9yRg9hFGXR3rGhqAMGTFMpvFEAQmyo2QLZwjD6IHfO0nR3SYtzVzUp8XxBYMIwrH6nZbJbmFzc/R6FT21x5XMl/5Mo/K/9WzC3+CMTpbG5P69QLmgp6OnMnyaBIzCu+53hIygKhRFOl/ZCFVRxYYm5nAiVoLeYWH0Hz0cpTvJ8zQCU/W2lcuIzEs8WanPGRDGzEu42mjTuHuFKcgGqzpm9ooSQZVLkqxvJ1BQgyn8mxIcdzKKgd4kJuBI8La6wSjwvajZYDmc+UeFwGi8cwsSh8PqwznLlhZXAu5EDwqjMeV3q2mmyrxdkImou5ha4dHTCr2C9EJV5F1uOu3NTyGSJoM9qapQY+3NHjspXM2RniSDMRO+doSVM7Q7wAYfiWLwcpKgVwubIQOG7A6O+oEVgwlju3KxmtO3O9OBtzPKzUbldiza78s/KBNfq2oLQumeEdfztakQiBETR3dkg7mr2cvbsaTZXM5TLSl+d2ZvqVrRDOTNry2jwpSSzmFgpMKInRQa6jaebK3+6KpmqC7rUgfP3SHB0PeVdgUck/Kx+kzvSSkAFxaIhD+nh53PG9jtedK95JDQTLt+WTweNibvF8Z240JXP68ViqXFlOhB4XY6PPEPnZrnSp49yuLLlqINhdN9rod1fTG2q61h0Xw7fegjCWm5sagd0FCJ4cSGpzC+YQpk0lgCDez1OmdQcgjI43cbQQeMJY4vfuAARxUIt1u1KenihmNSWjBBAcAZ0rq8xY+NALEL6eAMETHneHz5QAwlgOBXfmVgMISnpByXqh9t6yfKkBhJOhS2U9rgQQXAG6sQIE8XulTB13LNye8KGss77zLoaxKGa1Q9oLEI4OSPUCBOcNk9QAhJry9AIEL0CQrRRqvKJmHVSymLpjQfAChKMDab0A4dg28CM86tjNUdzqBPJVSnN0hf7cMf2q+Wdd+Y++CoDgLEfcUZCdmbXUxtXAyam2IMi3eFdmTE9RrZoFQXZveGJBcIfPlEy/nt6uRrsgnAVwOZpuR5us3QEI4jcng89OJQgWNBHmV+FvduZGE3Rx5fNWkx8lveB4u3LVzVFpv8Z6SMsxCEKXOgt+PplzCx6Xs9FcuU5OhpXsRFgQPHXXqlkQ3NUbnlhrxbPdjUFwphc85QWZx4UeF7Kl1M3RVXyQK9fJyNnW29s70gFEDkoTAnU8Eawy8ZUUnJIiEGNyUJonhVzkZ7tSrjIRnPkKZaYWBFRSYErPVlu3K5+ZYAylzXVnXa6Uq7wnruYWCkwO2HEGEJRo5ugjdcUnrmgiuyA8mft4+MzVuh0DTkfHk8jWk7HstdJ+iLnFGkYHZ8mCrsZHrsaV9kNWSHJQ2snicaVD/mTxuNq6xbig+egsAXmfTzaPC5o7S510l4894UOxNgEO5KBqZwfSiVi3qwwlQW9B99HZEWPlcTV9JutxQTNn6bTu6lI1mjtbt3i2MPO7OqTdmVvpjFDSpfLFY3SWmyOPe6I3RuhtFi33hj+CoWULgjPkqfSian4WJYAgnqtUSdEdReDpQSnPLTZ+LODEFUJTo5lAnqOzI2Tau0NTTxlLBidqCszTdbnaDxkgKFkv1G6V7hykrhSY0u1KTQm5sx9K65azGI4XIDgqV1cKSg0EuyqUdDyK25O5x3q78pQX5HUpFUpSu7R4epDKcwvZdmVBGOu6lPhMLYvB07kdgY0r+VLLYlDTh2p6XGndrs4QdwGZ2tyudK3M40KunaWWjkVvqJ19MjgRZ5erNH21dSmBe803oQ7CV+FiEAx/MurUy0rGlXL1BinqjsKiYzHtClqr+WddZTHISl0842SYX2WkL+bxtNSyLMijrTZqpnjxO3cydU5G8Jh4t69rmqOnpl13+MwbpHhsMTB39PhYedwbpHhEncp86omreOS3XoBw6pSn2AQvQPACBDVwonYgeQHCsR1kZUuVuFU6i3U5EcrT1WEmz+0qzfFkz+1pnI0jH7qqeKsEqsTvBQAX31FKczwZQFQGwV6A4AUIR904xyJs8oNO1e3KCxC8aY4yD34Vt6tTYSXzWhCOrYMwFp2lBhYFP3kBwtE9FtRo5jjuaZCiN83RapUCrDxBf2oCIftRnKE/d29XnphRvABh4Ji+G4ImavuldmNVy2KQq2J6ksWg5EJQUwTyDcdZoSQ1PlMbV6OZ18XgTXOU9Y0ar4zFzeYFCK4LJbmy+HgBgkKaozvNmtxVjmobMNY0RyWzl5jbU7OYq1a4ageOmqC7M65WatlT4KN0I5VNoEqllt3xz7ry1asBBKUUsLHcpNX2ayzKU02JuLPXJ6vUstrcYt1KAVzugi5Pblfi2UppjmPhMzUeF+Ni3Sc6zVGWHzUXg1xO3NM0R08uY2PhcTUXg7xuVzrpRLgYPNV3J8LF4OncQv6U0hyVSkirya7aZUzmcRGk6GmaoxKffSPaPbtzaHi6ubLydJbFoHbgqI2rba4SY6kdSGrPVlOear0Y3FHcrmjuDkBwlcUwltuT2n6IvVaK8HaHZp6CYFl5ir9dZTF4aqFT44VTyePi3b6u7Z495XF3+Eyp1sdYDgV35h4Lj8u85OllS85icJYq744edyVf7vK40EljCTb3BASLPRE8LlIN1XoxyFakE2FNkq29J7XdszuFkmSmlBXY8dYHVzvslMyvagIhxh0RmrMIb8FcMkpyVgtBtiCIzR2dG690u5KZ1lOmdud25cwyItYs00Wsy9V+iO8461roaEEY3QxJvkUo0cxRWJ2l/rgDEFwFj7kLEJyBEzVeUbpdnUged4XIHdMcR/OhEs1OFI97EoOgxOMyH4q/lQC6mgXBUx5XkgFHHndmQRDr8pTH3eEzd6xkSjyspmuVZNtVKq+7ekMNBCuNK/ViOBE8LtPMlR73JEjRkcddpQqq8bgMEJRamjvTC2PhQ1lXK9UZUTsbXa1rBMS6k8WgJhDHM+4Kmbpq1nQ8z3a1ATIRXOWxykGKzlqfnmyAILIYRK60q2ZNSspTbXPVTKBqzZpkeiml1XkCEEQMglqzJjUAoDbuyv3hbrOm0WtW40M1sCiDYPG3swhvNeU5Fj4UfCAOaUETV41s1ECus3F3AYJamuNYeVzJkuUOEHXGw0ogWI0XZHAi10EYbfo9lSBY3jNP5Edt3aeax9WaNbnD454CBHeaNSmdT2rvpqSL1XoxuPNsV5dMbx2EU5gjLgTKm+boTXOUbwLyrdFTcKLkGz5VmTriMFQDCJ66B91xCXnTHI82aqvR7ES4GMQzvGmOR+juCO5PtItBPFsNIHgiX8dlQRirAhuZTHNstKSjH8WZecjduT0hgrxZp0p5egGCN81R5sGT7Z89VTzuBQjeNMevksc9cTE4WkY8jUHwpjl60xyd9qdwx/TrCrx4AYIXIHyVytOTGAQ1s7Ja8JgXIHgBwlfJ416AcMRGoXYxd8fV5XUxeF0MLoGPp1YZtSBFbx2Eowu5uGsl88SXeKqtZF6A4AUIXoBglUjgqty+kBFPde1JdzE4ZjGciDahnqTHyMEtgkhKjWxcNQgZS56p2DhXjWzUbk9qCM2dcU/rIMjP9qRvgBxEdbLqIKj5OeUUS1cZFK588WM9SMXvx1plzpWgy++mNK7WrElp3SeCx53J11fB465yxNXkQ42P3BlXatbkjmIei3yNNf5BbW5nulbw31jTHMfK42OJQVCytirtl6zHv248rqYX1GRATc+L8bGmOSrVszkFdRBs9JsqKKjexI6+Vno1onQfWIYsoE0jO+p0FsfHI+5YYsjdQ8FTBOYSIJg7qO6o5r02Hy5KTCLO3x+9Rn4j+3spKlfbENbBOvLrmxnwiyQrLpFggSKPWICk36spT/F1T/xiFnMfpvbdfNoXTFRICqeHBTnYnky0dVawv7mXxKRc4n398Bv1XmrK02q10Nu5nUO9gwwa5zIrwm9kv4aGLFjMrdQ2fc7W7hrqrVrQpTIxfCbzomMwCKbu78BkaWdvu43s2DgsnevZ2lbCYQuE+k9mauQ8JocdTXPn9O6mpT2fQy0NBEctIdkYgI/WjtadpUKNKE9/HW1dhznQ2k9SYhaxPr74KLjRZFDl6havJujid0oAwWLuobllAyXmcSRGZJFi9B3ZEbVDXM3MfyJAsKt1q80txr89dRDM9PSVUF5/gL6gc8kKNhLqN/Y+EKb+Khob13HI7wJyw6MI99FIukHWaT2du9jftJEvB4bAFizJx4LkqYzz8cEXK5gb2NvcjcYnjPH+DRys/5xtvf34+oWTFX4+syNjCRFCAVJqp3MgasViaae8diM1mhymxKQQ6ad30AouKqzaLNgG69ld3wKGGJJCIjCKTB0/v2Pk72TH2YiDUpJTUxGHOpvoCJjP6ZEB6FBu4uZJDIJ1sI2e5s18bJ3E9PBYojVWN+sgiHfppqHhc8pMUYSGTiUn2J5e7+wCrCZfJwIgKGW0aJzVQTAYDEcxhruHtHvK00Jrx/9YuelPvG2OJSwklCA9DA0N0NnjQ1zQGVw75Tqmh/jgr7UfyO4ylifWC/F8p5UUTU0UNxXxWKM/92TnMMFgwMcFQHC6ubZBrN3beXrHPjqCc7hs5lkkAo4iJzbXUwuCGuOYB1rpLHucu+oSmJSylF+kjzuyp0NdlB1ex8ulHcyZezmzjcGEHC9AGDJRd+iPrKrtpCf+VzyYGcrwdjFkMdHa9Bnrytax3dxOj4+Vjm4d44LP5qqci5gVYqCvs5Lqpi08VRPDisxQ8uveZUdPFX16M1pzDDmhF3Jh1lkkG33QDeMy5wdlDQdKn+HD/O2kTH2OpQlRBOpdA4QRK5nvIMVVn/FCYRsLz76SGYZAgk9inI0MEMQanHVzNA00cPDAQ7zRPY8FWZezNC7wGIDgKtXJHXAyViuZp0BV8KlaHQRPleNXb0Hoo7bxbT7c/gJtyS9xRXIMKYGuAYK7lRQ7Wz5j965bWB3yOiuypzAxSG8/xDWgGWzhy4r3eL9mPc1+BsymISyDUUzIvps7EhJI0Jsxt3zEf0otBASOJz2ggDWHP6VBN4ROZyNGcw7nZVzEzOhIfLVKutTCgKmE1V/+kk3a73PTlHPIDXW8NrgACNZ+Sc89tnU/mpjpLMueRoLVSoD/ie3m6A6P29McbXQ0vMCaQ/soi/w9j+SE4ze8brXz6Xh43NxdTO2+R7jDciP3T5zFHKMvIk3eWaGko61/VszmGnbt+hHvdUwhI/0HXJ8cqAoQXF14ThZAkC9EbsUgiJeQ/3hS/vPozbXQ0rGGD7c+Q2XEz7gwbSLJAVZMpi6qy//L+oYGmsY9wkNZUUToLAz1HuKTthJazINo9RlMi0ojNTBQOmgHess53LqdXSYrAfpI0sLmkBGsp711D13a8UQFjydY10NrRw1tAxAWEo3/YC0bulrRD/XRr5vA7Nh4Blp2UtpbS5tWj9E3hbSQaWT499PYXcuadh1nR+jpM0FoaBzRAQZ8bD20ttfQYfYhKGQcIbYmKlt2UTTYz4ANssIXkhYYgrF/B0/v2Et7UAbLJiZi6OtBHziVJIOOIUs7HW17qLZkkBQeQ3iAz8iBMNB3iIqW7Rw0DWHSGDEaZzMvIpJIHx30V7O9vZiyvhZsmniSQycyIzIaramJ5rY9lJt8abZ24Gf1obX2Lf7d6ktywnJ+nDWPycEGuxVkqJPSqnW8VNLOvPlXMNtgRN9Vyr7OUg6be7HZjIT5T2BSRDpxPlbMveWsby+j3WIBksmJTCHB1sDukr/wRkMT1qgfcE/2ArKC/fDXabCY+2lp+IKtfZGkRCUyzmCipvy/rKpqQpd4F/dmTaC/eR9lh99hleYqVsR0sMXkS2JoPLlBfRSWPM22uh4Ss3/P4qh++ts3UW4JpdVmxeg3hSlhgVh791PUVUW91oeexs20VBeSMvV5loyLlgCnnU8FSc20tOygsOswNVYI1o8nNTCPzFAzxZWf8XxBG4sXXcU0cVtq38G+zsM0WLUE+qeSHpJHaqAWhtqob9xJJ5G0m2ppsg0QEjCFFG0nLaZKKoaiiDZkMjkyllCNGcSNqmk/tZYhTCSRF5tJktGItruOos4WGob6iKCKqiE/fPTjmBQ9Df+ODawt/BPvdiczN/U2rkieTLJAOmqWKgcA7QpAyCDYkyBF+RB2plwd9YLSIX+y0xw9qYPgqJPU6iAcudn12gHC1udpTX6ZKybEMmEUQBgaaKKy/QDbexoYMA0RakxlYtQUUgxGNAOH2dNeSFl/KzZrJHFBWUwOM9Bcs5LX9/2aPYE/5qrM5ZwbN44gvQYNNrT9FXzS2MghTRSXJUTT33WAzUWvcV/rQl4642xOC4Sukj/zZuckYiImE+XbRpkljIURfvhoSvl018t0RT/I1dl56Lo2U9nbTZXZjN4vkfTQHJJ9mqlo3U6+yYp5yI+WsqcoDbiF2/KWjAIIQ/T1VVPWuI1SiwWbzkBG+CImGHQE9G3nsS370cQJgDCdiO5SGvsL2Wey4KMLZVzQDKaGRaKz9dLSto9Oiy/dlj6azXUM6scx3i8Kg/kgu/otGH2zmRKTxvgAA9rBRg61FVLUU083QsYymBaTQLCtn+6eOj7rHCTGdoj2oX66bWHE+6eS6jPI4fr/8ErVfppD7+D+nKVMCg3AX2Mb1q9mejp3kt9VTY1QZ2L+oElMCzbip7EyaKrmQGshVYO9mEklJzpN0uVDXfup76qkciiAfsz4DPZSVvY3nrUu4dK0i7g6Oonx+g4K+g5R2NsE2lhijRM5PToavSjKZemip209OwbMtA75M1jxBPmWOeRk3MsKNwCCkny5k+boPo/byTQiH+4USjqeW7xiXWfJjGK3IHy47Vnqo37HpZmTSDUIP0ov7VWv8FZ1CV+E3MG/J8cTZqmlovgVfly3marBHgYts7ky5xquTZtCsraPkqrXeLvoCVaZ9QTpk5k/7mFumhhN4a6fUOKznHmZF5MbVMXOAx+wo36ISZnzien8kIuL80nS2rAELecXkydQWfYsHzTuokZnI8R3IUvH/5AViQPkV21geYmBZydpOVTTQFzmhSxMSCHMXMin+WspNsUzK3suEV0f8uqBV9gw2E2vuZ1ZyY9xddo8puoLeHHnXtqCkpgTU0tZRQk943/JXalB9HftY+/ev7Iv+H6WpE4mPXgYIFh6KKtaySsH/sYnVl/6CCXAcAd/mHYmp4Voaal4id8d+pT1vXXobOlMjbuCe6aeS0r/NjbtfYgnW5Jp92smxZhJU+d29vQ2ERS+gntzb+WOpBj8deLA66Ssah3/lQDClUzX9lJe8gpPVa9lr6ULm8mHmMAFXJd3OxcE91FX9AIP1G+j1mwC01SWT7mGJX6VfFb6D55prsQYcim3TPw1VyWFEOarlSpbCr+RRjqktWCz0Fn1Ck8U7qI0/Er+Mn0mAw2bKTq0kur4hzg/MYFwHyQUbbMOcKjkz3xUUYLPhL9yXtBeCnZezpMDC2jxNzAx5kfcEt9HVeVzrGzYwyHDFKIGTUwc6mTa1OdZNi56xIKAzYypfz8f7Xmctxv2UIKFCL+5LEh5kFvSIqir+YwXhwFCtrma/Qf/zEuNuym2Wgn2OZ1FiXfz/YwUggZ3s+aLu8n3WULX4AEKTd+8u0QAACAASURBVKXojFdwlr6VZvMOPu+JZ0L4Rdw9ezlTdQ201b7FP4rWs89soW0gje9Nv4UrkicxoXMH/yz8lLebK1ngV8wmswabJodzp/2FBR1P82Lli6zuNjF93CPcNfEKzo2zW/JOhIvBm+Z4dL0NtRupcwudAAjv8OHW55wDBEsv9fUbeL34JV7oLkNrgUBtFgtzfsJtE5IZqn6X/yt7h097avC1JJEVtZwbsjLpr/oXPy95lU7fmVyY9mvuyzqdRIN++FYp3A2SNEkWBWtvJTuK32fpfgv/XnY1i4Jt1O35Ofv1i0lLu4rZITBoNksgXUsNn2x/hD3G+7h18hwa913Gf6ub2GwzkhB5HpclLec0zae8WvA475qD8dOdzsSBjRB5H/dMPRogWAarKT78Dv/d9xLbbGYs6JmW+A++n5pNrnY/TwgLQtx0lqam0XvoZVZVv8oHgzYCNGHkRt7ODyefR6J/Czt3PcSGjmBaGaK+bzPVuixyDJNJs6zlLdMg/razuW7GjVw+bhyWxg9YWfQeq1oraByKIzl8KTfNvor52laqD6/i7P3lnOt7kBY6qegNIC/hZq6KNNLQ9CR/ry9gyLCQG7L/wvUToogcVq/m/sNsOfgHXqzfxgF8MDOVOfE38tOcXOL0nZQceomnSj5lt6Wb7v6JLMu9jmsyT8dY9Wc+LHiDN825BBhtxPrGkd/4KpWadHLi7+X3aTOY0LeJJ6s/4oOuMjS2CaSGXcyPZ32PSb5WBtp388muu3lp0ECLbhq5A9vRGC/k9KyvBiAcr/vilAOED7Y8SVHIXSxOySAxwIbJ1M6hipXkt5oISvsdKxK6aGn4mJ9v3c7iWbcyN9KH+gO/4e+d05ibdTW3GfbwSlkhn/sv418TQ2loyud/lf3Mmz2dln2/pMZnOfMzLiE3WACE99kuAYQziO34kKvLulkx9QaWxyWiL/0jv2yKIzdlEdck6iirKKWiLYCpWbFUVW1meWkQr58Ww2DFM+wNuIVLMueR3LuWfxaX0RFyGtdHVvLlvr+yJeJ33J+ezPjOddxTWExa0qVcG6Plo/y9dARlcUGKls3Fu1itPYfXT0unvXUn7+8qZ/zEs5gdN44o32EObtvGy8U7eMOUyiN5OcRbm9mz/1OCks8ly6+ax3f8DUv4lSzLOBdj03O8UF5BRfS9/C25mS37/8rPu67imTMXMtXfRm/ZE9xXH0tOynn8Ij0FP524lQgn3dEAIbdzC8+X1+MfN5kLx6dCzcu8VriW2ri7+WFcPx+vf5+Y2fczMzoMn8Ov8NHgTNJiJzK+4++8X9NBb/zDPJAdR8Dw80dnMVjNXRSV/pNnqyrRJ97PoxlxVFRvYENlH9kzljE1KBgDVqzmThoHDrKx4GUK2wzMyvsNU7Wb2bH9Gv6u/yP3TV/CvLBIynddzbOtSSSn38TVYZ18UfIMTzU2cMPU57kkQQYIGsyD9RTtuZ0/t81gatpV3BLezJtFH/Bau44fzXqAqI71vFksLAiXYSx7gqeqfZiavoTLYwbYWfwMnzZZmDvp1ywOKeONz+5mXcDd3DV1MXn9n/GzgjVU6BZyZ84ykrpfZl3pHrQpD3OmYSertz1JTN4LnBHth7n8x/yybgrzJl7BipAmns1/indNwdw39Y9M0Wzg8/0v8gvbD3l7ciR+NX/kjZ7TODvzapYlhOIz7LPxAgRl/6xSkNVYAwWPvrkpAwRb10HWlm3lY0scl+XOJrKtmJ2l/+Rflot5bFYKDfs/5rDvZPIy5jO+axP5jdXUh13Cmf47KMi/i7Uh/2VF9gwmh/hJsUrH3BptQ/S072N9wTs80DqVp+bPZ7JvHau37iBg/CzmZEwhXgOm/k46esupGdzJ+r0bCE3+GZem51C++zL+XBfNxMxbuDk1A0PrJj7a/xof+Z3DTdNOJ6V7K8/seZEqwx08MM0RIFioq3yatw+uZFPYozw8IZiAjs+488A+FmffxFVRZlbu2g+xU5gf3sAnBdsoDV7KL6fn0FX7Du+UrEeb8H9cnaShbP/P+UddJPMm3cQNkW18XPQi/2nRszjtTm5LsrBuy28oCryJmybGsWX3/1HrezanZV9FTPvzvFv8KRsM9/CXyfEM1b/Nwt2vcsuUx7lyfBytBx/i/7VmMTtzBdf7/Y9Vh/Ipj/wtD+fGEazXYrOKTAIbbTVr+HFRI+lJM1kxIZb2mu2Ut3QRlzqPVO1uXvj8eTrjfsBV2XkMFN3Bv5qTSUu7kcVDK3mzeDO7wh/ibzPyiBuspm7/r/ih5fv8IGsa8617eGLfRsyRczhv4jx8G17lrcJNfBb+CE+nDdFe8RI3HYrjgTPO5UxDE5/ufpSNpgWcPdELEEa1D7ZbEN7Y+AfeHIwmNDiUQE0vrb1tdGmmMC/xau7Lmk7wQAG7i17kikN+PDBtATND/KDhQ/5UE0528jwu993Ajto2LEm/4ZZELVZLH+2DZgKNZrZt+7FkQXAOENZxfVUo959+EedHRDBY9i/+UGslMnoyi+PC0A0ZCPRJIFbfxLbyL7ioNIS35qajrX6CR9vncV/eYjLb/8sHdSYiki9ilmYd7217nr60P7B4XDRh1LF679NYw27konHRbCrKpyNoIpdOTqSibAefNAVxx2mzaa3+kKebElmRlkteVDj+PsMAoXMf75VuZ2V3EFdlJJMgGoAMhRFj9MenZS3XH2hkTvpSbkrLxdC2nv8WbOPtwUk8MsmfQ4VP8CfzPbwx5zSyfPvoLBmOQZhwLg9nOMYgHA0QZugHaGo/TKvNgr9vAP1N61ldcYCGqKv42XgLX375Adqsi5kQEYVhSPjQEyRXS1/Vn/igppPe+F/zYLZDDIJkQRBmfg0aSzfVDVt4/dBBagMyuDx7ATN1Hews+oA3BiZxT94skg1+aIb66Wv8jNdqPmJN8wDxgQu4PPdc0i1b2bl9Bc8EPsfP8+YyPXiAzzdcyx7tBUybeDvzw7opLn+G1SWfk5zzPEtHAMIQ/QP5fLzhHj61LSQ79ULmhPRyoPIdttZVMin3GSaZN/BeaSuLF51L1+6H+LAjhSmp5zA/Qk9t9atsqqsjMvW33BLfxPtf/IiSqN+xImcOqZaN/G3PQUxRc7k0exaGmsf5qPhTWsIfIIsd/LSokJvmXsusQF/8Oz7jqYODpKcu5TKhSA+u5wttJn8682pSevayteBVlredz6pp8QTX/l6KQTg7+wqWxh8bg+DKh6oWjzIWF8NYwcm3K81RxYIw1ENTVzWHetux+vlj6ThMUc1anjYv5snZE+gu+YzSoRjixuUQq7Oi14QQHZKIf88X7JViEFZyQ/ZkJgb7HBWkaDcjDTLQX8W+yk/4oqGfoJSruCgmEF3ren5dZmXOhNlcnhSH0CI9bfvZWfEm/2kvQWuZxpKsS7hg/ATKd17FP1ozOS3zNm5Mjqar9hVWH3iT2vjfcUdODoHmw6zb8VPWa67jxsmOAKGJ/YX/5N38j+lO/T3L4vzwM5eyes/jhIx7mIvjg/kw/wC2mAxyDLvYULSHjpjvc2NGAn2de9hR9g7b/H/NQzlhtBb/hve6JnNmzo18L7yBL4rWsqYjlHOnX8Q8vz6+2Ho7m3XXcn3sIH8s2oYtciqXpE0nom8v2yv2sal3CvfOmEpA8+cs2dvI7xbczMXR4ZiL/sRPakKZkHIxdwSsY3X5Pkoj/8Avcx1jEGx01q/nDyWVBEYmcU5CFAEWPQZdBNF+g/S1ruePe5uZO/0yzk1IxLftbZ7et5fu4LOYod/Expp8imP+xL/yUgkZKKNu3yPcbrmR+zKymNT6Mj8sbSIsYQ5XpWYS0LmL9ZUHeXlwCY/naOg99CRPWh7koemTmWrspiD/h7zTnkNK6rcMIChFPKoFgdh/awcIH2x5goLg2zk7KZUYawHrij+mQpvHotwVXBITiLl9j3QjPv/QAdKCgwjV66TDpnFwPhdMPJsztBspq7MQnfU3Lo23oteKZ4tYiWbWf/kjCoWLIeMSJgVVsv3A+2yrt5KXNZ/Yjs+5qT6VX84+g7PCw9EONLL+wF95s2ErpTYt6WHLWD7hHuYa69hR8bkEEN4/czrRHeu5s8jKiikZRDVtp7I/mqm58whuf4tnvvgLXwZl4Ovnh15jYXCgj4zo+7kzKY6dpQV0hkzkspkzsVR8zo6yfIzZy/Gr/jdlQTdyblwKySGGI8EtQ3001H/JqtJXeLe3Gqs2jFmxP+PqceEEN7zC1eUhnD9pKbdNmIChZz+rC7bwXlso1+aF0lLyLG/rfsUfpqYzXt9FhyuAYOmUghQlF8O8K5mqb6Wg4N+8VreNYpuOocF2Gi3J5KX8hMez4+hvXMcz5WvZOWiiV38eN09cytKYaPor/sQHtUcDhCMHig2Geulp3sJTZdso98lkecZ5zA0XvvhStua/zJfGy7glJ4doPx3YrAwNtlHf30pN3WY+ra2hNXIp10c30rDnNtZFvs3NE3PIMFbz7sd3UGO8lrm5tzIttIfDFc/zecFqgiY+z+IRgGCmb2A3q9b/mJfa22k0RhOkE7Eubeg1E1ic9nfO0u/kw/JWFi1cTOP2O3ml/jCN/tEE+2ikd+nRTGRe6o/4TVIv6zb+hK7Exzg/dTKx5g08sfsw2oRZnJ81Bd2hf7C25GMaQn7IBOvH3FD8AWnhkYTotOiG+mnpS+HcjBu4LtKPD8r3s9NvCk/OO5PgzgK2F73B+c0L+WBq3HcWIHgKfNSCFE98R0V7DMKqrc/T5iQGwWbtpKrmQ94qeonVpgEs5gF6zHragu7lnblnk9i/g1Ul7/C/9lKa9XlMj72Cu3KnEtK1kX1KAMFmQWQ6FNSuZnVlAZGxN3NR+hTCtb3Ul73G020pzEudNxLYaurvoLW7lhZrBwVl61ljyeHemecwdPBmPuiewbT0m7ggQU9t1XOs2r8a84THuC07Hd+hFjbvvJc11qu4btISJklBisJ3X8fug//i2e3PsTkogyBfDTrMDPS1M3Xcr7kzMYxPDhZhi0klw38r/9v3Iht044gM8MVqHaDf7ENPyCM8l5eAqezP7LTM57Ss6zjdeIiNxZv4oiuSZbMWk0sPm7bfzEau5vsR3fy4dCW7BjtJMBjxsZnoMwUQajiX+yctJKpjO8uKjDx11jmcE27AVPwYP6o2kJh4HrcHrJOCFI8FCDA00EhpxXs8X/cpO0ytxBjmc+74m7kgYoDuug+5szyIG+dewHlRMRgs+3hvy2qqfaaQot9BeUs5TQl/58dZEQT0l4wAhB+mZ5DT+DS3l66nQAOJhgC01gG6TRH4GK/hJ9l6ekQgtd//8VBeBhON/VQeuJuVrenEpJw8gOB4cfA4BsFiscjRG1KOuChic7xZDHKMgizoDgHxRwc8SABhSAIIa7Y/R130o1yankuybwdVZa/xZPlhWqLP5eFZZxDdvpcdRS+xvCWPv+emMSkoAK1Gi1YTQmiAlrbDz7KjvhtD2v+xPFYABHFjtQOEL7Y+SKH+EuaKGASfA6w98D4bOowsyTiD+K7PuaUhg1/NmMv8sDAp2LGjo5wWcyf9ulaqDh+gtiOMaekz6GjZxpXlIby3YC4ZmjLe2PQhQbFJNA6EEhGUwfnZMXTUrOP9XV8SmbeCSWGhGLQiPVOPUR9O1FApr+7ZR0dQDpfOPIPwxi/IL32PldozyOpuJjPvAiYbQokI8Duql7fN0ktHfwN1g+1095VTWPA6gQk/YJqugjsOaViadRa3TkghoH0HrxRs5sXueH6WF0ZX2fOs8fkND09OIUHXSUfpv7i7PoHcZJHFkHBkW4azGF4p6+T0OZeRVPsyT1e1Exw7jcXxCWhavmRNVSF1kSv466SJBNNHfV8j7aYOOipX8dJgHvOSTuesvmf4oK6L3rhHeMAhi0EwpgAZ7dVv8WhJI74Jc7g8Yya5/iEEaAdpb9vL53s+QJt+M4sSkgl0cA+L35pbNvJi4SY+0eZxe8oQ1v13sSHqXa7LyiHV0ManG26g3O8yZmTfwtSQHqqrXuDzwv8RlP0si+KEi0F0sbTQN7CfDz9/hqrgWWSkzGSCnz1HHKsfcUExtDVu4OWiFhYuWEznnp9QbD2NjMSzSQ8U/l6xkUGE+IcQMrifdV/+lIGkf3JOci4xg1/w5N7DaONmcl7mFLSV/2RdySc0htzLBM1BflBt5a+zZpNtNEo3Oggg1C+ckK58nigpZKfvFJ46fQ6GrkK2F6/kwuYFvDc1jpC6P/JG91wWZF7BkjjjUWI01joIIsVSKInj7Tan5qt3J09bLZVXLfddrR6A0rindRCcr6uP2qZ3WC2yGJL+y+Up9iBF+dPfvJ53CtfyhSabKzMn49dbT2nNZzxlWsC/Zp1FXiC09zXRbOqmo3kXmxoaqI28lDvDD1Fz4C7WiCyGrMlky1kMcqpu10E+Kl/DY41dXJl5GWdGpZMgDt+hevbmv0mR/2xmTTiNLKF8HOsg+Ayyu/BVHqnx4Zb5lxFefBcbemeTl3YjS+L8aal5gbUFb9Ex/jFuzkzH19rCl7t+yP+sV3Jt7hJyQ+RU2zr2FL7NuqJiwqZ8n0mBfgTqtQiYEOQTTqS5iGd2HsAalUqm/1aKD5ehT/wBZ8UM87DGF/RxjPdpY3/+b9lnPZPZGdcwI6CcTSV2gLB05mIm0cPmnbeykau4LryLhw53EBebzZWJifhLgfI6/PXhxGn7qK75jHOKQnh6/gIWhRnoL/0nD9QIgLCM2/w/dshiCMNPq3HIhAORolg/0Ea7pYOG+o+pau0lMfFKcm27+H2BjXNnL2NBVCyGnk28sPsT6v1nMcVnO4dbKmlL+Ds/yAjFv7+E2vxfcqflBu5NyyCn+VnurDOSljCLG8ZHD7OEH766SIymfPYX/pWXtX/mp5PTJIBQceAe3mxLJzb5Hr6fZHSZxeCOfMndHJ01mlJLV3ee8mp/fem3xwsQ1FKS3A1SXLP9eeqiHuWyjFxSDBZ6OwpYX/gKG7s1pGY9yKXhXTTWreMnBxq5atolzA4LZrDhVdb2JjA+bh5TTKv4oKKQ0tAf8Mv0QDqFsm1oJSV5Fg0Fv2WNaRrnZF7CWZqdrCxYw5dM5KbMM0jq+oJbGtL51Yx5zAs10lz+f2ztyyQ2ejbZYe0UlO6moNGXmZMn0VK3lSsEQDh7AZN92yjY+TOeaa+hzXAtl6dezoWJRjobP+J/+S9REf8A1yYlEmsr56PK7fgHL2BWkJlVBwRAEBaEsxjXW0RJ5ev8tmgPAWEruGfaQlJ9dBgc0mNM7bvY2HCI/bocLo4LRms6xLZd/8U35WamG1v4R/5KAiLP5/zU+Rhb3uKVQ+UcCLmaP6R0caj0Gd7XC4AwQQIIneVPcFdtOGmJS/h5eooUoGiPQeiivFqkOdoBQkLlE/yzRsuElMVclRRGe9U7vFiwk/bY6/lxopHNVe3kZk1hvAi2KXmS53pnMSVxDqf1P8X7tc20x/yUH2XFH4lBsJhoqv+U/xTvoDl4IuekTGdGSDgG9PgMddDQvJM3SrtYNHUZeSHB9NWt4p2ecNIi08kNMtBW+zZvHNrL4fDruTu2iYb8O9gY9S7XZk4mzThEef4jvNweS1zi+VwQ2sPOQy/yen055016lgtEmqNOgEUwD9awb/eveNU0lckpF3BxhImD9RvY3drF9Ak3EdC5npUlrSxccAl+pf/k/dYoJk1YxDlxOhrrN7O/qZ+4cecz03hIAgj9Sf9kSXIO0YMbeGrPYbTxszgvc7IEENaWfEJT9C+YE7CfNw58xOwpv+K0yGD829bzWrM/iQlTOdOnhheKCtjlm8eTp8/B2FXAtuKVfK/5bN6bGi8BhFdFjE3GlSyLD8N3VAyCmuy5Ghdb7irNUWKHYZeQUpqw+J4n9TjkOgiiANrorobHd7FwrCByRIGpKThPAYJzt40dIEgB1uP/zUWJ0SQZ7WmOem0AQ02f8mbhJ3wZsJAH86ahb9vD+sK3eHpoKU9OSaGzoxNzUDzpkXH41H/MFzWllIZ/n+vDijl84C7eC/oP12WKGAT/4RgEG5rBGnaU/4/VDY1o4hbyvfhM4n190Gt8oG8vq0qqCI+bzbzxqQR07eWLhgqqdemcExWOQdfN5gP/5kXTXB6edT7WwltZ2zubKWk3SNYGS/smPi5axcfa+Vybm0d83wHeyn+aIr8buVukOY4AhH6qKl9jdeEnlMf/iJvHhxJiKeWjys1ER17ErKAeXt1zAKJzOC20mu1l+TREXMydOWkM9e5nX+UBmowXsSTWSmXRo8cChM5Ils5aJAGETTtvZZPueq5NDWddwdv0GuawIH0psaZ97K0vZqduCleOD8FUv5GlRSH8ZxggDJQ+xgM1RhLHL+P2gE/48NAuCkMf5qGcBHsNCAlgWGltWM9b7RqSIzOYE6alqvIjDjQ0EZd+OVN89/P8llVoEq/nwpQsLJWP8kx9ELHjL+MM2/vsqasYBggh+PeXUb//19xquozb06cw17KVx4pL8Y86nYvSZ2Ls3sTe+j3s9b+Ea2NsdNa8yz0Vsdw9cx6zDR1s3/871g/M4bT0u/h+0tc4zdFqtY5YEIQwCWUh2g+PLjLjbi0C9wDCR3YLwghAEFkMPXTWvcuqym2s0Z7FT6ecRTrV7C5YyasD7fRrLFg6hMK+mAszFzJTV8WWsnd4v7oQc1AAeqsvMYaLuWTi6dgaXubZsq3UanVkGOOxdAyCXzLnZc0nvvMLbmtI55cCIIQZ6Wl6gbcKd7JrwMSQwUwIk5gZdTUL4k0UVG7ksrIQ3jl7ITMMQwxUPMaK/RvQRq/g/knXMDtEh6W/lMLDb/Dm4RJaBeAeamJIs5DzJ1zIgpA2Vu7dR2fwRC4VdRCG2mho+JDnNv8eS9rz3JQ5g3DrgJQXL+fPmnuL2VL+AW9U7cRk9Eer9SdWs5QLsueQE9hPSenTPN9YQ5UG9IM6go1zuCDnUuayl52F/+Fdn1/zi8nJjNP3YqpZye1FGyn1n8cPsy/loljhjxNpjvY6CK8M10HI7FvPO/kfsn2gG7+gSaTYrHSbumgKXMyDSf4c3P86n/iZGdTqsPbGMTv5Qs4Zl05488s8X7qaT3RncmvWbZwTZyRQSnPsZm/+T/lp2R56gseTHhhCgHTCZDMtMI1JPk080ZzKQ1NnkB0UQF/rDt4teYft/Y30633p69cTbJjO+VkXMcO6m/27b2VT1NtcmzVZSqsSaY9vF7zDF7312Pwm4ttfS6CujhmZz7Is/kgdBJu1n662daws+Ihd/V1Y/YRVwUiMcQm3T16CqXk9rxa3s+jsK5jQu49NRa+xqb8Zk5+Wzn4j0QGLuDFnAVk+xazb/DMGkh5jcUoOMYMbeWpP1TBAmISu4nHWln5CY9xfuDy2jebDr/B2i4kWnYXBnl78Iy7l/PR5zKOYp4cBwhNz7ABhe9GbdoAwbTxRjf/ij1Ul+EffzA3pizk90l6SeaxxAKc6BkGtDsJYwIdjQaHRlku5DK0AJ57ero4NUnyXlZv/zHu6ScQFBkgZM+I7uVHLOTs8gZb6lbxSVcRASBwhQ4nE0sAq03T+Oj0PW+06Pmw/SK3eio8phFjjHM7PWkqO7QDl+3/Kwz3pnJF8Oysm5BLjr0ODhcGW9Ty3/2mebWkkLjKbKB8bOkLQMI+LojpZ2xHN4uQZLI2Lwtpbwa7KVayq20GjTuT6+jJkHseM1Eu5LimTw3u+z6o+GSAY0Vs6KK5ew0ul71HiF0OoOZkwaxHdgddyZ+6co9Ic+3vy2VP5Fq9XFtMfoMU61Mug7UyuyDyP+UGNvLDzAMRM5ZzkaOrK3uaTlh3UGIKwWoRVOo8rs65jfsQABQceJd96BrMyr2GGfzmbSzaxoSuSJTMXSS6GL3fexkafm7k2dyaaxjf43+ED7LNYGbT0gy2F7NTruUocuLWf2wHCGQtYGBZAf+njPDjsYrg3cDevFb7Mq+Yp3JJ9L+fFhxIiZQzb6GjbyFsF77N7oAVrgA++lnHkhi7jnPRs4vUN7C58njcbGun009HdPkBi4sVclLGIuIZ/8OnhQ7SN+zs/SA/BOFhNR9njXFjVSWL0xfxoXCLals95t72QgzYTfgOD6DUpzJp8C8vDDGg69vLCjt9x0BCHTpPKOHMRbX4LmJl8pVsAYaxpjt+gLAYb/QMVHKrfT49hPpnCV6u3l4vUmOo51HOY7QM+zI2fToqvFbr283rjHupMoghGNqePn05eeBSBmOno2MuB2s/ZarYR6BfPlKgLmBYeDAOH2Fu/hb299fj4ZxJPOJF6f2IixmM0VbO2N5S5ceMY5y+ihVvJP/QJuzoqadXpiAucxqyYhaT4dlDffph32n24JCmZeD8tup5y3m88jK8xjRlRaYTrRP7RIAMD1Rys/ZidAz30Aqmhl3B65HhitI3sq29i0D+SzLgkgi3NVNd9zovbPybvtJ8zPyYR/UDPUQBB5O13duazt+Zz9lmGGNKEkB6xnDlR4VIqID3FrGvaxb6eemzaCWRHzGZx/Dg0/dXUtuylRDuPOdEhBGoGsfUeYm3TDoqG4pgaKWopBNuLPdkGaes4xL6mHpJTconRdVBdu4ntHRU0MoE0QwJR/jraiWFOhAFby0Y+6KqmZUgDuhksSsgmO9CIpqeUXa072TcYSE7kUmaEB2AYroNQXf8+m7qqabCXIbd/tElkGNPJDRhiS28ES8bFE+Xnh81mobFhNRvaSqgyCyCRSnbEaZwVG4t+4DAN9f+jxnAxEyOiCBHhCrY+6ps2sL2tgEoyiPcxMimgA5+QpSQZHCspiklN1NV9zPa2IkqtYNCmkxUyn7MTjLR3ikqKAyQlZRGltdDduI6NbSVUiHX6ZJEdMY+FkUa0lkYqar7AHLyQ5JAIAq217GvsRhMUR2p4FJrOXVS0VtITuJBJwVr0lirWV2+i3Gyijxhmxp3FwlxsDQAAIABJREFUpNAYjL2V7GptocU/gSUJCehNrdS3FfFOXxIXRwdh7Mvn87YD9PhMZ2ZUHhOHb3DfdIBwsusgfHVZDGZ6eks4UL2RrQNdDA5nGgiz3ISQM5kRNZHAwf3srN1B/qAOXzKYHhlMpTmEefHJhPTm82XLXgoGOrFpkkkLO41zEhLwH2ylvXkTq7pbCQ88i3lRSVK6sAYrlt4ydjXtYEtfE0MiHkD812ZEwyTOivanzhbFxNBY0oz+UhxPX3c+u2vXs6WnH41fKFGBZ7AwPl3SdS0NH1JqiiUqLJcJgX7otBoG+so5WL+WTb0aNJpcJhvNWHzTmRIZL+mAIx8zPT2l7Du8lj1mM2ZtIMmhF0t6KVrTxO66ZjDGkBgSKR2G5Z1b2TAwCNpwooLOYHnCBALooU7ULCGRuIgcYvUd1LbVcNgUQEpcEpFWE7UNa6nVTSUnKplgWy35DdvY1VlBuzWUmMDJzE+YSYKum66uSt5o82PJuCSS/PVY2nfxcSsEh6QyN7Cb/MatfDlgJTv8e8yKMGLQ2u/BNluXVMVwS0cZVVYNwX4TmRJxppQ54qux0N9XzJb6HRSaOjExmdPH5TElNIKhti+p6O5gIGgR08P98LX2Yuk8wCvNxfTqJ3NWSBLpuka2dO5jW3c1EM+44BksSs4kRGRQDLbS1rCSj3vNtFpTyTX44uM3njBjKjnBckqrayvZdwggCCLYCy+JwsPSeTVcT1oQQaB9MSIFVdh3FIvVgtVmQ6fV2wvgjHCtKFs5hGW42YU0LlXHGS7sJJXYFP8b6d/l34oza+T5QF9fr5Sz7+vni5hV5O5LT7FZsQxZj/xW5CFL7y181PZyqOKWIj7CZW3HqNLocE7/kDS/RqtBZ26loOFj3ju8lz7r97hi2lQyAg0M9owGCPaniHUNiXcXtTx0PiNVCqUxm40h69DwurTodUKQ5TUP01Qat4mFSn/EmhzZT5RD7h8YwCAKkmjta7H/R9oQbMKwpNVKSkQj1imNSae8NC7+2B8tyrmIv4/si91kbR2Z+4iSkaiLmHtgwIQhIGDkZidoLWYQ9BLrEzEAjuuSC2+P0FtskHhV6Yn2UfG/7elMR1dSlJ8t3nPQJG40QwQFiiwBO29I9JFM7YLPrCP1G8Q+2q38dvPk8KMlekkzyjw6XMpVIpnGPrdYg51iEjdI72QyDUj/7u8v4mns/ybx0DCfCwUv75Ujf3oBwtclzVGWTaskf2JvhWzb98ou80IaBA8JvdHf1y/FcwnrxZEx+7jgc51Wh074wqTHWu18IPGw4Bu51PKwnhmWPklOJb2gQS9qmkj6alhXDmsgYQkWtRAMRgEkjoxLPCyZ2pHmtVuJ7XpDxvFCfsS4XicOLQd8MKwPhYzYRnTpkTVLciR4fHAQm3XIrsel39tlXvC73QrtKF92/pc/dtkW4zp7DJBTPa61Z0dJuthRj9vo7euXZC/AX1w67GuyS9/RpZal545Ip12WZb2h0x0tuxJlh90Tkl4RdBl5Y7uuEn8G+vrx8/VF76OXdKW8bkFjyZcv7af9fDiis4b1rkNZ7aMpfqTy5XcMIIxmvGELgkbjtAytO+6NsfhnT34RGdAO1LK5Zg3vtbdwTvJPOS1CT6DORo9TgHC0WdlT36+Sf1aO8BYKbLQ7SS0wTS2tztvN8dibgKCp3IvBWalld3h8NPBxVKxKpnbxvZPP464P8W+PBWH4LHe4GChZL4RrRQYIjhpvLPKlBhbFPGNtSCbm8LRsveBxwcuCx0+km1pN58g8LuYcLV9qNHMc90TXit+7Kpkv3ku+1Hwjuzl+9ZUUnStPycXwrQUIQnlqGLKaMdts6LV+9v4CNi9AGC2QSorgeATdleIWCkxkMgRKFoSjP2ppc+4c4koR+V6AcKQB1Yj1ZIytbt0BweLAODExCF6AoBQVL1kQvADBqV6Rwf3owbGARRl8uFNq+RsUg/BdBQjO1+21IBxdAtcLEI5t/qMGjNy9XXnSi2Gsc3+7CiV5AYIXIDjX499aC4JjN0fZNOXM7Kx2e5J8Y8J37KTNrhpKks2vcgyCs5udpwhMbW7ZNCVuGK5yxNXytNXGlTpxnaxujmq3YeEGEGjfWcaKGs3UDiR35nZVAlftt2MdH6v51RUfumNKVLMgSB5bKV7EeVtxNT5TS3N0Jl9qAECNF9TGxX4pZTHIPmilG85Y6iDIfDb6+e68t5J1Qo0PhXy5283xeCxZavslniUsZILPjcaja2nIPKq2Lk917YmwIJwMV7Haut3lBSX5c1Xrwx29oAS61HSteHfZguCplUzxzO7q6hqJEhFFksQLjT4oZQaW/ZzH2FCG/0FpXFYEo5Wf/CzB1GLMWa602m/H8l6yQAkiufK7yYrb2bqV3s2d9xaHhqC3K/+U2tyu6CmbcF2Ni3cTNBfplc6+MxaaurNuocDEup0dhjKdXb2XGk2Uxk82jyvth5hb0MZZS1h3aObpXss8Phb5UqO50rsJHhdy7al8ebruryuPy7Lpiqbu8ILSfghwIv6cLD1+Mnlcjc+Uxsd6hqjNraRLhT47lTwu5j7eM8QdPtOYzWa3Kym6uuG4g5KUbgpjsSC4O7ezm5l8EAkEJpSXM8WtFmCidgNSopn4rbAgCB/paGAkxtRoJh/izhj3SLT/sTdS8U5CgQimdhZM9FXMLQ4NMbezm52nNFV7b7FutWqhJ4vH5duV+FtEeI/+qO3XWPhQzOWqUJIjzVxZLzzdD/kglC0InhRKGsvcgmZKhZJOpnyJuYUFwVX8g6frcofHxUEp/riqiHsyeVzIl1i74HFn4N9TneXOuuU4tuOVL7Vny+OuzhAxLvZanB+n4gxRqqQ4Vh7XeIMUT12Et9g8bwyCNwZBBrmCH5TMfeJ7zsbVzJDid94shhPR7tkO68Q+OQI2ZwBdAHBvFsPRrjI1N7USTd3lcWeB7mr75TjuzWI4mse9AOEUKk8vQDg2utwbpOgNUpStK2qHgjtxACe23bMXIHiDFL9jQYpeC8Kpu115AYIXIIw+DL0WhCPOFy9AOLa2hNptWHajCReDp0GKYg5vHQT3+VB2FQvXhicuhrEEKYrfetMcpQpcnmVIqCmZU2l+9QIEL0DwAgSry052arLrtSAca23yAgRvoSRZp8hg0pPMkJHfjm7WJLd7dvSrOaJWZ5OpoVo1H48YVyqUpFSZT21uRyXjKshE9s+Ojqp399me+obFu8lBiqORpxLN5KAZOeDHVQqXHIzkLLpVTnN0FijormKW6emKVzypke+ui8ETPpQDBZ0VSnKk6Vhu8WIOV7cvOc3RWQDXieBxV3w4FhAs74ezZ6vpBTm2YqzNmlzRVKaZKwUo87hasyZnekFJb6jpBfG+SjEIJ5vH3Unl9UR+lHhBjs2QgxRPViVFNR4/0TEIarrWkcfF+aHUTl0pvsFTHnfHguDJ+TQCEJy1e1bq5ugJY6khGTEu96t3FYF6Mi0IA52d6AYGEL2QjvqMCkYaXZzcXrd8uEOBqKk+On99eFxSQHLNdYcJxG+F8vQX3eb0UruxIx8353b5bAeryzFF1UX5z+EsBumwGv1uw3OrPdvpuMp7y8pTKBI/gwGtyNUOCLD3Zx4uS+oK+Mi/dcXw7ihutQhvV3zm+G6e1PqQwYn421Me90TQZYZSymJQCg5To6k7YFIAcKE4XYFgT244avshj5/Yds92aqrRROJTsxlTezuiH6fWod+A/HvHniFHyedw9pIsA65kU+YFZ7IteHzIYsFfyNVolaamk5T0hopeEFOZh7MYfEdnMQz3LLD3cHGiD49H3w33lxm9NvkM8RVVUoVe8T1SudPdAElPgxTHksUwFheDfLkW8uVpHQSlM13jDCC4So9RU54jTHsMWyrXo5aVp3hRZ7m7Sile8qHhSsnIwnyUUhfNhFpaoLERuruxNDaibWlBZzLZGxHJH4dUQ+mWfGz3EklZ2HuSjBofbmhkb9shhZ8fSxWbTUq7k3JYpYZLDh8357Y39xnVVWVYicnC6EyJCAUllIiUeuYEIEjAx9Wz5QZVCjSxk8QJzaS+NKKZzRB60QciKgpbRAQEB0NkJDbx/4fruCulbzqzisiHghIfjhUgjJXHxe+V0rBcrUvcSI+Lx0dx24jydFCa8leU5Eu+QSmleI0cZi74cCxpjuLdlAqNiXFnSl3mhbEABJmHlfjwKLr09UFTk6RbbJ2dmOvq8OnpQWsWLUqPlW1VveGhfAleERcAHyd7bW88dAJk25k+E8BouNaHpFcc+cFdfeZKbwz/3inNhklrEbV0RD2b0FAQeiQ8HIKCICYGa1iYMO25rBVw1EVvNKiS51bQtTII9iSV1x0eV5IBpTRHJfDhjmx/I7IY3DG/unULERvf2wsFBbB+PWzaBM3NkjBpRNEen2NsCMM91ORegk7O+OF/OvaItnfukpTMsT+T/kWMi7Ud6aw2So+48XulZ6vNLSlXF4LuzruPae6hIam7pMZiEUSwA4RJk7CefTa2qVPRxMSgFfvhoGTUbm5q44Ie7vRiUOMlTywIspVM/C0sdKM/7vC4DE5GH1hqt3jxu69zmqOn6xpLDIIazdx1A0i8IPi3oQF27IBPP5X0i62rC6voeijA7igZc7iCONUN7sieomwP39aVZHsssqs0t0Q34WZzZjF1Q5+p6Sy1uSVeEhcYAcqE7oiJwXbGGdjOPBNbZqZksdSMuow56g1PLAhizXIlRSUXgyd6wx0+dSdIUc2N5rLS6Hcqi6G9HbZuhVdesQu0OJSSkhiMjkabkIBeIM9RjG1v73x0e2hZuUutO4ctCK5u8bIFwdW42FyB9O2tjY985GdLDO/iZqb27KPaZo86kQTjidu002qGY1yXEs3Ea4i5B0UFSRF42toKdXVQVQW1tWAwYFu0CNtFF6FNTJRQ/wi9VfLPTxRA8KS0r7tuNLEWbzdH+46q0cwd5ahk1ZQ7lp7UZk1C/isr4e237ZeOwUFISMA6fjzmyEh84uPRGgxHy7bUCtx+cfBUbyjJtogjExY64boc/ZFujQpzy7LrTOdIsqug78S40CniO5JeGa1zTqIuFVOJVtPCneMjLMFCp9TU2PVKby+2hARs11yDZuZMNMKa4KhrHfSKJwBB0PRb24vhOwMQxEH75Zfwq19JbgWuvhqWL4fwcPoHB9H5+CD8Zs5urJIgO+sxYbX3VxfjEgIbdZCrKThhau8ZrqR4PEGK8iGr5Kt353ZlGhiw92IYfcNx8DUebxcw8W5utXseGJB8pNLxL25gwjy7fTs8+yzU12O77jo0118vAQYvQFAuzKPGZ4J+X2cLgprFRm3ck2DYsYCTo4Bofz+aJ5+E116DCRPgpptg5kyGfH3pM5kwBAYeE18k5F7SG8LC4Cz+x8GkrRSA7Grd7gQpqoFgyQJwnD1BpEP6q+jm6MJ1KXhcClIUrhVhRZBdyW+9Ba+/LoEEzUMPSfvjyjLpBQijwPt3BiBUV6N98UV49VW47z5YsgSGb6inSnkKReOtpDhsIRACLZD+5s3wwgtoxP9/8EHIy4Nh14+ahUBtXFZg3nbPDpaqMVpl1MCJGJdvV8fbDM2dZ59SC4LJhHbbNjR//SsI6+ONN8Ls2VKA3NCw2VnEc52M4DHJsujk0iL+/YQAhNExUW5YfL4ygODCLToCEPxFaOjwR8RECCvC6tV2IHfzzXDNNZLrwdnFwwsQPAAIaor3eMZdpYCd9DTHzZvRPvGEKEoPf/oTpKSMHDzf1TRHQXNhQRh9S1FK8XK0ELi62bljQZDnHs0PVuEGeuEFtB99BJddBldeCSIqeVT0uCfZNEoAQQ7YcXXgnAgeF7cr8RxnKWAnIgZB6dDwFAQrpbY50kzplq8GEMR7e6KY1QCEuy4GNf/s6PERXujsRPvcc2jWrIFLL4Vrr7W7Lb+maY5q+3U8PO7Kn34q0xxFHIB4r9EuPNvgILayMjQPPogmIQFuvx2mTXMLIKjRTLbmuhODcDJ4/KSnOY5u9yzXQXDlo/EkR1zNnCcHcIk5nflnx6I85bm1q1ZJwszcudjuvNMe3Tr8EcpTqd2zK8WrpDxlxlFzA6jliKuZVz0dPxF1EJRMu0qHlZLiliLq161D9/zzkJmJ7f777bczN9LL1BSc0u3qeACCUpU5V4edeL5QnuLvb2odBE8V3MnmcSU+lLMYlG7xagDBVR0RWlvR/f73aIRLTBw6CxaM6BSlds/HFQDpwsyvJF9qDclc6SQ1+XFn/FQCBKcWBFlvCDD397+jLSzEdsstsGiRWwDBXT0upzl6WgfBUz0ueEnOYnDW8M8xQ+l4gptHzuzvRB0EiwXtG2+ge+MNbDfcgG3ZMnvu/fDnVOWIi01w1UfcURg9Vcxq5lelbo5K6THu3NzUAIKrbo4SQ+/eje7JJ6WsEutvfiOlLJ0ogDCWNEd3gKorQZetF+Jvbx0Eu+CpXRzU+EwtzkZWnoLeLqO0ncUBqNTjGJHN+nr0v/gFmoAArOLSMWnSUQDhVPWBGAuPyzQdS6llVyBYab/UwIcaLwjCu+rmKD27txfte++hffNNuP56KQhaDkgfq64Vv//W1kFwx4LgiKJUg1uc+K7k38uHhqN1wvGQFsr1ZOSIi5QjEX+g/eQTbD/7Gbbp048qoqHU7tmd/HNP89MFY7mKfpVvtK5opiYwaspTtiA4K4o1YnVx4eNUe7aMWl3lzitZL6R1l5ZK7iBtYyPW3/4WUlNHWMaducUzXOXGnyz/rDs87lhJcbQMOCL90WNqB6nauJLyVHtvtWer8aEMgoVcf9U54icCIChZJzRFRehE0HNqKrY77pAyouSPO+4NNV3q6fhYAYKSnlbShzIIVgII4jvO9IIan6mNq/K4CGDcsgXt3/4GF14oZTTIAdBqulZtbqWLnrvy5elei7nlNEdPY12U5v5G1EFwB3kqmmiamtA8+yxakaf86KOS6VoOfBMb6Kl/dqyoV/zeG6TopN1zTQ3ap55CU1gIv/jFiL9Qjd5q47IC8wYpHoEgajRTG1cDCN/mIEXNjh1ofvc7NDNmwK23QlzcUQDB2+75a9Tu2WRCc/Agmt/+Fs28ebBihVSYbbRl0hNrrdJFz12AMBYXgzt1EI43G20EFH0nshgaG9E88wza3buPAASH0sZegHC0IKshZrVDwZ0gRdnFcEyQoii0UlOD5j//QXvwIPz85yAU8AmKQXCnUJInaF6NZmJctiB46yDYz1E1mqnxmZo1yZ1bvCeKeQQ0bduGVsQgzJoFwq/tBQhfTZrj8WQxyHwm6lMcPIj2N79BM2cO3HCDU9elFyCMkk0vQPBaEEYHr4xVcXsBgvOe8V6AcKQ2/rcCIGzdivYPf/j/7L0HeFzF9f/9Wa16r1avlmxL7j0YXCgGU2xsDAaMwbTQQ0sgCQn5J28aSeg9tBA62KYZ4957L3KVJav33raX95mVrlmt9967Khb58eg++DEwe2fuzJxz5junDgAEJ5tYv+RBGAAIXUyuAxqE3pZ7HtAgnOP2Id2uRJz2AEDoWB61G2lvTF0DGgQ/2Up3PbnFe7Jf512DMAAQzpErAwDh3HT9vfEv8kSLdl4BgnO5Z0/CY5TUr3LOLWo3UlUHk06AoFSURXZs8a4ACO++i2b/frcmBrUoBjUnRDUBp1RoQ/ggCEdBdyEqYt16uqZqh50nToo9nZcSQ4j5SILbXQ4Gh8OQk4nBLjKfdZoY1A4FydnofDop9nQ/JP8H8W1yJga5vqU16ykdivflzGhS3+Lvnniuq9FZf9hnlWSSFEnQ3SgGSWYpyjsngOAInYuL63KzEz4IgsblnMd6YspSs2mL9t46KcrxjydyXA0giO9Tcl7uDY3LRTE41kykXz5+vMPEcMEFjmg21+gotbGV5LhcNJrafqmtqSf8dV6dFF3DHIXwdldMRu1D1Q4FtfaeenhLAk58t8jhIB2qEqc6/ru6Gt8PPsD70CGMTz+NPSsLu5MPghhbbL67dMeeHNLS3MQh73wblw4sOYaQvF/deXhL76odSJJXsdzY7pxTJKJ1lFx2LcvaabMT4yt9t6NiXGelPVdwo7bXajkYvCor8X3vPbQnT2L65S+xOiU1EX1Lf4TgdefDoHTQqoFgJQHmPC/XPVPbLwkgiL/PR6SO+DalEEs5EOyJAPOEB9SEZ2+iGHoDVHtazVHMWZIpksnM+bos1lu7bx/+zz6Lbfx4TLffjt0pO59oF6BMFgQrgH9nGhfr2l3+EgBByEJ3clxNJomxJd4W47rjLzm5INZHyoPgTq5I/CP3vjS2+EZHhVsnU4Lad6vyl5DxJ08S8I9/YJs0CdOiRdhdnBSlM06cA92V4z2t5ijxnxhPrLVrEjW1NRPr0lOA4AkIdlvu2V3om5Kq46zTjkz6TzWUJKlflcIcxW+UsnfV1NRQXFzsIFDnR7zn09BA0qpVhOXlkX/HHeiSkroABPGOO0ZUE/qiXTBjY2OjQxjExsZ2YUo1olbbXDXBLAijoaHBQSDJyckOgCMRttrYYj9lizWplDeVhF9dXZ2DkePi4roIEjWAINrFmoukIu6yOPrV15P83XeEFBdz5uabaRVRJ52PeFeEhtbX1zvWOjo62u3YckLIUcjGYnF7i1dbM6ldfPOQIUNIEIV4OoWYGo2rCjAPzGgS8OlOwhNp3dS0ZHJ9q/G2JypQSXjK1RtRAwBq7Uo38Z4CBDEvod0rLS2lVlR87Sxx7kyHYSdPMvjTT2kZMoSyq6/GJMoLO9GpHI2ryRUxlriRChoXPDJo0KBu07g45N0BUTUaF++JeVdVVREVFUVkZGQXHpWAqCsNSvMWMsUhc10OWWcgqhTm2NTURHNzMzExMQQFBXXhLyV5KIET0bcrnTm+zWQiqKSEwR99REt2NuVXXIG5MwGb9G5LSwtifCHPxNieylLp/BLjyjk5Kl30pMtYSEgIo0aN6nJpU+MvtTNE6eLgyZmucTYxCGaSMinKCSG5Q9pZeHbXpt1bgCA2dtWqVbzzzjs0tDacU185wGJmeH09g3Q6dsXH0+Tvj82p1pjNLv5LI1tZTfxUtLt7bFYbZkMHYvcP8kfr7VR9UNRNc5RelyuuClabtQP4uOnfUXdN4X2rxYpJb0J8Q0BIAF7ars5xEuG5+27RtwN0ac51qBO/V3pXtFvNVox6IxovjWPerohbac3OCikvx6qf83mBJhMj6+uJMhjYGxtLrXPBJuxYTR3z9vfz7yJEpO8Wf8utuRJ4kQSQ3LuiXQhQIfiffPJJ5syZcxZoeAIQxCEtHiUTg5LwlNp6ChDcAXA1AODc3hMPb8dh19LimLO3m2JoSkJfTThK7efDxCD6Pn36NJ988glr1q3BZDv34hGn0zGhupqawACORUej8/7B/qxG4x01Fd3LFdHm4C+dES9vLX4BXYG0mlxwjE3PeFu8azFZMLQb8A3wxdff9xzeVpJnQpY6DsMeyBXHhctodshT30A/vH203ZIrSnJcY7cTaTAwubKSqqAgjkdFYXDSIjvkuNHsmHtYaFiXKreeyAVBL0paNDmZJNGJOD/S09N5/vnnuwBCNR4Q78tpL9RkkkcA4acQxSBu8J9++il/fvbP1A2txytcQ0eZwI7HG4gCRO7ESgEmxQHo9rjv/v+0N9uxnhDVCEE7Wosm0oEm+uWx19qxnbBhN9nRTvZGEyQ4sx+GtoGtwo7tpBVNuAbtKC0I2dhH8xZdif0SJVeqhf3cZUq2Mza8i7y5ZOwlTJ8+HeFo2R+POODPnDnDsmXL+OMf/8jtt99+dmw1ZpRAsBJAcAA2d1VDVQoqqQkRMeaPFsqr02HYtg2fsDC8MzNBlNr1UOuiNi81gNBbJ8UjR47w4osv8sWeJZhzzGhcqicLqhMlf3RAPWDpKyK0g63Yhi3fhibaC69sLzQiAKSP+EvpM+1GsBXZsJ+0oRnqhTbTq0OA9sdjBdtxG7ZKG14jtHjFdpXjvfkEsXRCnoj9agcaxCXHqUN7ix1bno3IlkgWXLeArKws2WRrvfkOd+8KrcW2bdsQGlkhW5KSks6alTzhgfPqpPhTAgh/efkvNF/XgleSFs25zqR9va+O/mwVNkxrjdgb7fjO9UObou2fQ1oIpNMWzGvNoLPjd5s/migvNF3zDp2XOdutYM21YFpnQpvghe+1fmgC+w8YmXeY8N3ty8PzH+a+++5zqEH742ltbWXHjh088cQTPP744wMAQSUlsWNPamqw/va3eLW0oLnuOrj8ckeJdVFuVw1UeSIc5UCVGLqvAMKy4i+xX2NHE9IPJ7RDqIB5rxnzVjPadC0+l/viFdw//GVvs2PeY8a81oTPpb74XOSLxqk44vnkMwFOzGuMWI5Z8Z3tizbLuwMY9cNjq7Jh2mQiuTKJl/75kuPi4S7zZ19/iqDfiooKh/Z7w4YNLFmyZAAguC6yZEcRqqueJJGRNAh/eeWv6G7S453iDd79w8zWCgv6lTrsDTYCrg/CO72fkIkACHkm9Cv10G4n6O4QvKL7CZzYwHTYiGGlHu8krWPemsD+UF10UI5xqx7vnVoeX/A4Dz74oMNW2h+PMGUJpP/oo486/gxoEH4IDZV1kCwv76h0mJsLIsW5qNB55ZUd6Yk7NSNqPgZq7UrpkHtTD0HSIHxV/g1e87R4Bfcjje80YNxowDvTB/+rAvptbHubDeNOA4ZVBvyvCMBvuj8av/6RpZjs6L5vx3zETOC8ILyzfdD0lxyvtGBYryexIoE3nn+Diy++2L0vQx8LGsED5eXlvPnmm6xevXoAILjzqu8rgPDXV/6G+RYL3ik+aHz6h5kt5WZaV7Rgq7cRsiAUn4yuNrs+pqcu3RlPGWhf0Yq93U7YPRFoY7wdPgHn+7Fb7RgP62lb0YZPko9j3l5B/aC66JyYbnMbmu12HlvwGA899FC/ahC2bt06ABCcCEztlk+CP9nfAAAgAElEQVRZGcyfD3v2iDhKyM6GG2+EuXOx5+Rg64yW6W4qWMdFW8Gxsy81CN9WLMdnvh/akH7StYsibjva0W/Q4ZPpS/A1wWhCtLJ+UH3J77Y2K/rtOtq/byVoVggBlwTh5dc/stRustG2vAXjESPB80PxG+aPxvf8yzOxfpYKM+3rWokvi+ONFzoAQn9pEAYAgspNoa8Awt9e/Rv2RV74pPqi8ekfwjKXm2le3oit3kL4TVH4Zvj1i61QELXhpIHW75qwtVuJum8Q3jE+/WPesNrRHdLRsrwJ3xRfwm+M7FeA0LapFds2C4/e8MgAQPBEzf8j+iB0AQjSSZaSArNnY7/9dmxDh6IJDMTLTZE3NfDRXwDhu8oVBN4QgldI/xyUwkGqfXsbretb8MvyI2x2OF4h/QPAba022ra3OuRK6FXhBF8Sisa/f2Sp8KVq/rYRwyEd4TdE4pcd0G8AwVxhpnV1M7FlMbz+wusDAEE6s00m01l/PeGdrZQHQfC3UgyrXLvkqSna5eLyFZNcdIYYyWkfhJPHZ599xj9e/yfet/vilxaAV7cBgh1rnQFTqw17eAABYV7IOOJ2vcWXGWn4tg5LvYXomwfhP7irR79bdC+CE0xWLI0mzPUWrAYbdjR4BXrjHeWLT7gWL1+5uIkfetSd0NH4bR3WditxDyTiE+ODRqvCzDY7NoMFc40Jc7MF4ZytCdDiHeGLT5QPWj8RzaF8JxEahLYDrTQur8cv2Y+om2PRBosbTvceu9WGXWfCWGTCHu6P7yBftB7gq6aNjVi2GHn4+oc9BAhmWspOUpBfSHkr2Nx4qHr7DiI1ZwjpiZEEyshi4YMgaRB+8YtfcNttt3VxUlTyyHeYRkSylh7kQVDjH7V2B5g0GBy851qvXrqJy/GmWt9qcdqa8nK0CxYgChudfYT3eFQU9gsuwLZ4MdbJk9EIM5EL4Z2NBNC4jzBSG1u0K4U5qkVQHD16lJdeeonVNWsIuTEc79DuaxBsRgvWagMGL1/8o3zwCVDnEpEioXVrE03rGvHPCiRybnQHf6m9Kni73Yy53oyl2YJVeGP7avEO8cZ7kC/eAV54qeAMS6vVMbbg7fCrowi/LAIvfw+AkcWGpcmEuc6Mpd2GXZTRDvLGJ9oX7zAtWg9MBTajjYZv6mg/2EbUjTEE5gQ75GB3H7vZgqXaiKnBjjY5EN9Q9Xkby400rWoguiTSQ4Bgw24zUHlsN3kVrbR0sLbL40dgSCLZ47KIDfVza/V2NTGIqBlnJ0U1HpCcn92FWPaWdx0hkm1tbWfFpYhhleJn3SWK8AQAyIVpKTGjaBPgRLyrJMDk+hYAQTh3PPvWcwTcEUJAemD3NAgiLEhvoG1LNQ3FoB0fT/xoX7QegAxDmZ7ar6ux1JuJvSWBwMFByhoEx1hmjAVttB9toS3fiFmAEgEQQnzxHxJC8JhgAlNFWJjyYd1+oo3ab6oQasGkh9IcByxKJgarDWuTHsOpVloPtKGvNGE12NGE+uKTJsYNJWiwP77BIuxS/hEAoeVAM3XfVOOfEkDcwgS0wd0VnnZsLQaMR+qo+boZr4kJRF0WTmCUujBq2FCHcZOOX1z/kEcAwW6v4/DH/+KN1/7L6gofNF7nfmtIxDRu+vXDLJoznhQR7uLmcQYI999/P4sWLXLkYhB0qcaMjhAus9nRa09ixJ1DrdyFESu1S+BELRmYGu+6tjvPWe7iIACC/y234LVvX9cVFZEMQUFYJk7sSFozbZoDNDhXWXXOPSBngpA6lWsXay7W210mRaU1E2MfO3aMV199lfX1G4lYGOM4aLv12KyYS5ppXldLQ2gMcReGEproQR92O41bG2lYU0vQkCCi58apgxPB23V6dCdbaT/Wjr7CjFVvB38t3oMCCBwdSvCwQPyjfXBD/menZWm10LSlgbpvq4m+ZhCRM2NUAIIdRNhxWRvth1ppO6nD1GTB7qXFK8qPgOwwgkcFE5gkQjWVRaMACLVfV9F6oIXYmxIIGhGMV3dNxTYblsoWWtbW0XjcRuCNaUTnqAMzY7mBupU1RBaF8/oLr3mgQTBiNZWy9PHFvLq+iCKdD97nyN5oEofM5onnH+DSYdEEuwFnzgBh5cqVfPjhh478KlIuB2cekONPcXa6S2qlxp9KMussMHFNtSwYSiSJcH3UkIxafLl4X06ISCjIXZy22g1HtEtOis+89gwhd0U6AIKXjycquQ5sZNObMRypovrbahosIYTPTSV1gj/eHgAEfamOqq/KHMg58dYUAjODFfIe2LGLON+TtVR8VE1LHWiHhRGa6ovWbEJ3tAVdkQXtkAgiFyQRPcQXbz/5w7r1eDPVX5cjUH/aw5n4xfqhkSlkIgI7bQ1ttG6qovyTBqxRAQSMDCY4xRtzYQutpw2YgsKJuTaOmJ8F4asANMTNv2l/I9VflROQGkTiLSkO+6y6zkOiKjt2iwXj8Voq3yujudxKwDXpJFwdQ3C0uiaidl0Vuk2tPDT/Qc8AgvU03//hrzz76kpK0zIYmnRu1ENg6Ehm3raIa2aMIMEDgCA5KTpnq1NLIiNus4LWu5sHQY0H1HhTvC+noeuNEBH9qo0tAMJZHwRXoSKuxCI3QlISPPQQ9muvheTkLmGQanJDtCtlC1VKtazWt+SkuLZ2AzEL4/AJ9dSlviPHiK1JT9PqEio2tGEcn0L6VZFEJas7MYt36zfXUre6iuChocRel+gACO75q0OG2Rtaafi+kpo1zZgjAgnICSE0zhtTSSttuW0YGiB4Xgpxl0YSHCf6cv+YW82OsWu+riB2TjzRl8eh9ZeTpXbsZivW0nqqPqyi8YQZr7RggkcE4KMxY8hrpa3Sjs/oOBIXDiIoXItWKSeM0UrVl2U0728icWEKISPDugkQ7Nhb22leV0nVt3Xo/QOJvH0o8SP98BVRVgqPvlxHzYpKwgtDeM0jgNCKuX0/f5/+IJ9UWgjPTCYq2CUOlhBiUqZw62OLuGCwe82kqwZBXHQTExPP+j+o8ZdoV8qkqKYlE0uiZBXQ/JTCHJ957R9E3hNLYEYwWjXkKW7yFiuWNiNt+6qp31pH0yk9psQoIq9PJ3NCIN4eqLd0Je2ULyvBVGckZXE6wZmh8o6Cdgvm0kZqPi6goT6IkOnxRI8OwidIi8Zuxdago3lLFbX7dTAinqT5sYTFiuyI7im7+VgTFctKsLRZyHxsGP6DAmRMDHawmNAdqKLqm1qamkKIuzmesAxffAI12NtN6A5XUbWhAXNiLIOujid2iJ+sEBEAoWFvPRVflhCYGkzKbRl4B3dNM63EjHZxs6popH5FOdW7WtA32QiZk0XKNbGExKgDhKo1FbRuaOLB+fd7BBBstVt598/P88I2Gz+74z5+fXnGOZ/npQ0kLDqKiNBA5EjHWYPwo0QxiGQsej2a1lYRw3d2Dmq2+rMAwcsLP1+XioricOk04Qlw6UpqjoNOgHsZ8+DZsb288HJHqFVVcO+9cOiQe5Lw8sLu64smIaHDeVFEOQwbJrJJOcaVDnElJ8bzHcWwoW4zcbcm4esBQBBraTOYMVe30bylgro9LbTV2rBcnMmQq6OISVEHGWLOtZuqqV5ZQciwUBLnp+AT6nOOCaZjQe0IW0LL2iKq1jVjDI0kZtYgwlL90PpqsOtNmAobqf26jBZbCBGzk4m9IBQ/oZ10syPmFjO1m6qo+LKUhLlJxM5KlAcIInFYQwtN3xdTuc2Kz+hBxFwWSVCkoCMb1nodTZvLqD1tx2d6GqlTQwgIk+dvq8FK+bJiGvc1kLIonbCR4Xj5enLR61wJo562vVXUrKymscCINTSI6DuGkzTaDz+VKCtdWTtVy8sJPhPgGUAw1mIo/pZ7F73GkSHz+NWdVzMh0fVircXHL4TouCiC/bzdKnfdAYSBPAguhCmhoN6GOf7jtX8y6P5EgjNCVDQIHTd5Y3kj9VsraTjWhtGgwSZ8AqLCCLthKMMmBeCtBjJE0o2SNkqXFGKsM5B+RxahWWEyjCyM0Hp0hysoeL0E85gMUufHE5kkpUcWjG7DcLSMim+LqW0JJfG2oSQM98dL5jbfdLSB0qVFWNpMDHt8JP5xATIaBDvo9LTsq6Jijx5LShwZM8MJCO+0a9ptWMrrqXq/gMqyAELnpJNxVagjP4o7ISIAQv2eWkqXFhKUHkL64ix8QtQFX4c8s2NtaadpWzFVOwx4h2uoO9hE0GVDSJ8dT1iMukCoXF1G0/o67r/uPo8AguHUZ/z9mTf4ojaHe5/8HY9OS1K8Tcg1/ugAoaUFr1270KxYAS0tP3xm50EqkKRcljurxeKgy3OyIUrvStkn3fgBiD2T69txQ1FoR6eDzZuhrk55zcW46ekdeRIWLoTRo7EFBTkSmv3YYY6b67eStDjdAw2CDWuLntbcGuq319BUZMSGF7Y6E4YZQxh2zSBiPQIIUL2hnMqVpYRmh5NyQ0YHQHDHjSJzYWszFf/NpyLPi6BL00m7NAz/kM7srALgtbTTtukUBet0eE9KJ+XqBEIj3NOKucVE9YYKSpcVkXRdKglXJqP1lzGLCLlR0UDNqkrqWoOInBpH/JhAR7CKg9WFVnR/GaUfV1Mflsiwe+MIT/Z1zmHXhSasRislX5yhYV8dabdmEjEq0nOAIPxN8iupWF1Da5kVu81ESwPE3j2W1NH++KloEHSlbZR/W0JAga9HAMHWUkzT3peZ/9Qmgq/5DX+5Zw6jY101COpiZgAgdKohlXJC9xVA+Ofr/yThgXRCBocqAwSbFWNRDeX/zafymB7tyHjiJgdj3V9JZbU3wQtyGDEpyCMNQntxK4VfnMZQpyfrzhzChkTIG9qam2nZW8ypFQ0EXDqcjOlRBLp4RluKyyn/6hRFp/1JXDSKjMnBUuK5c6it8Wg9RV+cRqgFRzwxjoC4QHnthShm1WLC2G6HID8CQ7VOSZXs2Fqbqfn3SYo3afCfncGQe2McmcfcAwQ7tburKFqST3B6KFl3ZHsOEPQ69EfKKfiyGvuQBJLSTJz4qASfC4eRdW0i4R4AhLLVxTSsreG+efd4BBAqNv2dvz7/FYdDruWXv3uYeTkh6pzr5hc/OkCorsbrs8/QvPoq1NZ2bw6dh3j3XuqDXwvthHDOdNJ4yPYqThbhhyCKc919N7aZM7F35sT/MTUIWxt2kHpHlroGwaSjdVcZRZ+X0dSqJWhaCtFhwsxQSc2YLIbPjiM+1QMgLZLnbCijbEUR4dmRpN2oMLbVir2yiuJlRdSawoi+IpOUHL8uToF2gxHzoePkflqHdehgMuamEhXv3ulRAITK9aUULc0n5bpMkq9OlQcIQrYbzJgajJjxwTfcB1/nm7rdijGvguLniyitiSb7mXRihvo7kq66ewRAKPw8j7q9NWTeNoyI0dFoPdEgCJDU0Ej5FwVUVfsQPjYaTXklRXt1xP18Mhlj/PFXAQjtpa2UfHMGv3wfXnv+VVUfBEPNMfK+fJCfv61h0j1/4pc3TyUttAcOlQN5EDrslP0BEP71+r9I+cUQQgeHKwMEq9kBEEqW1mFLCCNsdAThsSbqvjhJwSkvgm4axZjJQR5pENqKm8n//CSGWj3D7h5F+NAI+ZyoJhG10EZLtRmf+HCConxdvHvtmPKKKF56jJLyUFJuH8fg8aJgiXvCa8itpeDzk5jbTIx5cnInQFB38nO6enb8qyjcVFZNyXsnKCkMInLuEHLmRcoystAg1OyudIwdkh7mmLdPsFquZaEhMaM/WUbFiiKqLXGkXhlLNLXsfvk0vlOGM+TaVCIHqWsQSledoWZ1BffO+7kKQBD3z3Zy33+Mf7xxgLKEy7n6iiS05QUUlrViDY4jYcQ4ps64kJHJEUQEyJtzxDIpAQQ1Nb/kZyP+7m61VIl/qKrC68MP0bz4YgdAcCkg1AfH+Y/fhfChCQ6GMWOw33ILttmzHREOXi6mkQ6ytSmaIPoqk+L2pt0MvjMb31CVG6KhleY9VVQdNOM9LIrInGC8ayopfPs0FTnDGHltAompntwy7ZSvK6Z4eQERw6MZfNOwTnDiRg6Iw1Gnp728HSO++MeFdlw6zv7Ujl2nR7fjIEeWNcDobLLmphMdK35zbn/mFiNl64opWHKKjOuHkHr1YEWA4J5gOv3ejSZa9xVw+oMKaoLSGPtIMtHC9CELECzkf3qCmj1VDLtjBNFjBqFR9SWzYWtvo3n9Kc7sMeM9MpX0yX40bTzNiY1tJNw7hayxgR4AhBYKvzqNz2kNr6oCBAtNZ7ax/Z838odNE5m44DJGRemoKiilpk2LX9xgRl1wAVMmDidrUDBaR80ZmZVyAxCED4Kzk6Kame28plq2Wq1dwhylYk2u01GLOVZqVwMIYiy1MEfRh1y9ehHFIGoxPPvGc2Q+MpywrEi0SoQlVGOtOlpLLPgkBOMf6oW3sYHid4+Qd9yLoIVjmfCzEHx91Q/b5qIm8j49ir5Wx4h7xhExNEqxOJO8BBbRDe3UrTnO6a/KaI9NYejdw0nK9Hdv2wVqj1ST99kxBFNP+O2FBMYFn1OwSXY8h2pZhOrYMFXVU7P5DEUb6rAOziB1XiZp2f4OonZH2DaLjcpdZY6xwzIiGPHzsQ4NgqKTot2GubqGinUFFO2zEHXtaNJGeONbUczm507gO2U0w+dlEBWr7oNQ+P1pKleVcs/cu1QAgsiOX86G3zzKc+/t5lh4FtnDowkTtxK9juq6etqtIcQOGcOsm27imguHkxIu73vhDBAeeeQRFi9e7HEtBrEPnjgpyoXyOgC20CB8+CFeL7/sSGH8kwQIYqEESPDxgeHDsYksjLNndyRYcjnQPJFJvanmmJub6whz3NW8j6F3j8QvTDnnsN1idJgaje3e+CUG4udjQXfsDKdeOUlJznDGzUsiJU09b7GQdSVrz3BmeR5ROTEMXTjCAU6UiiTJ8bndasZcXkvJe3spzPclYvYIsq5KJFREKrlhbmOzwTF23ufHybohh4w5WXj7qztWSuM7TE6iZLROj/5MFSUrCqgu1RIwcww5l0QQKsyaMh9rMVg49clRqnaXM/yuMcSMiVPVINiMetpPFHF6WRnGQckkXZlGQmQbpV8f4/D6VlLum8HQ8YEEqvggtJQ0k//lCbSn7Lz6/CsqGoQ2qg+uZOktt/BiVSbhOWkkJwYTYLPR2lRPbZMen7B0hk+7lNk3zmdqeighMpoQVxPD559/7jbVslIhqN6We1Yy4f0kyj2LKAaRB+G5f79A9mNjiMgUNw71w/0snTpQeD2Fbx/ixAkIWTiJn10Qio8HTorNRY0c//gI+tp2Rt87kahhMT1LlGQx0Ha4gPxPT1FW7E/U3DHkXB1LWLj8jbr2cBXHPzmCqdXIBU9NJyg+RD0PQuek7Xo9bfkllB1pRVfWQOMJHbaYQaTMHkry+CgRgSaPLSx2yneWcOLTI4RnRDD63kn4qvgg2FubqNmaR8GuNsypWYyal0iYnxHr6dOs+9cxfC8ax6jrMomJVdcgFHyXR/mqQu6+9k5lgGA3gfEES5/8C298c5LGrEnMnPkzJozKIDYQaosOc2z7Fr79eheBF93JnY/czZwLMoiU0QK75kHoTqplCSCIv92V4fUIYAsNwkcfoX3llZ82QBCLJJ1eaWnYbr/dYXKwx8ScjXBw1iCcr3LPEkDY23qI4feMxS/Mk9u/E9tYLbQfy+fYi0cpHjGKidelkpbmQR92KFyTT/43J4geEUvOLaO7P7bjM+xY6uupW3ec3P8WY83OJnPhUFLHhCB3fzI1Gylcc5oTn+Yy7MaRZM4ZhneAB6GZjuHEeHXUH62gJq+V9qIGGos0hF2YyeA5WUTFe+NUQPEc+SKcFI99fIiKXaWMunsCsWMT0CrJceHBX1hC0XenKasPI2nWENLGh+HfVseZL49wYH0LqfdfxvDxQQQGKav/BUA4tfQompMWXlEDCNYGSncv541bnuRrn+EMnXohM6aPZVhyNFpDDWXHd7N15Rb2FmsZPP8xfn3/LMYmh+AuIaU7gOAcxaCmJVOLYlDS3HtUzdGTcs9nVZwyDkPO7e6YVfoQQRFyWgCpFK479atQFXbIDI3beGYpzPH5N19gxK8mEpkVraxBcCVNB0CopeCtfRw5piFs0QVcNEWU/FQHGU2FDeR+tJ/22nbG338B0cNi1ROauIxvF7bLU8UUfn2U0tM2/MbmkD0vi7gkP7wVEoxUH6og9+MDDoBw0dOXERKvEEHhMqalqYm6LQc4sa0VXV07+gY7fhnxJF8xlJQJsUREyYdCidKopduLOPrxASIGRzH+/in4hihEPRjaad5/iry1FbSGJpM5P5vEJF+8zTpMJ0+x6pnD+EybxLj5Q4iNVRdGed8dp2RFPndde4cKQLCAoYJ96zex+7SV8OyJXDQpg/gQH0fRS6uxhYYzu/n2+d/xzr4g0hb+kifvuJKJ8e5vec4A4eGHHz5bi0HQpSc07qxBcL0NqtG4I4y408Twk9cgONNqSAh2oUV4+umOEEinjItKaya6EO2SBsFV7jjvl5zMksIcD7QdYdR9k/BX0SCcc+LZzLTl5nHk+UOcGTmOKfPTyEiXiaF1elnI0zOrT3Hq66PEjIhn5K3j8A9Tf6/r+Das7a1Ub8yl4PtCqozRZMwfTeaUQYSFy/OY0CDkrz7JsU8OMfym0QydO8JzDYLdhu70GUrXn6DkuBF9fTtGYyDRUzNJuzyL+IxA/BWSLgkNwpGP9lO+o5ix904mbmwi3r4y32qzYm9vpuSbQ+Tl2gibmkPWhbGER2jRNNRwetlB9qxtIuOhqxg1IYggFQ1CU3EjJ5YcxnbSxCvPvaysQbC00VByjI3L11PiN4oJU8cxKiOaQG8vsFuxtldyZOV/efeNT1heP4IHn/0r98zIIsZNBjY5DYJkYlCjcUHHciYGT2jcOQzSNfeRA1z8lMIcn3/zecY+OYXIrEGqqqkuzCQAQnsNp9/cxcFjGsJvm8aMC8Px9UCD0HimnkMf7qG9uo3JD00lJjvOcw2CMO7YjDQfL6Dom1wKctvxHj2C7LnDycgOQi0pYuXBcg5/tAdTi4EZ/+9KQuLDPNYgWNsNtBaU09Jkx1DXSGNeBdUHazFHJZE6ezTDZsQT5O8+IEOYGEq2n+Hwh3uJzIxm0gNT8QuVU51aMeafIW/ZMYprQ0i+bjwjp4R3VKXWC4BwnOV/O4DvtClMvCGbuDh1DcKpb3M5810ed85Z7JGTorwuBKy6Who2/Zm7/r6B48m38Odf3ckN42LdVrj90Z0UJR+El1766WsQxKaFhmIXDouLF6MRIZD+XQlSzcTQVz4IB9uOMv7BC/Dr7iFtFQDhBAeePUD+qAlMu34wmRkeHPR2OL3qOCe+PEzsyARGLxbgxIP3zur5rViaGqnff4qTX+VRrQ9h0NU/Y9T0WCKifRSToBmaDZxeeZwjH+1l1MLxZM8bjXeAhyYGOxiramkprqetxYq+qo6aIxU0lFnwHjmS0QuGEJ8WiK9MdwIgHPxgN6XbC5l434UkjE+RkeN2bLo22g8e4cBX1RgHZzPq2kxiEzrnVl/NqaV72bm6icyH5zB2YghBKhqEpqIGji45gPmYXh0gKAmUzjb9mXV88+7feeDdUqb/8hX+cec0hkSdu4cDUQz9GMUgNAiTfjOd6CFxePup30TP7rPNCroqTr6+nX25GsJvv5jLLorE34MiJfUFtez/YAdt1a1MeehiYnMSPCqY5IiX1rfRXljI8U/2UXDCgN/4sYyYN4LB2SGOrFxqPrHlB0rY/8FOjC16Zv5pDqEJ4R77IAhToSM8zfGXDWtzHRUrdrL/y1L0qcMZ88BFZKX74OsmWZQACIXbTnPgg51EZQ5iyoMX4y8AgqtR02GPbKZsyXb2L6/ClDWEnJlJREgpxYx6TEVn2Pz+CXzGjmHEpelEpUcQEhNMqEJmxmNfHyR/+Qlun32rhwBBxPI7dFDnxiKbW7AXLOPBB9/iW/NUnvjj/dx9STruLCwDAMEDydhXPxk0CPuFF2JfvBguuwwvNzav/gIIR3QnmPTgVAIiFOxu7uYt8hMcPsq+f+3h1KifcfGCIQwbHKi6QnabnVMrc8lddoD4kUmMv2MK/mGB6ppJEXFqM2Oqq6Vq+1FyPz5IU3Ay8VdOYvxVaYSGaGX9maSP0jfpOPl9Lgc+2MXYRZMZed04fAI9iLzo7KAj7NXxT4dTcmEBJz7cyf6NBlIfvJqxM5OIFVVn3TxmvZl97++geHs+P7t/OkkTUvH2c4MmbCb05SXkPbeS4y3xxM8cSurQMPxEt2Lg5noKNxzj8O5WUhbMYNjoMIITI4iO9pfVyDYU1XH4s70Yj7byspoG4YeDA6td5P9wcydsyGXrZ69z/1OriLjtbzz3m2uYkBDScTFy0RYNFGvqpyiGF958kSm/m0lMTwBCeyXHX9vM7qNeRNwxk1keAoS6ghr2vr+V1qoWpj4yk7icRHWAIKIG6uuoPXSS40uOUqPzJ3jscIbNHErykBD8/dUd9QSNlR0oYs/72xwAYdb/N5+wRM8BgguZYjcZMZ7IZes7ezjePIicu2cydVKoW5WgzWLlzJY89vx3G9FZsUz7xUwZgCBMN1Wc+mA3uWtKafP1wzfY+4dsajYrtrZWqgub8QqPIDwuGL8JI8m+fDijsoNlBWnuV/s59U0ui2cvUgQIdpsFS0s5+SXlNGoHkZiURlKoGN+pa0srVCznkZ+/zlcCIPzhPu6akYo7Mf4/AxBEFINwUuwEeKonzv+VHwiAKYzUIrPivHnY58/HNnw4mmDhfHvuodJfAOGoPo8pD19CQLj64d5lqa1Gmg8dYfc/d3Ji9EXMvHEoOSIVu8ojAMLx7w9zZOle4kclM/mOafiHd6T0VnrsRgO6sjKK1h3l9OZymv2jSL9yPMMuSiIqtiOfitqlQwCE4ysOs5/n2nkAACAASURBVPe/25hw6xRGzZ+IbzcAgqtcsTbVU7FmB8tfzUU75xouvX4omTKOmgIg7P7PFgq35XHRg5eSPCHD/UXPrKMt/zT7/rqVMp0Ge5AvPn5OMtNkpK26icYGM0FJsYSlRRM0bQKXzEwixF2+Y6ChsJYDn+5Cl9vMy8+9pGhisJnaaKwp5nhRLYHJo8iMDSfM1XTScoIdS/7NL574lqA7nuH5X13FuPjgAYDgzp6nFsXQV3kQXnjzJaY/fRWDhsXL267ccZjQILRXcPSV9ezI9SLyriu5ZmqURxqEuoJqdr63mdbqJmY8ciUJI5LkEyU5rus2rK3NVG3Zy/5lRyktDSTp+p8xZlYmiYlBHQhXjYs751C6v5Bd/9mEvlnP7L/eSFhihHsNQufNwqwzYjKDV0AgAf4uXswWC7bSk2x4fTN7ykLJuftKLr8wkkA3NkMBEPK3nGTXfzYTkxXHjEevJCAk4NzvFgeYoZ7KA+VUnW6moxKB02MyYq4oZf+6InwyMhk8PpnwrGTihyeSnCqvUj385V6Of32I265ZqAgQbMZWmg6/zx+e+5SDQVdw+30PcsvYSAKdEmDZjY2Yj7/H4ic+Z0vEPP785J3cNvF/1MRQW4vX0qVo3nwTGhq6BRAcoVJi6VUr/qgdX91sF74TjY3QWYdC8e3AQIiPh7vucqRntqWmYvfuyND5Y+ZBOG7MZ+rDlxPYbQ2CAAgH2f737RwbM42rbs5huCcAwW7n6HcHObhkF4mjU5ly54wOcKK0dxYz+qIz5K/Yw6GNdZgi0xhy+wWMGBFJWLioReGZUNE3tTvGFrw9afE0xl4/WR4giIufuFi0G7Fq/R2/O0fj2N5C9ZYdfP73HZhmXcNVNw6XBUlmvYkd726iYOtJpv/iClInCoDgRoNgMWCsqaZgUxk6kxWbK1G1NVN+IJ+8U+3ETx1HWnY0IUPSyR4bJesDUV9Yy96Pt9GW28DLzyoDBGPtcbZ/8yr3/W0VYx99iyevn8K4hMAuYttWvYfVn7zMHc/sYcTDL/PyPdPJiRkwMTgY2V0xmf7Ig/Div1/m0j/MIS47Ea2cc4s7CWW3Qls5h19ew7bDGqLuns3c6dEeAYTa/Cq2v7ue5qomLnt8NokjUhQPeHtbE427drDhjcOUGsPJWnw54y9KJHaQv2qlNddPL9lXwLZ3N6Bv0THv77cQnhgpAxDsmKuLKFi3h6MFGoKnzeSiyWEEOznuCA2C/shO1r+1lePtyYy9dw7TJoe7XQNhYsjbfIwd725g0JB4Ln3sGgJChQBzs7gCEAkm/iGa9ocf6VsxHN/PR3/bjv+0y5i+YBxJiaIGhqi+Ji/QDi7bxdGv9rPo6puVTQxmHbaiFTz9q3/yUWEGVz36BL+9aTQpgZLQsWNqKidv6b08+l4BTH+K39+7gBkyN5y+yIMgJi9Xi0Ec4kr8Iw5Zr5oaNEePgl5/dh3Fe1KstNwtUyqGJjk/SS93WJo6TE2OnOwuW+jc7i6VstTuCIl1d4AJIPPPf0J+vjKyEHkORo1yRCs4whpjY7F1FsFSAwhy7X3lg3DKVMjFj17VAxODkeaD+9nyt83kjrmE2QtHMDJTXYMg1ORHlu9j3+fbSRqTxtS7L1MZ246l9BS5H21n53fl+EwYw5iFFzJ6bCQ+PurVWZ03RtfY7hh7x382cMHii5mw4AJ8AmUiL6wWmg7vYf93R6iLHseomSMZlhXQhYasjbUUr1jFstdyCZy7gCsWDCdTxlHTbDCz7a21nN56nEsevpr0SVlo3ZqK7YhcLCKx0jmFWQUt15dzeMlm1q6qY8SjtzJlUjihYb4OuSKHserP1LD74y00Ha7l5WdfVNQg2FsKOfTd29x+5/MYZv+d/++pG5kzJoGzhTrtNmqPLOWzN//En9b4cfvf/svjV+WQ4KZktzsfhP/5PAhShbqzQqTTRCD+W1GAedAuF8UglcJ1JzwlT065saUwx5ffeoVZf7qeuOwkvOU8YWQBQikHX/qezYc0RN9zHddPj/EIINTkV7D57TU0VzUy65fzSByZKq8KNLfSdOoYe15cwYniMAbNmsKEK7OIifbDxyVaQaPV4h3grxhJUbTvNFveWYOuuZ0b/nE7EYnRMgDBhr2lkvyvN7NtSSFNKWO4+M7xpGWEEuDnhd1sRFdRTMFXW9m/sxXfiZOZ+vOLSI/1xtvNQS00CCc35zrGjhuSyBWPzyUgzAPB57r2+mYMR3fz1tMbCbj0Gi6/ZRKpCeoOUfuWbufwl3u45aobVaIYzKAv5vsXnua1JUdoHH4Dd99zE3NGJ4gidxhbKik9tJY3//IiB4Knc+0DD7L4ijEkyXg8y0UxOBRDTjwiR+PikBa/E2GOclEMqvxltaIR6YudkiQ51yxwd8iL7zMYjR3lnkV+AafHccAr1GI427cAAG5qNXSpl+BO+lZW4iXCFA8ccA8QhOkgIgL7pEnYRYrlqVMhLs5halAL8VLz8FaKYnDWarorViPGFmGOL774IgWWUi57fA6BEfJmL7eTsxpoOriXjX9ez6FxM5m3cDRjsjzow27n4PI97P50Cylj05nx8ysIDA92r0GwW7Ebajn9xRp2fX6a+sAMRi68gJwJsYS5+vFowEuY+fx90MoAcF1jGweX72brO2u56I7LmHTjVHzlAILNQvupQ+x+bR2Hi0NInT2FiVdlEhUmzHh2rPo2Go/kcuiLfRwpCmL8Y3MYPyWRqFA5HwQTm95ezanNuVz+yBwyJg91r0FQhJp2qCth38drWPFdDWOevJ+LLwgjVMa0IHVVe6aKHR9toPFgNS+pAAQsLVQcWcmHv36YT2pHMfHW+7l33kVkRQfgZTOiqznJpi8+4D/L9lObcxN/+t3tXDIkmiA3EWlyYY59EcXgaXShXHSg41JvsVh6nSjJE+GopkEQAEGpmqPS7UoCCK+8/RrX/OUmErOFc0s3nRTbS9j3/HI2HNYQc+8N3DRjkOPwVHuqTlew8a3vaaps4OonbiB5ZDoamdfM1Wco+H4FS58/hN4nloTJg4lLCMTbDb/4xsaSfOF4soeEoZXp78zePMfYuqZ2bv7Xz4lMlgMIjpg+mg4f5MAnG9m6uYWo0Zmkjk8mPikUY1URlUdKKM1tJWDUOMYsvIjRE2Mch6g7mW+1WDmx8Yhj7LihSVz9xPUE9gQg6FrQ5+7gtd+vJfCyuVx5689IjxdFaZRXffeSrRxYsoOFVy3wIJOiifqD3/LJm2/z8dYa/EdexJQpYxgZpaX81A4O7D7GjpMBXPnw49x10wxGJwYhV8TTFSD0JFGSmFmP8yDIqNrVTHgOgGAwdAAE12JN3QD/7oCP2iEuqjl6iQJMe/acu6mCuOLisF16KXahORgxAsJ+qGWi1reaD4Jo74tESYXWCmb9ah5Bkd1M0W010HBgF+v/tJYD42Zxw61jGecBQBBBVQe+3cmOTzaSNnYwl9x7tQOcuONFu8mAPm8nq19Zw95NzfglpZI6MZHwkHNTKWu8vQkdNYqhEwcTFylMN+duSXtjG/u/3snGd1Yy/c4ruODmGfjJAQRRwryxhvI169nwyTGqDSHET8gkZfgggr0NtBYXUrK/iqaWYGLnXMbUa4cSF+cvWwzNpDex4c0VnNh8hFmPXUfmz7Lx6Y4cdyB1oK6IPR+t5Jtvqxn3219w6ZQIwoOVZXlNQRVbP1hL/YEKXnz2BZVESVZMjUWUb36fPz/3NUcsyWRMuYhpI1II1JeQf2gXu/bX0x49mYW/eYwbJsYRF9wRWu36/K/mQRDfKQC2xpNyz2pIxFOAIAY9vxqEV5n319tIzEnFp1saBAu0F7Pn2a9Yc0jDoPsXsujiWAI9yINQmV/G2je/dQCEOb++mdRRGTIZBS20HNnBwbc/YsnyZuwaX/yCfWWRfHB2DhPvuZnLp8W5vcWLtczfe5J1/15Oe1Mbtz33AFFJMYpRDFZdMw15eZzceJj8/cXUNumwWLWYNVoCQmNJGD2CnJkjGDx8EGEB8gwlAMLRjQcdYycMTWHOkzc5AIJnVk4nFtE3oTuyjRefWkXQzPlcs/giMuKVw7DE2zu+2MTeJVu5+crrPYtiMDRQnLuTzatXsXbPYY6X12EVlSYCwkhKH8+UGVdx+SVjyUmOIFABV7pmUnSXKMkTGu+VBqEHJjzxTXq93gEQXMGJGm97ekjLqfkpL0czf35XgCCdTLGx2G+9Fdv8+XiJcEaXLDpqwEcNIPSVBqHYWsXVTy4gOKL7AKH+wHbW/HEle8ddw823jWdilnofYt57v9nGto/WkTZuCJffP4cgARDcGIAsugZqvvuEb97Zw5ETVrz9ffELdH/4e/n7kzR3LpcunMqwZD+31QXbmlrZ89U21r/1HZfcdRUX3XIpfgHy2R+FI7C5oYri3bmc3HyMorxqWk02rHYtNm8/IuIHkzlNRCgNI26QH74KpkOjwcjaN77l2MZDXPPLBWRdkINvd+S4Q7QIDUIhOz/4jmXfVjHxqce5fErED5FTMneP6jMVbHx/FbX7Sz0ACOL0NGHTVbJ3zXesWb+ZTbl5NOrsmDU+BEQkM3LcJVw681IuvjCHGD8QKRLcPa4A4YsvvnCUe3ZNtayUDEwt1bIYVyk/kWImxZ9SHoSX33qNBc/cRXJOWjdVU3YwNVO5L5/iGggck01OsrjZqx95FXmlrH7jKxor67nut7eSNjITt1ARG4bKEqoOHiW/zNYZByR/U/aNjiFh/EgyUoPdMrJ48/Tu46x+82sHQLjzhYeJSh6kGuYozAnG+moqTpZRW9FEW5sFAsMIjY11aANi4oNRy6wqAELu+v2sfvMrEoelcd1vbiEwzAPVqet0LUYstWXs31aIT8oQMoYnqSJ90cX2z9ax6/NN3OgpQHBUlmunqbqIk8eOcupMGfVGbwKikxmcNZzRwwcTFegte7ORPvtHj2LoIaP3BiD0FkBQVuZwODyrQRDgQJg5hg7FvmgR9iuvdPx7T2oteAIQhPAUZkvXi4kn4ENKlFRqq+Xa3y7sPkCwWzFUl1O04wxVgwYzbHgscREehAzaYdeXm9ny0Woyxg9l1gPXdYztrhSDqZ3Wk0cpOFZDfcs5FvkuHOfQIAzLJn1EikPN706D0NbYyu4vN7P6zW+Yec9spt1yhbwGwal3m7h8FJVRlV9FY70Oo90HbUg4g1KTiM2KJVI4SqqIU6FBWPnalxzduJ+5v1rI0CkjuinHOz9I30zFsQJOF7QTN3k8aYkB+MmpBTtfqcovZ8N/vqdyX6FnAKETjFja6yjLP0Hu8eOU1rZj8A4jKnEww4fnMDQ1lhAVi+lAHoR+zIPwyluvs/Bf95IyPAMfPw8YUf589ril/FQx37+2lIbKOm546nbSR2fJlFz2uEuPf5i36ygrXl/qAAg/f+lxYlJi3YaDedyhhz8UpYMPr9vL968vI2lYqmPeQWHuBZiHXXbrZ1s+Wc32z9azYNZ1nmkQutW7/I8HAMK5DshqGoYuAEGcSCKfwcSJjpLO9rlzsYWGIg4upSgFNSdFudtVXzkpllPP9U/dRnBkWB9RknI3Isxx55cb2PDBSjInZHPNQzd0AgT1C0tvP7CtoYUdyzbw/RvLmHXPPC6+7Ur8AruRpKkXH2DUG1jxyhIOb9jH/CdvJXvKKHz8+0eOV+aXsvbdbynfc4YXnn1etZpjL6bZ5dUBgNCPAOHVt1/ntmd/QdqIwf0GEMpOFfHtq59TX1HLzb+/m4zRQz0OKeotkZ3YlcvyVz+jramNB155kpiUOLcmnN6O4/q+0CAcWLuL5a99TnJ2Bjf/7i6Cwt2pQPt65I7+Nn6ykq2frOH6K+YOAAQPqhr+T2gQ9u51RCYweTLceitcfTV2Pz/FKq9q4KO/NAhVmiYW/P5OQvsLINjtbFu6nnX/XU7WhBzmPHwTIRFh/RKh2trQwrala1n+2hdcdd/1XHbbNfgH9Q9AMOgNLH/5Mw6u382C39xBzpQx+PYTQCjPL2X1O19Ssuv0AEBwPrN/SiaGV99+g7teeJz0EVn9BhBKTxXy9csfU1dew6I/3MfgscPwkvNS7OPz8vjOQ3z9yie0NbXwi9d+z6CU+H4CCBb2r9nhGDslJ4NFT99HcLiwrZ7/G45YwvUff8emj75n/hXXDgCE/3WAUF4OwkmxuhpmzoQFC0D4G4SFOfzJelpMRtBBfwGEGq8WFj59L6FR4X3Mwe67E5lNtyxZw+r3v2HoxOHMe2QRIZFhytVS++jLWhua2fzFar557VNm37+Ay2+/Fn+Rn6IfHqFB+PLFDzmwbhc3P3U3Iy4ah6+fB8Wt+uDbyk8Xs+LtpRTtPMkLzz43oEGQkhu6AgSz2UxQUJDbMCwpksBVHeiJnVISBErFmoQqUS7MUYwh3nWXY0Eq1vTaO29y30u/Jn3kkH4DCCUnzrD0pQ+or6hm8f97iCFjc1A1tvUBQYsuju04yLKXPqCtsYXH3vwjsakJ/WZi2LtqO8te/oC0nMEs/uNDBIeF9hc+YM2H37Dhw++47vLZPypAEFEMglekw8oTGhe/lStIdr74S4yp0+kcanxX/hJjSuGCcvzl8GbujKBw5T8xZ/FH9O22VHVNDbbf/hZNXBxeN9/cEanQ+Ujv9rRv8V1yayaGUDIxeDK25INQr23n1j8+2I8Awc7GL1ay8r1lZE8cxfWPLSY0Mrxf+KulvplNX3zPspc/ZN6DtzDrjuv6TYNg0hn44oX32bd2B7f+/n5GXTS+30wMZXlFLP/35xTsPMYL//rxAIJwUkxKSuripKjEX6JNOCAL52NvFydfNRpX4p+zPjp9EebojOblAEBfhDm661uM3dDQ4Cj3/MY7/+bn/3qC9OH9q0FY9vqH1FfUcNvvHiBzdLZqStQ+wgcc232Ir177yKFBeOSlPxCbEt9vAGHfuu18+frHpGVncutvhQYhtK+mpdrPuk+Ws/6z75h98SzuueceIiMjVd/pix8IH4SdO3fy61//mkcffZT+CnOUDjs5W7yaw514v7dhjmp+ALLfZrWir63F198f7+DgLpEKat/dWxNDX4U51mnaufWp+x23+P54xLpsXraKVR98xdDxI7n+F7f129gtDc1sWraKr9/4mGvvuZkrbpuLfz/6ICx79QP2r9/JwifvYdSU/gMI5fnFLH/3C87sPsbf/vxXpk2bds6Bez72Xux1RUUF7733Hhs3buTzzz93RDFIh72alky8L0Ux9MQRVy59wFmZY7X+kOJOxAwLVKGUKEkpqYLoVC3RS3fDHD3RTjQ1NTkAwouvvMTUG2YxKDkBb59u5EHoxc7XVVSza/VmhGpuxnWziEtLRNNPJobS04XsXr0ZQ7ueq+9YQFiUTKrlXszP3as2q5WC3FOOsaMT45gx7wr8g/pHDSm+5/C2fRzdvo+xOaO47LLLCBYHTz88ghHz8vL4+OOP+f3vf3+23LMzQFbiASkZWF+HOUpCRG5s8f97G+borm9n3lQCEEJ7IeZ8ThZHheRSom/pjxhbTviJNqVMimrlnqUkSe40I0KD8NJLL3GitIALr72MwJAeJAPrAV2KeR/bfZBDW3aTkJ7Kz2ZNJzBYJdVyD8Zx94q+TcfR3QfZs3oLEy+7iLHTJuHj3z9qfrPR5JClQrZMu3YmKUMyupfwrhdrUF9Vy771O6jKL+bmBTeRnZ3dL+Za8clCA75hwwZE0aYlS5Z0CXN0TgYml9DrfIQ5ngXvnvggqB3S3WnvrolBrW8hHJubm1m6dCnPPvssBoupAxx0J+e8SM/Znd87EaLw6Ne1tjuAVXBoSPcJuhdjC4bStbU7MuGFRISjdZdxSYlpejG2yWBE19qG1seH4NDg7kdu9GJsAYgMOj0B/v4OFb871XYvZIXsq4IWRTZEQW/PPPMMt9xyC4Gd9lm1Q1q8Kw4r8bdQ8/c4k6KbPAhqY4sJKZkYxPty4EKpb08BQnt7uwMgKCVpcgcA+gIgeBLmKCd4jx49yhtvvMGKld87wu1EJsluPb2hcZ3eAfxFRtigkKDuje2IduyZTBOyxKAzoGtrIzA4yAH81YpEdWtNFH4s9lvIUiFbgkKD8RWRaN2Ry1Lxsu680/k9Qo4LcCRkanh4uNtkZn01T9d+BI8JHklLS3NcPhISEs6C6f8TAMH5hqSmIfgxajEIoV1dXU1hYaFDgDs/kpBxJwSk34l3xHe72nCkeSu9a7FYHGOKjRSHhbOgUxtbtIubnRCcrmM7C0e3tt1O27EQgILAxC3a+XdqY4t3xHe7u82qvSvaxbzF2GK+rhon5wPHHVOpqX5F/3JrLtqEn4w4bMWauR620rfLgQbx3eJ9d34AnsxbUskNGzbMwcjSfqupyyWAINajx7UY/g/mQZCEnxJA6Kn5Qk392tswR2FSKi0tdcgWiaYlepZMpnKH5/9VGhdrJnhEyCVBp660qjZvwVviN3LZQiWNj7t1E2MLmSTxp6vGSW1sIRME37u+54BLnRopJVkqxhXjCznu3IcnckHIQvGO3BkiAXBXeejcd2hoKGPGjOkikz0xs6lpEHrCX93SIPyvAwSxiIK4nG870kaoCW7xO8EMQtDL3XDUbL8SyhME4kz40thycdqiXbpduVO/inY5wpIcUCTB5Tq2J8JTMJTr4S4xk5LPiPPY7oCV9E1yh7wkuMXYcg6vSpnDpPHlxpYOcXdCSBJAknOhM8OqrZnULmjFVRio0dkAQJDXIPREgKnJJNHeW4DgLFdcBbtSfRhpbCFXBI3LmUf+V2lckqXisHP9dmeHVXfgX8gUsW7utGRKckHiH4nHxNiuFx4lmSTJcTlHdyXelsaW9rS7YyvJcYlOlQCCNC8xrjiDnOXWAEDoRHcCBfVmc3sqZCTC6kkaWmcVa09SWYr329raHMzUHfuss3BUm7daEhmBll0PUrXDTo1o1YSnuKEIQeIuw51S32rrrdYu1k2MK24K7vwWPAUIPdWSKRUk80SASULGnb1c0rrIaU566oOgtqZqtCDa1UwMajSs1q5G4z3NpCi3pmprIgEEYdZx1Sp6CsB7M3ZfgWB3t121Q1oNIMiBd7U1VaMzJYCg1rdze0/qjfQVQOhpsrABDYLNdjacqa8PswGAMAAQnNXGStoHTw5xJW3TAEDomhWvt0BUDdD1VoPQm0NajD0AELrmRfGEf3oLgt1dMgcAgqbbmUp/ciYGtVuGXPsAQBgACJ4CBLWy40q3qwETw/89E8MAQOiqQ1ADdJKGTsnEMKBB6N6aqmlORPt51SAYjcYu5Z6lMEclZwp3tl2x8dLmy70rZ4eRCEv8reTcIqc+lQSz0ncpORrKObdIc1KyH0lCpCdji3elELCeOCn2ZmyxZpKa351Wprd9izVT8kGQHCTd+SAoja3m36DWLswL4o8UfeBMq9J+KzlIqtG4Ep2JOYv3e+LA1Rc0Lr7N1c9GzUaq1u7Jmsk54vZF33L7IfUt1lzMubt0pjYvic7kZJJUSVKYN7o7thoNq40t6FuY8XriiKvWtxIdijWXaNzVlu681+54pLeyVjpD1Gj8fIwtvl3QuDATu3OQVFpTNTrzpF3IcTGuXCSQmjyTa3fsdXt7+1mAIAhLELY7z/beEK0nkxRjiw9VWmClzVVbBDVw4s771Zloe0JYamsm+pfzfu0tw6itufi23kQxeHKIKwlPsd/dFdzd2Q85epBoXC6SQAnYKK2p2npLwlP8rXRI94TO1GhFGtsdf3VnTeU8wNXAZF94ePcEgAsaF/stZIrcId1T8K/G2xIAF7L0fAEEORoX4ED8cUfjanTaWxoX6y36cHWa7iuAoCbH3QGE/qBxKapK6aLXm/NL6XwTctydQ6maXFCjBQdAcE6UJAYShOXuduUJslTaPDXkKTkp9lSD0FNGF+/JZZnz9IbT07HFBgkHLsHIvQmPcSc8PRFgYt5yUQxqQr+3AEEa+3wJTzlwouTA5QnDqO21mgATYyiBEyUtWW/G7il/9VbISDTuLlGSp/yldMNRAnS9OaR7QwvSvIR2UC6KwRP+UZu3HK30RkvWWzkv+EsyMThr59T2Wq1djQ4lOS7WrL/PEPFtcprg3s5LjQ6lS6a4dMg5WKrJDUUNgieJkqRJio9R8uCWPsSdylrNPjsQxdC1cLhYa4lZe+JZq+QQJPZJcuAaiGL4QYyprZlSu7RfgvblbtoDTooDToqC2tRoRcnu7CwX5KI3BqIY/LtgE7U1662s7S0IVjoblWhBOpfPqw/CAEDoeRpaNcJT21zx/kCYo7YLM/dGOKrthxhoIMyxa9pctTVTa1ejcdE+EObYlcYHAIKXbGi13CVTjc7Ee8IPQAB0dwXJnDUjchdY0UdPLmMDAEGltKqaEFFjCElN4m5zPdVeyN3cPCWsgTwIP5zTavultqYDeRDOTckr1nRAgzCgQRjQIPRMC60mcwYAgvtsvD3VTpw9AwY0CAMahO6ahNSYdQAgDAAECW4OaBC6pl8fAAgDAMFZZdrby5jgr/NqYnDnpOjOca03ql+1A0W6XSk5mKj5P/RWg6CUalnNt6KnajEl1ZSaVkZtTdXs6WphWL1FnnJrIv7/j5lJ0RP7rBot/V/MpCjnpKhGZ2rtntChFObY39lCJeEpF2p4Pmlc8JdaqmU1OnPXrrYfgr+kmgK9SSfeExqXTHiSk6LrxcMTH56eylJJg/BjaYKFk6JwFJSLwhP7JleosKd0KGnXhWbSnZNib8DH2XctFkuXPAhKUQziJTWi7i5hWdqPsat8O8XGZEYnTGVE1Lmlez0hrB++y05b4zGW1xlJjkpnQng4PgrfLXm/iu/uaS2GnqyJdJOQI6xzHGeseswtJ/lvtY0hMWlMjojAu7v7YamjuPYM26stTBgymliNF6FuKgv2hrAkB0jJM9ZZSLQ2bONYXTEV/rOZEaklPFCqxWDH2F7E7rIKtGEpDItJCRslyQAAIABJREFUIMKts58Nm62NgsLPafAeQWJYMtUNxVTawpmQORS/lmMUVx2gMWwR4yO9CfXpmslNEp4tjblU1K2mKnQRk2MTCfXpuPHbrCYszSdZVb2d7a3FaLATHZDNxPhbmBzhjY/Ghs2io6rkHar9LiQuOIbKhs1srT9FtT2axJApXJo2kuzAYNzV/XMu92w1VHO8fBfbLSnMzxpNuLB/yuSOcN4Pm6WJ6uLXOex1OZmDxjIkxOdsDRI5OvSExj0BwecIOLsVm7GE3SWlNHnHMCEjmyhRUMrpiiR4Vw4gSAJOGruLM0o3nPmUahpI5Z7dRcv0VDCbTbWUF7zAUd/55MSOIiO4q4OxxAMGgw6opbRyLbWB15AWYKSopgxzYBIjYwJprS/htD6AnJQhJPn6IVHrD/JOg0ZjpqZ6I2ea6tAOWsSoUDs+ms6cM5hpaTzCV1VbOamvQ2O3Exc0jkkxlzM8yJfQoECMhjIqKtdSGnANGb41nK7ZzK7mYprt6WRFX8jl6TnEa7V4dy6+NLbrXptajnOkIpftmhHMTckgJSDg7Pc675sUxdARKi+8+/MpKN9ObfBcxkSEEeajrEFwJzc80bpINK52yTTpz7CztBKfiAxGxiU5+K4vnBR/yIMgVrKF0qpcztTrGJRxOWk+Nvy8kHVedqZDm6WVwvKtrGiL4or0kaT7+6OVCQ6Q1kXSIMjV/FA7n+TaHXU3bDbbWYAgmEkCCHLoryeoViI6MSHXSVSd/jPLCw6yynoZVw6by92DE1zlhMPj3nMBZqe9OY/1DSbiI5IZGRqqChDUijV5MrarkBJEJ/1R2iApzFHpduXo22bE3FbAl7U20qKSGBMW1n2AYDjD3vxt/PuEkVtnXsdw3wAiZRK59FR4Kt1wqov/zcr83eSG/50nBgcSEyKpX+0YdaUcqqpBG5zA4KhYwtwABLtdAAQdJaXLadJmEhegZcvJfRy1JLBwxpXEtuVRWZNLS8g8RoZ7E+wGIAgar6tcyf4Tf+B43Hvcnj2GOH/B1FbM5mryjm9hXVsRlUEaIozVVLVqqfW/gacnjiHV24bdVMqmzc/RlnAFsd4myppPccbbD8w6GtoDiEmexQNDRxMivt+Jkl19EEwtJ1l9+H3eMkzghRnXkiSq0HUCBLnDzKF9MZZxYvcsvtY+xbSh13NJbIBHAOG81GKwm7C1HuC/+w9Q5pfJTVMuJx3OHjYSAFBzUuzprVFNSyZpEMRh5Sp3nGWSO4ChpBnRt58md/t0vgt4kVnZs5kSHeBWZul07Xh5NVJVs436wEuJtRewIvcQhqixzMkZjE9TJUWGALIS04n38T0HIIiqxV5eOk6dfIEdpYX4DP0Pc+PtBHiJ8tx2rJYyjpzYxhpjGf9/e+cBHWdxtu1rd7VFve2q92ar2ZK75Ya7scE23bgAAUIKAT5ISEIghJBAggktCYEQOphmbFywcQH3KstFVm9W771sb/95V15bNtKukGz4v3zac3QEGu8778w888w999O0chHu2mqqu73w8b+BO+NHkeDlRnv7SY5lb6Er9k6C2g9R2lNDnVSKVd1FuzmEkOjrWBMeRqBQaM6Br5mm/is25W7hTfFSnp84jXQvrwFB8EUGwUR7+wEOZr9BqfJ5bo4OJVTRm0DNkYx/1/WwT75zJ0Ur3a2HeOtUHm4RU7kuaRzhlwGEofQtjNce5iiVCjC/nlN5Wzlc3kb8tMfI8LDgfh4gODPnCheHI9mv8WRzJI9PW06GtzdyJxfBgUwMw5Hx/w98EIRDv41DB5/nnFVKpiGYSL8xrEqZSYjNl8mMTlfLuYrPOWQQ0y2KJlHciL/PVML8UggVNZDdfIIdrQW20ude8hDSAq5nnJ83pq4idrXqCfaLINacQ0VbJdVmD9SGcupR4Os+m4Vh0YQJh+N579fLqSmduoyqxgNka9xpsHYS6jWLWcFxiNq2cLitmAIjeMvHkOo3ncn+vTdhk7GVlpp17NToabMqiPOez3j/SGSak9Sr1bj7zybGU4TeUEtpXQMSr1hUmjL2axrp1jdhEIUSFzCWFFkD+bV7OWO0YBF7E+9/Exl+bnjpz/Fpk4UIVzNaswiRPIhpAQG4i3S0dFRS3CUiIjweJd1U1ezkUEclzVaI8ZnBpIAMwkXnOFl2iH/ndXP91HFItC4kRaUSKpfjYm6nsq4Oo8KPAGUwXkKSDNtGtmI2d5BfsZlj6hbarRDsMY8pyiRiPWWIDY0Ut5xkS2sBFpE/Xq6TWR4Ri5e103bzKdUYKTdrcZeI0XdksavuNC3uq/lp/HLmhQXhLReORQEgVHGqrgmJZwiBLlW0thVTbfam21BOHRJ83WYzLzSGcJmVqqqNtIpUmLSVfFn8DcfNsSxOW8NCXyOm1ny6vW5hjJcBU1cWO1tyqDZqEKMi2ncCaT4xKFp3cbLwD+QHvsNdSQJAEDa1UOa2hZLKSvQKf4KF24W+isMlm3mtqJyVs55lpo8IufY0rx8oIm70OOJctZjwwlc5Gn99PnsKdrFTN4oHZy4mSFvO2foSWgznqDfHMjoojVSZjsKmExzXduBqFNHTms83oun8a/ZywoQKkX1uChZtDTnNWezrOIcOLzwVM7k+PByltYmi4wv5QvI4s0bdxBy/LvIbjnO8pZAmkR9h3lO4JiKJYJGFzo5SdrXpCLGcpkLTSLU5hrGqBIJcGiloPkunSwij/OYxTanEBT0NjdvZ11FOvRmUbpOZqJpKoheouwuoqj1AkySGQkMFaosamdsC5qo8cW3ZwmtnD5IrGcOytNUsD40iSKjE1+dG6gwgDPWG4wwgXK1aDDaAcGgmX7q9woJRC0m2HqKoR0edAXoMZTSLQ/BSTGZRgBIfl04aG/fS4jYeTeNO1pccodotg5sSZ5GmcKFN60pieCxBYgutjXvY2V5GrVED1iBSA6cyKSCYltKXOFpVjnT0OywPseIqEgACmC2NlNU0YvYKIsTHD4Umj535m9nf6c2ClLtYHOxKTcNRtuY1MnbiLDzbizFLA1H6RuLZeYDNJaf5xjyOX49PxV9XyeetdXgY29G5JDE7ciwR1nqONmWS1a1GqW2mobWKXfJlvDDpcoBghZ5zHGjK5FB7OVZROKNUM1gSHoq2/SCHzrxOqeoFbo4KRkUluU3Hye6upZ1QIn0nMTM0CpVFjbY9ny/bQUkuZYZ2uq3JpPsH42GpJK+tFI00mlT/a5mkdMXF3EZTzTp2q/W0WuUEeMxlnGcEsZ5CVsMCalvKqbP6k6PNwSz2wc01g1tD3agq/YBXC07S4TOX28Ys59qgMDyFy5zFAlYjWk0hR+ozKdB1oieUcUEZpPtG4C0x0NVxhrMNBzhjAoUshPTAVaR6mUBXxeGKHDrM1XRJ/HG19tDYtJsDzRaiR93P6uhxxMq6aar5goM6HR3IifOdx0RVEkEyKxZdM4WtWexoO4eL2QvazvCxZgx/njE8gDAcJviHBwgWNWhO8MLxWgKDA1HpsilVq4gctYLrAmRYDE1U1O3in5nv0ugViJVARB3bCQ//NUvjlhOhO8jnFfvYrmtBKerBpBejDHyMx8aOxaV+K48WdzMhdiYLjO+wuWAPmeIMwtwqqde30WyexkPj72FRSDhu4v6dFNubtrP79NO81D6J8AAJkwJu5mY/OcdK3+SAup52qRWrMZAYn+XcnbKIMFk3Lc2HWZfzJmUuUvTC0eGyjCXx0/Dr/ICc2nqCk9ayMFRCd/dRth7PQhF5PVMNB3j4XBZdFiORPjPICIolxHCazRVH6HFzwYocpfhe7kiOIVp7kFtzjcwMFIOmE61rMj9KnUE0tWSWfMWGtlDWTJmDZ+sXbC7aQ7ZBg8nSgliawaSou7gxwEJV9VH+k9fO7DF+VNaUEzfmfmb7e+OuyebDM8UolKksTExGeR4gYO6kvfkbXs/dRikazFItrqalLI5dxNxwdzrqtrOpbDufa8FXAEmGSOan/oiFXu1UnX2cd1u86PYIZJKvG1ZNBbubs9G4Xsc98T/nlpgIlAopWM10tR7hjcxsXMOnMFb+DZn5GzkqnkGwWw2N+haazRn8NP1OFgd5kHloDUUuU3CTSDlWs4PDllHMS7yLpT6V1BV9RnX4em7wKiS7cgtfasrQSqxYutuRuU5nYdxq5pHZD0DAdhMXfsQSMWKRGMwNZJet45OsnYya+gkL/Y1IW7fzbLGSBUkTmR0WiA3LikSYewrZW7CDbd1h3DNzCX5NW/jPyS+otJrBfS5zosaSYDnLl+UHOWLyZpTMFVFXDXluy3hz7s2XAgRTOxU1e9lYsZdD5g4kZuhRR3Fj2hqW+EtpOrWYLySPMSN+PimWPWwvPchBtQYNVmTieCYm3cGaIH+aKzZyf34O6a7tmCTdFArK1y2OKD9X1D1nqNYp8PL7Mb9Nn4h3ZxZbiz/ioKEdPWowxzM+6FZuikuF1o3sOvoER13XoHGtR6Yv5Kh5Gb9InMh47Te8U7iP0+J0liTfy48SUoiSymzmksEyCP8bAULuoZlsdXuF+fGzCWl4lDfLWymVJhLmWkpxj5Vu6wSemHA3SfISzp5+nCLVr/DsOsTXtQcolc/k5rhJxFq6ON3qw/JJ00gyVPPJ2U85aGlBLzahaatFFbCKW5OWEtb8GpnVFd8CCBdu4SJR7+3fWMrxgnf5ulpPfOJvuC1cSnH5l6xvDOKW9KnEuLsiFkrIW62YOw6zuTCTHZrRPJQWgaV+G9flnSbDyx+V7wLuik9G0rKVdVWnybUEkCzqRNfTRa73j3hp8vSLDILVjNXYTFHpl6yrz+KksR2JQYqPWwbXpd7CNMkZTuX8h1LV37gpUo6+cSNfVmSRZzbSbbSikKawIPV2rvMyYyj/iFVlTYxx60Qr1VDR7EKoTzwhHmbau05TZQjGT/UgjyUHIu84zkfZr1Ik90BvNWA0j2Vu2DKWREaia3qbbbl7OOYyG6trNt0aHSWiubw+eRra8nd4s/QE9e4LWJm2mpVRCfjbAIIJk7GRwpLX2FBfR6XEjFUrwzfwFm6ImUG6OIdjpZ+xoTqPbnc5EosrYq+f80BiIiH647x67C2qrRbkXhOJkunp6drDvnYpkVE/5sex41Bp9vNx7g6aFFJM1h7MsvksjruFRQGeGFq+YUPZV3yuFhMrV+HZU8p+5vL8rFuGxSD8rwYIFn0LmvJXebh5EtdEpnOtZR8bqtR0+V3LQylB6FqPciT3fX6tvplXxo9mlOEYT2Y9Df4PcUfsbESdhyjU+5Mev4QkSzkH8j/iDy1x/P2a6whs3sVvi7uYEDeThYZ3+E/OISqCfsufxo1G1b6bv594m9CEf3BbwniUsgEAQuM2Np55hV+q7+er2bMY66qmOedpflmfSMbopfw0Qszx/BfZWl1DXPJH3OCVS0HJOv5Ht5q3xsWSIq5kU34p8sBwfLVbKbMBhL+xyAYQjrDFBhCWkqHfz6/KygmOvoFfjJ5OYON63irJYa/HCv6ZGoCHqZpD2bWEJ4wiVHuc23OMzI0PZWzXYYq6laSk3sVUlxx25nzKXrcVPJUSQtbhVXwmupPVqbcyS5zN67lfcNwSzd2j5yJrPclbhRqWTQ5HU/Yp+T5Pc0dsAF5tG3iuRs7osNncE6m0HZSC4jarSyk58yeetK7hl6kTmerbwZEzRRg8w0lS6dmT9x5ftsLKiWtJ5RDHzvyNR3V3sTZVhXvlWl7qns+tY+7gvigVjRX/ZnvZMXK8/8qjca4EeLr3Ur82gHCYfx8/g2vEVMbKvmH72a2UBP6OJ8ePJbx7H3/PfBufyD+zIiGW3GOrKZPdQHrEFMoEZWMKZeXsebjVbeJYzgeUh69nkXQ/m1s0pMRNZa4ykK7itbxceg59wM/5nbJ8QIBw0RnWgq47m/2F21lf78aqafeRLG6gufANPhHfxnVxqUz2F+CBjm51DaVVX/FVVR7lXrfx7MSpWJo28J/sLViCHmVVwgTCDEd4/+xbnDGP5qbU+xnvksnHx19nI9fzr7m3XgIQLO37+DB3H1mmOO4Yfz0xxpN8deR3fOb5Ox5LjEdRcCObxL9mamQCHZXvUGgew8wxv2C89QCbct7nHfUi/jFnLqLqT3godwtjYp9iZXA4ooo/8mZ5A8Q8ymOpUVQXbeXfzd6smjQDz7yneasngxvSlrPAq4nd2c+zt92bjOTHGGPexpZjf+Kg6mV+l5bOBMN+7s48SmTkjdwR5sH+3FPUyuJYMW1oJob/7QAhuP5XPFWsxiXmEZ5Ji6Km5A3Wnd1CdPJGFisrKcv5PYXKl5jpryOz+LyJId6bupKj7BAAwvg0ortO8lSVnCXJU5np40fDqbv4S0sU0bFrWGr6lJM1/QOEi5S1me7W/ewo/Iaz+tEsSFrCFG81J8+u46h8CasSkwiQizGbe2jvLKe4cj1b6rtoUN7DH2Nd6KjewtK8Oh7NeIDbgkNRqfez9tQnNLvOYUXKbSjbP+DjMxvZ4fELXpg84wJAsJp7MLR8zV+yjmBVzuamURm4Nqzjk7ITrHe9j/dHd1BZ9A5lqudZGlDO/tx1NLgtYknScsK6PuajnE2c9biHX6bE4l+9jhVl+Vwz6tf8LG4UxZlreL3Wl/DkX/LTIA1ZxQf4R2sgvx0bhOnceh7pXMqrGROYKC3js+O/oYDlLEheTazmXd7IySLH/9e8MzmahsoveDL3DAvH/ZY5snK+ysnDLTKD65LS+5gYtKh7zrL7yG/pDl/LkvgJqDr38GqTG0G+sYzp+CfrSk5THvwsf070orl2G/cc/4JVk9Yyz62ST089D0GPclPSMib4NHAqfwuHz7URP/03JOn2cPTsWp4V/YHX0hNJNZ3kmVMfofa5llVRSbTXvse2dgXzU3/HHK9zbDv+PK90T+FPM1f8XwUIFrTqIrKP38km8Q2EB44jxlrE/upOzO4ZPDRlGtamTRzK/oCi8A+5M8oVlbWEfcfvp9T1TiaNWkOKrIzyrkrqkeFiaCGv9izvd6bwej8A4cPSIjrCnubp5BAb3f/l4ScxRr3MdfGOAcLWnNd52vwkm6eMIsqlmqxjP+GNninERc5ipkpBY93nnKivQR/2KverTpJf8AE5QW9yd6wfka4mevQGEGsoL/0HmQ4AwqMVBhJHLeCn8Sl4Nu9nc+lhdphCWBYeiK/MlUDFWMJcLYiavuKGHCPzEhKZo9/CtloLPtF3cbNHDjvy9+Ee/zOWBHfw+c6HyHFbztjIKYQrOims2Ei5JphpcWsI0JzlnSI9K6aPR1r7NR90zeanKQFI6t7jjDmJ5NilTPTudXwTlI9FV0tNydu80BHA+OAIIj1keEliCXUPxFd9lH8VZrOXFP41bT4BhkoqyjexKkfEPePiCKh9lYOWW5mftMJGdw4aIMj3sKfoCC2hf+bJlGjcDHlsO/wUPSG/Z0ncIABCxAZuD+nEoC2m1qTDLBLT3bCbDQ0WPANX8rj/OScAQaApyzhTvplDTWoUQT9mTawKc08+x05spDvhLqaGxBAlF+5trZyr/orthZ9zFh8S/VexPGE6io5tvJeXi0/sKpZGxOPV8hV/yz9Fq880fps2g2BDNXsLtvJKRwQvzlx8CUDoqXibFwsyOSpL5o64UajMTVRV7WG9cQEPpiQSULSCraJfMcnXj/11+ymWh7Isdhxh5kYKavPY1xTIL+bejk/DDn5b2MTy8TdxrbcH+tKn2NpkwTX6CX4aLaLg3Dd8VmNl+vgU2o/9jG+Yz/iY6SS4i6iu+pBjbQri4n7DEtl+9p38G42xn3LnqEiiFAW8vfNzCF7ErBGAgAAQnq/1RRnzCH9MVFJd+QFfn3oDXfwGFgwGIEydy1iZgdKmHJoE04HVSlfl+6zrTiY9drkTgNBrju3qyuZo6WaOt0uJDV3J/BAv3MR17Du5D2v0Mq4JjcJTItSmqCGvbAPbavZQKYpkfMBdLFS50tGwmxsLXfjzrOUs8ffBrfZTHi7pQRk6mwcTU/FsP8724r38XTOOtROnXgAIFkMb7aVv8IuiKiSqcSwPDUPRnc/Rxno26jP4V7qU1uL3qVKuZYn0EK+UZaH2G82isASUhjJOVxVQZZ3AytR04uo3cle1DyvGLeWmoFAqslawsTOF2PgHWe5XQ2bJYT6ulXFdkguNBa/xoeReVseGECFXU1HyPId1C5g1+g5mWNaztayMjrDneCxJRmvzfj4/uhufsY8waUCAoEenLeX42ec4J51PcIDALvvh5xlCmDtU5T3LwfoufJJe48ZQC5q2vWzbt5qi0I+5VqVlR+52/OPWsDQhgwRFX4DwP0SrN/B11usc832IhaG+BIgbOFP8Fi2yZUxTjaO97RAHXcbz+4nzibB2cLp4I7+p9uC3Uxb98ADhcidFwW43UC2GgUIN7VSis/YL3soWNc1te3n/4HMcErlidPVCZhVuYlKU3nO4Ne12Rms2cTj7MzoTNnNbuAv+onKOH/sJ+fI1jI29CWXP52ys2MJhiwy5RUu7RkyN5GbWzb2RIBuD0G1jEBYY3mZnZS2miGf5WbwXaE+z49Dv0EW+xLVx4y4wCJeHOXY0bWdP3lt8KH2BF9MCCBCVcfTIPfyjXUKHeygqmQiTqRMtMUQF/4Kf+p3kTN5nNEZ+xKpob8Jc7d6xnRQWvcjR2npCEp9nYaiYzo4DbMzKxiNqGTP0+/lNrRsT4mdxb0wMbmY1dfW72FH2AQeMFhB7MyPgV8wNUaLs/Iab80wsSJjI7fKTvFdaR4d7Mjd6t/JFnZSl42eS7naO97b9mh1mN0we/rhJrBiNPXi7XsPSsAUE6fJ4p8jA6tmz8W3P4d3cDhalBtDQ0IKrcgzT48YQLBb1Uu1iMVhNNgfCPYUvsq2zjiaLgVSfO5gfNptRxkO8XlzIEcVM3pmWgZ+xgYbab3jgWBPXTYjHt+51ymU/ImPUTUzxE9FUKTAIxy9hEHpp0vMmBhuDIJgY9nDm3Bn0EWv5cbwKqbGAnYcfpz3oifMAYQ2lsuWkR0w9zyCEsOqaebjVb+ZozgdURKxnqfdpzp77gJ09dXSKpZi0tZQa05gW+ROeEhiEgj/YnBTvtDkp9hLivTZtPWpdBYWV29lVW48o8GZ+MmoiflI9Dc1ZfJpVROqk6xmnDMLP5nZuxmDopENXTWnDTk5XlCOK/gvzZfvZVNJIVMpi5gSGIapaz9r8fDSBC3kyfRJKfT0Hi3bwQlsgf5u+iDCJ2GauEOajq+zfPJf/BR/rraR4eSK3OVBaUbjfwl2JKfgXrGAbv2Sitxe7GzayU9NKrJc3CqsZg0mBzGUi96Wvxr/lG54oN3HX+PnM9pDRUfwHtreIcI/+PT+ONJNXvoeN1SYmj0ui4chdbNR6o3MPxtNFkO0uNJJJzI1ayTLpUY6eeQlr0pcsiQogQF7Axzs+wRS0kIxQdw7knaZGYBAy5n/LSdFRKK99zi/ohctc/ewUqaMoBWc6R3DgGk6YY39969Sl5BwWfBBeZn7cbIIbHmVdSwSBMb/kJzFyG7jad+p1OuM2MN+/krLc31OkfJEZfjoyS7LR+aexLM6b2tJj7Gz1YenkqSQYS1h/6jWOmvV0icUYu4spk9zAyqRVLDV9QpadQQi24ia+WDnXipqunlJOFa/nm04FPiE3siIkEl9RBwZDHutzukhOvYaJ/iqEHJoWix6Nro1uUxVF1Vs5VdFATNSPCDWeYWWFipenXcNsbwXmc6/xSIWC8KhFPDJ6FO4dp9lRcoAXuhNZO2EKaeedFAWA0Fb8T35WdJACsZR4d1dEZj06czBy9yU8MNqF1qIPqPZ/jiWSvTxz7kvOmNREu3sisxrRGd0J81nIqphJJLRu4scNcfw4bRYLlSpKs1awpTuNuLgHuM6vksziI3xWK2F+ooia3L/yhimeEHe5TceZDM2opctYEbeYmebNHKyuRRTzCqsjdbS0HGDrkZ24jnmY8bJzFxiE6xPTCTvvpCg4QFutalo79vF1wQ6+1rbSbUxnSuw8Fkf40lrwApkNZiLG/pslQRYMnYfIPLiEb5SfsVBpYXf+GaJTr+fa2FTCRPWcyt9qYxASpj9IpPoLth77O5tcgvFVyFCITRj0bQR638FCdyUt7Zlkui/gmUkzCDJ3k1u2lV9WyPjN5PlMPe+kONAeEOR/uFEMjvaXqL8wxyudB+FyW4igrHML3+HOcn9+NelargsOQqzXo6ndxIaaUnZ43MyfVLmUFn9IdeQGbgmTohSXczzzZxTIVpLin8CZuiOckCXx8KT5JGgbyCr/mifq/Xhp+gICWnbxWHE3E20A4R2+qa7HEv4sd8d6gPYUO488jjb8xQsAob9iTYIPwv6Cd/hc9hLPpPqjFJVy7NiPyfF4hIlxAo0EFptXPUjE0Nn2NUdy3qQk5H1WRvUChN4DRwAIL3O0rp7g0WtZFGCiuXErrxdUER1zE/MNB/htrQcT42Zwd3Q07gib34LJYsRkaaO96xRbDu4lKPFWxktKuLdYAAhTuS9Izc6cExR0dOIX7MPXhkn8LSWMMJdCPt69AUnkzUyLTidYLtjTBTu5BBd9NafKD/NGgZ7Vc68nQl/FmWOv0+UZxibRRJbGTmJNuMpmP740isGK2WLEbDVgpZivDm+l1XUcU4K82VFZwD5RCm9nZOCnraayfAvX5ej56fgEIur/TbXiHqbG38AEX2iseoOvyo6T630xiqEXhJjpajvCf05kowibTJp8L7kVZzFGPMedsf64CADhyBN0BD3B4pgYcjPvoEy2nLTwKZRVZpEvRDHMmodbw2aO5XxIRfgnpLX/jbe6VCxLXcLiwAB0let5tbyaTt/reUxZzomCJykMfJs7Ro/tAxBMWK3lHDr1V7bWyggd/UfuivHHVyYBQzu5FV/zYK0/a8dNYry3xyVhXlarhpraDezI28px7+d4KOAMO8s7iUldwDVt+Lj8AAAgAElEQVQBIbg27mFtQR7tPpN4fMxEVIZ6Dhbv4KW2QNZOW3gJg9B97j+8UNlGnf8ynhkdgZdEgsViRiSSYjXWU3xiMZt4mIk+fnzd2ozEfzy/TEzCR7BFCxEvwlpbdJwr/5KHzlm5O20O13hIaS95iu2tItwjn+DeSBP5FXttAGFSehIdmQ/SoXqMWfELiHKzBVBhFUkQW/U01H7OvtMvI07eysJwJSoBIOz8FFPQAjJCPTiQ12tiuG3qtwGCozDH4dhIB3spuRphjjaAcPQatrm+yLzY2QQ1PsrnrdEERT/CXdFSqqvXse/063THbWCuXwVluU/2AgRfLSdKs9H5pbFUMDGUHWNniw+LkkLwLH+LBzpm8fC42czx86Wn+G/8pUlJcPhclpo+42RdBdKEt1kmRDGcd1IUiy1o9afZfeRJduvmMyXpblZE+mARqjl2ltLUtJsnuibxaFIqY73cbWsqBK31gio158rfYnPOLkRBDzJVXsad1SH8fcoMZnq7oWjcxIMlBgJCM/ifUaPwEABC6QFe7E7kr+OnXMIgtJX8i5/XBjA2eh4PhqlsukMmF8pcQ0/nYQ6ffYMy/+dYLDnIKw1G4iOnsiYiyhbpY/sI8qqro7XiE37SEM99Y2YwT6mk9OTtbO1OIzbuF1znW0lmyVHW10mYP1pEd+mH1ISv46bwXl0rjE2rNyIVaamreZsjtfW4xL7CrWEaG0DYdnQX8tSHGS8/x46cPJsp87rEviaGXsdP4Z0tVjNmiwlr7QYeq7ASEJzENN0nFDb14Jv4OkuC9Kjb97J7762cDv6UxQFWvi7IJ2bMtSyKTiJEiGLI38qRinbiMx4gUv0NR84eR5L6EHNU3gS42HYXIpELovZTfFJ8jAOSNJ6eMJ3g8wDhV1Vyfj1x3gWAMJAZ7koABEdRJf0ChCvNIFyqCKC7K4t9Z17jE/NKfjF2GpP83DDqdFjaDrO5/DhvqmN4LDEQa81W/tg+hV+nJhBtzOPV3LVI/B5iReBocusPcEwcxd3jZhDSlc+evE94TzuTl2ffSGDLbh6/wCC8w57qesz9AYTYVNzRojMKXqkKXGUXU8EKDML+gndZL3uRZ1JVhErbaSx+hWfqA4iPnMEN4a5UV+/iVF0XPlEPMtc9l+zif/CM7kc8nRxDnKSavecKkPqkoDQc5VBVNobQB7g/TE5N2Xv8q8WdmaPXcP15gDApfiZ3R0Whrf+MzLoC6j1uZ0agEbOumP1ZTYweO43R5mzuyDeyYNR07ov0pqzoLT4o+JhTbhNYPupZVof74y1u5fCxh9lomcn82DmMU9RzvHofFcZwpodNxdyWxVuFBlbPW06CqQV9yd95qqEQSeD93Jd4PRN9pLZ4ajtAMGhLKCl8mizZj0kPiSTItZKDJ0sR+aYyOcKNU8Ufsa1ZzazkX5HISU4XfsBr3MWTo31wq1hLgQAQEm6wAaqmqrfYVnqQLI/HeCQuiAhvT6QCujrPIPQChCmkyfeQV3EWwyUA4fd0BD1uAwh5mXf0MgiRGZRXHOG0zo9l0xahbNvBydx1NoAwrutl3m1zY3biXOaoJFQVvccbFWp8wu/hd6pqThU+ScElAMGC0dBATtELbK3TIVXdxLVRCQTIJUjFUlyMnRQW/4sD0tWsTBhLsLSGnKL9VFv8CQ5LJ0zcTHHNHg41qIkZ/QumWPazsbjNBhBmB4TgoSvgm/z3yOr0IjH+dtJccvjq7AZ2iq7l5dk3Eyrk4TjPIJg7j/JF0SEydSoWjp5NpLWcvOJ/keVxL8sjwhHl3swW8aNkRCahb/iEAl0EybG3kOJSwanqk+wyjuJnaRMR1eziN+es3JM2h1l9AULUE9wbYSa/QmAQREwbPx3Pkpf4pCeBSXHXMMVPS0n5Ts62ezEqehmjTLs4fOaVXoAQoUQlswOEhWSEeXI47yhlonCWTl5MskyGog90Evb+cCrdDSbc9vvOg3ARILzEvNhrCG78Netbo5wDBH89p4qP0+aZxLXxKtqrTrG7xYfFyWF4V77LQy1p3D1mCtN9reSdfIb/dCUxfvQKlprWc6oPQLAzCCZTBZn5/2Bzkwdx4UuYERKBvwBmLRL0bWeoLvsr+SGvsiQymlBFHUey99MiiyQ8MIFAKsmu3MfBJisz4uYRoM5iZWWwDSDM8vNCYcpnw6n3KDKPZkL8IoK6trKtYB/7PO7lLxOnk+bp2RupYtZg6DjEP7OPovYcy6zIcXh17ONkcx4n3W7mJyGtlBe+R7nyOZYG1nGi+DOqxROYEnMNYYZsjlTlUOYxjVsiA/Gv3TgIgCDnprRwzFVbeKZjIg+NTSXFvZ0zBRsoM01gQsxMwnvWcbi2AZfYl3sBQusBth3ZhXzMw0yQl7MrJwtz4EQWJ00mXiqzOW5aLN1odMUcPJsJIdMY7afErXEXzzf7Ex+SzlzDR3xReoJCn5/zQKwn7Y0HeCI/i9XjfsdMRQOfnMruAxAaOFOwiQPn6gme8AjjyCW36D/83XwrvxkdxyhJJXvPfYXGdTYZoWmYWz7j67p2gmPuZbpnNYfPvs+bPZP4w/RbmPI9MAiOfIC+lQdhKCaGvjH/ThMliUw0Ne1hU8EBtEF3sTwqjgi5yEaTiEzlnK3dwScllYwddTeT5KV8nv0uFW4qzJJIPFo2ExDyAPNi5iNqXc+G6kNUugYTIg4hXATF3eHcOXMZIe0HWVvWQ1r0FK4xfMzB2kYsYY+zMsodqzaHfZnPoA37PddE+FOcsxuNZzqjI8YS7n4xFrmz+WuOFn3MZvmf+F2S0oZSTepydua9wb6eappcJPQYVYS4zeXnKQuJknfR2Lybj3O2UC2XYhSZ8ZMvYF7kPBKlJRwp38TWtha8PJSEiaLQqfWkJCxnuv4If25wZ1xMBisjIxCrszhdvoWtleU0ulpwkbiT7vUA86NUqHoOcW+hiWviJnNnZCjq6s95P28bOyRTeWLq3UzycMNVZKS5aRtbindzUt+JTqRGTCITgm9mWYg3DQ2n+KDEwC2zFhNv6cG9fRO/yakhJu5Gbk2YTIiQEqAPQLCYm2lp/pTPCnIpQIdeoiVGcRtzIueQrpLQ1biP7eU7+KxHi5dYCpYErk2+lZnuHdQVPkehYhUTYpeQ5g3dDdv5ovAD3tVEcnv0fdwQHX4hiqG7PZP3T+WhCJ1AiuwghVX5GMOeZEW0LxJjCfsy/0JnwMPMi46i4OTPqZAvITVmJh2VH7G5vB5F3O0s9q2jqXQzdWFvMUu+gz3F2zht1iBSpJPqYqbGKAOPGdwf0ERZyfMUB7zCbfHJBAgmBqsBfU8um8+s5eOGGno8Ygh37U0f4yUPYlbATbg07MIQchvXhEbj69JJa+Nx9lQd4Ki6HsHY5CoKJFW1kmVxY3Dp2M/64jaikmYzTRmEl6WLpuqv+PTcXr42CHPogr8xjg6XdP5n+jwChDwI9jBHSxd19YfZUrGX/YZ2XMxg0gYwe8wqFvq70312NV9JHmRyzCySLEfZXX6AA11taMQgF8eTGHEbt0cE0l37NU9WWFmZOoOprhI6y5/nmzYRbhGPsDrMQlHVQbbVipkyfg4xmiIOlH7EPm0zarGJHmMkyf5LWBOXirxzJ0dz/o04cR1zQv3xlxWzcc8mTAGzmRQVQFH++2yr0+A/6g7WxCUTeVkUw8UY8f4rljq6HQ0XIAh6pb88CMNhL3Sacgoyl7Jb8WdmxUwnsOmPbGkLRxX5M26PlFJb+zmHz75LV9RbXONXQ0Xhc5T6/YlpQVYqSj5gW4uChOjxxKAht82La9OSCdce5h9Z26iWuYMsnRmyeo7pw4kJzWARuyisr0YW9wqLAq0obAyCFV33YT4+/TKftfag8AxGKe+V11D3sYyRxuHe+DkuyX9iYlAIvi49VFV+ze6aI5zUtaBDjafLKNKD7mK+0kJH4yHuqQrk2QmTyfD1QSHRUntuPe9WHiPTpCNR6oGHMZY2+TjuS59Agh0gCFEMQtRN5S4+qT9Bpq4NmUFIgpbOrJSbyZAUU1jwIRX+T3FdmAJj6zZ2VmSSbdSgMYPCJYmMuJu51l+MqHozv2yO4c7kKczy9+fcmfvY2ZNCdPS9LPCp4eS5TLbWK7hxcgaBmny25bxKtosrPWJo0cYzL2ghN0XHYG0TLlmNSKKfYVmwhrb2Y+zK3IM8+aeM86zj9NkP2NUTSHryrdxyIYrBgMlQx9mC9bzbWU6XyIBUF0dc5HwWRyQTay7mdPkmtlSfplkhwwUPPH3u5564aFSGHN7MOktM0nzmRI0iiC6KSz9ic94O8pQruDN2IoH642zN30qFVIJOZATrWOZF3cSCsEhkXUfZXrqVD7raCVdAmDmaGlMq906ZS4qnYIrpP7mUnUUTWDIhj46Liz3dVS8xMxwZtz9b9L3XYhBZ0eoaqO7uQu4RSZDCDZmo144iEukxmpuoaW9B6plCiEJPe+sJCg0G2jQd5BR+hVfYKuYnXkusqJzyzlLKTRIUYiVhCh9MRheCBTrX0EKx2oSPmx9KcxXNGi1WtySihIxnlk6a2gqwuCaiVFgpP/EhZR4TiI8WhP5iNjOjvpGW7mpqSSLRW46bS28FMnVHFkU99dSawSoOJtA9ngneHojFgt22g5bm4xSaTGiREuCWQoxHMD6SHlrVlRR319AjUqBUxOBl0uPmEYSrupZSiysq70Ai3NyQoKOrp4Ky1hLqbCF37sT7TSdMIUFqaOREtxWVh58tk5lVU0dVTyv1YiUpymC8xWIbqheyDTa0ZlOkbqEbEV6KeGK84gmT6+nStFHZbSHYPxCpug5q/8MDdaksSpzFLRGhNjvlpYJlwWxpp7wxhwqDGi0Q4p5GtEcIPjIRYlMX9T3lnOyuwSryxFUWx3i/AFzR0N1VSI8kEl9hDqRg1jVR3VVCvtaAUpZMstIPd6kNkWAytFHZ3oVI4YOnqIkebTe4pRDuIUVk6aG5rRCjPB6Vmytd7afQSELw8QzEoimlvKMDrWs0Me5WTD116FwnECxvp72jkFJdB2qCiXDzQSJ2QWt2JdJFg8VYSY8ijXAPb+QSkc3MYTK0UtFeTKWuDY2d/gTkEg8iPVJRGNqRuAUT4OaOTGwFUxc1nSWU9TTQBbi5qIj2GkO0hwKjvonqbgNuXgEo5QpcrBb0PY2c6yzjnLkDhcSNQFkMEpEbUUqVTQkIzI0dYFsNbVR1lVGgacJgkSMTxzAmMASliwVd+3HqRfH4ewShdFFT01FCSVctXcjxcY0iwS+eQBfB0bKRXDWEeyvxNBsxaYppt0pxcUsgwhW6NS3UacHPR4WXyEJP1xny1c10CK4vLlFEecUxyl2KXltLS2cZEq+pqNxkyMU91DbVYZGr8HVXoO4spLJbi8UjntF+KrzFkkuS/vy35UEwm3robDlEoySFAE8VCn0BdQZX5O6xRLiJ0GpraWo7h9ollTBPwSG7GLUsGX9XEbruIkq7zcjdAlDJXNAYpQT7+eFBJxUNZ6k0mVFbgxntoaDHKsdV4UMgTfTo1Ig90gmSC3LSS4dbTE2c6yilSteBro//hptYSYA4CD9xN1LfBHzlCoScYWZDE+XtxZRrWtGJRPi4RhLrPZYAiRqNtpksjZwkH1/8pVKkEglmXQOFgrzq2vCVqvBzCcdidSHC1xdP2cXLlK1rXSMFgrx2NWCxeBHim0iKKgS5sZWOrkrUsiQChYPV3ExtZxkVunbUuOEnyKtPJH5iPQZ1DWf1HkT5KAmQyVB3nKTB5I27ezQBLmraetqo14kJV4XggRYhM2uO3kSXxQWkCcTJ/Yl2d8FsrqdNq0fknkKIqxmDvpX6lkbE3jH4y/V0dxRRpnHBwzuWBB8/XM9fiAR/K52mglPd1XSYhBmNIME/igg3D2RWE1pNJVWCrJtB6uJLtPc0wl0tWI2t5Nc34e0XSoi3LwrMqHvKqeoop1YUTIJPNP4SLV1tJykyGejBBS95IgneYQTKxVgMXdR3nyNbXYdELCNYHoPI6k6EnxJ3iWDmc5zB+KrWYvjeAYLNKe28Dea8GrHbUYQDWKGQC3mP0HbnkVvxDm+3d2CwGBEZ1bhLFrAw/jqmBYfi4yJYcfocZvRm57KH/QhtvZnBzLYDTyQS98neJbRaMJu7yT6xB61vHDERowhyvQgQ7AjMLHjzn6d+e5/d228vwuq15zlqF27jvTckIXGv/XP+ORYranUPcoUrMmnf25UVi11obdknXS4oXPszhMQeQt9Cg7iPQrb3IDBBwpsK8fwisRAnfTHtsG1+1eWcKXqb98u78Ru9mtuiUhjr3ltHvT/keXHUveO+OC5hPfu2irBcyHwppIq9POmwFaPJhF6nR/B16ZvhzraetnFZbLkFJOK+ZXKFue71jRD6u7ie9r6FQ16gCoUEXHZZsOXQ6vMR2SoqmoxGPDwEb4++s2L3GbGct+Nflqb5Qt+9joQXw8t6+7+YeU+M5IKM98qgfU6FvoW5tZWjtTX0tg6cwa6vjPeVM9sM9DmEzTZ5Ef7yrYye55+v0WqQiMTIFQIE7CMLfeTM5g9yybDtc9o75zY5uwCcetejlz3sXa/+5FCYl/82gNC7P74tZ32lyWw2odZocXfrlfGL69XrByCsl9juM2KXEUGSzsvZxb0rtqX87v2ILkkL/O316v1XQrpjk9GEu7vgTHKpHAvv3dt3P3pBGNf5PAn2fdl3Z/eOu1ef2WW87+6yZwu1ZVJ0dbWN77z0296jbwppQV7sY7Jpw2/N6UVdK8zrJVkBJXYAeqnesWULPX+G2J/dV58J/927P+x6oXfF7PpOaJdIxN/SGXZdK3xP8PG5+Dmff+J8JkWZXN5Hj59/t/Pr2ZsVs++zv933pet58dm959e3s08K72HPFiqUCbiSDMIPnyipzzRfChB6DynBzldSu4kvuroxWa1IJW6kqG4iQxVPYO8/sX2GTqMIDoZayqtrkcg9Ufn64S4XlOe3n31RsC7dbH0FaygpOoXv9/T02A6M77uQjVZTQ2HlV+zURDI3YRLJnj7YfNOGNae93x+p5jhSzdG+i/57AYLdqa0vWLyoO4Q9IJhWBH+uK5kj35nOEd5gMAXJnEWGDKWwkNC3AIIvplq+HJz0XmocmaEH0rWOUl/bZ915quXLwf2l+k74v/7G7axvYUx2EDxQsSb7uC45YK6Arv0/CxD6TqSjlKpDBwgXe7gqeeovuVX2j/5+SIBgT0MrKDBn+cEvF2pnG2YEIIwAhBGAMAIQBqrnMwIQvn0JHU6ysKtqYugvD8LlYY7OUOt3aR8ImdrL0dro18s+gy3W5OwWb68Udvnzr0axJqEPZwep/XZ1pRmEvk6jjip1CWi/vxjxvu/d35w5G5czgOAoR76jZ38XORvohiSMWSiH6+FxadXQwTraDoZNGkjG+1ZzvFx5XgkZH+jdhL8PFQQPVxaE7ztzUhzqzc3RxcHOZNnDHB3d4r+rjDuTQ3vfA5V7vtoyPhCD4EwvOBvXYNrt1RwFvXIlAYKzvu0y3mumvvQMcfbdS00Mfc2avSeFM31nl3GB5h+oIvBwZXw4JoahsDIXLt4/RB6E/mgWYSMLkyB4HA90Y3UaIXGJfWhwiyv8q/7yIAh/d8ZODFewhO8PutzzZZMyGKEdiM7rqzz7y3nhbNzO+h4MQBgMOLm84pv9vQdzSA8EEARwIPxc3VDe/oo999KvwmeoMj6UjW4XG2cyPtQ5dSYLQvtA5Z6HK2fOAILQfjXyIDg7cOxyak/S9H2bGK6EjA/VxHBpuefv18Rgv2T2t78GC8CHamK4WO7526W/e/2mBlfueaCz778mD8JQBWswynMoz3amhOwAQXh2f/YjW03sARxEnD3bmQKzAwRBoPtzMBHahytYzmLE+0P69nE5s1M6ah/ove2I3FmGu6H03feG1J+sCH1fCeU50Ls5khWhb2cyPtS1diaHjkCwfT2G2vdwZPxq930lAIKztR6IlbSzZAIAvxzoXon9JTxjKDI+2L6HomuF9ezLIPR32DnSC8PRtXYZd3bJHGhcjnStMxAsfPdqA4SrkUlxMLLwnfMgDCSU9kl01O5IOByhP0cIzI7Wh3qIC98fyMQw3Gc7WwChXXBuEQ7pywHC1VaewmYUDixHDMJQDmln7933dvVDKM+r5cA1mHELMi58+jOjDeeWMViA4Eh5OgIIg1GejhTYcB24HD1bmDdHcuoMiDqiboU5cQQA7G2XU+l2WRDYwcsjdYQ2Z3rBGehypmttUQwmU78s2WD6HuohbgfBQh/fVcaHq2vtelyQBUcM3VAAgrP95YgJdqYXBrMejphgoW2gVMuDnVNH++f7z4PQjxnAPsj+7Ef2CR5okpwtnjP050iwnFGJztqd9S18/4eKYhhxUrzUB8GZnDlrdyaHQrudQRhIeTqTcbviHsi2O9Bh90PKuN3PRlDaA9lnh+Og5Uh5OvJ1cbZew/ETsCvmkSiG79fEMBLFcOUSJV3YHz9UHoS+9NMIQPj+wxxHAMIIQOh7mx0IfAwXBI8AhJEwR7uud8SMDFfO7CD4h3BStDPBAggeCXO8JElM79I7W1xnaH0EIIwAhMuVSH+3ysHK2UCHnZ0C7S+KwRlD4Kx9MDI+wiBcrHXSV2+MMAh9r0uOvead7QHhSVfLjOZMxu37SwACVzqKwRkbOwIQ/o8lSuq7ZQaDPIeqZH5I+nXExKD4lqPVcKjdwSjPgcIcnQEAZ+3OlOeIiWHExGDXac5kZTh7YAQgfP9hjiMMQp9Y0KEkuXC2IUYYhBEGYYRBuPpZ5vpz4HIGqpy1O7vZjZgYRkwMIyaGqxfmKOyvq5ooSavVXkhXL1BTgm36cnpIUBLCj/Dpz6u3b3t/seuDaRf6Fp59uSOT/eY2UN/O2p31bafFhPfuL93xcMZt90wfyBPa2eLa+3Y0p46e7WjOhHUWqHbBbna505uzObO3D6dvYb2FvvsLARto3N9FDgd6N2HMgoe34F3e9/Ndnj1UGRf6Fj7fVca/y7sNNG6BOfkhZFx4d3sehO8aymvfP3aT0aVEvL0ux8CRBsL3BTkT5tuRnDnSaUOVcfveHqiS5NWWcbseH8qcDVXP29kLYWzCnA+kV5ydIc7a+9t/Qt+Ocn0MR48PRt8J+0uQ76H4IDjS887OEDszKfTbX76N4Yxb6Fuk0WguAQjCHy8/NIaroJxtdOH5QwUIw323vgBBWOC+Qj2cZzv7rh3YOEJ/jhbX2Zw6Eyw7QHCmPPvbjI76Hsy4hb4HAgh9n325onD2bGftwpzbAcJwQHB/CszZegjvJvQt/B4oDGswitmZ8nQEEPoD4M7mzFG7s+9+XzLuCEAMFyD0tybfZdz9AYTvS8YvB8HOLlPO2gdzcbDLeH8AYTh6YzBzbk+211+0zGAPyu+qc+xzNhBAcPbezvSGs/YrBRAGGvdImOMw0tAKi2NfQGdpnge6dY6EOV6a2nQ49ldn62EHgyNOihfvlc7mzFn7iIlhpFhTX5ZipFjT95tJ0RkLbWMBHFSCFPa3I4fwEYAwAhBGijWd13COnGHtNwVhQw0l5bcd6QvPGcmD0DvhdvAxFAXmbD2E9pE8CO6XWxj6lFzuH9jY98BQMymOAIQRgDDggWKn+vqzPTlCMoKicFSsaSSKYWgFRAY6zPoqz5Fqjhd16AhA+PahMcIgfLsSq7M5se+vkURJI4mS+pptBmKRh3rLH4wJb6jPvgDeRxIlDb3SnTNF4Yx+Fb4/YmIYMTE4uw0PV86E5w+1muNw+xb2gD3V8kgmxeEzJ87WQ+hhJA/C91vNUViT4aYTHw6LdlWjGAYDEPoK5VAS2NgPSkF4/38t9yygu8sda5xtxr7jupx2djZn9kNBAAiCM1F/ERQD+TfYHV+c2Y/sDlb9IVdHxWT6Apv+nN7sldHsbZc7djryyxDeSYgiEIS6vzz1g/VBGIocOvJB+C5z6sjfxJGMC/Sr0E9/SWQGW23OWd8D5VUfKkC4EjLuDCAMNGfO9EZfOXQk48J8D1RRcSDW09EecKYX+jIIgoxfHr1xtWX8apV7diQLdpPR1Sr37KxvoX+BsRHkYDjlnvvT43bd4OgQt1flHWq554Hk0JmMD8YHYTgyLjKbzReiGAQFJrzQ5QV8nB12zjbMYG7SjrLMXQnl2d9hZieX7crzSgIEu5JwdEgL8yIIVn8pOoczp87Wy/5uQy25PFgFN9Bh5cg2PNhnDxUgfB/KcyAQ3Lea4+VmuMGY0Yay0S+X8csjKAYrZ/31PRg5G6yMD6XMrjPlaS9INlCooZ1+HSgqxQ7A+/PwdgaChb4FvfJDgODBMAhD2T/ODmlhvn5IgHAlajEMFSDYqzkOByAMZQ8MBiAMdPYNRteKTCbTJWGO9hjxgRTYUATLmTOS3YFLeLajSlxDcQ5zBk4ExecoftaRIhisch0IeQrftyNPRwzCUAXHmQ+Cs2qOQ6W9HAG64YATZ/PtrF3oezjlngcDVAeaMzt7IfweqowPBiAMJUb8asq48Gx7HoSBZHyocuYIVNkZOkHGB8q3MVz77EDrYZdxeyXJgdiLoYz7asu4fU6H46QovGN/+VWuFAh2JOP9nSHO5qxv+1B0rfD9q13u2dEZMlA1R2fn7qAAgsViuYRBsJcJ/a4AwU7DDOUQd2QjtW/0gQ674UxC39uVIBiO0N9QxjUYBWYv9/xdTAx958SZknF0ix+IQRjOnDrbjHYTgx2c9JfAZjCK29F6OFLcwg1H+PHwGLhY01Dm1Nmc2YGo8HuoUQxDuQkMl0Fwtp7OALgzBmE4emMw+2s45Z7tDMJAMuoMIAyFQXC2t52th/D9oTIIw9W1dhAsrMuVNqMNZn8NxCAMdlxDBeCOZLwvkzwU0OVsf9nBiXB2OTJlOWPJBjLRjYQ5/oAOXMLijjgpjjgpXm0F5giAOztwnLU7U2BCuzMfBGeAzKIG2QsAAACOSURBVFn7UExZzg6cwdyunAGEkSiGkSgG+962y4odsNt/D0cO7c/+wZ0Uh6vAnE2C0D4S5nhp/OxwaS9nt6uRcs8j5Z6Ffe0MADhrHwEII4mS+h56I3kQRvIgjORBOL8jhqs8RxiEkWqOduV6te2zQ41iGK6MjzAII8Wavk8ZF9im4UQxDNUH4b81zPH/AUsBwrSo9AAVAAAAAElFTkSuQmCC;" vertex="1" parent="1"><mxGeometry x="73.0000244140625" y="52.999975585937506" width="520" height="413" as="geometry"/></mxCell></root></mxGraphModel></diagram></mxfile>